<?xml version="1.0" encoding="UTF-8" standalone="no"?>
<!DOCTYPE svg PUBLIC "-//W3C//DTD SVG 1.1//EN"
 "http://www.w3.org/Graphics/SVG/1.1/DTD/svg11.dtd">
<!-- Generated by graphviz version 2.40.1 (20161225.0304)
 -->
<!-- Title: zperf_protocol Pages: 1 -->
<svg width="1345pt" height="960pt"
 viewBox="0.00 0.00 1344.50 960.39" xmlns="http://www.w3.org/2000/svg" xmlns:xlink="http://www.w3.org/1999/xlink">
<g id="graph0" class="graph" transform="scale(1 1) rotate(0) translate(4 956.3922)">
<title>zperf_protocol</title>
<polygon fill="#ffffff" stroke="transparent" points="-4,4 -4,-956.3922 1340.5,-956.3922 1340.5,4 -4,4"/>
<text text-anchor="middle" x="668.25" y="-937.1922" font-family="Times,serif" font-size="14.00" fill="#000000">zperf_server and zperf_msg</text>
<!-- s_start -->
<g id="node1" class="node">
<title>s_start</title>
<ellipse fill="none" stroke="#000000" cx="407" cy="-689" rx="25.9957" ry="25.9957"/>
<ellipse fill="none" stroke="#000000" cx="407" cy="-689" rx="29.9954" ry="29.9954"/>
<text text-anchor="middle" x="407" y="-685.3" font-family="Times,serif" font-size="14.00" fill="#000000">start</text>
</g>
<!-- s_defaults -->
<g id="node4" class="node">
<title>s_defaults</title>
<ellipse fill="none" stroke="#000000" cx="407" cy="-412" rx="38.2082" ry="38.2082"/>
<ellipse fill="none" stroke="#000000" cx="407" cy="-412" rx="42.1937" ry="42.1937"/>
<text text-anchor="middle" x="407" y="-408.3" font-family="Times,serif" font-size="14.00" fill="#000000">defaults</text>
</g>
<!-- s_start&#45;&gt;s_defaults -->
<g id="edge1" class="edge">
<title>s_start&#45;&gt;s_defaults</title>
<path fill="none" stroke="#000000" stroke-dasharray="5,2" d="M407,-658.8288C407,-612.3636 407,-522.6505 407,-465.1348"/>
<polygon fill="none" stroke="#000000" points="410.5001,-464.7877 407,-454.7878 403.5001,-464.7878 410.5001,-464.7877"/>
</g>
<!-- m_start_hello -->
<g id="node5" class="node">
<title>m_start_hello</title>
<polygon fill="#ffffff" stroke="transparent" points="561,-370.5 561,-453.5 681,-453.5 681,-370.5 561,-370.5"/>
<path fill="#c0c0c0" stroke="transparent" d="M573.6667,-425C573.6667,-425 668.3333,-425 668.3333,-425 672.1667,-425 676,-428.8333 676,-432.6667 676,-432.6667 676,-440.3333 676,-440.3333 676,-444.1667 672.1667,-448 668.3333,-448 668.3333,-448 573.6667,-448 573.6667,-448 569.8333,-448 566,-444.1667 566,-440.3333 566,-440.3333 566,-432.6667 566,-432.6667 566,-428.8333 569.8333,-425 573.6667,-425"/>
<path fill="none" stroke="#000000" d="M573.6667,-425C573.6667,-425 668.3333,-425 668.3333,-425 672.1667,-425 676,-428.8333 676,-432.6667 676,-432.6667 676,-440.3333 676,-440.3333 676,-444.1667 672.1667,-448 668.3333,-448 668.3333,-448 573.6667,-448 573.6667,-448 569.8333,-448 566,-444.1667 566,-440.3333 566,-440.3333 566,-432.6667 566,-432.6667 566,-428.8333 569.8333,-425 573.6667,-425"/>
<text text-anchor="start" x="607" y="-432.8" font-family="Times,serif" font-size="14.00" fill="#000000">hello</text>
<polygon fill="#c0c0c0" stroke="transparent" points="566,-400 566,-421 626,-421 626,-400 566,-400"/>
<text text-anchor="start" x="569" y="-406.8" font-family="Times,serif" font-size="14.00" fill="#000000">nickname</text>
<polygon fill="#c0c0c0" stroke="transparent" points="630,-400 630,-421 676,-421 676,-400 630,-400"/>
<text text-anchor="start" x="633" y="-406.8" font-family="Times,serif" font-size="14.00" fill="#000000">[string]</text>
<text text-anchor="start" x="578.5" y="-381.8" font-family="Times,serif" font-size="14.00" fill="#000000">send (hello_ok)</text>
<polygon fill="none" stroke="#000000" points="561,-370.5 561,-453.5 681,-453.5 681,-370.5 561,-370.5"/>
</g>
<!-- s_start&#45;&gt;m_start_hello -->
<g id="edge4" class="edge">
<title>s_start&#45;&gt;m_start_hello</title>
<path fill="none" stroke="#000000" d="M413.4377,-659.3625C419.2796,-636.6631 429.3985,-605.2335 445,-581 473.6737,-536.4619 516.3266,-495.1125 552.4614,-464.4628"/>
<polygon fill="#000000" stroke="#000000" points="555.1215,-466.8003 560.5394,-457.6956 550.6262,-461.4344 555.1215,-466.8003"/>
</g>
<!-- s_connected -->
<g id="node2" class="node">
<title>s_connected</title>
<ellipse fill="none" stroke="#000000" cx="678" cy="-689" rx="46.2806" ry="46.2806"/>
<ellipse fill="none" stroke="#000000" cx="678" cy="-689" rx="50.2922" ry="50.2922"/>
<text text-anchor="middle" x="678" y="-685.3" font-family="Times,serif" font-size="14.00" fill="#000000">connected</text>
</g>
<!-- s_connected&#45;&gt;s_defaults -->
<g id="edge2" class="edge">
<title>s_connected&#45;&gt;s_defaults</title>
<path fill="none" stroke="#000000" stroke-dasharray="5,2" d="M659.7442,-642.2383C649.8359,-621.4786 635.9092,-597.9618 618,-581 591.4453,-555.8499 573.9428,-566.0026 544,-545 505.6739,-518.1171 467.9414,-480.4198 441.8109,-452.0206"/>
<polygon fill="none" stroke="#000000" points="444.078,-449.3117 434.7576,-444.2738 438.902,-454.0244 444.078,-449.3117"/>
</g>
<!-- s_connected&#45;&gt;m_start_hello -->
<g id="edge5" class="edge">
<title>s_connected&#45;&gt;m_start_hello</title>
<path fill="none" stroke="#000000" d="M665.8172,-629.7958C655.2089,-578.2432 640.052,-504.5863 630.369,-457.53"/>
<polygon fill="#000000" stroke="#000000" points="662.4314,-630.7078 667.8752,-639.7971 669.2878,-629.2969 662.4314,-630.7078"/>
</g>
<!-- m_connected_create -->
<g id="node6" class="node">
<title>m_connected_create</title>
<polygon fill="#ffffff" stroke="transparent" points="715,-358 715,-466 835,-466 835,-358 715,-358"/>
<path fill="#c0c0c0" stroke="transparent" d="M727.6667,-438C727.6667,-438 822.3333,-438 822.3333,-438 826.1667,-438 830,-441.8333 830,-445.6667 830,-445.6667 830,-453.3333 830,-453.3333 830,-457.1667 826.1667,-461 822.3333,-461 822.3333,-461 727.6667,-461 727.6667,-461 723.8333,-461 720,-457.1667 720,-453.3333 720,-453.3333 720,-445.6667 720,-445.6667 720,-441.8333 723.8333,-438 727.6667,-438"/>
<path fill="none" stroke="#000000" d="M727.6667,-438C727.6667,-438 822.3333,-438 822.3333,-438 826.1667,-438 830,-441.8333 830,-445.6667 830,-445.6667 830,-453.3333 830,-453.3333 830,-457.1667 826.1667,-461 822.3333,-461 822.3333,-461 727.6667,-461 727.6667,-461 723.8333,-461 720,-457.1667 720,-453.3333 720,-453.3333 720,-445.6667 720,-445.6667 720,-441.8333 723.8333,-438 727.6667,-438"/>
<text text-anchor="start" x="758.5" y="-445.8" font-family="Times,serif" font-size="14.00" fill="#000000">create</text>
<polygon fill="#c0c0c0" stroke="transparent" points="720,-413 720,-434 755,-434 755,-413 720,-413"/>
<text text-anchor="start" x="723" y="-419.8" font-family="Times,serif" font-size="14.00" fill="#000000">stype</text>
<polygon fill="#c0c0c0" stroke="transparent" points="759,-413 759,-434 830,-434 830,-413 759,-413"/>
<text text-anchor="start" x="762" y="-419.8" font-family="Times,serif" font-size="14.00" fill="#000000">[number*4]</text>
<text text-anchor="start" x="746" y="-394.8" font-family="Times,serif" font-size="14.00" fill="#000000">create perf</text>
<text text-anchor="start" x="735" y="-369.8" font-family="Times,serif" font-size="14.00" fill="#000000">send (perf_ok)</text>
<polygon fill="none" stroke="#000000" points="715,-358 715,-466 835,-466 835,-358 715,-358"/>
</g>
<!-- s_connected&#45;&gt;m_connected_create -->
<g id="edge7" class="edge">
<title>s_connected&#45;&gt;m_connected_create</title>
<path fill="none" stroke="#000000" d="M694.6749,-641.382C710.2974,-596.7692 733.8076,-529.6318 751.3619,-479.5025"/>
<polygon fill="#000000" stroke="#000000" points="754.6763,-480.6275 754.6781,-470.0327 748.0697,-478.314 754.6763,-480.6275"/>
</g>
<!-- m_connected_lookup -->
<g id="node7" class="node">
<title>m_connected_lookup</title>
<polygon fill="#ffffff" stroke="transparent" points="869.5,-358 869.5,-466 988.5,-466 988.5,-358 869.5,-358"/>
<path fill="#c0c0c0" stroke="transparent" d="M882.6667,-438C882.6667,-438 976.3333,-438 976.3333,-438 980.1667,-438 984,-441.8333 984,-445.6667 984,-445.6667 984,-453.3333 984,-453.3333 984,-457.1667 980.1667,-461 976.3333,-461 976.3333,-461 882.6667,-461 882.6667,-461 878.8333,-461 875,-457.1667 875,-453.3333 875,-453.3333 875,-445.6667 875,-445.6667 875,-441.8333 878.8333,-438 882.6667,-438"/>
<path fill="none" stroke="#000000" d="M882.6667,-438C882.6667,-438 976.3333,-438 976.3333,-438 980.1667,-438 984,-441.8333 984,-445.6667 984,-445.6667 984,-453.3333 984,-453.3333 984,-457.1667 980.1667,-461 976.3333,-461 976.3333,-461 882.6667,-461 882.6667,-461 878.8333,-461 875,-457.1667 875,-453.3333 875,-453.3333 875,-445.6667 875,-445.6667 875,-441.8333 878.8333,-438 882.6667,-438"/>
<text text-anchor="start" x="910.5" y="-445.8" font-family="Times,serif" font-size="14.00" fill="#000000">lookup</text>
<polygon fill="#c0c0c0" stroke="transparent" points="875,-413 875,-434 909,-434 909,-413 875,-413"/>
<text text-anchor="start" x="878" y="-419.8" font-family="Times,serif" font-size="14.00" fill="#000000">ident</text>
<polygon fill="#c0c0c0" stroke="transparent" points="913,-413 913,-434 984,-434 984,-413 913,-413"/>
<text text-anchor="start" x="916" y="-419.8" font-family="Times,serif" font-size="14.00" fill="#000000">[number*8]</text>
<text text-anchor="start" x="897.5" y="-394.8" font-family="Times,serif" font-size="14.00" fill="#000000">lookup perf</text>
<text text-anchor="start" x="889.5" y="-369.8" font-family="Times,serif" font-size="14.00" fill="#000000">send (perf_ok)</text>
<polygon fill="none" stroke="#000000" points="869.5,-358 869.5,-466 988.5,-466 988.5,-358 869.5,-358"/>
</g>
<!-- s_connected&#45;&gt;m_connected_lookup -->
<g id="edge10" class="edge">
<title>s_connected&#45;&gt;m_connected_lookup</title>
<path fill="none" stroke="#000000" d="M694.4453,-641.5329C703.9294,-620.3688 717.8397,-596.7202 737,-581 778.4046,-547.0293 810.1774,-578.4546 852,-545 873.5232,-527.7832 890.2142,-502.8045 902.4682,-479.1315"/>
<polygon fill="#000000" stroke="#000000" points="905.6206,-480.6528 906.9482,-470.1414 899.3554,-477.5306 905.6206,-480.6528"/>
</g>
<!-- s_have_perf -->
<g id="node3" class="node">
<title>s_have_perf</title>
<ellipse fill="none" stroke="#000000" cx="823" cy="-881.1961" rx="44.3766" ry="44.3766"/>
<ellipse fill="none" stroke="#000000" cx="823" cy="-881.1961" rx="48.393" ry="48.393"/>
<text text-anchor="middle" x="823" y="-877.4961" font-family="Times,serif" font-size="14.00" fill="#000000">have perf</text>
</g>
<!-- s_have_perf&#45;&gt;s_connected -->
<g id="edge3" class="edge">
<title>s_have_perf&#45;&gt;s_connected</title>
<path fill="none" stroke="#000000" stroke-dasharray="5,2" d="M786.2444,-849.7487C770.0041,-834.7651 751.3775,-815.9915 737,-797 724.6456,-780.6807 713.2752,-761.451 703.8826,-743.7745"/>
<polygon fill="none" stroke="#000000" points="706.8787,-741.9498 699.1564,-734.696 700.6697,-745.1823 706.8787,-741.9498"/>
</g>
<!-- s_have_perf&#45;&gt;m_connected_create -->
<g id="edge8" class="edge">
<title>s_have_perf&#45;&gt;m_connected_create</title>
<path fill="none" stroke="#000000" d="M870.482,-846.7112C885.395,-833.0868 900.0351,-816.1006 908,-797 944.9482,-708.3951 954.0021,-665.2604 908,-581 893.8217,-555.0301 872.4295,-566.4031 852,-545 831.2752,-523.2874 813.8953,-494.9733 800.9229,-470.053"/>
<polygon fill="#000000" stroke="#000000" points="867.9163,-844.3053 862.6925,-853.5228 872.5243,-849.5748 867.9163,-844.3053"/>
</g>
<!-- s_have_perf&#45;&gt;m_connected_lookup -->
<g id="edge11" class="edge">
<title>s_have_perf&#45;&gt;m_connected_lookup</title>
<path fill="none" stroke="#000000" d="M876.0163,-856.6948C899.5464,-842.7907 924.8489,-822.9275 938,-797 991.3055,-691.9079 966.9458,-549.0327 946.5955,-470.2136"/>
<polygon fill="#000000" stroke="#000000" points="874.0936,-853.7613 867.114,-861.7322 877.5409,-859.8536 874.0936,-853.7613"/>
</g>
<!-- m_have_perf_socket -->
<g id="node8" class="node">
<title>m_have_perf_socket</title>
<polygon fill="#ffffff" stroke="transparent" points="462.5,-610 462.5,-768 601.5,-768 601.5,-610 462.5,-610"/>
<path fill="#c0c0c0" stroke="transparent" d="M475.6667,-740C475.6667,-740 589.3333,-740 589.3333,-740 593.1667,-740 597,-743.8333 597,-747.6667 597,-747.6667 597,-755.3333 597,-755.3333 597,-759.1667 593.1667,-763 589.3333,-763 589.3333,-763 475.6667,-763 475.6667,-763 471.8333,-763 468,-759.1667 468,-755.3333 468,-755.3333 468,-747.6667 468,-747.6667 468,-743.8333 471.8333,-740 475.6667,-740"/>
<path fill="none" stroke="#000000" d="M475.6667,-740C475.6667,-740 589.3333,-740 589.3333,-740 593.1667,-740 597,-743.8333 597,-747.6667 597,-747.6667 597,-755.3333 597,-755.3333 597,-759.1667 593.1667,-763 589.3333,-763 589.3333,-763 475.6667,-763 475.6667,-763 471.8333,-763 468,-759.1667 468,-755.3333 468,-755.3333 468,-747.6667 468,-747.6667 468,-743.8333 471.8333,-740 475.6667,-740"/>
<text text-anchor="start" x="515" y="-747.8" font-family="Times,serif" font-size="14.00" fill="#000000">socket</text>
<polygon fill="#c0c0c0" stroke="transparent" points="468,-715 468,-736 522,-736 522,-715 468,-715"/>
<text text-anchor="start" x="491" y="-721.8" font-family="Times,serif" font-size="14.00" fill="#000000">ident</text>
<polygon fill="#c0c0c0" stroke="transparent" points="526,-715 526,-736 597,-736 597,-715 526,-715"/>
<text text-anchor="start" x="529" y="-721.8" font-family="Times,serif" font-size="14.00" fill="#000000">[number*8]</text>
<polygon fill="#c0c0c0" stroke="transparent" points="468,-690 468,-711 522,-711 522,-690 468,-690"/>
<text text-anchor="start" x="494" y="-696.8" font-family="Times,serif" font-size="14.00" fill="#000000">borc</text>
<polygon fill="#c0c0c0" stroke="transparent" points="526,-690 526,-711 597,-711 597,-690 526,-690"/>
<text text-anchor="start" x="529" y="-696.8" font-family="Times,serif" font-size="14.00" fill="#000000">[string]</text>
<polygon fill="#c0c0c0" stroke="transparent" points="468,-665 468,-686 522,-686 522,-665 468,-665"/>
<text text-anchor="start" x="471" y="-671.8" font-family="Times,serif" font-size="14.00" fill="#000000">endpoint</text>
<polygon fill="#c0c0c0" stroke="transparent" points="526,-665 526,-686 597,-686 597,-665 526,-665"/>
<text text-anchor="start" x="529" y="-671.8" font-family="Times,serif" font-size="14.00" fill="#000000">[string]</text>
<text text-anchor="start" x="500.5" y="-646.8" font-family="Times,serif" font-size="14.00" fill="#000000">lookup perf</text>
<text text-anchor="start" x="490" y="-621.8" font-family="Times,serif" font-size="14.00" fill="#000000">connect or bind</text>
<polygon fill="none" stroke="#000000" points="462.5,-610 462.5,-768 601.5,-768 601.5,-610 462.5,-610"/>
</g>
<!-- s_have_perf&#45;&gt;m_have_perf_socket -->
<g id="edge13" class="edge">
<title>s_have_perf&#45;&gt;m_have_perf_socket</title>
<path fill="none" stroke="#000000" d="M775.7607,-870.9692C729.8915,-858.5997 660.3233,-834.6287 610,-797 603.0704,-791.8184 596.3718,-785.9633 590.0009,-779.7259"/>
<polygon fill="#000000" stroke="#000000" points="592.1748,-776.9432 582.6784,-772.2455 587.1726,-781.8399 592.1748,-776.9432"/>
</g>
<!-- s_have_perf&#45;&gt;m_have_perf_socket -->
<g id="edge14" class="edge">
<title>s_have_perf&#45;&gt;m_have_perf_socket</title>
<path fill="none" stroke="#000000" d="M767.0418,-864.0492C725.8942,-850.4895 670.1852,-828.5435 628,-797 618.3588,-789.7909 609.1649,-781.2779 600.5443,-772.2455"/>
<polygon fill="#000000" stroke="#000000" points="766.0511,-867.4072 776.6428,-867.1493 768.2021,-860.7459 766.0511,-867.4072"/>
</g>
<!-- m_have_perf_socket_return -->
<g id="node9" class="node">
<title>m_have_perf_socket_return</title>
<polygon fill="#ffffff" stroke="transparent" points="238.5,-647.5 238.5,-730.5 351.5,-730.5 351.5,-647.5 238.5,-647.5"/>
<path fill="#e5e5e5" stroke="transparent" d="M251.6667,-702C251.6667,-702 339.3333,-702 339.3333,-702 343.1667,-702 347,-705.8333 347,-709.6667 347,-709.6667 347,-717.3333 347,-717.3333 347,-721.1667 343.1667,-725 339.3333,-725 339.3333,-725 251.6667,-725 251.6667,-725 247.8333,-725 244,-721.1667 244,-717.3333 244,-717.3333 244,-709.6667 244,-709.6667 244,-705.8333 247.8333,-702 251.6667,-702"/>
<path fill="none" stroke="#000000" d="M251.6667,-702C251.6667,-702 339.3333,-702 339.3333,-702 343.1667,-702 347,-705.8333 347,-709.6667 347,-709.6667 347,-717.3333 347,-717.3333 347,-721.1667 343.1667,-725 339.3333,-725 339.3333,-725 251.6667,-725 251.6667,-725 247.8333,-725 244,-721.1667 244,-717.3333 244,-717.3333 244,-709.6667 244,-709.6667 244,-705.8333 247.8333,-702 251.6667,-702"/>
<text text-anchor="start" x="260" y="-709.8" font-family="Times,serif" font-size="14.00" fill="#000000">socket return</text>
<text text-anchor="start" x="265" y="-683.8" font-family="Times,serif" font-size="14.00" fill="#000000">borc return</text>
<text text-anchor="start" x="249" y="-658.8" font-family="Times,serif" font-size="14.00" fill="#000000">send (socket_ok)</text>
<polygon fill="none" stroke="#000000" points="238.5,-647.5 238.5,-730.5 351.5,-730.5 351.5,-647.5 238.5,-647.5"/>
</g>
<!-- s_have_perf&#45;&gt;m_have_perf_socket_return -->
<g id="edge15" class="edge">
<title>s_have_perf&#45;&gt;m_have_perf_socket_return</title>
<path fill="none" stroke="#000000" d="M774.9003,-877.4357C670.3259,-868.106 426.7981,-841.3895 359,-797 339.0503,-783.9383 323.1565,-763.3338 311.9867,-743.6079"/>
<polygon fill="#000000" stroke="#000000" points="314.9915,-741.8047 307.1895,-734.6367 308.8186,-745.1056 314.9915,-741.8047"/>
</g>
<!-- s_have_perf&#45;&gt;m_have_perf_socket_return -->
<g id="edge16" class="edge">
<title>s_have_perf&#45;&gt;m_have_perf_socket_return</title>
<path fill="none" stroke="#000000" d="M764.5808,-875.4927C658.7076,-864.7137 440.5805,-838.6281 377,-797 353.995,-781.9379 336.3832,-756.8456 323.2651,-734.6367"/>
<polygon fill="#000000" stroke="#000000" points="764.4739,-878.9995 774.7742,-876.5186 765.1749,-872.0347 764.4739,-878.9995"/>
</g>
<!-- m_have_perf_measure -->
<g id="node10" class="node">
<title>m_have_perf_measure</title>
<polygon fill="#ffffff" stroke="transparent" points="754.5,-585 754.5,-793 891.5,-793 891.5,-585 754.5,-585"/>
<path fill="#c0c0c0" stroke="transparent" d="M767.6667,-765C767.6667,-765 879.3333,-765 879.3333,-765 883.1667,-765 887,-768.8333 887,-772.6667 887,-772.6667 887,-780.3333 887,-780.3333 887,-784.1667 883.1667,-788 879.3333,-788 879.3333,-788 767.6667,-788 767.6667,-788 763.8333,-788 760,-784.1667 760,-780.3333 760,-780.3333 760,-772.6667 760,-772.6667 760,-768.8333 763.8333,-765 767.6667,-765"/>
<path fill="none" stroke="#000000" d="M767.6667,-765C767.6667,-765 879.3333,-765 879.3333,-765 883.1667,-765 887,-768.8333 887,-772.6667 887,-772.6667 887,-780.3333 887,-780.3333 887,-784.1667 883.1667,-788 879.3333,-788 879.3333,-788 767.6667,-788 767.6667,-788 763.8333,-788 760,-784.1667 760,-780.3333 760,-780.3333 760,-772.6667 760,-772.6667 760,-768.8333 763.8333,-765 767.6667,-765"/>
<text text-anchor="start" x="800.5" y="-772.8" font-family="Times,serif" font-size="14.00" fill="#000000">measure</text>
<polygon fill="#c0c0c0" stroke="transparent" points="760,-740 760,-761 812,-761 812,-740 760,-740"/>
<text text-anchor="start" x="781" y="-746.8" font-family="Times,serif" font-size="14.00" fill="#000000">ident</text>
<polygon fill="#c0c0c0" stroke="transparent" points="816,-740 816,-761 887,-761 887,-740 816,-740"/>
<text text-anchor="start" x="819" y="-746.8" font-family="Times,serif" font-size="14.00" fill="#000000">[number*8]</text>
<polygon fill="#c0c0c0" stroke="transparent" points="760,-715 760,-736 812,-736 812,-715 760,-715"/>
<text text-anchor="start" x="763" y="-721.8" font-family="Times,serif" font-size="14.00" fill="#000000">measure</text>
<polygon fill="#c0c0c0" stroke="transparent" points="816,-715 816,-736 887,-736 887,-715 816,-715"/>
<text text-anchor="start" x="819" y="-721.8" font-family="Times,serif" font-size="14.00" fill="#000000">[string]</text>
<polygon fill="#c0c0c0" stroke="transparent" points="760,-690 760,-711 812,-711 812,-690 760,-690"/>
<text text-anchor="start" x="773" y="-696.8" font-family="Times,serif" font-size="14.00" fill="#000000">nmsgs</text>
<polygon fill="#c0c0c0" stroke="transparent" points="816,-690 816,-711 887,-711 887,-690 816,-690"/>
<text text-anchor="start" x="819" y="-696.8" font-family="Times,serif" font-size="14.00" fill="#000000">[number*4]</text>
<polygon fill="#c0c0c0" stroke="transparent" points="760,-665 760,-686 812,-686 812,-665 760,-665"/>
<text text-anchor="start" x="764" y="-671.8" font-family="Times,serif" font-size="14.00" fill="#000000">msgsize</text>
<polygon fill="#c0c0c0" stroke="transparent" points="816,-665 816,-686 887,-686 887,-665 816,-665"/>
<text text-anchor="start" x="819" y="-671.8" font-family="Times,serif" font-size="14.00" fill="#000000">[number*8]</text>
<polygon fill="#c0c0c0" stroke="transparent" points="760,-640 760,-661 812,-661 812,-640 760,-640"/>
<text text-anchor="start" x="766" y="-646.8" font-family="Times,serif" font-size="14.00" fill="#000000">timeout</text>
<polygon fill="#c0c0c0" stroke="transparent" points="816,-640 816,-661 887,-661 887,-640 816,-640"/>
<text text-anchor="start" x="819" y="-646.8" font-family="Times,serif" font-size="14.00" fill="#000000">[number*4]</text>
<text text-anchor="start" x="791.5" y="-621.8" font-family="Times,serif" font-size="14.00" fill="#000000">lookup perf</text>
<text text-anchor="start" x="787" y="-596.8" font-family="Times,serif" font-size="14.00" fill="#000000">start measure</text>
<polygon fill="none" stroke="#000000" points="754.5,-585 754.5,-793 891.5,-793 891.5,-585 754.5,-585"/>
</g>
<!-- s_have_perf&#45;&gt;m_have_perf_measure -->
<g id="edge18" class="edge">
<title>s_have_perf&#45;&gt;m_have_perf_measure</title>
<path fill="none" stroke="#000000" d="M817.0658,-833.1927C816.7666,-825.1143 816.5498,-816.425 816.4151,-807.4609"/>
<polygon fill="#000000" stroke="#000000" points="819.9125,-807.2004 816.2981,-797.2412 812.9129,-807.2806 819.9125,-807.2004"/>
</g>
<!-- s_have_perf&#45;&gt;m_have_perf_measure -->
<g id="edge19" class="edge">
<title>s_have_perf&#45;&gt;m_have_perf_measure</title>
<path fill="none" stroke="#000000" d="M829.2597,-823.0071C829.4842,-814.7605 829.6315,-806.0703 829.7019,-797.2412"/>
<polygon fill="#000000" stroke="#000000" points="825.7555,-823.0859 828.9342,-833.1927 832.7519,-823.3096 825.7555,-823.0859"/>
</g>
<!-- m_have_perf_measure_return -->
<g id="node11" class="node">
<title>m_have_perf_measure_return</title>
<polygon fill="#ffffff" stroke="transparent" points="1002,-660 1002,-718 1106,-718 1106,-660 1002,-660"/>
<path fill="#e5e5e5" stroke="transparent" d="M1014.6667,-690C1014.6667,-690 1093.3333,-690 1093.3333,-690 1097.1667,-690 1101,-693.8333 1101,-697.6667 1101,-697.6667 1101,-705.3333 1101,-705.3333 1101,-709.1667 1097.1667,-713 1093.3333,-713 1093.3333,-713 1014.6667,-713 1014.6667,-713 1010.8333,-713 1007,-709.1667 1007,-705.3333 1007,-705.3333 1007,-697.6667 1007,-697.6667 1007,-693.8333 1010.8333,-690 1014.6667,-690"/>
<path fill="none" stroke="#000000" d="M1014.6667,-690C1014.6667,-690 1093.3333,-690 1093.3333,-690 1097.1667,-690 1101,-693.8333 1101,-697.6667 1101,-697.6667 1101,-705.3333 1101,-705.3333 1101,-709.1667 1097.1667,-713 1093.3333,-713 1093.3333,-713 1014.6667,-713 1014.6667,-713 1010.8333,-713 1007,-709.1667 1007,-705.3333 1007,-705.3333 1007,-697.6667 1007,-697.6667 1007,-693.8333 1010.8333,-690 1014.6667,-690"/>
<text text-anchor="start" x="1013" y="-697.8" font-family="Times,serif" font-size="14.00" fill="#000000">measure return</text>
<text text-anchor="start" x="1020" y="-671.8" font-family="Times,serif" font-size="14.00" fill="#000000">send (result)</text>
<polygon fill="none" stroke="#000000" points="1002,-660 1002,-718 1106,-718 1106,-660 1002,-660"/>
</g>
<!-- s_have_perf&#45;&gt;m_have_perf_measure_return -->
<g id="edge20" class="edge">
<title>s_have_perf&#45;&gt;m_have_perf_measure_return</title>
<path fill="none" stroke="#000000" d="M866.9048,-861.0731C898.2684,-846.6082 940.0334,-824.7777 971,-797 991.8189,-778.325 1009.7205,-752.6516 1023.6988,-731.0217"/>
<polygon fill="#000000" stroke="#000000" points="1026.8115,-732.6508 1029.2505,-722.3405 1020.9142,-728.8794 1026.8115,-732.6508"/>
</g>
<!-- s_have_perf&#45;&gt;m_have_perf_measure_return -->
<g id="edge21" class="edge">
<title>s_have_perf&#45;&gt;m_have_perf_measure_return</title>
<path fill="none" stroke="#000000" d="M878.6172,-862.6229C913.2144,-848.1891 956.9065,-825.7885 989,-797 1012.6873,-775.7521 1032.5979,-745.4442 1044.3065,-722.3405"/>
<polygon fill="#000000" stroke="#000000" points="877.0652,-859.4755 869.1174,-866.4814 879.6994,-865.9609 877.0652,-859.4755"/>
</g>
<!-- m_have_perf_info -->
<g id="node12" class="node">
<title>m_have_perf_info</title>
<polygon fill="#ffffff" stroke="transparent" points="1140,-597.5 1140,-780.5 1284,-780.5 1284,-597.5 1140,-597.5"/>
<path fill="#c0c0c0" stroke="transparent" d="M1152.6667,-752C1152.6667,-752 1271.3333,-752 1271.3333,-752 1275.1667,-752 1279,-755.8333 1279,-759.6667 1279,-759.6667 1279,-767.3333 1279,-767.3333 1279,-771.1667 1275.1667,-775 1271.3333,-775 1271.3333,-775 1152.6667,-775 1152.6667,-775 1148.8333,-775 1145,-771.1667 1145,-767.3333 1145,-767.3333 1145,-759.6667 1145,-759.6667 1145,-755.8333 1148.8333,-752 1152.6667,-752"/>
<path fill="none" stroke="#000000" d="M1152.6667,-752C1152.6667,-752 1271.3333,-752 1271.3333,-752 1275.1667,-752 1279,-755.8333 1279,-759.6667 1279,-759.6667 1279,-767.3333 1279,-767.3333 1279,-771.1667 1275.1667,-775 1271.3333,-775 1271.3333,-775 1152.6667,-775 1152.6667,-775 1148.8333,-775 1145,-771.1667 1145,-767.3333 1145,-767.3333 1145,-759.6667 1145,-759.6667 1145,-755.8333 1148.8333,-752 1152.6667,-752"/>
<text text-anchor="start" x="1201" y="-759.8" font-family="Times,serif" font-size="14.00" fill="#000000">info</text>
<polygon fill="#c0c0c0" stroke="transparent" points="1145,-727 1145,-748 1204,-748 1204,-727 1145,-727"/>
<text text-anchor="start" x="1173" y="-733.8" font-family="Times,serif" font-size="14.00" fill="#000000">ident</text>
<polygon fill="#c0c0c0" stroke="transparent" points="1208,-727 1208,-748 1279,-748 1279,-727 1208,-727"/>
<text text-anchor="start" x="1211" y="-733.8" font-family="Times,serif" font-size="14.00" fill="#000000">[number*8]</text>
<polygon fill="#c0c0c0" stroke="transparent" points="1145,-702 1145,-723 1204,-723 1204,-702 1145,-702"/>
<text text-anchor="start" x="1172" y="-708.8" font-family="Times,serif" font-size="14.00" fill="#000000">stype</text>
<polygon fill="#c0c0c0" stroke="transparent" points="1208,-702 1208,-723 1279,-723 1279,-702 1208,-702"/>
<text text-anchor="start" x="1211" y="-708.8" font-family="Times,serif" font-size="14.00" fill="#000000">[number*4]</text>
<polygon fill="#c0c0c0" stroke="transparent" points="1145,-677 1145,-698 1204,-698 1204,-677 1145,-677"/>
<text text-anchor="start" x="1148" y="-683.8" font-family="Times,serif" font-size="14.00" fill="#000000">endpoints</text>
<polygon fill="#c0c0c0" stroke="transparent" points="1208,-677 1208,-698 1279,-698 1279,-677 1208,-677"/>
<text text-anchor="start" x="1211" y="-683.8" font-family="Times,serif" font-size="14.00" fill="#000000">[hash]</text>
<text text-anchor="start" x="1180" y="-658.8" font-family="Times,serif" font-size="14.00" fill="#000000">lookup perf</text>
<text text-anchor="start" x="1178.5" y="-633.8" font-family="Times,serif" font-size="14.00" fill="#000000">set perf info</text>
<text text-anchor="start" x="1172" y="-608.8" font-family="Times,serif" font-size="14.00" fill="#000000">send (info_ok)</text>
<polygon fill="none" stroke="#000000" points="1140,-597.5 1140,-780.5 1284,-780.5 1284,-597.5 1140,-597.5"/>
</g>
<!-- s_have_perf&#45;&gt;m_have_perf_info -->
<g id="edge23" class="edge">
<title>s_have_perf&#45;&gt;m_have_perf_info</title>
<path fill="none" stroke="#000000" d="M870.9866,-875.854C931.8278,-867.4978 1037.6348,-846.7685 1114,-797 1117.3952,-794.7873 1120.7257,-792.4045 1123.9882,-789.8831"/>
<polygon fill="#000000" stroke="#000000" points="1126.4432,-792.3962 1131.9554,-783.3481 1122.0039,-786.9839 1126.4432,-792.3962"/>
</g>
<!-- s_have_perf&#45;&gt;m_have_perf_info -->
<g id="edge24" class="edge">
<title>s_have_perf&#45;&gt;m_have_perf_info</title>
<path fill="none" stroke="#000000" d="M881.3803,-876.1639C947.1581,-868.0153 1054.6731,-847.3952 1132,-797 1137.6994,-793.2856 1143.2168,-789.0917 1148.512,-784.5677"/>
<polygon fill="#000000" stroke="#000000" points="880.7131,-872.7183 871.1927,-877.3672 881.5343,-879.6699 880.7131,-872.7183"/>
</g>
<!-- m_defaults_ping -->
<g id="node13" class="node">
<title>m_defaults_ping</title>
<polygon fill="#ffffff" stroke="transparent" points="314,-156 314,-214 416,-214 416,-156 314,-156"/>
<path fill="#c0c0c0" stroke="transparent" d="M326.6667,-186C326.6667,-186 403.3333,-186 403.3333,-186 407.1667,-186 411,-189.8333 411,-193.6667 411,-193.6667 411,-201.3333 411,-201.3333 411,-205.1667 407.1667,-209 403.3333,-209 403.3333,-209 326.6667,-209 326.6667,-209 322.8333,-209 319,-205.1667 319,-201.3333 319,-201.3333 319,-193.6667 319,-193.6667 319,-189.8333 322.8333,-186 326.6667,-186"/>
<path fill="none" stroke="#000000" d="M326.6667,-186C326.6667,-186 403.3333,-186 403.3333,-186 407.1667,-186 411,-189.8333 411,-193.6667 411,-193.6667 411,-201.3333 411,-201.3333 411,-205.1667 407.1667,-209 403.3333,-209 403.3333,-209 326.6667,-209 326.6667,-209 322.8333,-209 319,-205.1667 319,-201.3333 319,-201.3333 319,-193.6667 319,-193.6667 319,-189.8333 322.8333,-186 326.6667,-186"/>
<text text-anchor="start" x="352.5" y="-193.8" font-family="Times,serif" font-size="14.00" fill="#000000">ping</text>
<text text-anchor="start" x="324" y="-167.8" font-family="Times,serif" font-size="14.00" fill="#000000">send (ping_ok)</text>
<polygon fill="none" stroke="#000000" points="314,-156 314,-214 416,-214 416,-156 314,-156"/>
</g>
<!-- s_defaults&#45;&gt;m_defaults_ping -->
<g id="edge26" class="edge">
<title>s_defaults&#45;&gt;m_defaults_ping</title>
<path fill="none" stroke="#000000" d="M394.1754,-371.4169C384.8431,-331.0929 373.4025,-269.4745 367.5657,-228.2439"/>
<polygon fill="#000000" stroke="#000000" points="371.0193,-227.6651 366.2072,-218.2261 364.0828,-228.6058 371.0193,-227.6651"/>
</g>
<!-- s_defaults&#45;&gt;m_defaults_ping -->
<g id="edge27" class="edge">
<title>s_defaults&#45;&gt;m_defaults_ping</title>
<path fill="none" stroke="#000000" d="M403.0709,-359.4266C396.5111,-315.7986 384.9909,-255.1011 376.0373,-218.0163"/>
<polygon fill="#000000" stroke="#000000" points="399.6435,-360.1786 404.5491,-369.5693 406.5703,-359.1691 399.6435,-360.1786"/>
</g>
<!-- m_defaults_goodbye -->
<g id="node14" class="node">
<title>m_defaults_goodbye</title>
<polygon fill="#ffffff" stroke="transparent" points="450.5,-143.5 450.5,-226.5 575.5,-226.5 575.5,-143.5 450.5,-143.5"/>
<path fill="#c0c0c0" stroke="transparent" d="M463.6667,-198C463.6667,-198 563.3333,-198 563.3333,-198 567.1667,-198 571,-201.8333 571,-205.6667 571,-205.6667 571,-213.3333 571,-213.3333 571,-217.1667 567.1667,-221 563.3333,-221 563.3333,-221 463.6667,-221 463.6667,-221 459.8333,-221 456,-217.1667 456,-213.3333 456,-213.3333 456,-205.6667 456,-205.6667 456,-201.8333 459.8333,-198 463.6667,-198"/>
<path fill="none" stroke="#000000" d="M463.6667,-198C463.6667,-198 563.3333,-198 563.3333,-198 567.1667,-198 571,-201.8333 571,-205.6667 571,-205.6667 571,-213.3333 571,-213.3333 571,-217.1667 567.1667,-221 563.3333,-221 563.3333,-221 463.6667,-221 463.6667,-221 459.8333,-221 456,-217.1667 456,-213.3333 456,-213.3333 456,-205.6667 456,-205.6667 456,-201.8333 459.8333,-198 463.6667,-198"/>
<text text-anchor="start" x="490" y="-205.8" font-family="Times,serif" font-size="14.00" fill="#000000">goodbye</text>
<text text-anchor="start" x="461" y="-179.8" font-family="Times,serif" font-size="14.00" fill="#000000">send (goodbye_ok)</text>
<text text-anchor="start" x="487.5" y="-154.8" font-family="Times,serif" font-size="14.00" fill="#000000">terminate</text>
<polygon fill="none" stroke="#000000" points="450.5,-143.5 450.5,-226.5 575.5,-226.5 575.5,-143.5 450.5,-143.5"/>
</g>
<!-- s_defaults&#45;&gt;m_defaults_goodbye -->
<g id="edge29" class="edge">
<title>s_defaults&#45;&gt;m_defaults_goodbye</title>
<path fill="none" stroke="#000000" d="M420.5248,-371.6785C435.9555,-334.9603 461.2296,-280.4297 481.5503,-239.7739"/>
<polygon fill="#000000" stroke="#000000" points="484.697,-241.3069 486.0695,-230.8013 478.4452,-238.158 484.697,-241.3069"/>
</g>
<!-- s_defaults&#45;&gt;m_defaults_goodbye -->
<g id="edge30" class="edge">
<title>s_defaults&#45;&gt;m_defaults_goodbye</title>
<path fill="none" stroke="#000000" d="M433.6974,-366.6576C453.7224,-327.2575 480.2548,-270.4542 497.1166,-230.8931"/>
<polygon fill="#000000" stroke="#000000" points="430.4676,-365.2854 429.015,-375.7802 436.6952,-368.4818 430.4676,-365.2854"/>
</g>
<!-- m_defaults_expired -->
<g id="node15" class="node">
<title>m_defaults_expired</title>
<polygon fill="#ffffff" stroke="transparent" points="610,-156 610,-214 682,-214 682,-156 610,-156"/>
<path fill="#e5e5e5" stroke="transparent" d="M622.6667,-186C622.6667,-186 669.3333,-186 669.3333,-186 673.1667,-186 677,-189.8333 677,-193.6667 677,-193.6667 677,-201.3333 677,-201.3333 677,-205.1667 673.1667,-209 669.3333,-209 669.3333,-209 622.6667,-209 622.6667,-209 618.8333,-209 615,-205.1667 615,-201.3333 615,-201.3333 615,-193.6667 615,-193.6667 615,-189.8333 618.8333,-186 622.6667,-186"/>
<path fill="none" stroke="#000000" d="M622.6667,-186C622.6667,-186 669.3333,-186 669.3333,-186 673.1667,-186 677,-189.8333 677,-193.6667 677,-193.6667 677,-201.3333 677,-201.3333 677,-205.1667 673.1667,-209 669.3333,-209 669.3333,-209 622.6667,-209 622.6667,-209 618.8333,-209 615,-205.1667 615,-201.3333 615,-201.3333 615,-193.6667 615,-193.6667 615,-189.8333 618.8333,-186 622.6667,-186"/>
<text text-anchor="start" x="625.5" y="-193.8" font-family="Times,serif" font-size="14.00" fill="#000000">expired</text>
<text text-anchor="start" x="620" y="-167.8" font-family="Times,serif" font-size="14.00" fill="#000000">terminate</text>
<polygon fill="none" stroke="#000000" points="610,-156 610,-214 682,-214 682,-156 610,-156"/>
</g>
<!-- s_defaults&#45;&gt;m_defaults_expired -->
<g id="edge32" class="edge">
<title>s_defaults&#45;&gt;m_defaults_expired</title>
<path fill="none" stroke="#000000" d="M432.399,-377.9753C457.7385,-350.3422 497.6997,-310.8694 535,-279 555.2743,-261.6776 563.1696,-260.8288 583,-243 588.9708,-237.6319 595.0256,-231.6971 600.9224,-225.7329"/>
<polygon fill="#000000" stroke="#000000" points="603.7977,-227.7989 608.2891,-218.2031 598.794,-222.9036 603.7977,-227.7989"/>
</g>
<!-- s_defaults&#45;&gt;m_defaults_expired -->
<g id="edge33" class="edge">
<title>s_defaults&#45;&gt;m_defaults_expired</title>
<path fill="none" stroke="#000000" d="M447.3107,-377.6015C476.0981,-349.9871 515.8675,-310.726 553,-279 573.2743,-261.6776 581.1696,-260.8288 601,-243 609.4918,-235.3653 618.1535,-226.5845 625.6756,-218.2031"/>
<polygon fill="#000000" stroke="#000000" points="444.6802,-375.2739 439.866,-384.7118 449.515,-380.3361 444.6802,-375.2739"/>
</g>
<!-- m_defaults_exception -->
<g id="node16" class="node">
<title>m_defaults_exception</title>
<polygon fill="#ffffff" stroke="transparent" points="8,-143.5 8,-226.5 92,-226.5 92,-143.5 8,-143.5"/>
<path fill="#e5e5e5" stroke="transparent" d="M20.6667,-198C20.6667,-198 79.3333,-198 79.3333,-198 83.1667,-198 87,-201.8333 87,-205.6667 87,-205.6667 87,-213.3333 87,-213.3333 87,-217.1667 83.1667,-221 79.3333,-221 79.3333,-221 20.6667,-221 20.6667,-221 16.8333,-221 13,-217.1667 13,-213.3333 13,-213.3333 13,-205.6667 13,-205.6667 13,-201.8333 16.8333,-198 20.6667,-198"/>
<path fill="none" stroke="#000000" d="M20.6667,-198C20.6667,-198 79.3333,-198 79.3333,-198 83.1667,-198 87,-201.8333 87,-205.6667 87,-205.6667 87,-213.3333 87,-213.3333 87,-217.1667 83.1667,-221 79.3333,-221 79.3333,-221 20.6667,-221 20.6667,-221 16.8333,-221 13,-217.1667 13,-213.3333 13,-213.3333 13,-205.6667 13,-205.6667 13,-201.8333 16.8333,-198 20.6667,-198"/>
<text text-anchor="start" x="23.5" y="-205.8" font-family="Times,serif" font-size="14.00" fill="#000000">exception</text>
<text text-anchor="start" x="18" y="-179.8" font-family="Times,serif" font-size="14.00" fill="#000000">send (error)</text>
<text text-anchor="start" x="24" y="-154.8" font-family="Times,serif" font-size="14.00" fill="#000000">terminate</text>
<polygon fill="none" stroke="#000000" points="8,-143.5 8,-226.5 92,-226.5 92,-143.5 8,-143.5"/>
</g>
<!-- s_defaults&#45;&gt;m_defaults_exception -->
<g id="edge34" class="edge">
<title>s_defaults&#45;&gt;m_defaults_exception</title>
<path fill="none" stroke="#000000" d="M394.6556,-371.288C387.0847,-341.069 374.1395,-301.3717 346,-279 259.5062,-210.2351 198.9588,-292.1623 100,-243 96.4122,-241.2176 92.9059,-239.1352 89.5176,-236.8392"/>
<polygon fill="#000000" stroke="#000000" points="91.4641,-233.9245 81.3586,-230.7415 87.2735,-239.5316 91.4641,-233.9245"/>
</g>
<!-- s_defaults&#45;&gt;m_defaults_exception -->
<g id="edge35" class="edge">
<title>s_defaults&#45;&gt;m_defaults_exception</title>
<path fill="none" stroke="#000000" d="M407.2989,-359.2934C401.5277,-331.2052 388.5433,-298.5125 364,-279 277.5062,-210.2351 216.9588,-292.1623 118,-243 111.4395,-239.7408 105.1514,-235.4783 99.2163,-230.7415"/>
<polygon fill="#000000" stroke="#000000" points="403.9006,-360.173 409.1068,-369.4004 410.7912,-358.9404 403.9006,-360.173"/>
</g>
<!-- m_defaults__ -->
<g id="node17" class="node">
<title>m_defaults__</title>
<polygon fill="#ffffff" stroke="transparent" points="126.5,-131 126.5,-239 279.5,-239 279.5,-131 126.5,-131"/>
<path fill="#e5e5e5" stroke="transparent" d="M139.6667,-211C139.6667,-211 267.3333,-211 267.3333,-211 271.1667,-211 275,-214.8333 275,-218.6667 275,-218.6667 275,-226.3333 275,-226.3333 275,-230.1667 271.1667,-234 267.3333,-234 267.3333,-234 139.6667,-234 139.6667,-234 135.8333,-234 132,-230.1667 132,-226.3333 132,-226.3333 132,-218.6667 132,-218.6667 132,-214.8333 135.8333,-211 139.6667,-211"/>
<path fill="none" stroke="#000000" d="M139.6667,-211C139.6667,-211 267.3333,-211 267.3333,-211 271.1667,-211 275,-214.8333 275,-218.6667 275,-218.6667 275,-226.3333 275,-226.3333 275,-230.1667 271.1667,-234 267.3333,-234 267.3333,-234 139.6667,-234 139.6667,-234 135.8333,-234 132,-230.1667 132,-226.3333 132,-226.3333 132,-218.6667 132,-218.6667 132,-214.8333 135.8333,-211 139.6667,-211"/>
<text text-anchor="start" x="200" y="-218.8" font-family="Times,serif" font-size="14.00" fill="#000000">*</text>
<text text-anchor="start" x="137" y="-192.8" font-family="Times,serif" font-size="14.00" fill="#000000">signal command invalid</text>
<text text-anchor="start" x="171.5" y="-167.8" font-family="Times,serif" font-size="14.00" fill="#000000">send (error)</text>
<text text-anchor="start" x="177.5" y="-142.8" font-family="Times,serif" font-size="14.00" fill="#000000">terminate</text>
<polygon fill="none" stroke="#000000" points="126.5,-131 126.5,-239 279.5,-239 279.5,-131 126.5,-131"/>
</g>
<!-- s_defaults&#45;&gt;m_defaults__ -->
<g id="edge37" class="edge">
<title>s_defaults&#45;&gt;m_defaults__</title>
<path fill="none" stroke="#000000" d="M391.1939,-372.4551C382.074,-344.0068 368.5401,-306.0434 346,-279 345.8474,-278.8169 323.3877,-264.9068 296.2895,-247.8416"/>
<polygon fill="#000000" stroke="#000000" points="298.0757,-244.8302 287.7503,-242.4559 294.3414,-250.751 298.0757,-244.8302"/>
</g>
<!-- s_defaults&#45;&gt;m_defaults__ -->
<g id="edge38" class="edge">
<title>s_defaults&#45;&gt;m_defaults__</title>
<path fill="none" stroke="#000000" d="M403.0266,-359.588C395.9746,-333.2631 383.283,-302.1356 364,-279 363.8029,-278.7635 326.3928,-255.6274 287.6416,-232.3706"/>
<polygon fill="#000000" stroke="#000000" points="399.6582,-360.5472 405.4552,-369.4155 406.4538,-358.8678 399.6582,-360.5472"/>
</g>
<!-- m_hello_ok -->
<g id="node18" class="node">
<title>m_hello_ok</title>
<polygon fill="#ffffff" stroke="transparent" points="716,-156 716,-214 836,-214 836,-156 716,-156"/>
<path fill="#c0c0c0" stroke="transparent" d="M728.6667,-186C728.6667,-186 823.3333,-186 823.3333,-186 827.1667,-186 831,-189.8333 831,-193.6667 831,-193.6667 831,-201.3333 831,-201.3333 831,-205.1667 827.1667,-209 823.3333,-209 823.3333,-209 728.6667,-209 728.6667,-209 724.8333,-209 721,-205.1667 721,-201.3333 721,-201.3333 721,-193.6667 721,-193.6667 721,-189.8333 724.8333,-186 728.6667,-186"/>
<path fill="none" stroke="#000000" d="M728.6667,-186C728.6667,-186 823.3333,-186 823.3333,-186 827.1667,-186 831,-189.8333 831,-193.6667 831,-193.6667 831,-201.3333 831,-201.3333 831,-205.1667 827.1667,-209 823.3333,-209 823.3333,-209 728.6667,-209 728.6667,-209 724.8333,-209 721,-205.1667 721,-201.3333 721,-201.3333 721,-193.6667 721,-193.6667 721,-189.8333 724.8333,-186 728.6667,-186"/>
<text text-anchor="start" x="753.5" y="-193.8" font-family="Times,serif" font-size="14.00" fill="#000000">hello ok</text>
<polygon fill="#c0c0c0" stroke="transparent" points="721,-161 721,-182 781,-182 781,-161 721,-161"/>
<text text-anchor="start" x="724" y="-167.8" font-family="Times,serif" font-size="14.00" fill="#000000">nickname</text>
<polygon fill="#c0c0c0" stroke="transparent" points="785,-161 785,-182 831,-182 831,-161 785,-161"/>
<text text-anchor="start" x="788" y="-167.8" font-family="Times,serif" font-size="14.00" fill="#000000">[string]</text>
<polygon fill="none" stroke="#000000" points="716,-156 716,-214 836,-214 836,-156 716,-156"/>
</g>
<!-- m_start_hello&#45;&gt;m_hello_ok -->
<g id="edge6" class="edge">
<title>m_start_hello:hello_ok&#45;&gt;m_hello_ok</title>
<path fill="none" stroke="#000000" stroke-dasharray="1,5" d="M676,-385C700.0575,-385 687.5652,-300.6767 698,-279 707.1642,-259.9626 721.0098,-241.5055 734.5048,-226.0605"/>
<polygon fill="#000000" stroke="#000000" points="741.5031,-218.2712 738.1672,-228.7174 738.1615,-221.9905 734.8198,-225.7098 734.8198,-225.7098 734.8198,-225.7098 738.1615,-221.9905 731.4724,-222.7023 741.5031,-218.2712 741.5031,-218.2712"/>
</g>
<!-- m_perf_ok -->
<g id="node19" class="node">
<title>m_perf_ok</title>
<polygon fill="#ffffff" stroke="transparent" points="870.5,-156 870.5,-214 989.5,-214 989.5,-156 870.5,-156"/>
<path fill="#c0c0c0" stroke="transparent" d="M883.6667,-186C883.6667,-186 977.3333,-186 977.3333,-186 981.1667,-186 985,-189.8333 985,-193.6667 985,-193.6667 985,-201.3333 985,-201.3333 985,-205.1667 981.1667,-209 977.3333,-209 977.3333,-209 883.6667,-209 883.6667,-209 879.8333,-209 876,-205.1667 876,-201.3333 876,-201.3333 876,-193.6667 876,-193.6667 876,-189.8333 879.8333,-186 883.6667,-186"/>
<path fill="none" stroke="#000000" d="M883.6667,-186C883.6667,-186 977.3333,-186 977.3333,-186 981.1667,-186 985,-189.8333 985,-193.6667 985,-193.6667 985,-201.3333 985,-201.3333 985,-205.1667 981.1667,-209 977.3333,-209 977.3333,-209 883.6667,-209 883.6667,-209 879.8333,-209 876,-205.1667 876,-201.3333 876,-201.3333 876,-193.6667 876,-193.6667 876,-189.8333 879.8333,-186 883.6667,-186"/>
<text text-anchor="start" x="910.5" y="-193.8" font-family="Times,serif" font-size="14.00" fill="#000000">perf ok</text>
<polygon fill="#c0c0c0" stroke="transparent" points="876,-161 876,-182 910,-182 910,-161 876,-161"/>
<text text-anchor="start" x="879" y="-167.8" font-family="Times,serif" font-size="14.00" fill="#000000">ident</text>
<polygon fill="#c0c0c0" stroke="transparent" points="914,-161 914,-182 985,-182 985,-161 914,-161"/>
<text text-anchor="start" x="917" y="-167.8" font-family="Times,serif" font-size="14.00" fill="#000000">[number*8]</text>
<polygon fill="none" stroke="#000000" points="870.5,-156 870.5,-214 989.5,-214 989.5,-156 870.5,-156"/>
</g>
<!-- m_connected_create&#45;&gt;m_perf_ok -->
<g id="edge9" class="edge">
<title>m_connected_create:perf_ok&#45;&gt;m_perf_ok</title>
<path fill="none" stroke="#000000" stroke-dasharray="1,5" d="M830,-373C872.9067,-373 832.9027,-317.4224 852,-279 861.404,-260.0799 875.3027,-241.6487 888.7731,-226.1917"/>
<polygon fill="#000000" stroke="#000000" points="895.7521,-218.393 892.4368,-228.8457 892.4178,-222.1189 889.0835,-225.8448 889.0835,-225.8448 889.0835,-225.8448 892.4178,-222.1189 885.7302,-222.844 895.7521,-218.393 895.7521,-218.393"/>
</g>
<!-- m_connected_lookup&#45;&gt;m_perf_ok -->
<g id="edge12" class="edge">
<title>m_connected_lookup:perf_ok&#45;&gt;m_perf_ok</title>
<path fill="none" stroke="#000000" stroke-dasharray="1,5" d="M930,-363C930,-317.0134 930,-264.3439 930,-228.2998"/>
<polygon fill="#000000" stroke="#000000" points="930,-218.1342 934.5001,-228.1342 930,-223.1342 930.0001,-228.1342 930.0001,-228.1342 930.0001,-228.1342 930,-223.1342 925.5001,-228.1342 930,-218.1342 930,-218.1342"/>
</g>
<!-- m_socket_ok -->
<g id="node21" class="node">
<title>m_socket_ok</title>
<polygon fill="#ffffff" stroke="transparent" points="199.5,-358 199.5,-466 338.5,-466 338.5,-358 199.5,-358"/>
<path fill="#c0c0c0" stroke="transparent" d="M212.6667,-438C212.6667,-438 326.3333,-438 326.3333,-438 330.1667,-438 334,-441.8333 334,-445.6667 334,-445.6667 334,-453.3333 334,-453.3333 334,-457.1667 330.1667,-461 326.3333,-461 326.3333,-461 212.6667,-461 212.6667,-461 208.8333,-461 205,-457.1667 205,-453.3333 205,-453.3333 205,-445.6667 205,-445.6667 205,-441.8333 208.8333,-438 212.6667,-438"/>
<path fill="none" stroke="#000000" d="M212.6667,-438C212.6667,-438 326.3333,-438 326.3333,-438 330.1667,-438 334,-441.8333 334,-445.6667 334,-445.6667 334,-453.3333 334,-453.3333 334,-457.1667 330.1667,-461 326.3333,-461 326.3333,-461 212.6667,-461 212.6667,-461 208.8333,-461 205,-457.1667 205,-453.3333 205,-453.3333 205,-445.6667 205,-445.6667 205,-441.8333 208.8333,-438 212.6667,-438"/>
<text text-anchor="start" x="243.5" y="-445.8" font-family="Times,serif" font-size="14.00" fill="#000000">socket ok</text>
<polygon fill="#c0c0c0" stroke="transparent" points="205,-413 205,-434 259,-434 259,-413 205,-413"/>
<text text-anchor="start" x="228" y="-419.8" font-family="Times,serif" font-size="14.00" fill="#000000">ident</text>
<polygon fill="#c0c0c0" stroke="transparent" points="263,-413 263,-434 334,-434 334,-413 263,-413"/>
<text text-anchor="start" x="266" y="-419.8" font-family="Times,serif" font-size="14.00" fill="#000000">[number*8]</text>
<polygon fill="#c0c0c0" stroke="transparent" points="205,-388 205,-409 259,-409 259,-388 205,-388"/>
<text text-anchor="start" x="231" y="-394.8" font-family="Times,serif" font-size="14.00" fill="#000000">borc</text>
<polygon fill="#c0c0c0" stroke="transparent" points="263,-388 263,-409 334,-409 334,-388 263,-388"/>
<text text-anchor="start" x="266" y="-394.8" font-family="Times,serif" font-size="14.00" fill="#000000">[string]</text>
<polygon fill="#c0c0c0" stroke="transparent" points="205,-363 205,-384 259,-384 259,-363 205,-363"/>
<text text-anchor="start" x="208" y="-369.8" font-family="Times,serif" font-size="14.00" fill="#000000">endpoint</text>
<polygon fill="#c0c0c0" stroke="transparent" points="263,-363 263,-384 334,-384 334,-363 263,-363"/>
<text text-anchor="start" x="266" y="-369.8" font-family="Times,serif" font-size="14.00" fill="#000000">[string]</text>
<polygon fill="none" stroke="#000000" points="199.5,-358 199.5,-466 338.5,-466 338.5,-358 199.5,-358"/>
</g>
<!-- m_have_perf_socket_return&#45;&gt;m_socket_ok -->
<g id="edge17" class="edge">
<title>m_have_perf_socket_return:socket_ok&#45;&gt;m_socket_ok</title>
<path fill="none" stroke="#000000" stroke-dasharray="1,5" d="M296,-652C296,-593.8695 288.0813,-528.3127 280.8208,-480.422"/>
<polygon fill="#000000" stroke="#000000" points="279.2846,-470.4798 285.2589,-479.6753 280.0481,-475.4212 280.8117,-480.3625 280.8117,-480.3625 280.8117,-480.3625 280.0481,-475.4212 276.3645,-481.0497 279.2846,-470.4798 279.2846,-470.4798"/>
</g>
<!-- m_result -->
<g id="node22" class="node">
<title>m_result</title>
<polygon fill="#ffffff" stroke="transparent" points="1022.5,-283 1022.5,-541 1159.5,-541 1159.5,-283 1022.5,-283"/>
<path fill="#c0c0c0" stroke="transparent" d="M1035.6667,-513C1035.6667,-513 1147.3333,-513 1147.3333,-513 1151.1667,-513 1155,-516.8333 1155,-520.6667 1155,-520.6667 1155,-528.3333 1155,-528.3333 1155,-532.1667 1151.1667,-536 1147.3333,-536 1147.3333,-536 1035.6667,-536 1035.6667,-536 1031.8333,-536 1028,-532.1667 1028,-528.3333 1028,-528.3333 1028,-520.6667 1028,-520.6667 1028,-516.8333 1031.8333,-513 1035.6667,-513"/>
<path fill="none" stroke="#000000" d="M1035.6667,-513C1035.6667,-513 1147.3333,-513 1147.3333,-513 1151.1667,-513 1155,-516.8333 1155,-520.6667 1155,-520.6667 1155,-528.3333 1155,-528.3333 1155,-532.1667 1151.1667,-536 1147.3333,-536 1147.3333,-536 1035.6667,-536 1035.6667,-536 1031.8333,-536 1028,-532.1667 1028,-528.3333 1028,-528.3333 1028,-520.6667 1028,-520.6667 1028,-516.8333 1031.8333,-513 1035.6667,-513"/>
<text text-anchor="start" x="1076" y="-520.8" font-family="Times,serif" font-size="14.00" fill="#000000">result</text>
<polygon fill="#c0c0c0" stroke="transparent" points="1028,-488 1028,-509 1080,-509 1080,-488 1028,-488"/>
<text text-anchor="start" x="1049" y="-494.8" font-family="Times,serif" font-size="14.00" fill="#000000">ident</text>
<polygon fill="#c0c0c0" stroke="transparent" points="1084,-488 1084,-509 1155,-509 1155,-488 1084,-488"/>
<text text-anchor="start" x="1087" y="-494.8" font-family="Times,serif" font-size="14.00" fill="#000000">[number*8]</text>
<polygon fill="#c0c0c0" stroke="transparent" points="1028,-463 1028,-484 1080,-484 1080,-463 1028,-463"/>
<text text-anchor="start" x="1031" y="-469.8" font-family="Times,serif" font-size="14.00" fill="#000000">measure</text>
<polygon fill="#c0c0c0" stroke="transparent" points="1084,-463 1084,-484 1155,-484 1155,-463 1084,-463"/>
<text text-anchor="start" x="1087" y="-469.8" font-family="Times,serif" font-size="14.00" fill="#000000">[string]</text>
<polygon fill="#c0c0c0" stroke="transparent" points="1028,-438 1028,-459 1080,-459 1080,-438 1028,-438"/>
<text text-anchor="start" x="1041" y="-444.8" font-family="Times,serif" font-size="14.00" fill="#000000">nmsgs</text>
<polygon fill="#c0c0c0" stroke="transparent" points="1084,-438 1084,-459 1155,-459 1155,-438 1084,-438"/>
<text text-anchor="start" x="1087" y="-444.8" font-family="Times,serif" font-size="14.00" fill="#000000">[number*4]</text>
<polygon fill="#c0c0c0" stroke="transparent" points="1028,-413 1028,-434 1080,-434 1080,-413 1028,-413"/>
<text text-anchor="start" x="1032" y="-419.8" font-family="Times,serif" font-size="14.00" fill="#000000">msgsize</text>
<polygon fill="#c0c0c0" stroke="transparent" points="1084,-413 1084,-434 1155,-434 1155,-413 1084,-413"/>
<text text-anchor="start" x="1087" y="-419.8" font-family="Times,serif" font-size="14.00" fill="#000000">[number*8]</text>
<polygon fill="#c0c0c0" stroke="transparent" points="1028,-388 1028,-409 1080,-409 1080,-388 1028,-388"/>
<text text-anchor="start" x="1034" y="-394.8" font-family="Times,serif" font-size="14.00" fill="#000000">timeout</text>
<polygon fill="#c0c0c0" stroke="transparent" points="1084,-388 1084,-409 1155,-409 1155,-388 1084,-388"/>
<text text-anchor="start" x="1087" y="-394.8" font-family="Times,serif" font-size="14.00" fill="#000000">[number*4]</text>
<polygon fill="#c0c0c0" stroke="transparent" points="1028,-363 1028,-384 1080,-384 1080,-363 1028,-363"/>
<text text-anchor="start" x="1033" y="-369.8" font-family="Times,serif" font-size="14.00" fill="#000000">time_us</text>
<polygon fill="#c0c0c0" stroke="transparent" points="1084,-363 1084,-384 1155,-384 1155,-363 1084,-363"/>
<text text-anchor="start" x="1087" y="-369.8" font-family="Times,serif" font-size="14.00" fill="#000000">[number*8]</text>
<polygon fill="#c0c0c0" stroke="transparent" points="1028,-338 1028,-359 1080,-359 1080,-338 1028,-338"/>
<text text-anchor="start" x="1038" y="-344.8" font-family="Times,serif" font-size="14.00" fill="#000000">cpu_us</text>
<polygon fill="#c0c0c0" stroke="transparent" points="1084,-338 1084,-359 1155,-359 1155,-338 1084,-338"/>
<text text-anchor="start" x="1087" y="-344.8" font-family="Times,serif" font-size="14.00" fill="#000000">[number*8]</text>
<polygon fill="#c0c0c0" stroke="transparent" points="1028,-313 1028,-334 1080,-334 1080,-313 1028,-313"/>
<text text-anchor="start" x="1051" y="-319.8" font-family="Times,serif" font-size="14.00" fill="#000000">noos</text>
<polygon fill="#c0c0c0" stroke="transparent" points="1084,-313 1084,-334 1155,-334 1155,-313 1084,-313"/>
<text text-anchor="start" x="1087" y="-319.8" font-family="Times,serif" font-size="14.00" fill="#000000">[number*4]</text>
<polygon fill="#c0c0c0" stroke="transparent" points="1028,-288 1028,-309 1080,-309 1080,-288 1028,-288"/>
<text text-anchor="start" x="1041" y="-294.8" font-family="Times,serif" font-size="14.00" fill="#000000">nbytes</text>
<polygon fill="#c0c0c0" stroke="transparent" points="1084,-288 1084,-309 1155,-309 1155,-288 1084,-288"/>
<text text-anchor="start" x="1087" y="-294.8" font-family="Times,serif" font-size="14.00" fill="#000000">[number*8]</text>
<polygon fill="none" stroke="#000000" points="1022.5,-283 1022.5,-541 1159.5,-541 1159.5,-283 1022.5,-283"/>
</g>
<!-- m_have_perf_measure_return&#45;&gt;m_result -->
<g id="edge22" class="edge">
<title>m_have_perf_measure_return:result&#45;&gt;m_result</title>
<path fill="none" stroke="#000000" stroke-dasharray="1,5" d="M1054,-665C1054,-629.1917 1057.6737,-590.8298 1062.7059,-555.0789"/>
<polygon fill="#000000" stroke="#000000" points="1064.1594,-545.0688 1067.1757,-555.6117 1063.4409,-550.017 1062.7224,-554.9651 1062.7224,-554.9651 1062.7224,-554.9651 1063.4409,-550.017 1058.269,-554.3184 1064.1594,-545.0688 1064.1594,-545.0688"/>
</g>
<!-- m_info_ok -->
<g id="node20" class="node">
<title>m_info_ok</title>
<polygon fill="#ffffff" stroke="transparent" points="1193.5,-370.5 1193.5,-453.5 1328.5,-453.5 1328.5,-370.5 1193.5,-370.5"/>
<path fill="#c0c0c0" stroke="transparent" d="M1206.6667,-425C1206.6667,-425 1316.3333,-425 1316.3333,-425 1320.1667,-425 1324,-428.8333 1324,-432.6667 1324,-432.6667 1324,-440.3333 1324,-440.3333 1324,-444.1667 1320.1667,-448 1316.3333,-448 1316.3333,-448 1206.6667,-448 1206.6667,-448 1202.8333,-448 1199,-444.1667 1199,-440.3333 1199,-440.3333 1199,-432.6667 1199,-432.6667 1199,-428.8333 1202.8333,-425 1206.6667,-425"/>
<path fill="none" stroke="#000000" d="M1206.6667,-425C1206.6667,-425 1316.3333,-425 1316.3333,-425 1320.1667,-425 1324,-428.8333 1324,-432.6667 1324,-432.6667 1324,-440.3333 1324,-440.3333 1324,-444.1667 1320.1667,-448 1316.3333,-448 1316.3333,-448 1206.6667,-448 1206.6667,-448 1202.8333,-448 1199,-444.1667 1199,-440.3333 1199,-440.3333 1199,-432.6667 1199,-432.6667 1199,-428.8333 1202.8333,-425 1206.6667,-425"/>
<text text-anchor="start" x="1241.5" y="-432.8" font-family="Times,serif" font-size="14.00" fill="#000000">info ok</text>
<polygon fill="#c0c0c0" stroke="transparent" points="1199,-400 1199,-421 1249,-421 1249,-400 1199,-400"/>
<text text-anchor="start" x="1218" y="-406.8" font-family="Times,serif" font-size="14.00" fill="#000000">ident</text>
<polygon fill="#c0c0c0" stroke="transparent" points="1253,-400 1253,-421 1324,-421 1324,-400 1253,-400"/>
<text text-anchor="start" x="1256" y="-406.8" font-family="Times,serif" font-size="14.00" fill="#000000">[number*8]</text>
<polygon fill="#c0c0c0" stroke="transparent" points="1199,-375 1199,-396 1249,-396 1249,-375 1199,-375"/>
<text text-anchor="start" x="1202" y="-381.8" font-family="Times,serif" font-size="14.00" fill="#000000">perfinfo</text>
<polygon fill="#c0c0c0" stroke="transparent" points="1253,-375 1253,-396 1324,-396 1324,-375 1253,-375"/>
<text text-anchor="start" x="1256" y="-381.8" font-family="Times,serif" font-size="14.00" fill="#000000">[string]</text>
<polygon fill="none" stroke="#000000" points="1193.5,-370.5 1193.5,-453.5 1328.5,-453.5 1328.5,-370.5 1193.5,-370.5"/>
</g>
<!-- m_have_perf_info&#45;&gt;m_info_ok -->
<g id="edge25" class="edge">
<title>m_have_perf_info:info_ok&#45;&gt;m_info_ok</title>
<path fill="none" stroke="#000000" stroke-dasharray="1,5" d="M1212,-602C1212,-555.5626 1225.8939,-504.706 1238.8849,-467.304"/>
<polygon fill="#000000" stroke="#000000" points="1242.3354,-457.6121 1243.2207,-468.5422 1240.6584,-462.3225 1238.9814,-467.0329 1238.9814,-467.0329 1238.9814,-467.0329 1240.6584,-462.3225 1234.742,-465.5236 1242.3354,-457.6121 1242.3354,-457.6121"/>
</g>
<!-- m_ping_ok -->
<g id="node23" class="node">
<title>m_ping_ok</title>
<polygon fill="#ffffff" stroke="transparent" points="335,-29 335,-62 395,-62 395,-29 335,-29"/>
<path fill="#c0c0c0" stroke="transparent" d="M347.6667,-33.5C347.6667,-33.5 382.3333,-33.5 382.3333,-33.5 386.1667,-33.5 390,-37.3333 390,-41.1667 390,-41.1667 390,-48.8333 390,-48.8333 390,-52.6667 386.1667,-56.5 382.3333,-56.5 382.3333,-56.5 347.6667,-56.5 347.6667,-56.5 343.8333,-56.5 340,-52.6667 340,-48.8333 340,-48.8333 340,-41.1667 340,-41.1667 340,-37.3333 343.8333,-33.5 347.6667,-33.5"/>
<path fill="none" stroke="#000000" d="M347.6667,-33.5C347.6667,-33.5 382.3333,-33.5 382.3333,-33.5 386.1667,-33.5 390,-37.3333 390,-41.1667 390,-41.1667 390,-48.8333 390,-48.8333 390,-52.6667 386.1667,-56.5 382.3333,-56.5 382.3333,-56.5 347.6667,-56.5 347.6667,-56.5 343.8333,-56.5 340,-52.6667 340,-48.8333 340,-48.8333 340,-41.1667 340,-41.1667 340,-37.3333 343.8333,-33.5 347.6667,-33.5"/>
<text text-anchor="start" x="344" y="-41.3" font-family="Times,serif" font-size="14.00" fill="#000000">ping ok</text>
<polygon fill="none" stroke="#000000" points="335,-29 335,-62 395,-62 395,-29 335,-29"/>
</g>
<!-- m_defaults_ping&#45;&gt;m_ping_ok -->
<g id="edge28" class="edge">
<title>m_defaults_ping:ping_ok&#45;&gt;m_ping_ok</title>
<path fill="none" stroke="#000000" stroke-dasharray="1,5" d="M365,-161C365,-132.4375 365,-99.9019 365,-76.6574"/>
<polygon fill="#000000" stroke="#000000" points="365,-66.3654 369.5001,-76.3653 365,-71.3654 365.0001,-76.3654 365.0001,-76.3654 365.0001,-76.3654 365,-71.3654 360.5001,-76.3654 365,-66.3654 365,-66.3654"/>
</g>
<!-- m_goodbye_ok -->
<g id="node24" class="node">
<title>m_goodbye_ok</title>
<polygon fill="#ffffff" stroke="transparent" points="473,-29 473,-62 555,-62 555,-29 473,-29"/>
<path fill="#c0c0c0" stroke="transparent" d="M485.6667,-33.5C485.6667,-33.5 542.3333,-33.5 542.3333,-33.5 546.1667,-33.5 550,-37.3333 550,-41.1667 550,-41.1667 550,-48.8333 550,-48.8333 550,-52.6667 546.1667,-56.5 542.3333,-56.5 542.3333,-56.5 485.6667,-56.5 485.6667,-56.5 481.8333,-56.5 478,-52.6667 478,-48.8333 478,-48.8333 478,-41.1667 478,-41.1667 478,-37.3333 481.8333,-33.5 485.6667,-33.5"/>
<path fill="none" stroke="#000000" d="M485.6667,-33.5C485.6667,-33.5 542.3333,-33.5 542.3333,-33.5 546.1667,-33.5 550,-37.3333 550,-41.1667 550,-41.1667 550,-48.8333 550,-48.8333 550,-52.6667 546.1667,-56.5 542.3333,-56.5 542.3333,-56.5 485.6667,-56.5 485.6667,-56.5 481.8333,-56.5 478,-52.6667 478,-48.8333 478,-48.8333 478,-41.1667 478,-41.1667 478,-37.3333 481.8333,-33.5 485.6667,-33.5"/>
<text text-anchor="start" x="482" y="-41.3" font-family="Times,serif" font-size="14.00" fill="#000000">goodbye ok</text>
<polygon fill="none" stroke="#000000" points="473,-29 473,-62 555,-62 555,-29 473,-29"/>
</g>
<!-- m_defaults_goodbye&#45;&gt;m_goodbye_ok -->
<g id="edge31" class="edge">
<title>m_defaults_goodbye:goodbye_ok&#45;&gt;m_goodbye_ok</title>
<path fill="none" stroke="#000000" stroke-dasharray="1,5" d="M571,-183C617.7802,-183 569.8971,-114.2432 537.839,-73.9712"/>
<polygon fill="#000000" stroke="#000000" points="531.4747,-66.0851 541.2569,-71.0409 534.6149,-69.9761 537.755,-73.8671 537.755,-73.8671 537.755,-73.8671 534.6149,-69.9761 534.2532,-76.6932 531.4747,-66.0851 531.4747,-66.0851"/>
</g>
<!-- m_error -->
<g id="node25" class="node">
<title>m_error</title>
<polygon fill="#ffffff" stroke="transparent" points="63.5,-4 63.5,-87 190.5,-87 190.5,-4 63.5,-4"/>
<path fill="#c0c0c0" stroke="transparent" d="M76.6667,-58.5C76.6667,-58.5 178.3333,-58.5 178.3333,-58.5 182.1667,-58.5 186,-62.3333 186,-66.1667 186,-66.1667 186,-73.8333 186,-73.8333 186,-77.6667 182.1667,-81.5 178.3333,-81.5 178.3333,-81.5 76.6667,-81.5 76.6667,-81.5 72.8333,-81.5 69,-77.6667 69,-73.8333 69,-73.8333 69,-66.1667 69,-66.1667 69,-62.3333 72.8333,-58.5 76.6667,-58.5"/>
<path fill="none" stroke="#000000" d="M76.6667,-58.5C76.6667,-58.5 178.3333,-58.5 178.3333,-58.5 182.1667,-58.5 186,-62.3333 186,-66.1667 186,-66.1667 186,-73.8333 186,-73.8333 186,-77.6667 182.1667,-81.5 178.3333,-81.5 178.3333,-81.5 76.6667,-81.5 76.6667,-81.5 72.8333,-81.5 69,-77.6667 69,-73.8333 69,-73.8333 69,-66.1667 69,-66.1667 69,-62.3333 72.8333,-58.5 76.6667,-58.5"/>
<text text-anchor="start" x="114" y="-66.3" font-family="Times,serif" font-size="14.00" fill="#000000">error</text>
<polygon fill="#c0c0c0" stroke="transparent" points="69,-33.5 69,-54.5 111,-54.5 111,-33.5 69,-33.5"/>
<text text-anchor="start" x="77" y="-40.3" font-family="Times,serif" font-size="14.00" fill="#000000">status</text>
<polygon fill="#c0c0c0" stroke="transparent" points="115,-33.5 115,-54.5 186,-54.5 186,-33.5 115,-33.5"/>
<text text-anchor="start" x="118" y="-40.3" font-family="Times,serif" font-size="14.00" fill="#000000">[number*2]</text>
<polygon fill="#c0c0c0" stroke="transparent" points="69,-8.5 69,-29.5 111,-29.5 111,-8.5 69,-8.5"/>
<text text-anchor="start" x="72" y="-15.3" font-family="Times,serif" font-size="14.00" fill="#000000">reason</text>
<polygon fill="#c0c0c0" stroke="transparent" points="115,-8.5 115,-29.5 186,-29.5 186,-8.5 115,-8.5"/>
<text text-anchor="start" x="118" y="-15.3" font-family="Times,serif" font-size="14.00" fill="#000000">[string]</text>
<polygon fill="none" stroke="#000000" points="63.5,-4 63.5,-87 190.5,-87 190.5,-4 63.5,-4"/>
</g>
<!-- m_defaults_exception&#45;&gt;m_error -->
<g id="edge36" class="edge">
<title>m_defaults_exception:error&#45;&gt;m_error</title>
<path fill="none" stroke="#000000" stroke-dasharray="1,5" d="M87,-183C91.4788,-183 103.5922,-139.4209 113.3246,-101.3305"/>
<polygon fill="#000000" stroke="#000000" points="115.8696,-91.2855 117.7757,-102.0844 114.6416,-96.1324 113.4136,-100.9792 113.4136,-100.9792 113.4136,-100.9792 114.6416,-96.1324 109.0514,-99.874 115.8696,-91.2855 115.8696,-91.2855"/>
</g>
<!-- m_defaults__&#45;&gt;m_error -->
<g id="edge39" class="edge">
<title>m_defaults__:error&#45;&gt;m_error</title>
<path fill="none" stroke="#000000" stroke-dasharray="1,5" d="M132,-171C117.0309,-171 116.6799,-134.9018 119.5729,-101.4256"/>
<polygon fill="#000000" stroke="#000000" points="120.5623,-91.1634 124.0818,-101.5491 120.0824,-96.1403 119.6025,-101.1172 119.6025,-101.1172 119.6025,-101.1172 120.0824,-96.1403 115.1233,-100.6854 120.5623,-91.1634 120.5623,-91.1634"/>
</g>
</g>
</svg>
