<?xml version="1.0" encoding="UTF-8" standalone="no"?>
<!DOCTYPE svg PUBLIC "-//W3C//DTD SVG 1.1//EN"
 "http://www.w3.org/Graphics/SVG/1.1/DTD/svg11.dtd">
<!-- Generated by graphviz version 2.40.1 (20161225.0304)
 -->
<!-- Title: zperf_protocol Pages: 1 -->
<svg width="2447pt" height="905pt"
 viewBox="0.00 0.00 2446.80 905.39" xmlns="http://www.w3.org/2000/svg" xmlns:xlink="http://www.w3.org/1999/xlink">
<g id="graph0" class="graph" transform="scale(1 1) rotate(0) translate(4 901.3922)">
<title>zperf_protocol</title>
<polygon fill="#ffffff" stroke="transparent" points="-4,4 -4,-901.3922 2442.7964,-901.3922 2442.7964,4 -4,4"/>
<text text-anchor="middle" x="1219.3982" y="-882.1922" font-family="Times,serif" font-size="14.00" fill="#000000">zperf_client and zperf_msg</text>
<!-- s_start -->
<g id="node1" class="node">
<title>s_start</title>
<ellipse fill="none" stroke="#000000" cx="84.2964" cy="-584" rx="25.9957" ry="25.9957"/>
<ellipse fill="none" stroke="#000000" cx="84.2964" cy="-584" rx="29.9954" ry="29.9954"/>
<text text-anchor="middle" x="84.2964" y="-580.3" font-family="Times,serif" font-size="14.00" fill="#000000">start</text>
</g>
<!-- m_start_connect -->
<g id="node6" class="node">
<title>m_start_connect</title>
<polygon fill="#ffffff" stroke="transparent" points="181.7964,-253 181.7964,-386 346.7964,-386 346.7964,-253 181.7964,-253"/>
<path fill="#e5e5e5" stroke="transparent" d="M194.9631,-357.5C194.9631,-357.5 334.6298,-357.5 334.6298,-357.5 338.4631,-357.5 342.2964,-361.3333 342.2964,-365.1667 342.2964,-365.1667 342.2964,-372.8333 342.2964,-372.8333 342.2964,-376.6667 338.4631,-380.5 334.6298,-380.5 334.6298,-380.5 194.9631,-380.5 194.9631,-380.5 191.1298,-380.5 187.2964,-376.6667 187.2964,-372.8333 187.2964,-372.8333 187.2964,-365.1667 187.2964,-365.1667 187.2964,-361.3333 191.1298,-357.5 194.9631,-357.5"/>
<path fill="none" stroke="#000000" d="M194.9631,-357.5C194.9631,-357.5 334.6298,-357.5 334.6298,-357.5 338.4631,-357.5 342.2964,-361.3333 342.2964,-365.1667 342.2964,-365.1667 342.2964,-372.8333 342.2964,-372.8333 342.2964,-376.6667 338.4631,-380.5 334.6298,-380.5 334.6298,-380.5 194.9631,-380.5 194.9631,-380.5 191.1298,-380.5 187.2964,-376.6667 187.2964,-372.8333 187.2964,-372.8333 187.2964,-365.1667 187.2964,-365.1667 187.2964,-361.3333 191.1298,-357.5 194.9631,-357.5"/>
<text text-anchor="start" x="243.2964" y="-365.3" font-family="Times,serif" font-size="14.00" fill="#000000">connect</text>
<text text-anchor="start" x="192.2964" y="-339.3" font-family="Times,serif" font-size="14.00" fill="#000000">connect to server endpoint</text>
<text text-anchor="start" x="228.2964" y="-314.3" font-family="Times,serif" font-size="14.00" fill="#000000">set nickname</text>
<text text-anchor="start" x="209.7964" y="-289.3" font-family="Times,serif" font-size="14.00" fill="#000000">use connect timeout</text>
<text text-anchor="start" x="232.2964" y="-264.3" font-family="Times,serif" font-size="14.00" fill="#000000">send (hello)</text>
<polygon fill="none" stroke="#000000" points="181.7964,-253 181.7964,-386 346.7964,-386 346.7964,-253 181.7964,-253"/>
</g>
<!-- s_start&#45;&gt;m_start_connect -->
<g id="edge4" class="edge">
<title>s_start&#45;&gt;m_start_connect</title>
<path fill="none" stroke="#000000" d="M101.2304,-559.1165C126.0369,-522.6647 173.3545,-453.1341 210.6556,-398.3223"/>
<polygon fill="#000000" stroke="#000000" points="213.5839,-400.2402 216.3165,-390.0039 207.7968,-396.302 213.5839,-400.2402"/>
</g>
<!-- m_start_bad_endpoint -->
<g id="node7" class="node">
<title>m_start_bad_endpoint</title>
<polygon fill="#ffffff" stroke="transparent" points="20.7964,-278 20.7964,-361 147.7964,-361 147.7964,-278 20.7964,-278"/>
<path fill="#e5e5e5" stroke="transparent" d="M33.9631,-332.5C33.9631,-332.5 135.6298,-332.5 135.6298,-332.5 139.4631,-332.5 143.2964,-336.3333 143.2964,-340.1667 143.2964,-340.1667 143.2964,-347.8333 143.2964,-347.8333 143.2964,-351.6667 139.4631,-355.5 135.6298,-355.5 135.6298,-355.5 33.9631,-355.5 33.9631,-355.5 30.1298,-355.5 26.2964,-351.6667 26.2964,-347.8333 26.2964,-347.8333 26.2964,-340.1667 26.2964,-340.1667 26.2964,-336.3333 30.1298,-332.5 33.9631,-332.5"/>
<path fill="none" stroke="#000000" d="M33.9631,-332.5C33.9631,-332.5 135.6298,-332.5 135.6298,-332.5 139.4631,-332.5 143.2964,-336.3333 143.2964,-340.1667 143.2964,-340.1667 143.2964,-347.8333 143.2964,-347.8333 143.2964,-351.6667 139.4631,-355.5 135.6298,-355.5 135.6298,-355.5 33.9631,-355.5 33.9631,-355.5 30.1298,-355.5 26.2964,-351.6667 26.2964,-347.8333 26.2964,-347.8333 26.2964,-340.1667 26.2964,-340.1667 26.2964,-336.3333 30.1298,-332.5 33.9631,-332.5"/>
<text text-anchor="start" x="49.2964" y="-340.3" font-family="Times,serif" font-size="14.00" fill="#000000">bad endpoint</text>
<text text-anchor="start" x="31.2964" y="-314.3" font-family="Times,serif" font-size="14.00" fill="#000000">signal bad endpoint</text>
<text text-anchor="start" x="58.7964" y="-289.3" font-family="Times,serif" font-size="14.00" fill="#000000">terminate</text>
<polygon fill="none" stroke="#000000" points="20.7964,-278 20.7964,-361 147.7964,-361 147.7964,-278 20.7964,-278"/>
</g>
<!-- s_start&#45;&gt;m_start_bad_endpoint -->
<g id="edge7" class="edge">
<title>s_start&#45;&gt;m_start_bad_endpoint</title>
<path fill="none" stroke="#000000" d="M79.8331,-554.1726C77.2405,-510.8915 76.8525,-429.8999 78.6691,-375.332"/>
<polygon fill="#000000" stroke="#000000" points="82.1745,-375.2509 79.0478,-365.1279 75.1793,-374.9912 82.1745,-375.2509"/>
</g>
<!-- s_start&#45;&gt;m_start_bad_endpoint -->
<g id="edge8" class="edge">
<title>s_start&#45;&gt;m_start_bad_endpoint</title>
<path fill="none" stroke="#000000" d="M89.2907,-544.1503C91.5436,-496.1234 91.6283,-415.6002 89.545,-365.1279"/>
<polygon fill="#000000" stroke="#000000" points="85.7938,-544.0015 88.7598,-554.1726 92.784,-544.3718 85.7938,-544.0015"/>
</g>
<!-- s_expect_hello_ok -->
<g id="node2" class="node">
<title>s_expect_hello_ok</title>
<ellipse fill="none" stroke="#000000" cx="641.2964" cy="-584" rx="64.9888" ry="64.9888"/>
<ellipse fill="none" stroke="#000000" cx="641.2964" cy="-584" rx="68.9885" ry="68.9885"/>
<text text-anchor="middle" x="641.2964" y="-580.3" font-family="Times,serif" font-size="14.00" fill="#000000">expect hello ok</text>
</g>
<!-- s_defaults -->
<g id="node5" class="node">
<title>s_defaults</title>
<ellipse fill="none" stroke="#000000" cx="641.2964" cy="-319.5" rx="38.2082" ry="38.2082"/>
<ellipse fill="none" stroke="#000000" cx="641.2964" cy="-319.5" rx="42.1937" ry="42.1937"/>
<text text-anchor="middle" x="641.2964" y="-315.8" font-family="Times,serif" font-size="14.00" fill="#000000">defaults</text>
</g>
<!-- s_expect_hello_ok&#45;&gt;s_defaults -->
<g id="edge1" class="edge">
<title>s_expect_hello_ok&#45;&gt;s_defaults</title>
<path fill="none" stroke="#000000" stroke-dasharray="5,2" d="M641.2964,-514.8512C641.2964,-470.2617 641.2964,-413.1719 641.2964,-372.2413"/>
<polygon fill="none" stroke="#000000" points="644.7965,-372.2008 641.2964,-362.2008 637.7965,-372.2009 644.7965,-372.2008"/>
</g>
<!-- s_expect_hello_ok&#45;&gt;m_start_connect -->
<g id="edge5" class="edge">
<title>s_expect_hello_ok&#45;&gt;m_start_connect</title>
<path fill="none" stroke="#000000" d="M576.0407,-538.2171C514.9769,-495.3753 423.1927,-430.9803 355.0119,-383.1452"/>
<polygon fill="#000000" stroke="#000000" points="574.2511,-541.2371 584.4475,-544.1153 578.2715,-535.5067 574.2511,-541.2371"/>
</g>
<!-- m_expect_hello_ok_hello_ok -->
<g id="node8" class="node">
<title>m_expect_hello_ok_hello_ok</title>
<polygon fill="#ffffff" stroke="transparent" points="824.2964,-265.5 824.2964,-373.5 946.2964,-373.5 946.2964,-265.5 824.2964,-265.5"/>
<path fill="#c0c0c0" stroke="transparent" d="M836.9631,-345.5C836.9631,-345.5 933.6298,-345.5 933.6298,-345.5 937.4631,-345.5 941.2964,-349.3333 941.2964,-353.1667 941.2964,-353.1667 941.2964,-360.8333 941.2964,-360.8333 941.2964,-364.6667 937.4631,-368.5 933.6298,-368.5 933.6298,-368.5 836.9631,-368.5 836.9631,-368.5 833.1298,-368.5 829.2964,-364.6667 829.2964,-360.8333 829.2964,-360.8333 829.2964,-353.1667 829.2964,-353.1667 829.2964,-349.3333 833.1298,-345.5 836.9631,-345.5"/>
<path fill="none" stroke="#000000" d="M836.9631,-345.5C836.9631,-345.5 933.6298,-345.5 933.6298,-345.5 937.4631,-345.5 941.2964,-349.3333 941.2964,-353.1667 941.2964,-353.1667 941.2964,-360.8333 941.2964,-360.8333 941.2964,-364.6667 937.4631,-368.5 933.6298,-368.5 933.6298,-368.5 836.9631,-368.5 836.9631,-368.5 833.1298,-368.5 829.2964,-364.6667 829.2964,-360.8333 829.2964,-360.8333 829.2964,-353.1667 829.2964,-353.1667 829.2964,-349.3333 833.1298,-345.5 836.9631,-345.5"/>
<text text-anchor="start" x="862.7964" y="-353.3" font-family="Times,serif" font-size="14.00" fill="#000000">hello ok</text>
<polygon fill="#c0c0c0" stroke="transparent" points="829.2964,-320.5 829.2964,-341.5 890.2964,-341.5 890.2964,-320.5 829.2964,-320.5"/>
<text text-anchor="start" x="833.2964" y="-327.3" font-family="Times,serif" font-size="14.00" fill="#000000">nickname</text>
<polygon fill="#c0c0c0" stroke="transparent" points="894.2964,-320.5 894.2964,-341.5 941.2964,-341.5 941.2964,-320.5 894.2964,-320.5"/>
<text text-anchor="start" x="897.2964" y="-327.3" font-family="Times,serif" font-size="14.00" fill="#000000">[string]</text>
<text text-anchor="start" x="839.7964" y="-302.3" font-family="Times,serif" font-size="14.00" fill="#000000">signal connected</text>
<text text-anchor="start" x="834.2964" y="-277.3" font-family="Times,serif" font-size="14.00" fill="#000000">client is connected</text>
<polygon fill="none" stroke="#000000" points="824.2964,-265.5 824.2964,-373.5 946.2964,-373.5 946.2964,-265.5 824.2964,-265.5"/>
</g>
<!-- s_expect_hello_ok&#45;&gt;m_expect_hello_ok_hello_ok -->
<g id="edge9" class="edge">
<title>s_expect_hello_ok&#45;&gt;m_expect_hello_ok_hello_ok</title>
<path fill="none" stroke="#000000" d="M688.3421,-533.0017C727.1716,-490.9099 782.5401,-430.8895 824.6876,-385.2009"/>
<polygon fill="#000000" stroke="#000000" points="827.3907,-387.4327 831.5986,-377.7093 822.2455,-382.6863 827.3907,-387.4327"/>
</g>
<!-- s_connected -->
<g id="node3" class="node">
<title>s_connected</title>
<ellipse fill="none" stroke="#000000" cx="1360.2964" cy="-584" rx="46.2806" ry="46.2806"/>
<ellipse fill="none" stroke="#000000" cx="1360.2964" cy="-584" rx="50.2922" ry="50.2922"/>
<text text-anchor="middle" x="1360.2964" y="-580.3" font-family="Times,serif" font-size="14.00" fill="#000000">connected</text>
</g>
<!-- s_connected&#45;&gt;s_defaults -->
<g id="edge2" class="edge">
<title>s_connected&#45;&gt;s_defaults</title>
<path fill="none" stroke="#000000" stroke-dasharray="5,2" d="M1312.5782,-568.4095C1216.3238,-536.709 992.3051,-461.6532 807.2964,-390 767.3021,-374.5103 722.5813,-355.4125 689.6425,-341.0025"/>
<polygon fill="none" stroke="#000000" points="690.812,-337.6936 680.2484,-336.8802 687.9991,-344.1036 690.812,-337.6936"/>
</g>
<!-- s_connected&#45;&gt;m_expect_hello_ok_hello_ok -->
<g id="edge10" class="edge">
<title>s_connected&#45;&gt;m_expect_hello_ok_hello_ok</title>
<path fill="none" stroke="#000000" d="M1307.6378,-554.6774C1221.458,-506.6889 1050.3168,-411.3903 954.4608,-358.0136"/>
<polygon fill="#000000" stroke="#000000" points="1306.0214,-557.7834 1316.461,-559.5906 1309.4269,-551.6676 1306.0214,-557.7834"/>
</g>
<!-- m_connected_create_perf -->
<g id="node9" class="node">
<title>m_connected_create_perf</title>
<polygon fill="#ffffff" stroke="transparent" points="1095.7964,-278 1095.7964,-361 1210.7964,-361 1210.7964,-278 1095.7964,-278"/>
<path fill="#e5e5e5" stroke="transparent" d="M1108.9631,-332.5C1108.9631,-332.5 1198.6298,-332.5 1198.6298,-332.5 1202.4631,-332.5 1206.2964,-336.3333 1206.2964,-340.1667 1206.2964,-340.1667 1206.2964,-347.8333 1206.2964,-347.8333 1206.2964,-351.6667 1202.4631,-355.5 1198.6298,-355.5 1198.6298,-355.5 1108.9631,-355.5 1108.9631,-355.5 1105.1298,-355.5 1101.2964,-351.6667 1101.2964,-347.8333 1101.2964,-347.8333 1101.2964,-340.1667 1101.2964,-340.1667 1101.2964,-336.3333 1105.1298,-332.5 1108.9631,-332.5"/>
<path fill="none" stroke="#000000" d="M1108.9631,-332.5C1108.9631,-332.5 1198.6298,-332.5 1198.6298,-332.5 1202.4631,-332.5 1206.2964,-336.3333 1206.2964,-340.1667 1206.2964,-340.1667 1206.2964,-347.8333 1206.2964,-347.8333 1206.2964,-351.6667 1202.4631,-355.5 1198.6298,-355.5 1198.6298,-355.5 1108.9631,-355.5 1108.9631,-355.5 1105.1298,-355.5 1101.2964,-351.6667 1101.2964,-347.8333 1101.2964,-347.8333 1101.2964,-340.1667 1101.2964,-340.1667 1101.2964,-336.3333 1105.1298,-332.5 1108.9631,-332.5"/>
<text text-anchor="start" x="1124.7964" y="-340.3" font-family="Times,serif" font-size="14.00" fill="#000000">create perf</text>
<text text-anchor="start" x="1106.2964" y="-314.3" font-family="Times,serif" font-size="14.00" fill="#000000">set perf attributes</text>
<text text-anchor="start" x="1118.7964" y="-289.3" font-family="Times,serif" font-size="14.00" fill="#000000">send (create)</text>
<polygon fill="none" stroke="#000000" points="1095.7964,-278 1095.7964,-361 1210.7964,-361 1210.7964,-278 1095.7964,-278"/>
</g>
<!-- s_connected&#45;&gt;m_connected_create_perf -->
<g id="edge11" class="edge">
<title>s_connected&#45;&gt;m_connected_create_perf</title>
<path fill="none" stroke="#000000" d="M1326.437,-546.9439C1288.7928,-501.7336 1228.4682,-424.9492 1189.8045,-373.2491"/>
<polygon fill="#000000" stroke="#000000" points="1192.572,-371.1054 1183.792,-365.1756 1186.9578,-375.2864 1192.572,-371.1054"/>
</g>
<!-- s_connected&#45;&gt;m_connected_create_perf -->
<g id="edge12" class="edge">
<title>s_connected&#45;&gt;m_connected_create_perf</title>
<path fill="none" stroke="#000000" d="M1326.5222,-533.9132C1290.3243,-485.3303 1233.0722,-412.2483 1194.3198,-365.208"/>
<polygon fill="#000000" stroke="#000000" points="1323.8174,-536.1417 1332.5854,-542.0892 1329.44,-531.972 1323.8174,-536.1417"/>
</g>
<!-- m_connected_ask_lookup -->
<g id="node10" class="node">
<title>m_connected_ask_lookup</title>
<polygon fill="#ffffff" stroke="transparent" points="1245.2964,-278 1245.2964,-361 1341.2964,-361 1341.2964,-278 1245.2964,-278"/>
<path fill="#e5e5e5" stroke="transparent" d="M1257.9631,-332.5C1257.9631,-332.5 1328.6298,-332.5 1328.6298,-332.5 1332.4631,-332.5 1336.2964,-336.3333 1336.2964,-340.1667 1336.2964,-340.1667 1336.2964,-347.8333 1336.2964,-347.8333 1336.2964,-351.6667 1332.4631,-355.5 1328.6298,-355.5 1328.6298,-355.5 1257.9631,-355.5 1257.9631,-355.5 1254.1298,-355.5 1250.2964,-351.6667 1250.2964,-347.8333 1250.2964,-347.8333 1250.2964,-340.1667 1250.2964,-340.1667 1250.2964,-336.3333 1254.1298,-332.5 1257.9631,-332.5"/>
<path fill="none" stroke="#000000" d="M1257.9631,-332.5C1257.9631,-332.5 1328.6298,-332.5 1328.6298,-332.5 1332.4631,-332.5 1336.2964,-336.3333 1336.2964,-340.1667 1336.2964,-340.1667 1336.2964,-347.8333 1336.2964,-347.8333 1336.2964,-351.6667 1332.4631,-355.5 1328.6298,-355.5 1328.6298,-355.5 1257.9631,-355.5 1257.9631,-355.5 1254.1298,-355.5 1250.2964,-351.6667 1250.2964,-347.8333 1250.2964,-347.8333 1250.2964,-340.1667 1250.2964,-340.1667 1250.2964,-336.3333 1254.1298,-332.5 1257.9631,-332.5"/>
<text text-anchor="start" x="1263.2964" y="-340.3" font-family="Times,serif" font-size="14.00" fill="#000000">ask lookup</text>
<text text-anchor="start" x="1257.2964" y="-314.3" font-family="Times,serif" font-size="14.00" fill="#000000">set perf ident</text>
<text text-anchor="start" x="1255.2964" y="-289.3" font-family="Times,serif" font-size="14.00" fill="#000000">send (lookup)</text>
<polygon fill="none" stroke="#000000" points="1245.2964,-278 1245.2964,-361 1341.2964,-361 1341.2964,-278 1245.2964,-278"/>
</g>
<!-- s_connected&#45;&gt;m_connected_ask_lookup -->
<g id="edge14" class="edge">
<title>s_connected&#45;&gt;m_connected_ask_lookup</title>
<path fill="none" stroke="#000000" d="M1343.0023,-536.7127C1329.7046,-491.3495 1312.2556,-422.858 1301.7272,-374.9471"/>
<polygon fill="#000000" stroke="#000000" points="1305.1222,-374.087 1299.5896,-365.0515 1298.28,-375.5651 1305.1222,-374.087"/>
</g>
<!-- s_connected&#45;&gt;m_connected_ask_lookup -->
<g id="edge15" class="edge">
<title>s_connected&#45;&gt;m_connected_ask_lookup</title>
<path fill="none" stroke="#000000" d="M1350.9133,-524.2476C1340.1681,-475.9792 1323.0488,-409.064 1310.0804,-365.0515"/>
<polygon fill="#000000" stroke="#000000" points="1347.5457,-525.2309 1353.1057,-534.2496 1354.3833,-523.7321 1347.5457,-525.2309"/>
</g>
<!-- m_connected_perf_ok -->
<g id="node11" class="node">
<title>m_connected_perf_ok</title>
<polygon fill="#ffffff" stroke="transparent" points="1682.7964,-265.5 1682.7964,-373.5 1801.7964,-373.5 1801.7964,-265.5 1682.7964,-265.5"/>
<path fill="#c0c0c0" stroke="transparent" d="M1695.9631,-345.5C1695.9631,-345.5 1789.6298,-345.5 1789.6298,-345.5 1793.4631,-345.5 1797.2964,-349.3333 1797.2964,-353.1667 1797.2964,-353.1667 1797.2964,-360.8333 1797.2964,-360.8333 1797.2964,-364.6667 1793.4631,-368.5 1789.6298,-368.5 1789.6298,-368.5 1695.9631,-368.5 1695.9631,-368.5 1692.1298,-368.5 1688.2964,-364.6667 1688.2964,-360.8333 1688.2964,-360.8333 1688.2964,-353.1667 1688.2964,-353.1667 1688.2964,-349.3333 1692.1298,-345.5 1695.9631,-345.5"/>
<path fill="none" stroke="#000000" d="M1695.9631,-345.5C1695.9631,-345.5 1789.6298,-345.5 1789.6298,-345.5 1793.4631,-345.5 1797.2964,-349.3333 1797.2964,-353.1667 1797.2964,-353.1667 1797.2964,-360.8333 1797.2964,-360.8333 1797.2964,-364.6667 1793.4631,-368.5 1789.6298,-368.5 1789.6298,-368.5 1695.9631,-368.5 1695.9631,-368.5 1692.1298,-368.5 1688.2964,-364.6667 1688.2964,-360.8333 1688.2964,-360.8333 1688.2964,-353.1667 1688.2964,-353.1667 1688.2964,-349.3333 1692.1298,-345.5 1695.9631,-345.5"/>
<text text-anchor="start" x="1722.7964" y="-353.3" font-family="Times,serif" font-size="14.00" fill="#000000">perf ok</text>
<polygon fill="#c0c0c0" stroke="transparent" points="1688.2964,-320.5 1688.2964,-341.5 1722.2964,-341.5 1722.2964,-320.5 1688.2964,-320.5"/>
<text text-anchor="start" x="1691.2964" y="-327.3" font-family="Times,serif" font-size="14.00" fill="#000000">ident</text>
<polygon fill="#c0c0c0" stroke="transparent" points="1726.2964,-320.5 1726.2964,-341.5 1797.2964,-341.5 1797.2964,-320.5 1726.2964,-320.5"/>
<text text-anchor="start" x="1729.2964" y="-327.3" font-family="Times,serif" font-size="14.00" fill="#000000">[number*8]</text>
<text text-anchor="start" x="1701.7964" y="-302.3" font-family="Times,serif" font-size="14.00" fill="#000000">remember perf</text>
<text text-anchor="start" x="1703.2964" y="-277.3" font-family="Times,serif" font-size="14.00" fill="#000000">signal got perf</text>
<polygon fill="none" stroke="#000000" points="1682.7964,-265.5 1682.7964,-373.5 1801.7964,-373.5 1801.7964,-265.5 1682.7964,-265.5"/>
</g>
<!-- s_connected&#45;&gt;m_connected_perf_ok -->
<g id="edge17" class="edge">
<title>s_connected&#45;&gt;m_connected_perf_ok</title>
<path fill="none" stroke="#000000" d="M1404.2774,-559.5379C1465.2638,-524.8666 1577.9756,-458.0459 1666.2964,-390 1668.6354,-388.1979 1670.9868,-386.3373 1673.3392,-384.433"/>
<polygon fill="#000000" stroke="#000000" points="1675.8612,-386.8886 1681.3259,-377.8119 1671.3936,-381.4997 1675.8612,-386.8886"/>
</g>
<!-- m_connected_ask_info -->
<g id="node12" class="node">
<title>m_connected_ask_info</title>
<polygon fill="#ffffff" stroke="transparent" points="1375.2964,-278 1375.2964,-361 1479.2964,-361 1479.2964,-278 1375.2964,-278"/>
<path fill="#e5e5e5" stroke="transparent" d="M1387.9631,-332.5C1387.9631,-332.5 1466.6298,-332.5 1466.6298,-332.5 1470.4631,-332.5 1474.2964,-336.3333 1474.2964,-340.1667 1474.2964,-340.1667 1474.2964,-347.8333 1474.2964,-347.8333 1474.2964,-351.6667 1470.4631,-355.5 1466.6298,-355.5 1466.6298,-355.5 1387.9631,-355.5 1387.9631,-355.5 1384.1298,-355.5 1380.2964,-351.6667 1380.2964,-347.8333 1380.2964,-347.8333 1380.2964,-340.1667 1380.2964,-340.1667 1380.2964,-336.3333 1384.1298,-332.5 1387.9631,-332.5"/>
<path fill="none" stroke="#000000" d="M1387.9631,-332.5C1387.9631,-332.5 1466.6298,-332.5 1466.6298,-332.5 1470.4631,-332.5 1474.2964,-336.3333 1474.2964,-340.1667 1474.2964,-340.1667 1474.2964,-347.8333 1474.2964,-347.8333 1474.2964,-351.6667 1470.4631,-355.5 1466.6298,-355.5 1466.6298,-355.5 1387.9631,-355.5 1387.9631,-355.5 1384.1298,-355.5 1380.2964,-351.6667 1380.2964,-347.8333 1380.2964,-347.8333 1380.2964,-340.1667 1380.2964,-340.1667 1380.2964,-336.3333 1384.1298,-332.5 1387.9631,-332.5"/>
<text text-anchor="start" x="1405.2964" y="-340.3" font-family="Times,serif" font-size="14.00" fill="#000000">ask info</text>
<text text-anchor="start" x="1385.2964" y="-314.3" font-family="Times,serif" font-size="14.00" fill="#000000">set info request</text>
<text text-anchor="start" x="1397.2964" y="-289.3" font-family="Times,serif" font-size="14.00" fill="#000000">send (info)</text>
<polygon fill="none" stroke="#000000" points="1375.2964,-278 1375.2964,-361 1479.2964,-361 1479.2964,-278 1375.2964,-278"/>
</g>
<!-- s_connected&#45;&gt;m_connected_ask_info -->
<g id="edge19" class="edge">
<title>s_connected&#45;&gt;m_connected_ask_info</title>
<path fill="none" stroke="#000000" d="M1367.4872,-534.2496C1377.2724,-488.844 1394.1802,-421.8363 1407.6859,-374.7759"/>
<polygon fill="#000000" stroke="#000000" points="1411.0822,-375.631 1410.5124,-365.0515 1404.3603,-373.6772 1411.0822,-375.631"/>
</g>
<!-- s_connected&#45;&gt;m_connected_ask_info -->
<g id="edge20" class="edge">
<title>s_connected&#45;&gt;m_connected_ask_info</title>
<path fill="none" stroke="#000000" d="M1380.4004,-527.0011C1394.2474,-478.5516 1411.4955,-409.9072 1421.0033,-365.0515"/>
<polygon fill="#000000" stroke="#000000" points="1377.0078,-526.1339 1377.5906,-536.7127 1383.732,-528.0795 1377.0078,-526.1339"/>
</g>
<!-- m_connected_info_ok -->
<g id="node13" class="node">
<title>m_connected_info_ok</title>
<polygon fill="#ffffff" stroke="transparent" points="1513.7964,-253 1513.7964,-386 1648.7964,-386 1648.7964,-253 1513.7964,-253"/>
<path fill="#c0c0c0" stroke="transparent" d="M1526.9631,-357.5C1526.9631,-357.5 1636.6298,-357.5 1636.6298,-357.5 1640.4631,-357.5 1644.2964,-361.3333 1644.2964,-365.1667 1644.2964,-365.1667 1644.2964,-372.8333 1644.2964,-372.8333 1644.2964,-376.6667 1640.4631,-380.5 1636.6298,-380.5 1636.6298,-380.5 1526.9631,-380.5 1526.9631,-380.5 1523.1298,-380.5 1519.2964,-376.6667 1519.2964,-372.8333 1519.2964,-372.8333 1519.2964,-365.1667 1519.2964,-365.1667 1519.2964,-361.3333 1523.1298,-357.5 1526.9631,-357.5"/>
<path fill="none" stroke="#000000" d="M1526.9631,-357.5C1526.9631,-357.5 1636.6298,-357.5 1636.6298,-357.5 1640.4631,-357.5 1644.2964,-361.3333 1644.2964,-365.1667 1644.2964,-365.1667 1644.2964,-372.8333 1644.2964,-372.8333 1644.2964,-376.6667 1640.4631,-380.5 1636.6298,-380.5 1636.6298,-380.5 1526.9631,-380.5 1526.9631,-380.5 1523.1298,-380.5 1519.2964,-376.6667 1519.2964,-372.8333 1519.2964,-372.8333 1519.2964,-365.1667 1519.2964,-365.1667 1519.2964,-361.3333 1523.1298,-357.5 1526.9631,-357.5"/>
<text text-anchor="start" x="1561.7964" y="-365.3" font-family="Times,serif" font-size="14.00" fill="#000000">info ok</text>
<polygon fill="#c0c0c0" stroke="transparent" points="1519.2964,-332.5 1519.2964,-353.5 1569.2964,-353.5 1569.2964,-332.5 1519.2964,-332.5"/>
<text text-anchor="start" x="1538.2964" y="-339.3" font-family="Times,serif" font-size="14.00" fill="#000000">ident</text>
<polygon fill="#c0c0c0" stroke="transparent" points="1573.2964,-332.5 1573.2964,-353.5 1644.2964,-353.5 1644.2964,-332.5 1573.2964,-332.5"/>
<text text-anchor="start" x="1576.2964" y="-339.3" font-family="Times,serif" font-size="14.00" fill="#000000">[number*8]</text>
<polygon fill="#c0c0c0" stroke="transparent" points="1519.2964,-307.5 1519.2964,-328.5 1569.2964,-328.5 1569.2964,-307.5 1519.2964,-307.5"/>
<text text-anchor="start" x="1522.2964" y="-314.3" font-family="Times,serif" font-size="14.00" fill="#000000">perfinfo</text>
<polygon fill="#c0c0c0" stroke="transparent" points="1573.2964,-307.5 1573.2964,-328.5 1644.2964,-328.5 1644.2964,-307.5 1573.2964,-307.5"/>
<text text-anchor="start" x="1576.2964" y="-314.3" font-family="Times,serif" font-size="14.00" fill="#000000">[string]</text>
<text text-anchor="start" x="1540.7964" y="-289.3" font-family="Times,serif" font-size="14.00" fill="#000000">remember info</text>
<text text-anchor="start" x="1542.2964" y="-264.3" font-family="Times,serif" font-size="14.00" fill="#000000">signal got info</text>
<polygon fill="none" stroke="#000000" points="1513.7964,-253 1513.7964,-386 1648.7964,-386 1648.7964,-253 1513.7964,-253"/>
</g>
<!-- s_connected&#45;&gt;m_connected_info_ok -->
<g id="edge22" class="edge">
<title>s_connected&#45;&gt;m_connected_info_ok</title>
<path fill="none" stroke="#000000" d="M1389.5359,-542.9621C1420.044,-504.3381 1468.8331,-445.4766 1509.5992,-397.8593"/>
<polygon fill="#000000" stroke="#000000" points="1512.4728,-399.8851 1516.3284,-390.0167 1507.1603,-395.3268 1512.4728,-399.8851"/>
</g>
<!-- s_connected&#45;&gt;m_connected_info_ok -->
<g id="edge23" class="edge">
<title>s_connected&#45;&gt;m_connected_info_ok</title>
<path fill="none" stroke="#000000" d="M1402.1085,-540.1501C1437.9764,-499.3189 1489.7116,-437.7494 1528.4272,-390.0147"/>
<polygon fill="#000000" stroke="#000000" points="1399.3707,-537.9629 1395.379,-547.777 1404.6196,-542.5942 1399.3707,-537.9629"/>
</g>
<!-- s_have_perf -->
<g id="node4" class="node">
<title>s_have_perf</title>
<ellipse fill="none" stroke="#000000" cx="1999.2964" cy="-826.1961" rx="44.3766" ry="44.3766"/>
<ellipse fill="none" stroke="#000000" cx="1999.2964" cy="-826.1961" rx="48.393" ry="48.393"/>
<text text-anchor="middle" x="1999.2964" y="-822.4961" font-family="Times,serif" font-size="14.00" fill="#000000">have perf</text>
</g>
<!-- s_have_perf&#45;&gt;s_connected -->
<g id="edge3" class="edge">
<title>s_have_perf&#45;&gt;s_connected</title>
<path fill="none" stroke="#000000" stroke-dasharray="5,2" d="M1952.7722,-813.3434C1898.3934,-797.9534 1805.9503,-770.6446 1728.2964,-742 1615.1436,-700.2608 1486.3753,-642.544 1415.1041,-609.6655"/>
<polygon fill="none" stroke="#000000" points="1416.4042,-606.4106 1405.8586,-605.3908 1413.4665,-612.7644 1416.4042,-606.4106"/>
</g>
<!-- s_have_perf&#45;&gt;m_connected_perf_ok -->
<g id="edge18" class="edge">
<title>s_have_perf&#45;&gt;m_connected_perf_ok</title>
<path fill="none" stroke="#000000" d="M1942.2963,-813.634C1879.4034,-798.5146 1784.1545,-771.4575 1762.2964,-742 1682.5477,-634.5246 1706.211,-465.9436 1726.4638,-377.7317"/>
<polygon fill="#000000" stroke="#000000" points="1941.5585,-817.0561 1952.0962,-815.9566 1943.1729,-810.2447 1941.5585,-817.0561"/>
</g>
<!-- m_have_perf_set_socket -->
<g id="node14" class="node">
<title>m_have_perf_set_socket</title>
<polygon fill="#ffffff" stroke="transparent" points="1778.7964,-542.5 1778.7964,-625.5 1895.7964,-625.5 1895.7964,-542.5 1778.7964,-542.5"/>
<path fill="#e5e5e5" stroke="transparent" d="M1791.9631,-597C1791.9631,-597 1883.6298,-597 1883.6298,-597 1887.4631,-597 1891.2964,-600.8333 1891.2964,-604.6667 1891.2964,-604.6667 1891.2964,-612.3333 1891.2964,-612.3333 1891.2964,-616.1667 1887.4631,-620 1883.6298,-620 1883.6298,-620 1791.9631,-620 1791.9631,-620 1788.1298,-620 1784.2964,-616.1667 1784.2964,-612.3333 1784.2964,-612.3333 1784.2964,-604.6667 1784.2964,-604.6667 1784.2964,-600.8333 1788.1298,-597 1791.9631,-597"/>
<path fill="none" stroke="#000000" d="M1791.9631,-597C1791.9631,-597 1883.6298,-597 1883.6298,-597 1887.4631,-597 1891.2964,-600.8333 1891.2964,-604.6667 1891.2964,-604.6667 1891.2964,-612.3333 1891.2964,-612.3333 1891.2964,-616.1667 1887.4631,-620 1883.6298,-620 1883.6298,-620 1791.9631,-620 1791.9631,-620 1788.1298,-620 1784.2964,-616.1667 1784.2964,-612.3333 1784.2964,-612.3333 1784.2964,-604.6667 1784.2964,-604.6667 1784.2964,-600.8333 1788.1298,-597 1791.9631,-597"/>
<text text-anchor="start" x="1810.7964" y="-604.8" font-family="Times,serif" font-size="14.00" fill="#000000">set socket</text>
<text text-anchor="start" x="1789.2964" y="-578.8" font-family="Times,serif" font-size="14.00" fill="#000000">set socket request</text>
<text text-anchor="start" x="1801.2964" y="-553.8" font-family="Times,serif" font-size="14.00" fill="#000000">send (socket)</text>
<polygon fill="none" stroke="#000000" points="1778.7964,-542.5 1778.7964,-625.5 1895.7964,-625.5 1895.7964,-542.5 1778.7964,-542.5"/>
</g>
<!-- s_have_perf&#45;&gt;m_have_perf_set_socket -->
<g id="edge24" class="edge">
<title>s_have_perf&#45;&gt;m_have_perf_set_socket</title>
<path fill="none" stroke="#000000" d="M1958.7905,-799.2914C1940.379,-783.7956 1919.5182,-763.2242 1904.2964,-742 1881.5479,-710.281 1862.5199,-670.6943 1850.3243,-639.0808"/>
<polygon fill="#000000" stroke="#000000" points="1853.5398,-637.6867 1846.7622,-629.5433 1846.9822,-640.1358 1853.5398,-637.6867"/>
</g>
<!-- s_have_perf&#45;&gt;m_have_perf_set_socket -->
<g id="edge25" class="edge">
<title>s_have_perf&#45;&gt;m_have_perf_set_socket</title>
<path fill="none" stroke="#000000" d="M1958.8137,-783.849C1946.1976,-771.2071 1932.8832,-756.7614 1922.2964,-742 1897.1946,-706.9997 1876.6229,-662.4198 1861.7226,-629.5433"/>
<polygon fill="#000000" stroke="#000000" points="1956.5585,-786.5408 1966.1352,-791.0727 1961.4749,-781.5579 1956.5585,-786.5408"/>
</g>
<!-- m_have_perf_socket_ok -->
<g id="node15" class="node">
<title>m_have_perf_socket_ok</title>
<polygon fill="#ffffff" stroke="transparent" points="1929.7964,-505 1929.7964,-663 2068.7964,-663 2068.7964,-505 1929.7964,-505"/>
<path fill="#c0c0c0" stroke="transparent" d="M1942.9631,-635C1942.9631,-635 2056.6298,-635 2056.6298,-635 2060.4631,-635 2064.2964,-638.8333 2064.2964,-642.6667 2064.2964,-642.6667 2064.2964,-650.3333 2064.2964,-650.3333 2064.2964,-654.1667 2060.4631,-658 2056.6298,-658 2056.6298,-658 1942.9631,-658 1942.9631,-658 1939.1298,-658 1935.2964,-654.1667 1935.2964,-650.3333 1935.2964,-650.3333 1935.2964,-642.6667 1935.2964,-642.6667 1935.2964,-638.8333 1939.1298,-635 1942.9631,-635"/>
<path fill="none" stroke="#000000" d="M1942.9631,-635C1942.9631,-635 2056.6298,-635 2056.6298,-635 2060.4631,-635 2064.2964,-638.8333 2064.2964,-642.6667 2064.2964,-642.6667 2064.2964,-650.3333 2064.2964,-650.3333 2064.2964,-654.1667 2060.4631,-658 2056.6298,-658 2056.6298,-658 1942.9631,-658 1942.9631,-658 1939.1298,-658 1935.2964,-654.1667 1935.2964,-650.3333 1935.2964,-650.3333 1935.2964,-642.6667 1935.2964,-642.6667 1935.2964,-638.8333 1939.1298,-635 1942.9631,-635"/>
<text text-anchor="start" x="1973.7964" y="-642.8" font-family="Times,serif" font-size="14.00" fill="#000000">socket ok</text>
<polygon fill="#c0c0c0" stroke="transparent" points="1935.2964,-610 1935.2964,-631 1989.2964,-631 1989.2964,-610 1935.2964,-610"/>
<text text-anchor="start" x="1958.2964" y="-616.8" font-family="Times,serif" font-size="14.00" fill="#000000">ident</text>
<polygon fill="#c0c0c0" stroke="transparent" points="1993.2964,-610 1993.2964,-631 2064.2964,-631 2064.2964,-610 1993.2964,-610"/>
<text text-anchor="start" x="1996.2964" y="-616.8" font-family="Times,serif" font-size="14.00" fill="#000000">[number*8]</text>
<polygon fill="#c0c0c0" stroke="transparent" points="1935.2964,-585 1935.2964,-606 1989.2964,-606 1989.2964,-585 1935.2964,-585"/>
<text text-anchor="start" x="1961.2964" y="-591.8" font-family="Times,serif" font-size="14.00" fill="#000000">borc</text>
<polygon fill="#c0c0c0" stroke="transparent" points="1993.2964,-585 1993.2964,-606 2064.2964,-606 2064.2964,-585 1993.2964,-585"/>
<text text-anchor="start" x="1996.2964" y="-591.8" font-family="Times,serif" font-size="14.00" fill="#000000">[string]</text>
<polygon fill="#c0c0c0" stroke="transparent" points="1935.2964,-560 1935.2964,-581 1989.2964,-581 1989.2964,-560 1935.2964,-560"/>
<text text-anchor="start" x="1938.2964" y="-566.8" font-family="Times,serif" font-size="14.00" fill="#000000">endpoint</text>
<polygon fill="#c0c0c0" stroke="transparent" points="1993.2964,-560 1993.2964,-581 2064.2964,-581 2064.2964,-560 1993.2964,-560"/>
<text text-anchor="start" x="1996.2964" y="-566.8" font-family="Times,serif" font-size="14.00" fill="#000000">[string]</text>
<text text-anchor="start" x="1951.2964" y="-541.8" font-family="Times,serif" font-size="14.00" fill="#000000">set socket request</text>
<text text-anchor="start" x="1942.7964" y="-516.8" font-family="Times,serif" font-size="14.00" fill="#000000">signal socket request</text>
<polygon fill="none" stroke="#000000" points="1929.7964,-505 1929.7964,-663 2068.7964,-663 2068.7964,-505 1929.7964,-505"/>
</g>
<!-- s_have_perf&#45;&gt;m_have_perf_socket_ok -->
<g id="edge27" class="edge">
<title>s_have_perf&#45;&gt;m_have_perf_socket_ok</title>
<path fill="none" stroke="#000000" d="M1993.7814,-778.0564C1992.6627,-749.3035 1992.304,-711.802 1992.7054,-677.4395"/>
<polygon fill="#000000" stroke="#000000" points="1996.206,-677.4148 1992.8465,-667.3667 1989.2067,-677.3167 1996.206,-677.4148"/>
</g>
<!-- s_have_perf&#45;&gt;m_have_perf_socket_ok -->
<g id="edge28" class="edge">
<title>s_have_perf&#45;&gt;m_have_perf_socket_ok</title>
<path fill="none" stroke="#000000" d="M2005.1698,-767.7268C2006.0961,-737.6317 2006.2883,-700.4164 2005.7464,-667.3667"/>
<polygon fill="#000000" stroke="#000000" points="2001.6603,-767.941 2004.8115,-778.0564 2008.6561,-768.1837 2001.6603,-767.941"/>
</g>
<!-- m_have_perf_set_measurement -->
<g id="node16" class="node">
<title>m_have_perf_set_measurement</title>
<polygon fill="#ffffff" stroke="transparent" points="2103.2964,-542.5 2103.2964,-625.5 2259.2964,-625.5 2259.2964,-542.5 2103.2964,-542.5"/>
<path fill="#e5e5e5" stroke="transparent" d="M2115.9631,-597C2115.9631,-597 2246.6298,-597 2246.6298,-597 2250.4631,-597 2254.2964,-600.8333 2254.2964,-604.6667 2254.2964,-604.6667 2254.2964,-612.3333 2254.2964,-612.3333 2254.2964,-616.1667 2250.4631,-620 2246.6298,-620 2246.6298,-620 2115.9631,-620 2115.9631,-620 2112.1298,-620 2108.2964,-616.1667 2108.2964,-612.3333 2108.2964,-612.3333 2108.2964,-604.6667 2108.2964,-604.6667 2108.2964,-600.8333 2112.1298,-597 2115.9631,-597"/>
<path fill="none" stroke="#000000" d="M2115.9631,-597C2115.9631,-597 2246.6298,-597 2246.6298,-597 2250.4631,-597 2254.2964,-600.8333 2254.2964,-604.6667 2254.2964,-604.6667 2254.2964,-612.3333 2254.2964,-612.3333 2254.2964,-616.1667 2250.4631,-620 2246.6298,-620 2246.6298,-620 2115.9631,-620 2115.9631,-620 2112.1298,-620 2108.2964,-616.1667 2108.2964,-612.3333 2108.2964,-612.3333 2108.2964,-604.6667 2108.2964,-604.6667 2108.2964,-600.8333 2112.1298,-597 2115.9631,-597"/>
<text text-anchor="start" x="2134.7964" y="-604.8" font-family="Times,serif" font-size="14.00" fill="#000000">set measurement</text>
<text text-anchor="start" x="2113.2964" y="-578.8" font-family="Times,serif" font-size="14.00" fill="#000000">set measurement request</text>
<text text-anchor="start" x="2139.2964" y="-553.8" font-family="Times,serif" font-size="14.00" fill="#000000">send (measure)</text>
<polygon fill="none" stroke="#000000" points="2103.2964,-542.5 2103.2964,-625.5 2259.2964,-625.5 2259.2964,-542.5 2103.2964,-542.5"/>
</g>
<!-- s_have_perf&#45;&gt;m_have_perf_set_measurement -->
<g id="edge29" class="edge">
<title>s_have_perf&#45;&gt;m_have_perf_set_measurement</title>
<path fill="none" stroke="#000000" d="M2032.1057,-790.4957C2046.7863,-776.2174 2063.695,-759.113 2077.2964,-742 2102.9636,-709.7061 2126.8653,-669.8821 2145.422,-638.2952"/>
<polygon fill="#000000" stroke="#000000" points="2148.4714,-640.0143 2150.5113,-629.6177 2142.4332,-636.473 2148.4714,-640.0143"/>
</g>
<!-- s_have_perf&#45;&gt;m_have_perf_set_measurement -->
<g id="edge30" class="edge">
<title>s_have_perf&#45;&gt;m_have_perf_set_measurement</title>
<path fill="none" stroke="#000000" d="M2047.3341,-791.8959C2063.6701,-777.3429 2081.2475,-759.6761 2095.2964,-742 2123.3768,-706.6699 2149.3441,-662.3273 2165.5037,-629.6177"/>
<polygon fill="#000000" stroke="#000000" points="2044.6769,-789.5688 2039.4353,-798.7763 2049.2747,-794.8472 2044.6769,-789.5688"/>
</g>
<!-- m_have_perf_result -->
<g id="node17" class="node">
<title>m_have_perf_result</title>
<polygon fill="#ffffff" stroke="transparent" points="2293.7964,-430 2293.7964,-738 2430.7964,-738 2430.7964,-430 2293.7964,-430"/>
<path fill="#c0c0c0" stroke="transparent" d="M2306.9631,-710C2306.9631,-710 2418.6298,-710 2418.6298,-710 2422.4631,-710 2426.2964,-713.8333 2426.2964,-717.6667 2426.2964,-717.6667 2426.2964,-725.3333 2426.2964,-725.3333 2426.2964,-729.1667 2422.4631,-733 2418.6298,-733 2418.6298,-733 2306.9631,-733 2306.9631,-733 2303.1298,-733 2299.2964,-729.1667 2299.2964,-725.3333 2299.2964,-725.3333 2299.2964,-717.6667 2299.2964,-717.6667 2299.2964,-713.8333 2303.1298,-710 2306.9631,-710"/>
<path fill="none" stroke="#000000" d="M2306.9631,-710C2306.9631,-710 2418.6298,-710 2418.6298,-710 2422.4631,-710 2426.2964,-713.8333 2426.2964,-717.6667 2426.2964,-717.6667 2426.2964,-725.3333 2426.2964,-725.3333 2426.2964,-729.1667 2422.4631,-733 2418.6298,-733 2418.6298,-733 2306.9631,-733 2306.9631,-733 2303.1298,-733 2299.2964,-729.1667 2299.2964,-725.3333 2299.2964,-725.3333 2299.2964,-717.6667 2299.2964,-717.6667 2299.2964,-713.8333 2303.1298,-710 2306.9631,-710"/>
<text text-anchor="start" x="2347.2964" y="-717.8" font-family="Times,serif" font-size="14.00" fill="#000000">result</text>
<polygon fill="#c0c0c0" stroke="transparent" points="2299.2964,-685 2299.2964,-706 2351.2964,-706 2351.2964,-685 2299.2964,-685"/>
<text text-anchor="start" x="2320.2964" y="-691.8" font-family="Times,serif" font-size="14.00" fill="#000000">ident</text>
<polygon fill="#c0c0c0" stroke="transparent" points="2355.2964,-685 2355.2964,-706 2426.2964,-706 2426.2964,-685 2355.2964,-685"/>
<text text-anchor="start" x="2358.2964" y="-691.8" font-family="Times,serif" font-size="14.00" fill="#000000">[number*8]</text>
<polygon fill="#c0c0c0" stroke="transparent" points="2299.2964,-660 2299.2964,-681 2351.2964,-681 2351.2964,-660 2299.2964,-660"/>
<text text-anchor="start" x="2302.2964" y="-666.8" font-family="Times,serif" font-size="14.00" fill="#000000">measure</text>
<polygon fill="#c0c0c0" stroke="transparent" points="2355.2964,-660 2355.2964,-681 2426.2964,-681 2426.2964,-660 2355.2964,-660"/>
<text text-anchor="start" x="2358.2964" y="-666.8" font-family="Times,serif" font-size="14.00" fill="#000000">[string]</text>
<polygon fill="#c0c0c0" stroke="transparent" points="2299.2964,-635 2299.2964,-656 2351.2964,-656 2351.2964,-635 2299.2964,-635"/>
<text text-anchor="start" x="2312.2964" y="-641.8" font-family="Times,serif" font-size="14.00" fill="#000000">nmsgs</text>
<polygon fill="#c0c0c0" stroke="transparent" points="2355.2964,-635 2355.2964,-656 2426.2964,-656 2426.2964,-635 2355.2964,-635"/>
<text text-anchor="start" x="2358.2964" y="-641.8" font-family="Times,serif" font-size="14.00" fill="#000000">[number*4]</text>
<polygon fill="#c0c0c0" stroke="transparent" points="2299.2964,-610 2299.2964,-631 2351.2964,-631 2351.2964,-610 2299.2964,-610"/>
<text text-anchor="start" x="2303.2964" y="-616.8" font-family="Times,serif" font-size="14.00" fill="#000000">msgsize</text>
<polygon fill="#c0c0c0" stroke="transparent" points="2355.2964,-610 2355.2964,-631 2426.2964,-631 2426.2964,-610 2355.2964,-610"/>
<text text-anchor="start" x="2358.2964" y="-616.8" font-family="Times,serif" font-size="14.00" fill="#000000">[number*8]</text>
<polygon fill="#c0c0c0" stroke="transparent" points="2299.2964,-585 2299.2964,-606 2351.2964,-606 2351.2964,-585 2299.2964,-585"/>
<text text-anchor="start" x="2305.2964" y="-591.8" font-family="Times,serif" font-size="14.00" fill="#000000">timeout</text>
<polygon fill="#c0c0c0" stroke="transparent" points="2355.2964,-585 2355.2964,-606 2426.2964,-606 2426.2964,-585 2355.2964,-585"/>
<text text-anchor="start" x="2358.2964" y="-591.8" font-family="Times,serif" font-size="14.00" fill="#000000">[number*4]</text>
<polygon fill="#c0c0c0" stroke="transparent" points="2299.2964,-560 2299.2964,-581 2351.2964,-581 2351.2964,-560 2299.2964,-560"/>
<text text-anchor="start" x="2304.2964" y="-566.8" font-family="Times,serif" font-size="14.00" fill="#000000">time_us</text>
<polygon fill="#c0c0c0" stroke="transparent" points="2355.2964,-560 2355.2964,-581 2426.2964,-581 2426.2964,-560 2355.2964,-560"/>
<text text-anchor="start" x="2358.2964" y="-566.8" font-family="Times,serif" font-size="14.00" fill="#000000">[number*8]</text>
<polygon fill="#c0c0c0" stroke="transparent" points="2299.2964,-535 2299.2964,-556 2351.2964,-556 2351.2964,-535 2299.2964,-535"/>
<text text-anchor="start" x="2309.2964" y="-541.8" font-family="Times,serif" font-size="14.00" fill="#000000">cpu_us</text>
<polygon fill="#c0c0c0" stroke="transparent" points="2355.2964,-535 2355.2964,-556 2426.2964,-556 2426.2964,-535 2355.2964,-535"/>
<text text-anchor="start" x="2358.2964" y="-541.8" font-family="Times,serif" font-size="14.00" fill="#000000">[number*8]</text>
<polygon fill="#c0c0c0" stroke="transparent" points="2299.2964,-510 2299.2964,-531 2351.2964,-531 2351.2964,-510 2299.2964,-510"/>
<text text-anchor="start" x="2322.2964" y="-516.8" font-family="Times,serif" font-size="14.00" fill="#000000">noos</text>
<polygon fill="#c0c0c0" stroke="transparent" points="2355.2964,-510 2355.2964,-531 2426.2964,-531 2426.2964,-510 2355.2964,-510"/>
<text text-anchor="start" x="2358.2964" y="-516.8" font-family="Times,serif" font-size="14.00" fill="#000000">[number*4]</text>
<polygon fill="#c0c0c0" stroke="transparent" points="2299.2964,-485 2299.2964,-506 2351.2964,-506 2351.2964,-485 2299.2964,-485"/>
<text text-anchor="start" x="2312.2964" y="-491.8" font-family="Times,serif" font-size="14.00" fill="#000000">nbytes</text>
<polygon fill="#c0c0c0" stroke="transparent" points="2355.2964,-485 2355.2964,-506 2426.2964,-506 2426.2964,-485 2355.2964,-485"/>
<text text-anchor="start" x="2358.2964" y="-491.8" font-family="Times,serif" font-size="14.00" fill="#000000">[number*8]</text>
<text text-anchor="start" x="2335.2964" y="-466.8" font-family="Times,serif" font-size="14.00" fill="#000000">set results</text>
<text text-anchor="start" x="2326.7964" y="-441.8" font-family="Times,serif" font-size="14.00" fill="#000000">signal results</text>
<polygon fill="none" stroke="#000000" points="2293.7964,-430 2293.7964,-738 2430.7964,-738 2430.7964,-430 2293.7964,-430"/>
</g>
<!-- s_have_perf&#45;&gt;m_have_perf_result -->
<g id="edge32" class="edge">
<title>s_have_perf&#45;&gt;m_have_perf_result</title>
<path fill="none" stroke="#000000" d="M2047.4029,-821.8363C2105.346,-814.4598 2202.6138,-794.7044 2267.2964,-742 2271.2799,-738.7542 2275.1066,-735.273 2278.7826,-731.6"/>
<polygon fill="#000000" stroke="#000000" points="2281.3447,-733.9845 2285.6676,-724.3117 2276.2562,-729.1775 2281.3447,-733.9845"/>
</g>
<!-- s_have_perf&#45;&gt;m_have_perf_result -->
<g id="edge33" class="edge">
<title>s_have_perf&#45;&gt;m_have_perf_result</title>
<path fill="none" stroke="#000000" d="M2057.5527,-822.1755C2120.2754,-815.0736 2219.5956,-795.5341 2285.2964,-742 2285.4175,-741.9014 2285.5384,-741.8025 2285.6592,-741.7034"/>
<polygon fill="#000000" stroke="#000000" points="2057.0046,-818.7139 2047.4297,-823.2497 2057.7433,-825.6749 2057.0046,-818.7139"/>
</g>
<!-- m_defaults_destructor -->
<g id="node18" class="node">
<title>m_defaults_destructor</title>
<polygon fill="#ffffff" stroke="transparent" points="106.7964,-113.5 106.7964,-171.5 211.7964,-171.5 211.7964,-113.5 106.7964,-113.5"/>
<path fill="#e5e5e5" stroke="transparent" d="M119.9631,-143.5C119.9631,-143.5 199.6298,-143.5 199.6298,-143.5 203.4631,-143.5 207.2964,-147.3333 207.2964,-151.1667 207.2964,-151.1667 207.2964,-158.8333 207.2964,-158.8333 207.2964,-162.6667 203.4631,-166.5 199.6298,-166.5 199.6298,-166.5 119.9631,-166.5 119.9631,-166.5 116.1298,-166.5 112.2964,-162.6667 112.2964,-158.8333 112.2964,-158.8333 112.2964,-151.1667 112.2964,-151.1667 112.2964,-147.3333 116.1298,-143.5 119.9631,-143.5"/>
<path fill="none" stroke="#000000" d="M119.9631,-143.5C119.9631,-143.5 199.6298,-143.5 199.6298,-143.5 203.4631,-143.5 207.2964,-147.3333 207.2964,-151.1667 207.2964,-151.1667 207.2964,-158.8333 207.2964,-158.8333 207.2964,-162.6667 203.4631,-166.5 199.6298,-166.5 199.6298,-166.5 119.9631,-166.5 119.9631,-166.5 116.1298,-166.5 112.2964,-162.6667 112.2964,-158.8333 112.2964,-158.8333 112.2964,-151.1667 112.2964,-151.1667 112.2964,-147.3333 116.1298,-143.5 119.9631,-143.5"/>
<text text-anchor="start" x="132.2964" y="-151.3" font-family="Times,serif" font-size="14.00" fill="#000000">destructor</text>
<text text-anchor="start" x="117.2964" y="-125.3" font-family="Times,serif" font-size="14.00" fill="#000000">send (goodbye)</text>
<polygon fill="none" stroke="#000000" points="106.7964,-113.5 106.7964,-171.5 211.7964,-171.5 211.7964,-113.5 106.7964,-113.5"/>
</g>
<!-- s_defaults&#45;&gt;m_defaults_destructor -->
<g id="edge34" class="edge">
<title>s_defaults&#45;&gt;m_defaults_destructor</title>
<path fill="none" stroke="#000000" d="M599.8308,-310.0183C494.153,-284.3756 223.4681,-215.4122 219.2964,-213 205.9252,-205.2683 193.4114,-194.2344 183.2041,-183.1846"/>
<polygon fill="#000000" stroke="#000000" points="185.7505,-180.78 176.5238,-175.5726 180.4893,-185.3973 185.7505,-180.78"/>
</g>
<!-- s_defaults&#45;&gt;m_defaults_destructor -->
<g id="edge35" class="edge">
<title>s_defaults&#45;&gt;m_defaults_destructor</title>
<path fill="none" stroke="#000000" d="M590.4886,-305.3325C482.7311,-276.8755 241.2349,-215.2774 237.2964,-213 220.8395,-203.484 205.6815,-188.966 193.0564,-175.5726"/>
<polygon fill="#000000" stroke="#000000" points="589.6157,-308.7219 600.1784,-307.8979 591.4073,-301.955 589.6157,-308.7219"/>
</g>
<!-- m_defaults_goodbye_ok -->
<g id="node19" class="node">
<title>m_defaults_goodbye_ok</title>
<polygon fill="#ffffff" stroke="transparent" points="245.7964,-101 245.7964,-184 342.7964,-184 342.7964,-101 245.7964,-101"/>
<path fill="#c0c0c0" stroke="transparent" d="M258.9631,-155.5C258.9631,-155.5 330.6298,-155.5 330.6298,-155.5 334.4631,-155.5 338.2964,-159.3333 338.2964,-163.1667 338.2964,-163.1667 338.2964,-170.8333 338.2964,-170.8333 338.2964,-174.6667 334.4631,-178.5 330.6298,-178.5 330.6298,-178.5 258.9631,-178.5 258.9631,-178.5 255.1298,-178.5 251.2964,-174.6667 251.2964,-170.8333 251.2964,-170.8333 251.2964,-163.1667 251.2964,-163.1667 251.2964,-159.3333 255.1298,-155.5 258.9631,-155.5"/>
<path fill="none" stroke="#000000" d="M258.9631,-155.5C258.9631,-155.5 330.6298,-155.5 330.6298,-155.5 334.4631,-155.5 338.2964,-159.3333 338.2964,-163.1667 338.2964,-163.1667 338.2964,-170.8333 338.2964,-170.8333 338.2964,-174.6667 334.4631,-178.5 330.6298,-178.5 330.6298,-178.5 258.9631,-178.5 258.9631,-178.5 255.1298,-178.5 251.2964,-174.6667 251.2964,-170.8333 251.2964,-170.8333 251.2964,-163.1667 251.2964,-163.1667 251.2964,-159.3333 255.1298,-155.5 258.9631,-155.5"/>
<text text-anchor="start" x="262.7964" y="-163.3" font-family="Times,serif" font-size="14.00" fill="#000000">goodbye ok</text>
<text text-anchor="start" x="256.2964" y="-137.3" font-family="Times,serif" font-size="14.00" fill="#000000">signal success</text>
<text text-anchor="start" x="268.7964" y="-112.3" font-family="Times,serif" font-size="14.00" fill="#000000">terminate</text>
<polygon fill="none" stroke="#000000" points="245.7964,-101 245.7964,-184 342.7964,-184 342.7964,-101 245.7964,-101"/>
</g>
<!-- s_defaults&#45;&gt;m_defaults_goodbye_ok -->
<g id="edge37" class="edge">
<title>s_defaults&#45;&gt;m_defaults_goodbye_ok</title>
<path fill="none" stroke="#000000" d="M599.2366,-311.5255C539.6763,-297.9697 429.6869,-266.5636 350.2964,-213 342.9562,-208.0477 335.8603,-202.11 329.3047,-195.8102"/>
<polygon fill="#000000" stroke="#000000" points="331.3917,-192.9423 321.875,-188.2857 326.4106,-197.8606 331.3917,-192.9423"/>
</g>
<!-- s_defaults&#45;&gt;m_defaults_goodbye_ok -->
<g id="edge38" class="edge">
<title>s_defaults&#45;&gt;m_defaults_goodbye_ok</title>
<path fill="none" stroke="#000000" d="M590.0732,-306.0848C532.5869,-290.3905 438.4838,-260.3544 368.2964,-213 358.084,-206.1098 348.3444,-197.3122 339.4402,-188.2857"/>
<polygon fill="#000000" stroke="#000000" points="589.4531,-309.5423 600.0188,-308.7573 591.2697,-302.7821 589.4531,-309.5423"/>
</g>
<!-- m_defaults_expired -->
<g id="node20" class="node">
<title>m_defaults_expired</title>
<polygon fill="#ffffff" stroke="transparent" points="376.7964,-101 376.7964,-184 545.7964,-184 545.7964,-101 376.7964,-101"/>
<path fill="#e5e5e5" stroke="transparent" d="M389.9631,-155.5C389.9631,-155.5 533.6298,-155.5 533.6298,-155.5 537.4631,-155.5 541.2964,-159.3333 541.2964,-163.1667 541.2964,-163.1667 541.2964,-170.8333 541.2964,-170.8333 541.2964,-174.6667 537.4631,-178.5 533.6298,-178.5 533.6298,-178.5 389.9631,-178.5 389.9631,-178.5 386.1298,-178.5 382.2964,-174.6667 382.2964,-170.8333 382.2964,-170.8333 382.2964,-163.1667 382.2964,-163.1667 382.2964,-159.3333 386.1298,-155.5 389.9631,-155.5"/>
<path fill="none" stroke="#000000" d="M389.9631,-155.5C389.9631,-155.5 533.6298,-155.5 533.6298,-155.5 537.4631,-155.5 541.2964,-159.3333 541.2964,-163.1667 541.2964,-163.1667 541.2964,-170.8333 541.2964,-170.8333 541.2964,-174.6667 537.4631,-178.5 533.6298,-178.5 533.6298,-178.5 389.9631,-178.5 389.9631,-178.5 386.1298,-178.5 382.2964,-174.6667 382.2964,-170.8333 382.2964,-170.8333 382.2964,-163.1667 382.2964,-163.1667 382.2964,-159.3333 386.1298,-155.5 389.9631,-155.5"/>
<text text-anchor="start" x="441.2964" y="-163.3" font-family="Times,serif" font-size="14.00" fill="#000000">expired</text>
<text text-anchor="start" x="387.2964" y="-137.3" font-family="Times,serif" font-size="14.00" fill="#000000">check if connection is dead</text>
<text text-anchor="start" x="430.7964" y="-112.3" font-family="Times,serif" font-size="14.00" fill="#000000">send (ping)</text>
<polygon fill="none" stroke="#000000" points="376.7964,-101 376.7964,-184 545.7964,-184 545.7964,-101 376.7964,-101"/>
</g>
<!-- s_defaults&#45;&gt;m_defaults_expired -->
<g id="edge39" class="edge">
<title>s_defaults&#45;&gt;m_defaults_expired</title>
<path fill="none" stroke="#000000" d="M608.5299,-292.2317C580.6554,-266.5559 540.4263,-227.3932 509.011,-195.5592"/>
<polygon fill="#000000" stroke="#000000" points="511.1419,-192.7341 501.6363,-188.0549 506.1492,-197.6406 511.1419,-192.7341"/>
</g>
<!-- s_defaults&#45;&gt;m_defaults_expired -->
<g id="edge40" class="edge">
<title>s_defaults&#45;&gt;m_defaults_expired</title>
<path fill="none" stroke="#000000" d="M606.4881,-279.6198C580.1032,-252.445 543.5294,-216.4018 513.6467,-188.0891"/>
<polygon fill="#000000" stroke="#000000" points="604.1826,-282.271 613.6457,-287.0355 609.2192,-277.4096 604.1826,-282.271"/>
</g>
<!-- m_defaults_ping_ok -->
<g id="node21" class="node">
<title>m_defaults_ping_ok</title>
<polygon fill="#ffffff" stroke="transparent" points="580.2964,-113.5 580.2964,-171.5 702.2964,-171.5 702.2964,-113.5 580.2964,-113.5"/>
<path fill="#c0c0c0" stroke="transparent" d="M592.9631,-143.5C592.9631,-143.5 689.6298,-143.5 689.6298,-143.5 693.4631,-143.5 697.2964,-147.3333 697.2964,-151.1667 697.2964,-151.1667 697.2964,-158.8333 697.2964,-158.8333 697.2964,-162.6667 693.4631,-166.5 689.6298,-166.5 689.6298,-166.5 592.9631,-166.5 592.9631,-166.5 589.1298,-166.5 585.2964,-162.6667 585.2964,-158.8333 585.2964,-158.8333 585.2964,-151.1667 585.2964,-151.1667 585.2964,-147.3333 589.1298,-143.5 592.9631,-143.5"/>
<path fill="none" stroke="#000000" d="M592.9631,-143.5C592.9631,-143.5 689.6298,-143.5 689.6298,-143.5 693.4631,-143.5 697.2964,-147.3333 697.2964,-151.1667 697.2964,-151.1667 697.2964,-158.8333 697.2964,-158.8333 697.2964,-162.6667 693.4631,-166.5 689.6298,-166.5 689.6298,-166.5 592.9631,-166.5 592.9631,-166.5 589.1298,-166.5 585.2964,-162.6667 585.2964,-158.8333 585.2964,-158.8333 585.2964,-151.1667 585.2964,-151.1667 585.2964,-147.3333 589.1298,-143.5 592.9631,-143.5"/>
<text text-anchor="start" x="620.2964" y="-151.3" font-family="Times,serif" font-size="14.00" fill="#000000">ping ok</text>
<text text-anchor="start" x="590.2964" y="-125.3" font-family="Times,serif" font-size="14.00" fill="#000000">client is connected</text>
<polygon fill="none" stroke="#000000" points="580.2964,-113.5 580.2964,-171.5 702.2964,-171.5 702.2964,-113.5 580.2964,-113.5"/>
</g>
<!-- s_defaults&#45;&gt;m_defaults_ping_ok -->
<g id="edge42" class="edge">
<title>s_defaults&#45;&gt;m_defaults_ping_ok</title>
<path fill="none" stroke="#000000" d="M635.4565,-277.5535C634.2632,-249.9057 634.2434,-213.7839 635.397,-185.8546"/>
<polygon fill="#000000" stroke="#000000" points="638.9064,-185.7446 635.8966,-175.5863 631.9147,-185.4044 638.9064,-185.7446"/>
</g>
<!-- s_defaults&#45;&gt;m_defaults_ping_ok -->
<g id="edge43" class="edge">
<title>s_defaults&#45;&gt;m_defaults_ping_ok</title>
<path fill="none" stroke="#000000" d="M647.5123,-267.3564C648.4345,-237.6692 648.1625,-201.3756 646.6962,-175.5863"/>
<polygon fill="#000000" stroke="#000000" points="644.0073,-267.4313 647.1363,-277.5535 651.0025,-267.6893 644.0073,-267.4313"/>
</g>
<!-- m_defaults_error -->
<g id="node22" class="node">
<title>m_defaults_error</title>
<polygon fill="#ffffff" stroke="transparent" points="736.7964,-76 736.7964,-209 863.7964,-209 863.7964,-76 736.7964,-76"/>
<path fill="#c0c0c0" stroke="transparent" d="M749.9631,-180.5C749.9631,-180.5 851.6298,-180.5 851.6298,-180.5 855.4631,-180.5 859.2964,-184.3333 859.2964,-188.1667 859.2964,-188.1667 859.2964,-195.8333 859.2964,-195.8333 859.2964,-199.6667 855.4631,-203.5 851.6298,-203.5 851.6298,-203.5 749.9631,-203.5 749.9631,-203.5 746.1298,-203.5 742.2964,-199.6667 742.2964,-195.8333 742.2964,-195.8333 742.2964,-188.1667 742.2964,-188.1667 742.2964,-184.3333 746.1298,-180.5 749.9631,-180.5"/>
<path fill="none" stroke="#000000" d="M749.9631,-180.5C749.9631,-180.5 851.6298,-180.5 851.6298,-180.5 855.4631,-180.5 859.2964,-184.3333 859.2964,-188.1667 859.2964,-188.1667 859.2964,-195.8333 859.2964,-195.8333 859.2964,-199.6667 855.4631,-203.5 851.6298,-203.5 851.6298,-203.5 749.9631,-203.5 749.9631,-203.5 746.1298,-203.5 742.2964,-199.6667 742.2964,-195.8333 742.2964,-195.8333 742.2964,-188.1667 742.2964,-188.1667 742.2964,-184.3333 746.1298,-180.5 749.9631,-180.5"/>
<text text-anchor="start" x="787.2964" y="-188.3" font-family="Times,serif" font-size="14.00" fill="#000000">error</text>
<polygon fill="#c0c0c0" stroke="transparent" points="742.2964,-155.5 742.2964,-176.5 784.2964,-176.5 784.2964,-155.5 742.2964,-155.5"/>
<text text-anchor="start" x="750.2964" y="-162.3" font-family="Times,serif" font-size="14.00" fill="#000000">status</text>
<polygon fill="#c0c0c0" stroke="transparent" points="788.2964,-155.5 788.2964,-176.5 859.2964,-176.5 859.2964,-155.5 788.2964,-155.5"/>
<text text-anchor="start" x="791.2964" y="-162.3" font-family="Times,serif" font-size="14.00" fill="#000000">[number*2]</text>
<polygon fill="#c0c0c0" stroke="transparent" points="742.2964,-130.5 742.2964,-151.5 784.2964,-151.5 784.2964,-130.5 742.2964,-130.5"/>
<text text-anchor="start" x="745.2964" y="-137.3" font-family="Times,serif" font-size="14.00" fill="#000000">reason</text>
<polygon fill="#c0c0c0" stroke="transparent" points="788.2964,-130.5 788.2964,-151.5 859.2964,-151.5 859.2964,-130.5 788.2964,-130.5"/>
<text text-anchor="start" x="791.2964" y="-137.3" font-family="Times,serif" font-size="14.00" fill="#000000">[string]</text>
<text text-anchor="start" x="752.7964" y="-112.3" font-family="Times,serif" font-size="14.00" fill="#000000">check status code</text>
<text text-anchor="start" x="774.7964" y="-87.3" font-family="Times,serif" font-size="14.00" fill="#000000">terminate</text>
<polygon fill="none" stroke="#000000" points="736.7964,-76 736.7964,-209 863.7964,-209 863.7964,-76 736.7964,-76"/>
</g>
<!-- s_defaults&#45;&gt;m_defaults_error -->
<g id="edge44" class="edge">
<title>s_defaults&#45;&gt;m_defaults_error</title>
<path fill="none" stroke="#000000" d="M666.4952,-285.3726C682.0217,-266.9607 702.7489,-243.4224 723.2605,-220.7874"/>
<polygon fill="#000000" stroke="#000000" points="726.0629,-222.908 730.2006,-213.1545 720.8836,-218.1989 726.0629,-222.908"/>
</g>
<!-- s_defaults&#45;&gt;m_defaults_error -->
<g id="edge45" class="edge">
<title>s_defaults&#45;&gt;m_defaults_error</title>
<path fill="none" stroke="#000000" d="M679.443,-283.2373C698.5782,-263.0904 722.0818,-237.3184 743.283,-213.3475"/>
<polygon fill="#000000" stroke="#000000" points="676.719,-281.0217 672.3371,-290.668 681.778,-285.8597 676.719,-281.0217"/>
</g>
<!-- m_defaults_exception -->
<g id="node23" class="node">
<title>m_defaults_exception</title>
<polygon fill="#ffffff" stroke="transparent" points="898.2964,-126 898.2964,-159 970.2964,-159 970.2964,-126 898.2964,-126"/>
<path fill="#e5e5e5" stroke="transparent" d="M910.9631,-130.5C910.9631,-130.5 957.6298,-130.5 957.6298,-130.5 961.4631,-130.5 965.2964,-134.3333 965.2964,-138.1667 965.2964,-138.1667 965.2964,-145.8333 965.2964,-145.8333 965.2964,-149.6667 961.4631,-153.5 957.6298,-153.5 957.6298,-153.5 910.9631,-153.5 910.9631,-153.5 907.1298,-153.5 903.2964,-149.6667 903.2964,-145.8333 903.2964,-145.8333 903.2964,-138.1667 903.2964,-138.1667 903.2964,-134.3333 907.1298,-130.5 910.9631,-130.5"/>
<path fill="none" stroke="#000000" d="M910.9631,-130.5C910.9631,-130.5 957.6298,-130.5 957.6298,-130.5 961.4631,-130.5 965.2964,-134.3333 965.2964,-138.1667 965.2964,-138.1667 965.2964,-145.8333 965.2964,-145.8333 965.2964,-149.6667 961.4631,-153.5 957.6298,-153.5 957.6298,-153.5 910.9631,-153.5 910.9631,-153.5 907.1298,-153.5 903.2964,-149.6667 903.2964,-145.8333 903.2964,-145.8333 903.2964,-138.1667 903.2964,-138.1667 903.2964,-134.3333 907.1298,-130.5 910.9631,-130.5"/>
<text text-anchor="start" x="907.7964" y="-138.3" font-family="Times,serif" font-size="14.00" fill="#000000">exception</text>
<polygon fill="none" stroke="#000000" points="898.2964,-126 898.2964,-159 970.2964,-159 970.2964,-126 898.2964,-126"/>
</g>
<!-- s_defaults&#45;&gt;m_defaults_exception -->
<g id="edge46" class="edge">
<title>s_defaults&#45;&gt;m_defaults_exception</title>
<path fill="none" stroke="#000000" d="M679.5153,-300.6193C742.8895,-271.8011 863.0841,-219.4819 871.2964,-213 885.728,-201.6093 898.4319,-185.5329 908.796,-171.6079"/>
<polygon fill="#000000" stroke="#000000" points="911.8217,-173.402 914.9412,-163.2768 906.1884,-169.2467 911.8217,-173.402"/>
</g>
<!-- s_defaults&#45;&gt;m_defaults_exception -->
<g id="edge47" class="edge">
<title>s_defaults&#45;&gt;m_defaults_exception</title>
<path fill="none" stroke="#000000" d="M690.7132,-300.6568C760.785,-271.8466 881.0805,-219.4848 889.2964,-213 906.7233,-199.2451 921.6308,-178.6579 929.7376,-163.2768"/>
<polygon fill="#000000" stroke="#000000" points="689.1061,-297.5327 681.1759,-304.5585 691.7566,-304.0115 689.1061,-297.5327"/>
</g>
<!-- m_defaults__ -->
<g id="node24" class="node">
<title>m_defaults__</title>
<polygon fill="#ffffff" stroke="transparent" points="1004.2964,-101 1004.2964,-184 1132.2964,-184 1132.2964,-101 1004.2964,-101"/>
<path fill="#e5e5e5" stroke="transparent" d="M1016.9631,-155.5C1016.9631,-155.5 1119.6298,-155.5 1119.6298,-155.5 1123.4631,-155.5 1127.2964,-159.3333 1127.2964,-163.1667 1127.2964,-163.1667 1127.2964,-170.8333 1127.2964,-170.8333 1127.2964,-174.6667 1123.4631,-178.5 1119.6298,-178.5 1119.6298,-178.5 1016.9631,-178.5 1016.9631,-178.5 1013.1298,-178.5 1009.2964,-174.6667 1009.2964,-170.8333 1009.2964,-170.8333 1009.2964,-163.1667 1009.2964,-163.1667 1009.2964,-159.3333 1013.1298,-155.5 1016.9631,-155.5"/>
<path fill="none" stroke="#000000" d="M1016.9631,-155.5C1016.9631,-155.5 1119.6298,-155.5 1119.6298,-155.5 1123.4631,-155.5 1127.2964,-159.3333 1127.2964,-163.1667 1127.2964,-163.1667 1127.2964,-170.8333 1127.2964,-170.8333 1127.2964,-174.6667 1123.4631,-178.5 1119.6298,-178.5 1119.6298,-178.5 1016.9631,-178.5 1016.9631,-178.5 1013.1298,-178.5 1009.2964,-174.6667 1009.2964,-170.8333 1009.2964,-170.8333 1009.2964,-163.1667 1009.2964,-163.1667 1009.2964,-159.3333 1013.1298,-155.5 1016.9631,-155.5"/>
<text text-anchor="start" x="1064.7964" y="-163.3" font-family="Times,serif" font-size="14.00" fill="#000000">*</text>
<text text-anchor="start" x="1014.2964" y="-137.3" font-family="Times,serif" font-size="14.00" fill="#000000">signal internal error</text>
<text text-anchor="start" x="1042.2964" y="-112.3" font-family="Times,serif" font-size="14.00" fill="#000000">terminate</text>
<polygon fill="none" stroke="#000000" points="1004.2964,-101 1004.2964,-184 1132.2964,-184 1132.2964,-101 1004.2964,-101"/>
</g>
<!-- s_defaults&#45;&gt;m_defaults__ -->
<g id="edge48" class="edge">
<title>s_defaults&#45;&gt;m_defaults__</title>
<path fill="none" stroke="#000000" d="M677.9965,-297.8143C709.3863,-282.3747 755.8144,-262.1182 798.2964,-249 876.2488,-224.9287 905.077,-248.985 978.2964,-213 988.3902,-208.0392 998.225,-201.5014 1007.4799,-194.4052"/>
<polygon fill="#000000" stroke="#000000" points="1009.8153,-197.0197 1015.4558,-188.0511 1005.4535,-191.5447 1009.8153,-197.0197"/>
</g>
<!-- s_defaults&#45;&gt;m_defaults__ -->
<g id="edge49" class="edge">
<title>s_defaults&#45;&gt;m_defaults__</title>
<path fill="none" stroke="#000000" d="M690.189,-299.041C724.9032,-283.462 772.6796,-262.4686 816.2964,-249 894.2488,-224.9287 923.077,-248.985 996.2964,-213 1009.347,-206.5861 1021.9645,-197.5358 1032.9467,-188.0511"/>
<polygon fill="#000000" stroke="#000000" points="688.4439,-295.988 680.7585,-303.2807 691.3143,-302.3725 688.4439,-295.988"/>
</g>
<!-- m_hello -->
<g id="node25" class="node">
<title>m_hello</title>
<ellipse fill="none" stroke="#000000" cx="40.2964" cy="-142.5" rx="40.0939" ry="18"/>
<text text-anchor="middle" x="40.2964" y="-138.8" font-family="Times,serif" font-size="14.00" fill="#000000">m_hello</text>
</g>
<!-- m_start_connect&#45;&gt;m_hello -->
<g id="edge6" class="edge">
<title>m_start_connect:hello&#45;&gt;m_hello</title>
<path fill="none" stroke="#000000" stroke-dasharray="1,5" d="M187.2964,-267.5C174.1778,-267.5 175.3941,-255.9957 164.2964,-249 133.0179,-229.2829 117.4455,-236.9738 89.2964,-213 74.961,-200.7909 62.8417,-183.4639 54.2422,-169.043"/>
<polygon fill="#000000" stroke="#000000" points="49.1114,-160.0691 57.9815,-166.5168 51.5931,-164.4098 54.0749,-168.7504 54.0749,-168.7504 54.0749,-168.7504 51.5931,-164.4098 50.1683,-170.984 49.1114,-160.0691 49.1114,-160.0691"/>
</g>
<!-- m_create -->
<g id="node26" class="node">
<title>m_create</title>
<ellipse fill="none" stroke="#000000" cx="1202.2964" cy="-142.5" rx="43.5923" ry="18"/>
<text text-anchor="middle" x="1202.2964" y="-138.8" font-family="Times,serif" font-size="14.00" fill="#000000">m_create</text>
</g>
<!-- m_connected_create_perf&#45;&gt;m_create -->
<g id="edge13" class="edge">
<title>m_connected_create_perf:create&#45;&gt;m_create</title>
<path fill="none" stroke="#000000" stroke-dasharray="1,5" d="M1154.2964,-282.5C1154.2964,-241.3578 1173.0748,-196.9119 1187.1408,-169.3907"/>
<polygon fill="#000000" stroke="#000000" points="1191.8811,-160.395 1191.2003,-171.3398 1189.5502,-164.8185 1187.2192,-169.2419 1187.2192,-169.2419 1187.2192,-169.2419 1189.5502,-164.8185 1183.2381,-167.144 1191.8811,-160.395 1191.8811,-160.395"/>
</g>
<!-- m_lookup -->
<g id="node27" class="node">
<title>m_lookup</title>
<ellipse fill="none" stroke="#000000" cx="1310.2964" cy="-142.5" rx="46.5926" ry="18"/>
<text text-anchor="middle" x="1310.2964" y="-138.8" font-family="Times,serif" font-size="14.00" fill="#000000">m_lookup</text>
</g>
<!-- m_connected_ask_lookup&#45;&gt;m_lookup -->
<g id="edge16" class="edge">
<title>m_connected_ask_lookup:lookup&#45;&gt;m_lookup</title>
<path fill="none" stroke="#000000" stroke-dasharray="1,5" d="M1293.2964,-282.5C1293.2964,-243.4211 1299.9047,-198.6508 1304.881,-170.4767"/>
<polygon fill="#000000" stroke="#000000" points="1306.6912,-160.5377 1309.3265,-171.1823 1305.7952,-165.4568 1304.8993,-170.3759 1304.8993,-170.3759 1304.8993,-170.3759 1305.7952,-165.4568 1300.4721,-169.5696 1306.6912,-160.5377 1306.6912,-160.5377"/>
</g>
<!-- m_info -->
<g id="node28" class="node">
<title>m_info</title>
<ellipse fill="none" stroke="#000000" cx="1427.2964" cy="-142.5" rx="36.2938" ry="18"/>
<text text-anchor="middle" x="1427.2964" y="-138.8" font-family="Times,serif" font-size="14.00" fill="#000000">m_info</text>
</g>
<!-- m_connected_ask_info&#45;&gt;m_info -->
<g id="edge21" class="edge">
<title>m_connected_ask_info:info&#45;&gt;m_info</title>
<path fill="none" stroke="#000000" stroke-dasharray="1,5" d="M1427.2964,-282.5C1427.2964,-243.877 1427.2964,-199.2603 1427.2964,-170.9724"/>
<polygon fill="#000000" stroke="#000000" points="1427.2964,-160.6227 1431.7965,-170.6227 1427.2965,-165.6227 1427.2965,-170.6227 1427.2965,-170.6227 1427.2965,-170.6227 1427.2965,-165.6227 1422.7965,-170.6228 1427.2964,-160.6227 1427.2964,-160.6227"/>
</g>
<!-- m_socket -->
<g id="node29" class="node">
<title>m_socket</title>
<ellipse fill="none" stroke="#000000" cx="1872.2964" cy="-319.5" rx="44.6926" ry="18"/>
<text text-anchor="middle" x="1872.2964" y="-315.8" font-family="Times,serif" font-size="14.00" fill="#000000">m_socket</text>
</g>
<!-- m_have_perf_set_socket&#45;&gt;m_socket -->
<g id="edge26" class="edge">
<title>m_have_perf_set_socket:socket&#45;&gt;m_socket</title>
<path fill="none" stroke="#000000" stroke-dasharray="1,5" d="M1838.2964,-547C1838.2964,-474.474 1855.4074,-390.3568 1865.3519,-347.5941"/>
<polygon fill="#000000" stroke="#000000" points="1867.711,-337.6454 1869.7823,-348.4139 1866.5574,-342.5105 1865.4037,-347.3756 1865.4037,-347.3756 1865.4037,-347.3756 1866.5574,-342.5105 1861.0251,-346.3373 1867.711,-337.6454 1867.711,-337.6454"/>
</g>
<!-- m_measure -->
<g id="node30" class="node">
<title>m_measure</title>
<ellipse fill="none" stroke="#000000" cx="2181.2964" cy="-319.5" rx="51.9908" ry="18"/>
<text text-anchor="middle" x="2181.2964" y="-315.8" font-family="Times,serif" font-size="14.00" fill="#000000">m_measure</text>
</g>
<!-- m_have_perf_set_measurement&#45;&gt;m_measure -->
<g id="edge31" class="edge">
<title>m_have_perf_set_measurement:measure&#45;&gt;m_measure</title>
<path fill="none" stroke="#000000" stroke-dasharray="1,5" d="M2181.2964,-547C2181.2964,-475.2706 2181.2964,-390.8198 2181.2964,-347.7959"/>
<polygon fill="#000000" stroke="#000000" points="2181.2964,-337.7831 2185.7965,-347.7831 2181.2965,-342.7831 2181.2965,-347.7831 2181.2965,-347.7831 2181.2965,-347.7831 2181.2965,-342.7831 2176.7965,-347.7832 2181.2964,-337.7831 2181.2964,-337.7831"/>
</g>
<!-- m_goodbye -->
<g id="node31" class="node">
<title>m_goodbye</title>
<ellipse fill="none" stroke="#000000" cx="160.2964" cy="-18" rx="52.7911" ry="18"/>
<text text-anchor="middle" x="160.2964" y="-14.3" font-family="Times,serif" font-size="14.00" fill="#000000">m_goodbye</text>
</g>
<!-- m_defaults_destructor&#45;&gt;m_goodbye -->
<g id="edge36" class="edge">
<title>m_defaults_destructor:goodbye&#45;&gt;m_goodbye</title>
<path fill="none" stroke="#000000" stroke-dasharray="1,5" d="M160.2964,-118.5C160.2964,-94.0968 160.2964,-66.3604 160.2964,-46.2171"/>
<polygon fill="#000000" stroke="#000000" points="160.2964,-36.1556 164.7965,-46.1555 160.2965,-41.1556 160.2965,-46.1556 160.2965,-46.1556 160.2965,-46.1556 160.2965,-41.1556 155.7965,-46.1556 160.2964,-36.1556 160.2964,-36.1556"/>
</g>
<!-- m_ping -->
<g id="node32" class="node">
<title>m_ping</title>
<ellipse fill="none" stroke="#000000" cx="462.2964" cy="-18" rx="38.1938" ry="18"/>
<text text-anchor="middle" x="462.2964" y="-14.3" font-family="Times,serif" font-size="14.00" fill="#000000">m_ping</text>
</g>
<!-- m_defaults_expired&#45;&gt;m_ping -->
<g id="edge41" class="edge">
<title>m_defaults_expired:ping&#45;&gt;m_ping</title>
<path fill="none" stroke="#000000" stroke-dasharray="1,5" d="M462.2964,-105.5C462.2964,-85.8111 462.2964,-63.6301 462.2964,-46.5272"/>
<polygon fill="#000000" stroke="#000000" points="462.2964,-36.0987 466.7965,-46.0987 462.2965,-41.0987 462.2965,-46.0987 462.2965,-46.0987 462.2965,-46.0987 462.2965,-41.0987 457.7965,-46.0988 462.2964,-36.0987 462.2964,-36.0987"/>
</g>
</g>
</svg>
