<?xml version="1.0" encoding="UTF-8" standalone="no"?>
<!DOCTYPE svg PUBLIC "-//W3C//DTD SVG 1.1//EN"
 "http://www.w3.org/Graphics/SVG/1.1/DTD/svg11.dtd">
<!-- Generated by graphviz version 2.40.1 (20161225.0304)
 -->
<!-- Title: zperf_protocol Pages: 1 -->
<svg width="1363pt" height="960pt"
 viewBox="0.00 0.00 1362.50 960.39" xmlns="http://www.w3.org/2000/svg" xmlns:xlink="http://www.w3.org/1999/xlink">
<g id="graph0" class="graph" transform="scale(1 1) rotate(0) translate(4 956.3922)">
<title>zperf_protocol</title>
<polygon fill="#ffffff" stroke="transparent" points="-4,4 -4,-956.3922 1358.5,-956.3922 1358.5,4 -4,4"/>
<text text-anchor="middle" x="677.25" y="-937.1922" font-family="Times,serif" font-size="14.00" fill="#000000">zperf_server and zperf_msg</text>
<!-- s_start -->
<g id="node1" class="node">
<title>s_start</title>
<ellipse fill="none" stroke="#000000" cx="471.5" cy="-689" rx="25.9957" ry="25.9957"/>
<ellipse fill="none" stroke="#000000" cx="471.5" cy="-689" rx="29.9954" ry="29.9954"/>
<text text-anchor="middle" x="471.5" y="-685.3" font-family="Times,serif" font-size="14.00" fill="#000000">start</text>
</g>
<!-- s_defaults -->
<g id="node4" class="node">
<title>s_defaults</title>
<ellipse fill="none" stroke="#000000" cx="471.5" cy="-412" rx="38.2082" ry="38.2082"/>
<ellipse fill="none" stroke="#000000" cx="471.5" cy="-412" rx="42.1937" ry="42.1937"/>
<text text-anchor="middle" x="471.5" y="-408.3" font-family="Times,serif" font-size="14.00" fill="#000000">defaults</text>
</g>
<!-- s_start&#45;&gt;s_defaults -->
<g id="edge1" class="edge">
<title>s_start&#45;&gt;s_defaults</title>
<path fill="none" stroke="#000000" stroke-dasharray="5,2" d="M471.5,-658.8288C471.5,-612.3636 471.5,-522.6505 471.5,-465.1348"/>
<polygon fill="none" stroke="#000000" points="475.0001,-464.7877 471.5,-454.7878 468.0001,-464.7878 475.0001,-464.7877"/>
</g>
<!-- m_start_hello -->
<g id="node5" class="node">
<title>m_start_hello</title>
<polygon fill="#ffffff" stroke="transparent" points="596,-370.5 596,-453.5 725,-453.5 725,-370.5 596,-370.5"/>
<path fill="#4d4d4d" stroke="transparent" d="M609.1667,-425C609.1667,-425 712.8333,-425 712.8333,-425 716.6667,-425 720.5,-428.8333 720.5,-432.6667 720.5,-432.6667 720.5,-440.3333 720.5,-440.3333 720.5,-444.1667 716.6667,-448 712.8333,-448 712.8333,-448 609.1667,-448 609.1667,-448 605.3333,-448 601.5,-444.1667 601.5,-440.3333 601.5,-440.3333 601.5,-432.6667 601.5,-432.6667 601.5,-428.8333 605.3333,-425 609.1667,-425"/>
<path fill="none" stroke="#000000" d="M609.1667,-425C609.1667,-425 712.8333,-425 712.8333,-425 716.6667,-425 720.5,-428.8333 720.5,-432.6667 720.5,-432.6667 720.5,-440.3333 720.5,-440.3333 720.5,-444.1667 716.6667,-448 712.8333,-448 712.8333,-448 609.1667,-448 609.1667,-448 605.3333,-448 601.5,-444.1667 601.5,-440.3333 601.5,-440.3333 601.5,-432.6667 601.5,-432.6667 601.5,-428.8333 605.3333,-425 609.1667,-425"/>
<text text-anchor="start" x="638.5" y="-432.8" font-family="Times,serif" font-size="14.00" fill="#ffffff">HELLO</text>
<polygon fill="#c0c0c0" stroke="transparent" points="601.5,-400 601.5,-421 665.5,-421 665.5,-400 601.5,-400"/>
<text text-anchor="start" x="608.5" y="-406.8" font-family="Times,serif" font-size="14.00" fill="#000000">nickname</text>
<polygon fill="#c0c0c0" stroke="transparent" points="669.5,-400 669.5,-421 720.5,-421 720.5,-400 669.5,-400"/>
<text text-anchor="start" x="672.5" y="-406.8" font-family="Times,serif" font-size="14.00" fill="#000000">[string]</text>
<text text-anchor="start" x="606.5" y="-381.8" font-family="Times,serif" font-size="14.00" fill="#000000">send (HELLO_OK)</text>
<polygon fill="none" stroke="#000000" points="596,-370.5 596,-453.5 725,-453.5 725,-370.5 596,-370.5"/>
</g>
<!-- s_start&#45;&gt;m_start_hello -->
<g id="edge4" class="edge">
<title>s_start&#45;&gt;m_start_hello</title>
<path fill="none" stroke="#000000" d="M478.8089,-659.7095C485.1817,-637.1967 495.7322,-605.8487 510.5,-581 535.9203,-538.227 572.971,-496.3542 603.8882,-464.9887"/>
<polygon fill="#000000" stroke="#000000" points="606.6185,-467.2072 611.1966,-457.6526 601.6594,-462.2668 606.6185,-467.2072"/>
</g>
<!-- s_connected -->
<g id="node2" class="node">
<title>s_connected</title>
<ellipse fill="none" stroke="#000000" cx="717.5" cy="-689" rx="46.2806" ry="46.2806"/>
<ellipse fill="none" stroke="#000000" cx="717.5" cy="-689" rx="50.2922" ry="50.2922"/>
<text text-anchor="middle" x="717.5" y="-685.3" font-family="Times,serif" font-size="14.00" fill="#000000">connected</text>
</g>
<!-- s_connected&#45;&gt;s_defaults -->
<g id="edge2" class="edge">
<title>s_connected&#45;&gt;s_defaults</title>
<path fill="none" stroke="#000000" stroke-dasharray="5,2" d="M699.9308,-641.9918C690.2681,-621.1802 676.5308,-597.6909 658.5,-581 629.8875,-554.5137 609.3474,-568.8461 578.5,-545 546.8401,-520.5257 518.8097,-484.8669 499.3883,-456.6316"/>
<polygon fill="none" stroke="#000000" points="502.1414,-454.4545 493.6429,-448.1279 496.3411,-458.3734 502.1414,-454.4545"/>
</g>
<!-- s_connected&#45;&gt;m_start_hello -->
<g id="edge5" class="edge">
<title>s_connected&#45;&gt;m_start_hello</title>
<path fill="none" stroke="#000000" d="M705.3172,-629.7958C694.7089,-578.2432 679.552,-504.5863 669.869,-457.53"/>
<polygon fill="#000000" stroke="#000000" points="701.9314,-630.7078 707.3752,-639.7971 708.7878,-629.2969 701.9314,-630.7078"/>
</g>
<!-- m_connected_create -->
<g id="node6" class="node">
<title>m_connected_create</title>
<polygon fill="#ffffff" stroke="transparent" points="759.5,-358 759.5,-466 879.5,-466 879.5,-358 759.5,-358"/>
<path fill="#4d4d4d" stroke="transparent" d="M772.1667,-438C772.1667,-438 866.8333,-438 866.8333,-438 870.6667,-438 874.5,-441.8333 874.5,-445.6667 874.5,-445.6667 874.5,-453.3333 874.5,-453.3333 874.5,-457.1667 870.6667,-461 866.8333,-461 866.8333,-461 772.1667,-461 772.1667,-461 768.3333,-461 764.5,-457.1667 764.5,-453.3333 764.5,-453.3333 764.5,-445.6667 764.5,-445.6667 764.5,-441.8333 768.3333,-438 772.1667,-438"/>
<path fill="none" stroke="#000000" d="M772.1667,-438C772.1667,-438 866.8333,-438 866.8333,-438 870.6667,-438 874.5,-441.8333 874.5,-445.6667 874.5,-445.6667 874.5,-453.3333 874.5,-453.3333 874.5,-457.1667 870.6667,-461 866.8333,-461 866.8333,-461 772.1667,-461 772.1667,-461 768.3333,-461 764.5,-457.1667 764.5,-453.3333 764.5,-453.3333 764.5,-445.6667 764.5,-445.6667 764.5,-441.8333 768.3333,-438 772.1667,-438"/>
<text text-anchor="start" x="793" y="-445.8" font-family="Times,serif" font-size="14.00" fill="#ffffff">CREATE</text>
<polygon fill="#c0c0c0" stroke="transparent" points="764.5,-413 764.5,-434 799.5,-434 799.5,-413 764.5,-413"/>
<text text-anchor="start" x="767.5" y="-419.8" font-family="Times,serif" font-size="14.00" fill="#000000">stype</text>
<polygon fill="#c0c0c0" stroke="transparent" points="803.5,-413 803.5,-434 874.5,-434 874.5,-413 803.5,-413"/>
<text text-anchor="start" x="806.5" y="-419.8" font-family="Times,serif" font-size="14.00" fill="#000000">[number*4]</text>
<text text-anchor="start" x="790.5" y="-394.8" font-family="Times,serif" font-size="14.00" fill="#000000">create perf</text>
<text text-anchor="start" x="771" y="-369.8" font-family="Times,serif" font-size="14.00" fill="#000000">send (PERF_OK)</text>
<polygon fill="none" stroke="#000000" points="759.5,-358 759.5,-466 879.5,-466 879.5,-358 759.5,-358"/>
</g>
<!-- s_connected&#45;&gt;m_connected_create -->
<g id="edge7" class="edge">
<title>s_connected&#45;&gt;m_connected_create</title>
<path fill="none" stroke="#000000" d="M734.9185,-641.6967C751.329,-597.1312 776.09,-529.888 794.5865,-479.6572"/>
<polygon fill="#000000" stroke="#000000" points="797.9097,-480.7613 798.0808,-470.1678 791.3408,-478.3424 797.9097,-480.7613"/>
</g>
<!-- m_connected_lookup -->
<g id="node7" class="node">
<title>m_connected_lookup</title>
<polygon fill="#ffffff" stroke="transparent" points="914,-358 914,-466 1031,-466 1031,-358 914,-358"/>
<path fill="#4d4d4d" stroke="transparent" d="M927.1667,-438C927.1667,-438 1018.8333,-438 1018.8333,-438 1022.6667,-438 1026.5,-441.8333 1026.5,-445.6667 1026.5,-445.6667 1026.5,-453.3333 1026.5,-453.3333 1026.5,-457.1667 1022.6667,-461 1018.8333,-461 1018.8333,-461 927.1667,-461 927.1667,-461 923.3333,-461 919.5,-457.1667 919.5,-453.3333 919.5,-453.3333 919.5,-445.6667 919.5,-445.6667 919.5,-441.8333 923.3333,-438 927.1667,-438"/>
<path fill="none" stroke="#000000" d="M927.1667,-438C927.1667,-438 1018.8333,-438 1018.8333,-438 1022.6667,-438 1026.5,-441.8333 1026.5,-445.6667 1026.5,-445.6667 1026.5,-453.3333 1026.5,-453.3333 1026.5,-457.1667 1022.6667,-461 1018.8333,-461 1018.8333,-461 927.1667,-461 927.1667,-461 923.3333,-461 919.5,-457.1667 919.5,-453.3333 919.5,-453.3333 919.5,-445.6667 919.5,-445.6667 919.5,-441.8333 923.3333,-438 927.1667,-438"/>
<text text-anchor="start" x="945.5" y="-445.8" font-family="Times,serif" font-size="14.00" fill="#ffffff">LOOKUP</text>
<polygon fill="#c0c0c0" stroke="transparent" points="919.5,-413 919.5,-434 964.5,-434 964.5,-413 919.5,-413"/>
<text text-anchor="start" x="933.5" y="-419.8" font-family="Times,serif" font-size="14.00" fill="#000000">ident</text>
<polygon fill="#c0c0c0" stroke="transparent" points="968.5,-413 968.5,-434 1026.5,-434 1026.5,-413 968.5,-413"/>
<text text-anchor="start" x="971.5" y="-419.8" font-family="Times,serif" font-size="14.00" fill="#000000">[string]</text>
<text text-anchor="start" x="941" y="-394.8" font-family="Times,serif" font-size="14.00" fill="#000000">lookup perf</text>
<text text-anchor="start" x="924.5" y="-369.8" font-family="Times,serif" font-size="14.00" fill="#000000">send (PERF_OK)</text>
<polygon fill="none" stroke="#000000" points="914,-358 914,-466 1031,-466 1031,-358 914,-358"/>
</g>
<!-- s_connected&#45;&gt;m_connected_lookup -->
<g id="edge10" class="edge">
<title>s_connected&#45;&gt;m_connected_lookup</title>
<path fill="none" stroke="#000000" d="M733.8615,-641.4302C743.3273,-620.2435 757.2463,-596.6057 776.5,-581 819.757,-545.9389 852.9093,-579.6453 896.5,-545 918.0071,-527.9065 934.5322,-502.9515 946.5939,-479.263"/>
<polygon fill="#000000" stroke="#000000" points="949.7454,-480.7856 950.9992,-470.2652 943.4584,-477.7075 949.7454,-480.7856"/>
</g>
<!-- s_have_perf -->
<g id="node3" class="node">
<title>s_have_perf</title>
<ellipse fill="none" stroke="#000000" cx="862.5" cy="-881.1961" rx="44.3766" ry="44.3766"/>
<ellipse fill="none" stroke="#000000" cx="862.5" cy="-881.1961" rx="48.393" ry="48.393"/>
<text text-anchor="middle" x="862.5" y="-877.4961" font-family="Times,serif" font-size="14.00" fill="#000000">have perf</text>
</g>
<!-- s_have_perf&#45;&gt;s_connected -->
<g id="edge3" class="edge">
<title>s_have_perf&#45;&gt;s_connected</title>
<path fill="none" stroke="#000000" stroke-dasharray="5,2" d="M825.7444,-849.7487C809.5041,-834.7651 790.8775,-815.9915 776.5,-797 764.1456,-780.6807 752.7752,-761.451 743.3826,-743.7745"/>
<polygon fill="none" stroke="#000000" points="746.3787,-741.9498 738.6564,-734.696 740.1697,-745.1823 746.3787,-741.9498"/>
</g>
<!-- s_have_perf&#45;&gt;m_connected_create -->
<g id="edge8" class="edge">
<title>s_have_perf&#45;&gt;m_connected_create</title>
<path fill="none" stroke="#000000" d="M909.982,-846.7112C924.895,-833.0868 939.5351,-816.1006 947.5,-797 984.4482,-708.3951 991.6661,-666.2371 947.5,-581 934.7356,-556.3657 915.2175,-565.48 896.5,-545 876.4303,-523.0405 859.2362,-494.9796 846.2201,-470.2978"/>
<polygon fill="#000000" stroke="#000000" points="907.4163,-844.3053 902.1925,-853.5228 912.0243,-849.5748 907.4163,-844.3053"/>
</g>
<!-- s_have_perf&#45;&gt;m_connected_lookup -->
<g id="edge11" class="edge">
<title>s_have_perf&#45;&gt;m_connected_lookup</title>
<path fill="none" stroke="#000000" d="M915.5163,-856.6948C939.0464,-842.7907 964.3489,-822.9275 977.5,-797 1030.7954,-691.9277 1008.3356,-549.045 989.1698,-470.2194"/>
<polygon fill="#000000" stroke="#000000" points="913.5936,-853.7613 906.614,-861.7322 917.0409,-859.8536 913.5936,-853.7613"/>
</g>
<!-- m_have_perf_socket -->
<g id="node8" class="node">
<title>m_have_perf_socket</title>
<polygon fill="#ffffff" stroke="transparent" points="527.5,-610 527.5,-768 641.5,-768 641.5,-610 527.5,-610"/>
<path fill="#4d4d4d" stroke="transparent" d="M540.1667,-740C540.1667,-740 628.8333,-740 628.8333,-740 632.6667,-740 636.5,-743.8333 636.5,-747.6667 636.5,-747.6667 636.5,-755.3333 636.5,-755.3333 636.5,-759.1667 632.6667,-763 628.8333,-763 628.8333,-763 540.1667,-763 540.1667,-763 536.3333,-763 532.5,-759.1667 532.5,-755.3333 532.5,-755.3333 532.5,-747.6667 532.5,-747.6667 532.5,-743.8333 536.3333,-740 540.1667,-740"/>
<path fill="none" stroke="#000000" d="M540.1667,-740C540.1667,-740 628.8333,-740 628.8333,-740 632.6667,-740 636.5,-743.8333 636.5,-747.6667 636.5,-747.6667 636.5,-755.3333 636.5,-755.3333 636.5,-759.1667 632.6667,-763 628.8333,-763 628.8333,-763 540.1667,-763 540.1667,-763 536.3333,-763 532.5,-759.1667 532.5,-755.3333 532.5,-755.3333 532.5,-747.6667 532.5,-747.6667 532.5,-743.8333 536.3333,-740 540.1667,-740"/>
<text text-anchor="start" x="558" y="-747.8" font-family="Times,serif" font-size="14.00" fill="#ffffff">SOCKET</text>
<polygon fill="#c0c0c0" stroke="transparent" points="532.5,-715 532.5,-736 586.5,-736 586.5,-715 532.5,-715"/>
<text text-anchor="start" x="555.5" y="-721.8" font-family="Times,serif" font-size="14.00" fill="#000000">ident</text>
<polygon fill="#c0c0c0" stroke="transparent" points="590.5,-715 590.5,-736 636.5,-736 636.5,-715 590.5,-715"/>
<text text-anchor="start" x="593.5" y="-721.8" font-family="Times,serif" font-size="14.00" fill="#000000">[string]</text>
<polygon fill="#c0c0c0" stroke="transparent" points="532.5,-690 532.5,-711 586.5,-711 586.5,-690 532.5,-690"/>
<text text-anchor="start" x="558.5" y="-696.8" font-family="Times,serif" font-size="14.00" fill="#000000">borc</text>
<polygon fill="#c0c0c0" stroke="transparent" points="590.5,-690 590.5,-711 636.5,-711 636.5,-690 590.5,-690"/>
<text text-anchor="start" x="593.5" y="-696.8" font-family="Times,serif" font-size="14.00" fill="#000000">[string]</text>
<polygon fill="#c0c0c0" stroke="transparent" points="532.5,-665 532.5,-686 586.5,-686 586.5,-665 532.5,-665"/>
<text text-anchor="start" x="535.5" y="-671.8" font-family="Times,serif" font-size="14.00" fill="#000000">endpoint</text>
<polygon fill="#c0c0c0" stroke="transparent" points="590.5,-665 590.5,-686 636.5,-686 636.5,-665 590.5,-665"/>
<text text-anchor="start" x="593.5" y="-671.8" font-family="Times,serif" font-size="14.00" fill="#000000">[string]</text>
<text text-anchor="start" x="552.5" y="-646.8" font-family="Times,serif" font-size="14.00" fill="#000000">lookup perf</text>
<text text-anchor="start" x="542" y="-621.8" font-family="Times,serif" font-size="14.00" fill="#000000">connect or bind</text>
<polygon fill="none" stroke="#000000" points="527.5,-610 527.5,-768 641.5,-768 641.5,-610 527.5,-610"/>
</g>
<!-- s_have_perf&#45;&gt;m_have_perf_socket -->
<g id="edge13" class="edge">
<title>s_have_perf&#45;&gt;m_have_perf_socket</title>
<path fill="none" stroke="#000000" d="M815.1054,-871.8197C768.7449,-860.1217 698.4785,-836.6683 649.5,-797 643.2283,-791.9205 637.2728,-786.1724 631.6904,-780.0387"/>
<polygon fill="#000000" stroke="#000000" points="634.0075,-777.3667 624.8233,-772.0847 628.709,-781.9412 634.0075,-777.3667"/>
</g>
<!-- s_have_perf&#45;&gt;m_have_perf_socket -->
<g id="edge14" class="edge">
<title>s_have_perf&#45;&gt;m_have_perf_socket</title>
<path fill="none" stroke="#000000" d="M806.1554,-865.2157C764.6107,-852.1259 708.5709,-830.2638 667.5,-797 658.5803,-789.7758 650.3001,-781.1992 642.6851,-772.0847"/>
<polygon fill="#000000" stroke="#000000" points="805.2655,-868.6037 815.8525,-868.1961 807.322,-861.9126 805.2655,-868.6037"/>
</g>
<!-- m_have_perf_socket_return -->
<g id="node9" class="node">
<title>m_have_perf_socket_return</title>
<polygon fill="#ffffff" stroke="transparent" points="279,-647.5 279,-730.5 416,-730.5 416,-647.5 279,-647.5"/>
<path fill="#e5e5e5" stroke="transparent" d="M292.1667,-702C292.1667,-702 403.8333,-702 403.8333,-702 407.6667,-702 411.5,-705.8333 411.5,-709.6667 411.5,-709.6667 411.5,-717.3333 411.5,-717.3333 411.5,-721.1667 407.6667,-725 403.8333,-725 403.8333,-725 292.1667,-725 292.1667,-725 288.3333,-725 284.5,-721.1667 284.5,-717.3333 284.5,-717.3333 284.5,-709.6667 284.5,-709.6667 284.5,-705.8333 288.3333,-702 292.1667,-702"/>
<path fill="none" stroke="#000000" d="M292.1667,-702C292.1667,-702 403.8333,-702 403.8333,-702 407.6667,-702 411.5,-705.8333 411.5,-709.6667 411.5,-709.6667 411.5,-717.3333 411.5,-717.3333 411.5,-721.1667 407.6667,-725 403.8333,-725 403.8333,-725 292.1667,-725 292.1667,-725 288.3333,-725 284.5,-721.1667 284.5,-717.3333 284.5,-717.3333 284.5,-709.6667 284.5,-709.6667 284.5,-705.8333 288.3333,-702 292.1667,-702"/>
<text text-anchor="start" x="312.5" y="-709.8" font-family="Times,serif" font-size="14.00" fill="#000000">socket return</text>
<text text-anchor="start" x="317.5" y="-683.8" font-family="Times,serif" font-size="14.00" fill="#000000">borc return</text>
<text text-anchor="start" x="289.5" y="-658.8" font-family="Times,serif" font-size="14.00" fill="#000000">send (SOCKET_OK)</text>
<polygon fill="none" stroke="#000000" points="279,-647.5 279,-730.5 416,-730.5 416,-647.5 279,-647.5"/>
</g>
<!-- s_have_perf&#45;&gt;m_have_perf_socket_return -->
<g id="edge15" class="edge">
<title>s_have_perf&#45;&gt;m_have_perf_socket_return</title>
<path fill="none" stroke="#000000" d="M814.3824,-876.5676C714.3467,-865.7473 488.4041,-836.6757 423.5,-797 401.8567,-783.7695 383.5305,-762.9022 370.1435,-743.0226"/>
<polygon fill="#000000" stroke="#000000" points="373.0696,-741.1018 364.7133,-734.5884 367.1839,-744.8911 373.0696,-741.1018"/>
</g>
<!-- s_have_perf&#45;&gt;m_have_perf_socket_return -->
<g id="edge16" class="edge">
<title>s_have_perf&#45;&gt;m_have_perf_socket_return</title>
<path fill="none" stroke="#000000" d="M804.464,-874.2433C703.8166,-861.9456 502.2098,-834.1117 441.5,-797 416.7648,-781.8795 396.3621,-756.7842 380.789,-734.5884"/>
<polygon fill="#000000" stroke="#000000" points="804.1183,-877.7269 814.4667,-875.4551 804.9602,-870.7777 804.1183,-877.7269"/>
</g>
<!-- m_have_perf_measure -->
<g id="node10" class="node">
<title>m_have_perf_measure</title>
<polygon fill="#ffffff" stroke="transparent" points="794,-585 794,-793 931,-793 931,-585 794,-585"/>
<path fill="#4d4d4d" stroke="transparent" d="M807.1667,-765C807.1667,-765 918.8333,-765 918.8333,-765 922.6667,-765 926.5,-768.8333 926.5,-772.6667 926.5,-772.6667 926.5,-780.3333 926.5,-780.3333 926.5,-784.1667 922.6667,-788 918.8333,-788 918.8333,-788 807.1667,-788 807.1667,-788 803.3333,-788 799.5,-784.1667 799.5,-780.3333 799.5,-780.3333 799.5,-772.6667 799.5,-772.6667 799.5,-768.8333 803.3333,-765 807.1667,-765"/>
<path fill="none" stroke="#000000" d="M807.1667,-765C807.1667,-765 918.8333,-765 918.8333,-765 922.6667,-765 926.5,-768.8333 926.5,-772.6667 926.5,-772.6667 926.5,-780.3333 926.5,-780.3333 926.5,-784.1667 922.6667,-788 918.8333,-788 918.8333,-788 807.1667,-788 807.1667,-788 803.3333,-788 799.5,-784.1667 799.5,-780.3333 799.5,-780.3333 799.5,-772.6667 799.5,-772.6667 799.5,-768.8333 803.3333,-765 807.1667,-765"/>
<text text-anchor="start" x="830" y="-772.8" font-family="Times,serif" font-size="14.00" fill="#ffffff">MEASURE</text>
<polygon fill="#c0c0c0" stroke="transparent" points="799.5,-740 799.5,-761 851.5,-761 851.5,-740 799.5,-740"/>
<text text-anchor="start" x="820.5" y="-746.8" font-family="Times,serif" font-size="14.00" fill="#000000">ident</text>
<polygon fill="#c0c0c0" stroke="transparent" points="855.5,-740 855.5,-761 926.5,-761 926.5,-740 855.5,-740"/>
<text text-anchor="start" x="858.5" y="-746.8" font-family="Times,serif" font-size="14.00" fill="#000000">[string]</text>
<polygon fill="#c0c0c0" stroke="transparent" points="799.5,-715 799.5,-736 851.5,-736 851.5,-715 799.5,-715"/>
<text text-anchor="start" x="802.5" y="-721.8" font-family="Times,serif" font-size="14.00" fill="#000000">measure</text>
<polygon fill="#c0c0c0" stroke="transparent" points="855.5,-715 855.5,-736 926.5,-736 926.5,-715 855.5,-715"/>
<text text-anchor="start" x="858.5" y="-721.8" font-family="Times,serif" font-size="14.00" fill="#000000">[string]</text>
<polygon fill="#c0c0c0" stroke="transparent" points="799.5,-690 799.5,-711 851.5,-711 851.5,-690 799.5,-690"/>
<text text-anchor="start" x="812.5" y="-696.8" font-family="Times,serif" font-size="14.00" fill="#000000">nmsgs</text>
<polygon fill="#c0c0c0" stroke="transparent" points="855.5,-690 855.5,-711 926.5,-711 926.5,-690 855.5,-690"/>
<text text-anchor="start" x="858.5" y="-696.8" font-family="Times,serif" font-size="14.00" fill="#000000">[number*4]</text>
<polygon fill="#c0c0c0" stroke="transparent" points="799.5,-665 799.5,-686 851.5,-686 851.5,-665 799.5,-665"/>
<text text-anchor="start" x="803.5" y="-671.8" font-family="Times,serif" font-size="14.00" fill="#000000">msgsize</text>
<polygon fill="#c0c0c0" stroke="transparent" points="855.5,-665 855.5,-686 926.5,-686 926.5,-665 855.5,-665"/>
<text text-anchor="start" x="858.5" y="-671.8" font-family="Times,serif" font-size="14.00" fill="#000000">[number*8]</text>
<polygon fill="#c0c0c0" stroke="transparent" points="799.5,-640 799.5,-661 851.5,-661 851.5,-640 799.5,-640"/>
<text text-anchor="start" x="805.5" y="-646.8" font-family="Times,serif" font-size="14.00" fill="#000000">timeout</text>
<polygon fill="#c0c0c0" stroke="transparent" points="855.5,-640 855.5,-661 926.5,-661 926.5,-640 855.5,-640"/>
<text text-anchor="start" x="858.5" y="-646.8" font-family="Times,serif" font-size="14.00" fill="#000000">[number*4]</text>
<text text-anchor="start" x="831" y="-621.8" font-family="Times,serif" font-size="14.00" fill="#000000">lookup perf</text>
<text text-anchor="start" x="826.5" y="-596.8" font-family="Times,serif" font-size="14.00" fill="#000000">start measure</text>
<polygon fill="none" stroke="#000000" points="794,-585 794,-793 931,-793 931,-585 794,-585"/>
</g>
<!-- s_have_perf&#45;&gt;m_have_perf_measure -->
<g id="edge18" class="edge">
<title>s_have_perf&#45;&gt;m_have_perf_measure</title>
<path fill="none" stroke="#000000" d="M856.5658,-833.1927C856.2666,-825.1143 856.0498,-816.425 855.9151,-807.4609"/>
<polygon fill="#000000" stroke="#000000" points="859.4125,-807.2004 855.7981,-797.2412 852.4129,-807.2806 859.4125,-807.2004"/>
</g>
<!-- s_have_perf&#45;&gt;m_have_perf_measure -->
<g id="edge19" class="edge">
<title>s_have_perf&#45;&gt;m_have_perf_measure</title>
<path fill="none" stroke="#000000" d="M868.7597,-823.0071C868.9842,-814.7605 869.1315,-806.0703 869.2019,-797.2412"/>
<polygon fill="#000000" stroke="#000000" points="865.2555,-823.0859 868.4342,-833.1927 872.2519,-823.3096 865.2555,-823.0859"/>
</g>
<!-- m_have_perf_measure_return -->
<g id="node11" class="node">
<title>m_have_perf_measure_return</title>
<polygon fill="#ffffff" stroke="transparent" points="1042,-660 1042,-718 1151,-718 1151,-660 1042,-660"/>
<path fill="#e5e5e5" stroke="transparent" d="M1055.1667,-690C1055.1667,-690 1138.8333,-690 1138.8333,-690 1142.6667,-690 1146.5,-693.8333 1146.5,-697.6667 1146.5,-697.6667 1146.5,-705.3333 1146.5,-705.3333 1146.5,-709.1667 1142.6667,-713 1138.8333,-713 1138.8333,-713 1055.1667,-713 1055.1667,-713 1051.3333,-713 1047.5,-709.1667 1047.5,-705.3333 1047.5,-705.3333 1047.5,-697.6667 1047.5,-697.6667 1047.5,-693.8333 1051.3333,-690 1055.1667,-690"/>
<path fill="none" stroke="#000000" d="M1055.1667,-690C1055.1667,-690 1138.8333,-690 1138.8333,-690 1142.6667,-690 1146.5,-693.8333 1146.5,-697.6667 1146.5,-697.6667 1146.5,-705.3333 1146.5,-705.3333 1146.5,-709.1667 1142.6667,-713 1138.8333,-713 1138.8333,-713 1055.1667,-713 1055.1667,-713 1051.3333,-713 1047.5,-709.1667 1047.5,-705.3333 1047.5,-705.3333 1047.5,-697.6667 1047.5,-697.6667 1047.5,-693.8333 1051.3333,-690 1055.1667,-690"/>
<text text-anchor="start" x="1056" y="-697.8" font-family="Times,serif" font-size="14.00" fill="#000000">measure return</text>
<text text-anchor="start" x="1052.5" y="-671.8" font-family="Times,serif" font-size="14.00" fill="#000000">send (RESULT)</text>
<polygon fill="none" stroke="#000000" points="1042,-660 1042,-718 1151,-718 1151,-660 1042,-660"/>
</g>
<!-- s_have_perf&#45;&gt;m_have_perf_measure_return -->
<g id="edge20" class="edge">
<title>s_have_perf&#45;&gt;m_have_perf_measure_return</title>
<path fill="none" stroke="#000000" d="M906.2306,-860.877C937.5237,-846.3328 979.2756,-824.4875 1010.5,-797 1031.8623,-778.1943 1050.5452,-752.3738 1065.1694,-730.6952"/>
<polygon fill="#000000" stroke="#000000" points="1068.1287,-732.5661 1070.7754,-722.3071 1062.3088,-728.6764 1068.1287,-732.5661"/>
</g>
<!-- s_have_perf&#45;&gt;m_have_perf_measure_return -->
<g id="edge21" class="edge">
<title>s_have_perf&#45;&gt;m_have_perf_measure_return</title>
<path fill="none" stroke="#000000" d="M917.9509,-862.4357C952.471,-847.9152 996.1393,-825.4878 1028.5,-797 1052.6981,-775.6979 1073.458,-745.3952 1085.8314,-722.3071"/>
<polygon fill="#000000" stroke="#000000" points="916.3996,-859.2889 908.4741,-866.3201 919.0544,-865.766 916.3996,-859.2889"/>
</g>
<!-- m_have_perf_info -->
<g id="node12" class="node">
<title>m_have_perf_info</title>
<polygon fill="#ffffff" stroke="transparent" points="1185.5,-597.5 1185.5,-780.5 1329.5,-780.5 1329.5,-597.5 1185.5,-597.5"/>
<path fill="#4d4d4d" stroke="transparent" d="M1198.1667,-752C1198.1667,-752 1316.8333,-752 1316.8333,-752 1320.6667,-752 1324.5,-755.8333 1324.5,-759.6667 1324.5,-759.6667 1324.5,-767.3333 1324.5,-767.3333 1324.5,-771.1667 1320.6667,-775 1316.8333,-775 1316.8333,-775 1198.1667,-775 1198.1667,-775 1194.3333,-775 1190.5,-771.1667 1190.5,-767.3333 1190.5,-767.3333 1190.5,-759.6667 1190.5,-759.6667 1190.5,-755.8333 1194.3333,-752 1198.1667,-752"/>
<path fill="none" stroke="#000000" d="M1198.1667,-752C1198.1667,-752 1316.8333,-752 1316.8333,-752 1320.6667,-752 1324.5,-755.8333 1324.5,-759.6667 1324.5,-759.6667 1324.5,-767.3333 1324.5,-767.3333 1324.5,-771.1667 1320.6667,-775 1316.8333,-775 1316.8333,-775 1198.1667,-775 1198.1667,-775 1194.3333,-775 1190.5,-771.1667 1190.5,-767.3333 1190.5,-767.3333 1190.5,-759.6667 1190.5,-759.6667 1190.5,-755.8333 1194.3333,-752 1198.1667,-752"/>
<text text-anchor="start" x="1241.5" y="-759.8" font-family="Times,serif" font-size="14.00" fill="#ffffff">INFO</text>
<polygon fill="#c0c0c0" stroke="transparent" points="1190.5,-727 1190.5,-748 1249.5,-748 1249.5,-727 1190.5,-727"/>
<text text-anchor="start" x="1218.5" y="-733.8" font-family="Times,serif" font-size="14.00" fill="#000000">ident</text>
<polygon fill="#c0c0c0" stroke="transparent" points="1253.5,-727 1253.5,-748 1324.5,-748 1324.5,-727 1253.5,-727"/>
<text text-anchor="start" x="1256.5" y="-733.8" font-family="Times,serif" font-size="14.00" fill="#000000">[string]</text>
<polygon fill="#c0c0c0" stroke="transparent" points="1190.5,-702 1190.5,-723 1249.5,-723 1249.5,-702 1190.5,-702"/>
<text text-anchor="start" x="1217.5" y="-708.8" font-family="Times,serif" font-size="14.00" fill="#000000">stype</text>
<polygon fill="#c0c0c0" stroke="transparent" points="1253.5,-702 1253.5,-723 1324.5,-723 1324.5,-702 1253.5,-702"/>
<text text-anchor="start" x="1256.5" y="-708.8" font-family="Times,serif" font-size="14.00" fill="#000000">[number*4]</text>
<polygon fill="#c0c0c0" stroke="transparent" points="1190.5,-677 1190.5,-698 1249.5,-698 1249.5,-677 1190.5,-677"/>
<text text-anchor="start" x="1193.5" y="-683.8" font-family="Times,serif" font-size="14.00" fill="#000000">endpoints</text>
<polygon fill="#c0c0c0" stroke="transparent" points="1253.5,-677 1253.5,-698 1324.5,-698 1324.5,-677 1253.5,-677"/>
<text text-anchor="start" x="1256.5" y="-683.8" font-family="Times,serif" font-size="14.00" fill="#000000">[hash]</text>
<text text-anchor="start" x="1225.5" y="-658.8" font-family="Times,serif" font-size="14.00" fill="#000000">lookup perf</text>
<text text-anchor="start" x="1224" y="-633.8" font-family="Times,serif" font-size="14.00" fill="#000000">set perf info</text>
<text text-anchor="start" x="1209.5" y="-608.8" font-family="Times,serif" font-size="14.00" fill="#000000">send (INFO_OK)</text>
<polygon fill="none" stroke="#000000" points="1185.5,-597.5 1185.5,-780.5 1329.5,-780.5 1329.5,-597.5 1185.5,-597.5"/>
</g>
<!-- s_have_perf&#45;&gt;m_have_perf_info -->
<g id="edge23" class="edge">
<title>s_have_perf&#45;&gt;m_have_perf_info</title>
<path fill="none" stroke="#000000" d="M910.4676,-876.2511C972.3896,-868.2353 1081.1264,-847.7926 1159.5,-797 1162.9008,-794.796 1166.2363,-792.4207 1169.503,-789.9058"/>
<polygon fill="#000000" stroke="#000000" points="1171.9525,-792.4241 1177.4794,-783.3851 1167.522,-787.0046 1171.9525,-792.4241"/>
</g>
<!-- s_have_perf&#45;&gt;m_have_perf_info -->
<g id="edge24" class="edge">
<title>s_have_perf&#45;&gt;m_have_perf_info</title>
<path fill="none" stroke="#000000" d="M920.6653,-876.5552C987.5792,-868.7577 1098.1154,-848.4479 1177.5,-797 1183.2089,-793.3002 1188.7336,-789.1177 1194.0345,-784.6024"/>
<polygon fill="#000000" stroke="#000000" points="920.268,-873.0777 910.7152,-877.6596 921.0403,-880.0349 920.268,-873.0777"/>
</g>
<!-- m_defaults_ping -->
<g id="node13" class="node">
<title>m_defaults_ping</title>
<polygon fill="#ffffff" stroke="transparent" points="332.5,-156 332.5,-214 448.5,-214 448.5,-156 332.5,-156"/>
<path fill="#4d4d4d" stroke="transparent" d="M345.1667,-186C345.1667,-186 435.8333,-186 435.8333,-186 439.6667,-186 443.5,-189.8333 443.5,-193.6667 443.5,-193.6667 443.5,-201.3333 443.5,-201.3333 443.5,-205.1667 439.6667,-209 435.8333,-209 435.8333,-209 345.1667,-209 345.1667,-209 341.3333,-209 337.5,-205.1667 337.5,-201.3333 337.5,-201.3333 337.5,-193.6667 337.5,-193.6667 337.5,-189.8333 341.3333,-186 345.1667,-186"/>
<path fill="none" stroke="#000000" d="M345.1667,-186C345.1667,-186 435.8333,-186 435.8333,-186 439.6667,-186 443.5,-189.8333 443.5,-193.6667 443.5,-193.6667 443.5,-201.3333 443.5,-201.3333 443.5,-205.1667 439.6667,-209 435.8333,-209 435.8333,-209 345.1667,-209 345.1667,-209 341.3333,-209 337.5,-205.1667 337.5,-201.3333 337.5,-201.3333 337.5,-193.6667 337.5,-193.6667 337.5,-189.8333 341.3333,-186 345.1667,-186"/>
<text text-anchor="start" x="374.5" y="-193.8" font-family="Times,serif" font-size="14.00" fill="#ffffff">PING</text>
<text text-anchor="start" x="342.5" y="-167.8" font-family="Times,serif" font-size="14.00" fill="#000000">send (PING_OK)</text>
<polygon fill="none" stroke="#000000" points="332.5,-156 332.5,-214 448.5,-214 448.5,-156 332.5,-156"/>
</g>
<!-- s_defaults&#45;&gt;m_defaults_ping -->
<g id="edge26" class="edge">
<title>s_defaults&#45;&gt;m_defaults_ping</title>
<path fill="none" stroke="#000000" d="M452.7507,-374.0053C436.3694,-333.6934 413.6087,-270.1249 400.4198,-228.0029"/>
<polygon fill="#000000" stroke="#000000" points="403.7238,-226.8394 397.4405,-218.3089 397.0327,-228.8959 403.7238,-226.8394"/>
</g>
<!-- s_defaults&#45;&gt;m_defaults_ping -->
<g id="edge27" class="edge">
<title>s_defaults&#45;&gt;m_defaults_ping</title>
<path fill="none" stroke="#000000" d="M459.0634,-361.0596C445.0747,-317.4496 422.8545,-255.9195 407.3431,-218.3393"/>
<polygon fill="#000000" stroke="#000000" points="455.7372,-362.1494 462.0896,-370.6287 462.4114,-360.0387 455.7372,-362.1494"/>
</g>
<!-- m_defaults_goodbye -->
<g id="node14" class="node">
<title>m_defaults_goodbye</title>
<polygon fill="#ffffff" stroke="transparent" points="482.5,-143.5 482.5,-226.5 632.5,-226.5 632.5,-143.5 482.5,-143.5"/>
<path fill="#4d4d4d" stroke="transparent" d="M495.1667,-198C495.1667,-198 619.8333,-198 619.8333,-198 623.6667,-198 627.5,-201.8333 627.5,-205.6667 627.5,-205.6667 627.5,-213.3333 627.5,-213.3333 627.5,-217.1667 623.6667,-221 619.8333,-221 619.8333,-221 495.1667,-221 495.1667,-221 491.3333,-221 487.5,-217.1667 487.5,-213.3333 487.5,-213.3333 487.5,-205.6667 487.5,-205.6667 487.5,-201.8333 491.3333,-198 495.1667,-198"/>
<path fill="none" stroke="#000000" d="M495.1667,-198C495.1667,-198 619.8333,-198 619.8333,-198 623.6667,-198 627.5,-201.8333 627.5,-205.6667 627.5,-205.6667 627.5,-213.3333 627.5,-213.3333 627.5,-217.1667 623.6667,-221 619.8333,-221 619.8333,-221 495.1667,-221 495.1667,-221 491.3333,-221 487.5,-217.1667 487.5,-213.3333 487.5,-213.3333 487.5,-205.6667 487.5,-205.6667 487.5,-201.8333 491.3333,-198 495.1667,-198"/>
<text text-anchor="start" x="524" y="-205.8" font-family="Times,serif" font-size="14.00" fill="#ffffff">GOODBYE</text>
<text text-anchor="start" x="492.5" y="-179.8" font-family="Times,serif" font-size="14.00" fill="#000000">send (GOODBYE_OK)</text>
<text text-anchor="start" x="531.5" y="-154.8" font-family="Times,serif" font-size="14.00" fill="#000000">terminate</text>
<polygon fill="none" stroke="#000000" points="482.5,-143.5 482.5,-226.5 632.5,-226.5 632.5,-143.5 482.5,-143.5"/>
</g>
<!-- s_defaults&#45;&gt;m_defaults_goodbye -->
<g id="edge29" class="edge">
<title>s_defaults&#45;&gt;m_defaults_goodbye</title>
<path fill="none" stroke="#000000" d="M481.7339,-370.892C493.9064,-334.343 514.082,-280.6053 530.6614,-240.296"/>
<polygon fill="#000000" stroke="#000000" points="533.9704,-241.4537 534.5735,-230.876 527.5057,-238.7688 533.9704,-241.4537"/>
</g>
<!-- s_defaults&#45;&gt;m_defaults_goodbye -->
<g id="edge30" class="edge">
<title>s_defaults&#45;&gt;m_defaults_goodbye</title>
<path fill="none" stroke="#000000" d="M495.0562,-364.6207C511.5224,-325.2422 532.5951,-269.5595 545.7374,-230.6643"/>
<polygon fill="#000000" stroke="#000000" points="491.6507,-363.6874 490.9768,-374.2607 498.0973,-366.4154 491.6507,-363.6874"/>
</g>
<!-- m_defaults_expired -->
<g id="node15" class="node">
<title>m_defaults_expired</title>
<polygon fill="#ffffff" stroke="transparent" points="666.5,-156 666.5,-214 738.5,-214 738.5,-156 666.5,-156"/>
<path fill="#e5e5e5" stroke="transparent" d="M679.1667,-186C679.1667,-186 725.8333,-186 725.8333,-186 729.6667,-186 733.5,-189.8333 733.5,-193.6667 733.5,-193.6667 733.5,-201.3333 733.5,-201.3333 733.5,-205.1667 729.6667,-209 725.8333,-209 725.8333,-209 679.1667,-209 679.1667,-209 675.3333,-209 671.5,-205.1667 671.5,-201.3333 671.5,-201.3333 671.5,-193.6667 671.5,-193.6667 671.5,-189.8333 675.3333,-186 679.1667,-186"/>
<path fill="none" stroke="#000000" d="M679.1667,-186C679.1667,-186 725.8333,-186 725.8333,-186 729.6667,-186 733.5,-189.8333 733.5,-193.6667 733.5,-193.6667 733.5,-201.3333 733.5,-201.3333 733.5,-205.1667 729.6667,-209 725.8333,-209 725.8333,-209 679.1667,-209 679.1667,-209 675.3333,-209 671.5,-205.1667 671.5,-201.3333 671.5,-201.3333 671.5,-193.6667 671.5,-193.6667 671.5,-189.8333 675.3333,-186 679.1667,-186"/>
<text text-anchor="start" x="682" y="-193.8" font-family="Times,serif" font-size="14.00" fill="#000000">expired</text>
<text text-anchor="start" x="676.5" y="-167.8" font-family="Times,serif" font-size="14.00" fill="#000000">terminate</text>
<polygon fill="none" stroke="#000000" points="666.5,-156 666.5,-214 738.5,-214 738.5,-156 666.5,-156"/>
</g>
<!-- s_defaults&#45;&gt;m_defaults_expired -->
<g id="edge32" class="edge">
<title>s_defaults&#45;&gt;m_defaults_expired</title>
<path fill="none" stroke="#000000" d="M488.777,-373.0369C506.8464,-344.33 536.4671,-305.7829 569.5,-279 596.9819,-256.7178 612.331,-264.407 640.5,-243 647.291,-237.8392 653.9267,-231.739 660.2088,-225.4663"/>
<polygon fill="#000000" stroke="#000000" points="662.9419,-227.6764 667.4092,-218.0694 657.926,-222.7937 662.9419,-227.6764"/>
</g>
<!-- s_defaults&#45;&gt;m_defaults_expired -->
<g id="edge33" class="edge">
<title>s_defaults&#45;&gt;m_defaults_expired</title>
<path fill="none" stroke="#000000" d="M504.896,-371.2963C526.0371,-342.787 555.1302,-305.2452 587.5,-279 614.9819,-256.7178 630.331,-264.407 658.5,-243 667.9484,-235.8197 677.096,-226.8211 684.7028,-218.0694"/>
<polygon fill="#000000" stroke="#000000" points="501.996,-369.3315 498.8723,-379.4553 507.6276,-373.4891 501.996,-369.3315"/>
</g>
<!-- m_defaults_exception -->
<g id="node16" class="node">
<title>m_defaults_exception</title>
<polygon fill="#ffffff" stroke="transparent" points="8,-143.5 8,-226.5 111,-226.5 111,-143.5 8,-143.5"/>
<path fill="#e5e5e5" stroke="transparent" d="M21.1667,-198C21.1667,-198 98.8333,-198 98.8333,-198 102.6667,-198 106.5,-201.8333 106.5,-205.6667 106.5,-205.6667 106.5,-213.3333 106.5,-213.3333 106.5,-217.1667 102.6667,-221 98.8333,-221 98.8333,-221 21.1667,-221 21.1667,-221 17.3333,-221 13.5,-217.1667 13.5,-213.3333 13.5,-213.3333 13.5,-205.6667 13.5,-205.6667 13.5,-201.8333 17.3333,-198 21.1667,-198"/>
<path fill="none" stroke="#000000" d="M21.1667,-198C21.1667,-198 98.8333,-198 98.8333,-198 102.6667,-198 106.5,-201.8333 106.5,-205.6667 106.5,-205.6667 106.5,-213.3333 106.5,-213.3333 106.5,-217.1667 102.6667,-221 98.8333,-221 98.8333,-221 21.1667,-221 21.1667,-221 17.3333,-221 13.5,-217.1667 13.5,-213.3333 13.5,-213.3333 13.5,-205.6667 13.5,-205.6667 13.5,-201.8333 17.3333,-198 21.1667,-198"/>
<text text-anchor="start" x="33.5" y="-205.8" font-family="Times,serif" font-size="14.00" fill="#000000">exception</text>
<text text-anchor="start" x="18.5" y="-179.8" font-family="Times,serif" font-size="14.00" fill="#000000">send (ERROR)</text>
<text text-anchor="start" x="34" y="-154.8" font-family="Times,serif" font-size="14.00" fill="#000000">terminate</text>
<polygon fill="none" stroke="#000000" points="8,-143.5 8,-226.5 111,-226.5 111,-143.5 8,-143.5"/>
</g>
<!-- s_defaults&#45;&gt;m_defaults_exception -->
<g id="edge34" class="edge">
<title>s_defaults&#45;&gt;m_defaults_exception</title>
<path fill="none" stroke="#000000" d="M459.6199,-371.1249C452.3612,-340.8182 439.7517,-301.0826 411.5,-279 308.1294,-198.2018 238.6055,-295.8062 118.5,-243 114.1144,-241.0718 109.7976,-238.7651 105.6125,-236.1991"/>
<polygon fill="#000000" stroke="#000000" points="107.4887,-233.2434 97.2272,-230.6064 103.6045,-239.067 107.4887,-233.2434"/>
</g>
<!-- s_defaults&#45;&gt;m_defaults_exception -->
<g id="edge35" class="edge">
<title>s_defaults&#45;&gt;m_defaults_exception</title>
<path fill="none" stroke="#000000" d="M472.4408,-359.3969C466.9722,-331.1804 454.2279,-298.3282 429.5,-279 326.1294,-198.2018 256.6055,-295.8062 136.5,-243 129.1137,-239.7525 121.9225,-235.4313 115.0764,-230.6064"/>
<polygon fill="#000000" stroke="#000000" points="469.0366,-360.2617 474.1351,-369.5491 475.9411,-359.1093 469.0366,-360.2617"/>
</g>
<!-- m_defaults__ -->
<g id="node17" class="node">
<title>m_defaults__</title>
<polygon fill="#ffffff" stroke="transparent" points="145,-131 145,-239 298,-239 298,-131 145,-131"/>
<path fill="#e5e5e5" stroke="transparent" d="M158.1667,-211C158.1667,-211 285.8333,-211 285.8333,-211 289.6667,-211 293.5,-214.8333 293.5,-218.6667 293.5,-218.6667 293.5,-226.3333 293.5,-226.3333 293.5,-230.1667 289.6667,-234 285.8333,-234 285.8333,-234 158.1667,-234 158.1667,-234 154.3333,-234 150.5,-230.1667 150.5,-226.3333 150.5,-226.3333 150.5,-218.6667 150.5,-218.6667 150.5,-214.8333 154.3333,-211 158.1667,-211"/>
<path fill="none" stroke="#000000" d="M158.1667,-211C158.1667,-211 285.8333,-211 285.8333,-211 289.6667,-211 293.5,-214.8333 293.5,-218.6667 293.5,-218.6667 293.5,-226.3333 293.5,-226.3333 293.5,-230.1667 289.6667,-234 285.8333,-234 285.8333,-234 158.1667,-234 158.1667,-234 154.3333,-234 150.5,-230.1667 150.5,-226.3333 150.5,-226.3333 150.5,-218.6667 150.5,-218.6667 150.5,-214.8333 154.3333,-211 158.1667,-211"/>
<text text-anchor="start" x="218.5" y="-218.8" font-family="Times,serif" font-size="14.00" fill="#000000">*</text>
<text text-anchor="start" x="155.5" y="-192.8" font-family="Times,serif" font-size="14.00" fill="#000000">signal command invalid</text>
<text text-anchor="start" x="180.5" y="-167.8" font-family="Times,serif" font-size="14.00" fill="#000000">send (ERROR)</text>
<text text-anchor="start" x="196" y="-142.8" font-family="Times,serif" font-size="14.00" fill="#000000">terminate</text>
<polygon fill="none" stroke="#000000" points="145,-131 145,-239 298,-239 298,-131 145,-131"/>
</g>
<!-- s_defaults&#45;&gt;m_defaults__ -->
<g id="edge37" class="edge">
<title>s_defaults&#45;&gt;m_defaults__</title>
<path fill="none" stroke="#000000" d="M457.9907,-371.7949C449.9714,-342.4458 437.0391,-303.6391 411.5,-279 378.6311,-247.2895 354.8551,-261.5081 315.9111,-246.9671"/>
<polygon fill="#000000" stroke="#000000" points="316.8134,-243.5486 306.2399,-242.8769 314.0867,-249.9957 316.8134,-243.5486"/>
</g>
<!-- s_defaults&#45;&gt;m_defaults__ -->
<g id="edge38" class="edge">
<title>s_defaults&#45;&gt;m_defaults__</title>
<path fill="none" stroke="#000000" d="M470.4863,-359.8177C464.3639,-332.5144 451.691,-300.409 429.5,-279 393.9961,-244.7473 369.1014,-264.083 324.5,-243 318.4322,-240.1317 312.2665,-236.9636 306.1201,-233.6313"/>
<polygon fill="#000000" stroke="#000000" points="467.0559,-360.5126 472.451,-369.6309 473.9196,-359.1383 467.0559,-360.5126"/>
</g>
<!-- m_hello_ok -->
<g id="node18" class="node">
<title>m_hello_ok</title>
<polygon fill="#ffffff" stroke="transparent" points="772.5,-156 772.5,-214 892.5,-214 892.5,-156 772.5,-156"/>
<path fill="#4d4d4d" stroke="transparent" d="M785.1667,-186C785.1667,-186 879.8333,-186 879.8333,-186 883.6667,-186 887.5,-189.8333 887.5,-193.6667 887.5,-193.6667 887.5,-201.3333 887.5,-201.3333 887.5,-205.1667 883.6667,-209 879.8333,-209 879.8333,-209 785.1667,-209 785.1667,-209 781.3333,-209 777.5,-205.1667 777.5,-201.3333 777.5,-201.3333 777.5,-193.6667 777.5,-193.6667 777.5,-189.8333 781.3333,-186 785.1667,-186"/>
<path fill="none" stroke="#000000" d="M785.1667,-186C785.1667,-186 879.8333,-186 879.8333,-186 883.6667,-186 887.5,-189.8333 887.5,-193.6667 887.5,-193.6667 887.5,-201.3333 887.5,-201.3333 887.5,-205.1667 883.6667,-209 879.8333,-209 879.8333,-209 785.1667,-209 785.1667,-209 781.3333,-209 777.5,-205.1667 777.5,-201.3333 777.5,-201.3333 777.5,-193.6667 777.5,-193.6667 777.5,-189.8333 781.3333,-186 785.1667,-186"/>
<text text-anchor="start" x="798.5" y="-193.8" font-family="Times,serif" font-size="14.00" fill="#ffffff">HELLO OK</text>
<polygon fill="#c0c0c0" stroke="transparent" points="777.5,-161 777.5,-182 837.5,-182 837.5,-161 777.5,-161"/>
<text text-anchor="start" x="780.5" y="-167.8" font-family="Times,serif" font-size="14.00" fill="#000000">nickname</text>
<polygon fill="#c0c0c0" stroke="transparent" points="841.5,-161 841.5,-182 887.5,-182 887.5,-161 841.5,-161"/>
<text text-anchor="start" x="844.5" y="-167.8" font-family="Times,serif" font-size="14.00" fill="#000000">[string]</text>
<polygon fill="none" stroke="#000000" points="772.5,-156 772.5,-214 892.5,-214 892.5,-156 772.5,-156"/>
</g>
<!-- m_start_hello&#45;&gt;m_hello_ok -->
<g id="edge6" class="edge">
<title>m_start_hello:hello_ok&#45;&gt;m_hello_ok</title>
<path fill="none" stroke="#000000" stroke-dasharray="1,5" d="M720.5,-385C744.5575,-385 731.3022,-300.2926 742.5,-279 752.8931,-259.2375 768.6746,-240.7245 784.1354,-225.4415"/>
<polygon fill="#000000" stroke="#000000" points="791.6744,-218.207 787.5748,-228.3778 788.0667,-221.669 784.459,-225.1309 784.459,-225.1309 784.459,-225.1309 788.0667,-221.669 781.3433,-221.884 791.6744,-218.207 791.6744,-218.207"/>
</g>
<!-- m_perf_ok -->
<g id="node19" class="node">
<title>m_perf_ok</title>
<polygon fill="#ffffff" stroke="transparent" points="926.5,-156 926.5,-214 1020.5,-214 1020.5,-156 926.5,-156"/>
<path fill="#4d4d4d" stroke="transparent" d="M939.1667,-186C939.1667,-186 1007.8333,-186 1007.8333,-186 1011.6667,-186 1015.5,-189.8333 1015.5,-193.6667 1015.5,-193.6667 1015.5,-201.3333 1015.5,-201.3333 1015.5,-205.1667 1011.6667,-209 1007.8333,-209 1007.8333,-209 939.1667,-209 939.1667,-209 935.3333,-209 931.5,-205.1667 931.5,-201.3333 931.5,-201.3333 931.5,-193.6667 931.5,-193.6667 931.5,-189.8333 935.3333,-186 939.1667,-186"/>
<path fill="none" stroke="#000000" d="M939.1667,-186C939.1667,-186 1007.8333,-186 1007.8333,-186 1011.6667,-186 1015.5,-189.8333 1015.5,-193.6667 1015.5,-193.6667 1015.5,-201.3333 1015.5,-201.3333 1015.5,-205.1667 1011.6667,-209 1007.8333,-209 1007.8333,-209 939.1667,-209 939.1667,-209 935.3333,-209 931.5,-205.1667 931.5,-201.3333 931.5,-201.3333 931.5,-193.6667 931.5,-193.6667 931.5,-189.8333 935.3333,-186 939.1667,-186"/>
<text text-anchor="start" x="945.5" y="-193.8" font-family="Times,serif" font-size="14.00" fill="#ffffff">PERF OK</text>
<polygon fill="#c0c0c0" stroke="transparent" points="931.5,-161 931.5,-182 965.5,-182 965.5,-161 931.5,-161"/>
<text text-anchor="start" x="934.5" y="-167.8" font-family="Times,serif" font-size="14.00" fill="#000000">ident</text>
<polygon fill="#c0c0c0" stroke="transparent" points="969.5,-161 969.5,-182 1015.5,-182 1015.5,-161 969.5,-161"/>
<text text-anchor="start" x="972.5" y="-167.8" font-family="Times,serif" font-size="14.00" fill="#000000">[string]</text>
<polygon fill="none" stroke="#000000" points="926.5,-156 926.5,-214 1020.5,-214 1020.5,-156 926.5,-156"/>
</g>
<!-- m_connected_create&#45;&gt;m_perf_ok -->
<g id="edge9" class="edge">
<title>m_connected_create:perf_ok&#45;&gt;m_perf_ok</title>
<path fill="none" stroke="#000000" stroke-dasharray="1,5" d="M874.5,-373C917.4067,-373 877.5245,-317.4827 896.5,-279 905.8748,-259.9878 919.7534,-241.4183 933.1558,-225.8731"/>
<polygon fill="#000000" stroke="#000000" points="940.0947,-218.0333 936.8366,-228.5041 936.7808,-221.7775 933.4669,-225.5216 933.4669,-225.5216 933.4669,-225.5216 936.7808,-221.7775 930.0972,-222.5391 940.0947,-218.0333 940.0947,-218.0333"/>
</g>
<!-- m_connected_lookup&#45;&gt;m_perf_ok -->
<g id="edge12" class="edge">
<title>m_connected_lookup:perf_ok&#45;&gt;m_perf_ok</title>
<path fill="none" stroke="#000000" stroke-dasharray="1,5" d="M973.5,-363C973.5,-317.0134 973.5,-264.3439 973.5,-228.2998"/>
<polygon fill="#000000" stroke="#000000" points="973.5,-218.1342 978.0001,-228.1342 973.5,-223.1342 973.5001,-228.1342 973.5001,-228.1342 973.5001,-228.1342 973.5,-223.1342 969.0001,-228.1342 973.5,-218.1342 973.5,-218.1342"/>
</g>
<!-- m_socket_ok -->
<g id="node21" class="node">
<title>m_socket_ok</title>
<polygon fill="#ffffff" stroke="transparent" points="289.5,-358 289.5,-466 403.5,-466 403.5,-358 289.5,-358"/>
<path fill="#4d4d4d" stroke="transparent" d="M302.1667,-438C302.1667,-438 390.8333,-438 390.8333,-438 394.6667,-438 398.5,-441.8333 398.5,-445.6667 398.5,-445.6667 398.5,-453.3333 398.5,-453.3333 398.5,-457.1667 394.6667,-461 390.8333,-461 390.8333,-461 302.1667,-461 302.1667,-461 298.3333,-461 294.5,-457.1667 294.5,-453.3333 294.5,-453.3333 294.5,-445.6667 294.5,-445.6667 294.5,-441.8333 298.3333,-438 302.1667,-438"/>
<path fill="none" stroke="#000000" d="M302.1667,-438C302.1667,-438 390.8333,-438 390.8333,-438 394.6667,-438 398.5,-441.8333 398.5,-445.6667 398.5,-445.6667 398.5,-453.3333 398.5,-453.3333 398.5,-457.1667 394.6667,-461 390.8333,-461 390.8333,-461 302.1667,-461 302.1667,-461 298.3333,-461 294.5,-457.1667 294.5,-453.3333 294.5,-453.3333 294.5,-445.6667 294.5,-445.6667 294.5,-441.8333 298.3333,-438 302.1667,-438"/>
<text text-anchor="start" x="308.5" y="-445.8" font-family="Times,serif" font-size="14.00" fill="#ffffff">SOCKET OK</text>
<polygon fill="#c0c0c0" stroke="transparent" points="294.5,-413 294.5,-434 348.5,-434 348.5,-413 294.5,-413"/>
<text text-anchor="start" x="317.5" y="-419.8" font-family="Times,serif" font-size="14.00" fill="#000000">ident</text>
<polygon fill="#c0c0c0" stroke="transparent" points="352.5,-413 352.5,-434 398.5,-434 398.5,-413 352.5,-413"/>
<text text-anchor="start" x="355.5" y="-419.8" font-family="Times,serif" font-size="14.00" fill="#000000">[string]</text>
<polygon fill="#c0c0c0" stroke="transparent" points="294.5,-388 294.5,-409 348.5,-409 348.5,-388 294.5,-388"/>
<text text-anchor="start" x="320.5" y="-394.8" font-family="Times,serif" font-size="14.00" fill="#000000">borc</text>
<polygon fill="#c0c0c0" stroke="transparent" points="352.5,-388 352.5,-409 398.5,-409 398.5,-388 352.5,-388"/>
<text text-anchor="start" x="355.5" y="-394.8" font-family="Times,serif" font-size="14.00" fill="#000000">[string]</text>
<polygon fill="#c0c0c0" stroke="transparent" points="294.5,-363 294.5,-384 348.5,-384 348.5,-363 294.5,-363"/>
<text text-anchor="start" x="297.5" y="-369.8" font-family="Times,serif" font-size="14.00" fill="#000000">endpoint</text>
<polygon fill="#c0c0c0" stroke="transparent" points="352.5,-363 352.5,-384 398.5,-384 398.5,-363 352.5,-363"/>
<text text-anchor="start" x="355.5" y="-369.8" font-family="Times,serif" font-size="14.00" fill="#000000">[string]</text>
<polygon fill="none" stroke="#000000" points="289.5,-358 289.5,-466 403.5,-466 403.5,-358 289.5,-358"/>
</g>
<!-- m_have_perf_socket_return&#45;&gt;m_socket_ok -->
<g id="edge17" class="edge">
<title>m_have_perf_socket_return:socket_ok&#45;&gt;m_socket_ok</title>
<path fill="none" stroke="#000000" stroke-dasharray="1,5" d="M348.5,-652C348.5,-594.1586 347.9119,-528.4787 347.3736,-480.468"/>
<polygon fill="#000000" stroke="#000000" points="347.2561,-470.1951 351.8702,-480.143 347.3133,-475.1948 347.3705,-480.1944 347.3705,-480.1944 347.3705,-480.1944 347.3133,-475.1948 342.8708,-480.2459 347.2561,-470.1951 347.2561,-470.1951"/>
</g>
<!-- m_result -->
<g id="node22" class="node">
<title>m_result</title>
<polygon fill="#ffffff" stroke="transparent" points="1065,-283 1065,-541 1202,-541 1202,-283 1065,-283"/>
<path fill="#4d4d4d" stroke="transparent" d="M1078.1667,-513C1078.1667,-513 1189.8333,-513 1189.8333,-513 1193.6667,-513 1197.5,-516.8333 1197.5,-520.6667 1197.5,-520.6667 1197.5,-528.3333 1197.5,-528.3333 1197.5,-532.1667 1193.6667,-536 1189.8333,-536 1189.8333,-536 1078.1667,-536 1078.1667,-536 1074.3333,-536 1070.5,-532.1667 1070.5,-528.3333 1070.5,-528.3333 1070.5,-520.6667 1070.5,-520.6667 1070.5,-516.8333 1074.3333,-513 1078.1667,-513"/>
<path fill="none" stroke="#000000" d="M1078.1667,-513C1078.1667,-513 1189.8333,-513 1189.8333,-513 1193.6667,-513 1197.5,-516.8333 1197.5,-520.6667 1197.5,-520.6667 1197.5,-528.3333 1197.5,-528.3333 1197.5,-532.1667 1193.6667,-536 1189.8333,-536 1189.8333,-536 1078.1667,-536 1078.1667,-536 1074.3333,-536 1070.5,-532.1667 1070.5,-528.3333 1070.5,-528.3333 1070.5,-520.6667 1070.5,-520.6667 1070.5,-516.8333 1074.3333,-513 1078.1667,-513"/>
<text text-anchor="start" x="1108" y="-520.8" font-family="Times,serif" font-size="14.00" fill="#ffffff">RESULT</text>
<polygon fill="#c0c0c0" stroke="transparent" points="1070.5,-488 1070.5,-509 1122.5,-509 1122.5,-488 1070.5,-488"/>
<text text-anchor="start" x="1091.5" y="-494.8" font-family="Times,serif" font-size="14.00" fill="#000000">ident</text>
<polygon fill="#c0c0c0" stroke="transparent" points="1126.5,-488 1126.5,-509 1197.5,-509 1197.5,-488 1126.5,-488"/>
<text text-anchor="start" x="1129.5" y="-494.8" font-family="Times,serif" font-size="14.00" fill="#000000">[string]</text>
<polygon fill="#c0c0c0" stroke="transparent" points="1070.5,-463 1070.5,-484 1122.5,-484 1122.5,-463 1070.5,-463"/>
<text text-anchor="start" x="1073.5" y="-469.8" font-family="Times,serif" font-size="14.00" fill="#000000">measure</text>
<polygon fill="#c0c0c0" stroke="transparent" points="1126.5,-463 1126.5,-484 1197.5,-484 1197.5,-463 1126.5,-463"/>
<text text-anchor="start" x="1129.5" y="-469.8" font-family="Times,serif" font-size="14.00" fill="#000000">[string]</text>
<polygon fill="#c0c0c0" stroke="transparent" points="1070.5,-438 1070.5,-459 1122.5,-459 1122.5,-438 1070.5,-438"/>
<text text-anchor="start" x="1083.5" y="-444.8" font-family="Times,serif" font-size="14.00" fill="#000000">nmsgs</text>
<polygon fill="#c0c0c0" stroke="transparent" points="1126.5,-438 1126.5,-459 1197.5,-459 1197.5,-438 1126.5,-438"/>
<text text-anchor="start" x="1129.5" y="-444.8" font-family="Times,serif" font-size="14.00" fill="#000000">[number*4]</text>
<polygon fill="#c0c0c0" stroke="transparent" points="1070.5,-413 1070.5,-434 1122.5,-434 1122.5,-413 1070.5,-413"/>
<text text-anchor="start" x="1074.5" y="-419.8" font-family="Times,serif" font-size="14.00" fill="#000000">msgsize</text>
<polygon fill="#c0c0c0" stroke="transparent" points="1126.5,-413 1126.5,-434 1197.5,-434 1197.5,-413 1126.5,-413"/>
<text text-anchor="start" x="1129.5" y="-419.8" font-family="Times,serif" font-size="14.00" fill="#000000">[number*8]</text>
<polygon fill="#c0c0c0" stroke="transparent" points="1070.5,-388 1070.5,-409 1122.5,-409 1122.5,-388 1070.5,-388"/>
<text text-anchor="start" x="1076.5" y="-394.8" font-family="Times,serif" font-size="14.00" fill="#000000">timeout</text>
<polygon fill="#c0c0c0" stroke="transparent" points="1126.5,-388 1126.5,-409 1197.5,-409 1197.5,-388 1126.5,-388"/>
<text text-anchor="start" x="1129.5" y="-394.8" font-family="Times,serif" font-size="14.00" fill="#000000">[number*4]</text>
<polygon fill="#c0c0c0" stroke="transparent" points="1070.5,-363 1070.5,-384 1122.5,-384 1122.5,-363 1070.5,-363"/>
<text text-anchor="start" x="1075.5" y="-369.8" font-family="Times,serif" font-size="14.00" fill="#000000">time_us</text>
<polygon fill="#c0c0c0" stroke="transparent" points="1126.5,-363 1126.5,-384 1197.5,-384 1197.5,-363 1126.5,-363"/>
<text text-anchor="start" x="1129.5" y="-369.8" font-family="Times,serif" font-size="14.00" fill="#000000">[number*8]</text>
<polygon fill="#c0c0c0" stroke="transparent" points="1070.5,-338 1070.5,-359 1122.5,-359 1122.5,-338 1070.5,-338"/>
<text text-anchor="start" x="1080.5" y="-344.8" font-family="Times,serif" font-size="14.00" fill="#000000">cpu_us</text>
<polygon fill="#c0c0c0" stroke="transparent" points="1126.5,-338 1126.5,-359 1197.5,-359 1197.5,-338 1126.5,-338"/>
<text text-anchor="start" x="1129.5" y="-344.8" font-family="Times,serif" font-size="14.00" fill="#000000">[number*8]</text>
<polygon fill="#c0c0c0" stroke="transparent" points="1070.5,-313 1070.5,-334 1122.5,-334 1122.5,-313 1070.5,-313"/>
<text text-anchor="start" x="1093.5" y="-319.8" font-family="Times,serif" font-size="14.00" fill="#000000">noos</text>
<polygon fill="#c0c0c0" stroke="transparent" points="1126.5,-313 1126.5,-334 1197.5,-334 1197.5,-313 1126.5,-313"/>
<text text-anchor="start" x="1129.5" y="-319.8" font-family="Times,serif" font-size="14.00" fill="#000000">[number*4]</text>
<polygon fill="#c0c0c0" stroke="transparent" points="1070.5,-288 1070.5,-309 1122.5,-309 1122.5,-288 1070.5,-288"/>
<text text-anchor="start" x="1083.5" y="-294.8" font-family="Times,serif" font-size="14.00" fill="#000000">nbytes</text>
<polygon fill="#c0c0c0" stroke="transparent" points="1126.5,-288 1126.5,-309 1197.5,-309 1197.5,-288 1126.5,-288"/>
<text text-anchor="start" x="1129.5" y="-294.8" font-family="Times,serif" font-size="14.00" fill="#000000">[number*8]</text>
<polygon fill="none" stroke="#000000" points="1065,-283 1065,-541 1202,-541 1202,-283 1065,-283"/>
</g>
<!-- m_have_perf_measure_return&#45;&gt;m_result -->
<g id="edge22" class="edge">
<title>m_have_perf_measure_return:result&#45;&gt;m_result</title>
<path fill="none" stroke="#000000" stroke-dasharray="1,5" d="M1097.5,-665C1097.5,-629.2117 1101.0744,-590.8571 1105.9706,-555.107"/>
<polygon fill="#000000" stroke="#000000" points="1107.3848,-545.097 1110.4416,-555.6282 1106.6853,-550.0479 1105.9858,-554.9987 1105.9858,-554.9987 1105.9858,-554.9987 1106.6853,-550.0479 1101.5301,-554.3692 1107.3848,-545.097 1107.3848,-545.097"/>
</g>
<!-- m_info_ok -->
<g id="node20" class="node">
<title>m_info_ok</title>
<polygon fill="#ffffff" stroke="transparent" points="1236.5,-370.5 1236.5,-453.5 1346.5,-453.5 1346.5,-370.5 1236.5,-370.5"/>
<path fill="#4d4d4d" stroke="transparent" d="M1249.1667,-425C1249.1667,-425 1333.8333,-425 1333.8333,-425 1337.6667,-425 1341.5,-428.8333 1341.5,-432.6667 1341.5,-432.6667 1341.5,-440.3333 1341.5,-440.3333 1341.5,-444.1667 1337.6667,-448 1333.8333,-448 1333.8333,-448 1249.1667,-448 1249.1667,-448 1245.3333,-448 1241.5,-444.1667 1241.5,-440.3333 1241.5,-440.3333 1241.5,-432.6667 1241.5,-432.6667 1241.5,-428.8333 1245.3333,-425 1249.1667,-425"/>
<path fill="none" stroke="#000000" d="M1249.1667,-425C1249.1667,-425 1333.8333,-425 1333.8333,-425 1337.6667,-425 1341.5,-428.8333 1341.5,-432.6667 1341.5,-432.6667 1341.5,-440.3333 1341.5,-440.3333 1341.5,-444.1667 1337.6667,-448 1333.8333,-448 1333.8333,-448 1249.1667,-448 1249.1667,-448 1245.3333,-448 1241.5,-444.1667 1241.5,-440.3333 1241.5,-440.3333 1241.5,-432.6667 1241.5,-432.6667 1241.5,-428.8333 1245.3333,-425 1249.1667,-425"/>
<text text-anchor="start" x="1264" y="-432.8" font-family="Times,serif" font-size="14.00" fill="#ffffff">INFO OK</text>
<polygon fill="#c0c0c0" stroke="transparent" points="1241.5,-400 1241.5,-421 1291.5,-421 1291.5,-400 1241.5,-400"/>
<text text-anchor="start" x="1260.5" y="-406.8" font-family="Times,serif" font-size="14.00" fill="#000000">ident</text>
<polygon fill="#c0c0c0" stroke="transparent" points="1295.5,-400 1295.5,-421 1341.5,-421 1341.5,-400 1295.5,-400"/>
<text text-anchor="start" x="1298.5" y="-406.8" font-family="Times,serif" font-size="14.00" fill="#000000">[string]</text>
<polygon fill="#c0c0c0" stroke="transparent" points="1241.5,-375 1241.5,-396 1291.5,-396 1291.5,-375 1241.5,-375"/>
<text text-anchor="start" x="1244.5" y="-381.8" font-family="Times,serif" font-size="14.00" fill="#000000">perfinfo</text>
<polygon fill="#c0c0c0" stroke="transparent" points="1295.5,-375 1295.5,-396 1341.5,-396 1341.5,-375 1295.5,-375"/>
<text text-anchor="start" x="1298.5" y="-381.8" font-family="Times,serif" font-size="14.00" fill="#000000">[string]</text>
<polygon fill="none" stroke="#000000" points="1236.5,-370.5 1236.5,-453.5 1346.5,-453.5 1346.5,-370.5 1236.5,-370.5"/>
</g>
<!-- m_have_perf_info&#45;&gt;m_info_ok -->
<g id="edge25" class="edge">
<title>m_have_perf_info:info_ok&#45;&gt;m_info_ok</title>
<path fill="none" stroke="#000000" stroke-dasharray="1,5" d="M1257.5,-602C1257.5,-556.1658 1267.2057,-505.071 1276.2459,-467.4208"/>
<polygon fill="#000000" stroke="#000000" points="1278.6461,-457.6628 1280.6272,-468.4483 1277.4518,-462.5181 1276.2575,-467.3734 1276.2575,-467.3734 1276.2575,-467.3734 1277.4518,-462.5181 1271.8877,-466.2985 1278.6461,-457.6628 1278.6461,-457.6628"/>
</g>
<!-- m_ping_ok -->
<g id="node23" class="node">
<title>m_ping_ok</title>
<polygon fill="#ffffff" stroke="transparent" points="353.5,-29 353.5,-62 427.5,-62 427.5,-29 353.5,-29"/>
<path fill="#4d4d4d" stroke="transparent" d="M366.1667,-33.5C366.1667,-33.5 414.8333,-33.5 414.8333,-33.5 418.6667,-33.5 422.5,-37.3333 422.5,-41.1667 422.5,-41.1667 422.5,-48.8333 422.5,-48.8333 422.5,-52.6667 418.6667,-56.5 414.8333,-56.5 414.8333,-56.5 366.1667,-56.5 366.1667,-56.5 362.3333,-56.5 358.5,-52.6667 358.5,-48.8333 358.5,-48.8333 358.5,-41.1667 358.5,-41.1667 358.5,-37.3333 362.3333,-33.5 366.1667,-33.5"/>
<path fill="none" stroke="#000000" d="M366.1667,-33.5C366.1667,-33.5 414.8333,-33.5 414.8333,-33.5 418.6667,-33.5 422.5,-37.3333 422.5,-41.1667 422.5,-41.1667 422.5,-48.8333 422.5,-48.8333 422.5,-52.6667 418.6667,-56.5 414.8333,-56.5 414.8333,-56.5 366.1667,-56.5 366.1667,-56.5 362.3333,-56.5 358.5,-52.6667 358.5,-48.8333 358.5,-48.8333 358.5,-41.1667 358.5,-41.1667 358.5,-37.3333 362.3333,-33.5 366.1667,-33.5"/>
<text text-anchor="start" x="363" y="-41.3" font-family="Times,serif" font-size="14.00" fill="#ffffff">PING OK</text>
<polygon fill="none" stroke="#000000" points="353.5,-29 353.5,-62 427.5,-62 427.5,-29 353.5,-29"/>
</g>
<!-- m_defaults_ping&#45;&gt;m_ping_ok -->
<g id="edge28" class="edge">
<title>m_defaults_ping:ping_ok&#45;&gt;m_ping_ok</title>
<path fill="none" stroke="#000000" stroke-dasharray="1,5" d="M390.5,-161C390.5,-132.4375 390.5,-99.9019 390.5,-76.6574"/>
<polygon fill="#000000" stroke="#000000" points="390.5,-66.3654 395.0001,-76.3653 390.5,-71.3654 390.5001,-76.3654 390.5001,-76.3654 390.5001,-76.3654 390.5,-71.3654 386.0001,-76.3654 390.5,-66.3654 390.5,-66.3654"/>
</g>
<!-- m_goodbye_ok -->
<g id="node24" class="node">
<title>m_goodbye_ok</title>
<polygon fill="#ffffff" stroke="transparent" points="503.5,-29 503.5,-62 611.5,-62 611.5,-29 503.5,-29"/>
<path fill="#4d4d4d" stroke="transparent" d="M516.1667,-33.5C516.1667,-33.5 598.8333,-33.5 598.8333,-33.5 602.6667,-33.5 606.5,-37.3333 606.5,-41.1667 606.5,-41.1667 606.5,-48.8333 606.5,-48.8333 606.5,-52.6667 602.6667,-56.5 598.8333,-56.5 598.8333,-56.5 516.1667,-56.5 516.1667,-56.5 512.3333,-56.5 508.5,-52.6667 508.5,-48.8333 508.5,-48.8333 508.5,-41.1667 508.5,-41.1667 508.5,-37.3333 512.3333,-33.5 516.1667,-33.5"/>
<path fill="none" stroke="#000000" d="M516.1667,-33.5C516.1667,-33.5 598.8333,-33.5 598.8333,-33.5 602.6667,-33.5 606.5,-37.3333 606.5,-41.1667 606.5,-41.1667 606.5,-48.8333 606.5,-48.8333 606.5,-52.6667 602.6667,-56.5 598.8333,-56.5 598.8333,-56.5 516.1667,-56.5 516.1667,-56.5 512.3333,-56.5 508.5,-52.6667 508.5,-48.8333 508.5,-48.8333 508.5,-41.1667 508.5,-41.1667 508.5,-37.3333 512.3333,-33.5 516.1667,-33.5"/>
<text text-anchor="start" x="512.5" y="-41.3" font-family="Times,serif" font-size="14.00" fill="#ffffff">GOODBYE OK</text>
<polygon fill="none" stroke="#000000" points="503.5,-29 503.5,-62 611.5,-62 611.5,-29 503.5,-29"/>
</g>
<!-- m_defaults_goodbye&#45;&gt;m_goodbye_ok -->
<g id="edge31" class="edge">
<title>m_defaults_goodbye:goodbye_ok&#45;&gt;m_goodbye_ok</title>
<path fill="none" stroke="#000000" stroke-dasharray="1,5" d="M627.5,-183C676.0932,-183 620.6686,-113.9558 584.2434,-73.7193"/>
<polygon fill="#000000" stroke="#000000" points="577.2481,-66.0851 587.3218,-70.4179 580.626,-69.7716 584.004,-73.458 584.004,-73.458 584.004,-73.458 580.626,-69.7716 580.6862,-76.4982 577.2481,-66.0851 577.2481,-66.0851"/>
</g>
<!-- m_error -->
<g id="node25" class="node">
<title>m_error</title>
<polygon fill="#ffffff" stroke="transparent" points="78,-4 78,-87 205,-87 205,-4 78,-4"/>
<path fill="#4d4d4d" stroke="transparent" d="M91.1667,-58.5C91.1667,-58.5 192.8333,-58.5 192.8333,-58.5 196.6667,-58.5 200.5,-62.3333 200.5,-66.1667 200.5,-66.1667 200.5,-73.8333 200.5,-73.8333 200.5,-77.6667 196.6667,-81.5 192.8333,-81.5 192.8333,-81.5 91.1667,-81.5 91.1667,-81.5 87.3333,-81.5 83.5,-77.6667 83.5,-73.8333 83.5,-73.8333 83.5,-66.1667 83.5,-66.1667 83.5,-62.3333 87.3333,-58.5 91.1667,-58.5"/>
<path fill="none" stroke="#000000" d="M91.1667,-58.5C91.1667,-58.5 192.8333,-58.5 192.8333,-58.5 196.6667,-58.5 200.5,-62.3333 200.5,-66.1667 200.5,-66.1667 200.5,-73.8333 200.5,-73.8333 200.5,-77.6667 196.6667,-81.5 192.8333,-81.5 192.8333,-81.5 91.1667,-81.5 91.1667,-81.5 87.3333,-81.5 83.5,-77.6667 83.5,-73.8333 83.5,-73.8333 83.5,-66.1667 83.5,-66.1667 83.5,-62.3333 87.3333,-58.5 91.1667,-58.5"/>
<text text-anchor="start" x="119" y="-66.3" font-family="Times,serif" font-size="14.00" fill="#ffffff">ERROR</text>
<polygon fill="#c0c0c0" stroke="transparent" points="83.5,-33.5 83.5,-54.5 125.5,-54.5 125.5,-33.5 83.5,-33.5"/>
<text text-anchor="start" x="91.5" y="-40.3" font-family="Times,serif" font-size="14.00" fill="#000000">status</text>
<polygon fill="#c0c0c0" stroke="transparent" points="129.5,-33.5 129.5,-54.5 200.5,-54.5 200.5,-33.5 129.5,-33.5"/>
<text text-anchor="start" x="132.5" y="-40.3" font-family="Times,serif" font-size="14.00" fill="#000000">[number*2]</text>
<polygon fill="#c0c0c0" stroke="transparent" points="83.5,-8.5 83.5,-29.5 125.5,-29.5 125.5,-8.5 83.5,-8.5"/>
<text text-anchor="start" x="86.5" y="-15.3" font-family="Times,serif" font-size="14.00" fill="#000000">reason</text>
<polygon fill="#c0c0c0" stroke="transparent" points="129.5,-8.5 129.5,-29.5 200.5,-29.5 200.5,-8.5 129.5,-8.5"/>
<text text-anchor="start" x="132.5" y="-15.3" font-family="Times,serif" font-size="14.00" fill="#000000">[string]</text>
<polygon fill="none" stroke="#000000" points="78,-4 78,-87 205,-87 205,-4 78,-4"/>
</g>
<!-- m_defaults_exception&#45;&gt;m_error -->
<g id="edge36" class="edge">
<title>m_defaults_exception:error&#45;&gt;m_error</title>
<path fill="none" stroke="#000000" stroke-dasharray="1,5" d="M106.5,-183C115.3752,-183 125.3503,-139.4209 132.3739,-101.3305"/>
<polygon fill="#000000" stroke="#000000" points="134.1833,-91.2855 136.8392,-101.9249 133.2969,-96.2063 132.4105,-101.1271 132.4105,-101.1271 132.4105,-101.1271 133.2969,-96.2063 127.9817,-100.3294 134.1833,-91.2855 134.1833,-91.2855"/>
</g>
<!-- m_defaults__&#45;&gt;m_error -->
<g id="edge39" class="edge">
<title>m_defaults__:error&#45;&gt;m_error</title>
<path fill="none" stroke="#000000" stroke-dasharray="1,5" d="M150.5,-171C135.5043,-171 134.0048,-134.9018 135.8383,-101.4256"/>
<polygon fill="#000000" stroke="#000000" points="136.503,-91.1634 140.3471,-101.4334 136.1798,-96.1529 135.8565,-101.1425 135.8565,-101.1425 135.8565,-101.1425 136.1798,-96.1529 131.3659,-100.8515 136.503,-91.1634 136.503,-91.1634"/>
</g>
</g>
</svg>
