<?xml version="1.0" encoding="UTF-8" standalone="no"?>
<!DOCTYPE svg PUBLIC "-//W3C//DTD SVG 1.1//EN"
 "http://www.w3.org/Graphics/SVG/1.1/DTD/svg11.dtd">
<!-- Generated by graphviz version 2.40.1 (20161225.0304)
 -->
<!-- Title: zperf_protocol Pages: 1 -->
<svg width="2287pt" height="960pt"
 viewBox="0.00 0.00 2286.50 960.39" xmlns="http://www.w3.org/2000/svg" xmlns:xlink="http://www.w3.org/1999/xlink">
<g id="graph0" class="graph" transform="scale(1 1) rotate(0) translate(4 956.3922)">
<title>zperf_protocol</title>
<polygon fill="#ffffff" stroke="transparent" points="-4,4 -4,-956.3922 2282.5,-956.3922 2282.5,4 -4,4"/>
<text text-anchor="middle" x="1139.25" y="-937.1922" font-family="Times,serif" font-size="14.00" fill="#000000">zperf_client and zperf_msg</text>
<!-- s_start -->
<g id="node1" class="node">
<title>s_start</title>
<ellipse fill="none" stroke="#000000" cx="852.5" cy="-639" rx="25.9957" ry="25.9957"/>
<ellipse fill="none" stroke="#000000" cx="852.5" cy="-639" rx="29.9954" ry="29.9954"/>
<text text-anchor="middle" x="852.5" y="-635.3" font-family="Times,serif" font-size="14.00" fill="#000000">start</text>
</g>
<!-- m_start_say_hello -->
<g id="node6" class="node">
<title>m_start_say_hello</title>
<polygon fill="#ffffff" stroke="transparent" points="857.5,-283 857.5,-416 987.5,-416 987.5,-283 857.5,-283"/>
<path fill="#e5e5e5" stroke="transparent" d="M870.1667,-387.5C870.1667,-387.5 974.8333,-387.5 974.8333,-387.5 978.6667,-387.5 982.5,-391.3333 982.5,-395.1667 982.5,-395.1667 982.5,-402.8333 982.5,-402.8333 982.5,-406.6667 978.6667,-410.5 974.8333,-410.5 974.8333,-410.5 870.1667,-410.5 870.1667,-410.5 866.3333,-410.5 862.5,-406.6667 862.5,-402.8333 862.5,-402.8333 862.5,-395.1667 862.5,-395.1667 862.5,-391.3333 866.3333,-387.5 870.1667,-387.5"/>
<path fill="none" stroke="#000000" d="M870.1667,-387.5C870.1667,-387.5 974.8333,-387.5 974.8333,-387.5 978.6667,-387.5 982.5,-391.3333 982.5,-395.1667 982.5,-395.1667 982.5,-402.8333 982.5,-402.8333 982.5,-406.6667 978.6667,-410.5 974.8333,-410.5 974.8333,-410.5 870.1667,-410.5 870.1667,-410.5 866.3333,-410.5 862.5,-406.6667 862.5,-402.8333 862.5,-402.8333 862.5,-395.1667 862.5,-395.1667 862.5,-391.3333 866.3333,-387.5 870.1667,-387.5"/>
<text text-anchor="start" x="898" y="-395.3" font-family="Times,serif" font-size="14.00" fill="#000000">say hello</text>
<text text-anchor="start" x="886" y="-369.3" font-family="Times,serif" font-size="14.00" fill="#000000">set nickname</text>
<text text-anchor="start" x="867.5" y="-344.3" font-family="Times,serif" font-size="14.00" fill="#000000">use connect timeout</text>
<text text-anchor="start" x="875.5" y="-319.3" font-family="Times,serif" font-size="14.00" fill="#000000">connect to server</text>
<text text-anchor="start" x="881.5" y="-294.3" font-family="Times,serif" font-size="14.00" fill="#000000">send (HELLO)</text>
<polygon fill="none" stroke="#000000" points="857.5,-283 857.5,-416 987.5,-416 987.5,-283 857.5,-283"/>
</g>
<!-- s_start&#45;&gt;m_start_say_hello -->
<g id="edge4" class="edge">
<title>s_start&#45;&gt;m_start_say_hello</title>
<path fill="none" stroke="#000000" d="M859.5972,-609.648C869.6887,-567.9125 888.5623,-489.8567 903.0129,-430.0931"/>
<polygon fill="#000000" stroke="#000000" points="906.4346,-430.834 905.3829,-420.2914 899.6306,-429.1887 906.4346,-430.834"/>
</g>
<!-- m_start_bad_endpoint -->
<g id="node7" class="node">
<title>m_start_bad_endpoint</title>
<polygon fill="#ffffff" stroke="transparent" points="696,-308 696,-391 823,-391 823,-308 696,-308"/>
<path fill="#e5e5e5" stroke="transparent" d="M709.1667,-362.5C709.1667,-362.5 810.8333,-362.5 810.8333,-362.5 814.6667,-362.5 818.5,-366.3333 818.5,-370.1667 818.5,-370.1667 818.5,-377.8333 818.5,-377.8333 818.5,-381.6667 814.6667,-385.5 810.8333,-385.5 810.8333,-385.5 709.1667,-385.5 709.1667,-385.5 705.3333,-385.5 701.5,-381.6667 701.5,-377.8333 701.5,-377.8333 701.5,-370.1667 701.5,-370.1667 701.5,-366.3333 705.3333,-362.5 709.1667,-362.5"/>
<path fill="none" stroke="#000000" d="M709.1667,-362.5C709.1667,-362.5 810.8333,-362.5 810.8333,-362.5 814.6667,-362.5 818.5,-366.3333 818.5,-370.1667 818.5,-370.1667 818.5,-377.8333 818.5,-377.8333 818.5,-381.6667 814.6667,-385.5 810.8333,-385.5 810.8333,-385.5 709.1667,-385.5 709.1667,-385.5 705.3333,-385.5 701.5,-381.6667 701.5,-377.8333 701.5,-377.8333 701.5,-370.1667 701.5,-370.1667 701.5,-366.3333 705.3333,-362.5 709.1667,-362.5"/>
<text text-anchor="start" x="724.5" y="-370.3" font-family="Times,serif" font-size="14.00" fill="#000000">bad endpoint</text>
<text text-anchor="start" x="706.5" y="-344.3" font-family="Times,serif" font-size="14.00" fill="#000000">signal bad endpoint</text>
<text text-anchor="start" x="734" y="-319.3" font-family="Times,serif" font-size="14.00" fill="#000000">terminate</text>
<polygon fill="none" stroke="#000000" points="696,-308 696,-391 823,-391 823,-308 696,-308"/>
</g>
<!-- s_start&#45;&gt;m_start_bad_endpoint -->
<g id="edge7" class="edge">
<title>s_start&#45;&gt;m_start_bad_endpoint</title>
<path fill="none" stroke="#000000" d="M840.7237,-611.2256C831.8542,-579.3742 820.1455,-525.7812 805.5,-481 797.1166,-455.3665 785.9031,-427.7256 776.483,-404.4323"/>
<polygon fill="#000000" stroke="#000000" points="779.6921,-403.0317 772.7035,-395.0686 773.2009,-405.6518 779.6921,-403.0317"/>
</g>
<!-- s_start&#45;&gt;m_start_bad_endpoint -->
<g id="edge8" class="edge">
<title>s_start&#45;&gt;m_start_bad_endpoint</title>
<path fill="none" stroke="#000000" d="M852.0151,-598.9529C847.0195,-566.7156 836.3988,-520.4402 823.5,-481 813.9616,-451.8347 800.7595,-420.0709 788.658,-395.0686"/>
<polygon fill="#000000" stroke="#000000" points="848.5569,-599.495 853.4351,-608.8999 855.4866,-598.5056 848.5569,-599.495"/>
</g>
<!-- s_expect_hello_ok -->
<g id="node2" class="node">
<title>s_expect_hello_ok</title>
<ellipse fill="none" stroke="#000000" cx="969.5" cy="-639" rx="64.9888" ry="64.9888"/>
<ellipse fill="none" stroke="#000000" cx="969.5" cy="-639" rx="68.9885" ry="68.9885"/>
<text text-anchor="middle" x="969.5" y="-635.3" font-family="Times,serif" font-size="14.00" fill="#000000">expect hello ok</text>
</g>
<!-- s_defaults -->
<g id="node5" class="node">
<title>s_defaults</title>
<ellipse fill="none" stroke="#000000" cx="1211.5" cy="-349.5" rx="38.2082" ry="38.2082"/>
<ellipse fill="none" stroke="#000000" cx="1211.5" cy="-349.5" rx="42.1937" ry="42.1937"/>
<text text-anchor="middle" x="1211.5" y="-345.8" font-family="Times,serif" font-size="14.00" fill="#000000">defaults</text>
</g>
<!-- s_expect_hello_ok&#45;&gt;s_defaults -->
<g id="edge1" class="edge">
<title>s_expect_hello_ok&#45;&gt;s_defaults</title>
<path fill="none" stroke="#000000" stroke-dasharray="5,2" d="M988.7403,-572.4739C1000.9481,-540.8486 1019.7848,-504.8375 1047.5,-481 1087.4617,-446.6294 1119.9947,-478.7282 1160.5,-445 1174.8684,-433.0356 1185.771,-415.9495 1193.7317,-399.5286"/>
<polygon fill="none" stroke="#000000" points="1197.1208,-400.5319 1198.0829,-389.9808 1190.751,-397.629 1197.1208,-400.5319"/>
</g>
<!-- s_expect_hello_ok&#45;&gt;m_start_say_hello -->
<g id="edge5" class="edge">
<title>s_expect_hello_ok&#45;&gt;m_start_say_hello</title>
<path fill="none" stroke="#000000" d="M956.7896,-560.7095C949.669,-516.8498 940.8604,-462.5921 933.9541,-420.0524"/>
<polygon fill="#000000" stroke="#000000" points="953.3638,-561.4493 958.4212,-570.7591 960.2733,-560.3275 953.3638,-561.4493"/>
</g>
<!-- m_expect_hello_ok_hello_ok -->
<g id="node8" class="node">
<title>m_expect_hello_ok_hello_ok</title>
<polygon fill="#ffffff" stroke="transparent" points="1021.5,-295.5 1021.5,-403.5 1143.5,-403.5 1143.5,-295.5 1021.5,-295.5"/>
<path fill="#4d4d4d" stroke="transparent" d="M1034.1667,-375.5C1034.1667,-375.5 1130.8333,-375.5 1130.8333,-375.5 1134.6667,-375.5 1138.5,-379.3333 1138.5,-383.1667 1138.5,-383.1667 1138.5,-390.8333 1138.5,-390.8333 1138.5,-394.6667 1134.6667,-398.5 1130.8333,-398.5 1130.8333,-398.5 1034.1667,-398.5 1034.1667,-398.5 1030.3333,-398.5 1026.5,-394.6667 1026.5,-390.8333 1026.5,-390.8333 1026.5,-383.1667 1026.5,-383.1667 1026.5,-379.3333 1030.3333,-375.5 1034.1667,-375.5"/>
<path fill="none" stroke="#000000" d="M1034.1667,-375.5C1034.1667,-375.5 1130.8333,-375.5 1130.8333,-375.5 1134.6667,-375.5 1138.5,-379.3333 1138.5,-383.1667 1138.5,-383.1667 1138.5,-390.8333 1138.5,-390.8333 1138.5,-394.6667 1134.6667,-398.5 1130.8333,-398.5 1130.8333,-398.5 1034.1667,-398.5 1034.1667,-398.5 1030.3333,-398.5 1026.5,-394.6667 1026.5,-390.8333 1026.5,-390.8333 1026.5,-383.1667 1026.5,-383.1667 1026.5,-379.3333 1030.3333,-375.5 1034.1667,-375.5"/>
<text text-anchor="start" x="1048.5" y="-383.3" font-family="Times,serif" font-size="14.00" fill="#ffffff">HELLO OK</text>
<polygon fill="#c0c0c0" stroke="transparent" points="1026.5,-350.5 1026.5,-371.5 1087.5,-371.5 1087.5,-350.5 1026.5,-350.5"/>
<text text-anchor="start" x="1030.5" y="-357.3" font-family="Times,serif" font-size="14.00" fill="#000000">nickname</text>
<polygon fill="#c0c0c0" stroke="transparent" points="1091.5,-350.5 1091.5,-371.5 1138.5,-371.5 1138.5,-350.5 1091.5,-350.5"/>
<text text-anchor="start" x="1094.5" y="-357.3" font-family="Times,serif" font-size="14.00" fill="#000000">[string]</text>
<text text-anchor="start" x="1037" y="-332.3" font-family="Times,serif" font-size="14.00" fill="#000000">signal connected</text>
<text text-anchor="start" x="1031.5" y="-307.3" font-family="Times,serif" font-size="14.00" fill="#000000">client is connected</text>
<polygon fill="none" stroke="#000000" points="1021.5,-295.5 1021.5,-403.5 1143.5,-403.5 1143.5,-295.5 1021.5,-295.5"/>
</g>
<!-- s_expect_hello_ok&#45;&gt;m_expect_hello_ok_hello_ok -->
<g id="edge9" class="edge">
<title>s_expect_hello_ok&#45;&gt;m_expect_hello_ok_hello_ok</title>
<path fill="none" stroke="#000000" d="M994.7188,-574.3909C1012.9749,-527.6196 1037.5936,-464.5477 1056.1135,-417.1007"/>
<polygon fill="#000000" stroke="#000000" points="1059.4746,-418.1154 1059.8503,-407.5272 1052.9537,-415.5701 1059.4746,-418.1154"/>
</g>
<!-- s_connected -->
<g id="node3" class="node">
<title>s_connected</title>
<ellipse fill="none" stroke="#000000" cx="1567.5" cy="-639" rx="46.2806" ry="46.2806"/>
<ellipse fill="none" stroke="#000000" cx="1567.5" cy="-639" rx="50.2922" ry="50.2922"/>
<text text-anchor="middle" x="1567.5" y="-635.3" font-family="Times,serif" font-size="14.00" fill="#000000">connected</text>
</g>
<!-- s_connected&#45;&gt;s_defaults -->
<g id="edge2" class="edge">
<title>s_connected&#45;&gt;s_defaults</title>
<path fill="none" stroke="#000000" stroke-dasharray="5,2" d="M1528.3834,-607.1903C1460.5185,-552.0024 1321.6088,-439.0407 1252.4723,-382.8188"/>
<polygon fill="none" stroke="#000000" points="1254.3631,-379.8452 1244.3964,-376.2514 1249.9466,-385.2761 1254.3631,-379.8452"/>
</g>
<!-- s_connected&#45;&gt;m_expect_hello_ok_hello_ok -->
<g id="edge10" class="edge">
<title>s_connected&#45;&gt;m_expect_hello_ok_hello_ok</title>
<path fill="none" stroke="#000000" d="M1512.2224,-614.2836C1408.0299,-567.4584 1190.3203,-468.4009 1160.5,-445 1147.0273,-434.4275 1134.3578,-421.1367 1123.3053,-407.8589"/>
<polygon fill="#000000" stroke="#000000" points="1511.0834,-617.6087 1521.6396,-618.5124 1513.9509,-611.223 1511.0834,-617.6087"/>
</g>
<!-- m_connected_create_perf -->
<g id="node9" class="node">
<title>m_connected_create_perf</title>
<polygon fill="#ffffff" stroke="transparent" points="1823,-308 1823,-391 1934,-391 1934,-308 1823,-308"/>
<path fill="#e5e5e5" stroke="transparent" d="M1836.1667,-362.5C1836.1667,-362.5 1921.8333,-362.5 1921.8333,-362.5 1925.6667,-362.5 1929.5,-366.3333 1929.5,-370.1667 1929.5,-370.1667 1929.5,-377.8333 1929.5,-377.8333 1929.5,-381.6667 1925.6667,-385.5 1921.8333,-385.5 1921.8333,-385.5 1836.1667,-385.5 1836.1667,-385.5 1832.3333,-385.5 1828.5,-381.6667 1828.5,-377.8333 1828.5,-377.8333 1828.5,-370.1667 1828.5,-370.1667 1828.5,-366.3333 1832.3333,-362.5 1836.1667,-362.5"/>
<path fill="none" stroke="#000000" d="M1836.1667,-362.5C1836.1667,-362.5 1921.8333,-362.5 1921.8333,-362.5 1925.6667,-362.5 1929.5,-366.3333 1929.5,-370.1667 1929.5,-370.1667 1929.5,-377.8333 1929.5,-377.8333 1929.5,-381.6667 1925.6667,-385.5 1921.8333,-385.5 1921.8333,-385.5 1836.1667,-385.5 1836.1667,-385.5 1832.3333,-385.5 1828.5,-381.6667 1828.5,-377.8333 1828.5,-377.8333 1828.5,-370.1667 1828.5,-370.1667 1828.5,-366.3333 1832.3333,-362.5 1836.1667,-362.5"/>
<text text-anchor="start" x="1850" y="-370.3" font-family="Times,serif" font-size="14.00" fill="#000000">create perf</text>
<text text-anchor="start" x="1842.5" y="-344.3" font-family="Times,serif" font-size="14.00" fill="#000000">set perf stype</text>
<text text-anchor="start" x="1833.5" y="-319.3" font-family="Times,serif" font-size="14.00" fill="#000000">send (CREATE)</text>
<polygon fill="none" stroke="#000000" points="1823,-308 1823,-391 1934,-391 1934,-308 1823,-308"/>
</g>
<!-- s_connected&#45;&gt;m_connected_create_perf -->
<g id="edge11" class="edge">
<title>s_connected&#45;&gt;m_connected_create_perf</title>
<path fill="none" stroke="#000000" d="M1606.3955,-607.2717C1654.1926,-571.0845 1736.0893,-508.6517 1797.5,-445 1809.7927,-432.2587 1821.8841,-417.4106 1832.8771,-403.2726"/>
<polygon fill="#000000" stroke="#000000" points="1835.8814,-405.1081 1839.2159,-395.0516 1830.3379,-400.8337 1835.8814,-405.1081"/>
</g>
<!-- s_connected&#45;&gt;m_connected_create_perf -->
<g id="edge12" class="edge">
<title>s_connected&#45;&gt;m_connected_create_perf</title>
<path fill="none" stroke="#000000" d="M1619.2731,-607.4495C1671.9239,-571.2893 1753.9886,-508.7561 1815.5,-445 1830.2053,-429.7581 1844.6224,-411.5012 1856.0773,-395.0516"/>
<polygon fill="#000000" stroke="#000000" points="1617.0617,-604.7207 1610.762,-613.2391 1620.9989,-610.5086 1617.0617,-604.7207"/>
</g>
<!-- m_connected_request_lookup -->
<g id="node10" class="node">
<title>m_connected_request_lookup</title>
<polygon fill="#ffffff" stroke="transparent" points="1368,-308 1368,-391 1481,-391 1481,-308 1368,-308"/>
<path fill="#e5e5e5" stroke="transparent" d="M1381.1667,-362.5C1381.1667,-362.5 1468.8333,-362.5 1468.8333,-362.5 1472.6667,-362.5 1476.5,-366.3333 1476.5,-370.1667 1476.5,-370.1667 1476.5,-377.8333 1476.5,-377.8333 1476.5,-381.6667 1472.6667,-385.5 1468.8333,-385.5 1468.8333,-385.5 1381.1667,-385.5 1381.1667,-385.5 1377.3333,-385.5 1373.5,-381.6667 1373.5,-377.8333 1373.5,-377.8333 1373.5,-370.1667 1373.5,-370.1667 1373.5,-366.3333 1377.3333,-362.5 1381.1667,-362.5"/>
<path fill="none" stroke="#000000" d="M1381.1667,-362.5C1381.1667,-362.5 1468.8333,-362.5 1468.8333,-362.5 1472.6667,-362.5 1476.5,-366.3333 1476.5,-370.1667 1476.5,-370.1667 1476.5,-377.8333 1476.5,-377.8333 1476.5,-381.6667 1472.6667,-385.5 1468.8333,-385.5 1468.8333,-385.5 1381.1667,-385.5 1381.1667,-385.5 1377.3333,-385.5 1373.5,-381.6667 1373.5,-377.8333 1373.5,-377.8333 1373.5,-370.1667 1373.5,-370.1667 1373.5,-366.3333 1377.3333,-362.5 1381.1667,-362.5"/>
<text text-anchor="start" x="1384.5" y="-370.3" font-family="Times,serif" font-size="14.00" fill="#000000">request lookup</text>
<text text-anchor="start" x="1389" y="-344.3" font-family="Times,serif" font-size="14.00" fill="#000000">set perf ident</text>
<text text-anchor="start" x="1378.5" y="-319.3" font-family="Times,serif" font-size="14.00" fill="#000000">send (LOOKUP)</text>
<polygon fill="none" stroke="#000000" points="1368,-308 1368,-391 1481,-391 1481,-308 1368,-308"/>
</g>
<!-- s_connected&#45;&gt;m_connected_request_lookup -->
<g id="edge14" class="edge">
<title>s_connected&#45;&gt;m_connected_request_lookup</title>
<path fill="none" stroke="#000000" d="M1541.2769,-595.9715C1513.914,-545.0486 1471.8305,-460.1632 1446.2416,-404.5095"/>
<polygon fill="#000000" stroke="#000000" points="1449.3088,-402.8 1441.9722,-395.1563 1442.9408,-405.7068 1449.3088,-402.8"/>
</g>
<!-- s_connected&#45;&gt;m_connected_request_lookup -->
<g id="edge15" class="edge">
<title>s_connected&#45;&gt;m_connected_request_lookup</title>
<path fill="none" stroke="#000000" d="M1545.287,-582.9662C1520.1196,-528.3082 1479.4255,-446.1796 1452.2151,-395.3116"/>
<polygon fill="#000000" stroke="#000000" points="1542.1518,-584.5263 1549.4934,-592.1651 1548.5178,-581.6152 1542.1518,-584.5263"/>
</g>
<!-- m_connected_perf_ok -->
<g id="node11" class="node">
<title>m_connected_perf_ok</title>
<polygon fill="#ffffff" stroke="transparent" points="1968,-295.5 1968,-403.5 2087,-403.5 2087,-295.5 1968,-295.5"/>
<path fill="#4d4d4d" stroke="transparent" d="M1981.1667,-375.5C1981.1667,-375.5 2074.8333,-375.5 2074.8333,-375.5 2078.6667,-375.5 2082.5,-379.3333 2082.5,-383.1667 2082.5,-383.1667 2082.5,-390.8333 2082.5,-390.8333 2082.5,-394.6667 2078.6667,-398.5 2074.8333,-398.5 2074.8333,-398.5 1981.1667,-398.5 1981.1667,-398.5 1977.3333,-398.5 1973.5,-394.6667 1973.5,-390.8333 1973.5,-390.8333 1973.5,-383.1667 1973.5,-383.1667 1973.5,-379.3333 1977.3333,-375.5 1981.1667,-375.5"/>
<path fill="none" stroke="#000000" d="M1981.1667,-375.5C1981.1667,-375.5 2074.8333,-375.5 2074.8333,-375.5 2078.6667,-375.5 2082.5,-379.3333 2082.5,-383.1667 2082.5,-383.1667 2082.5,-390.8333 2082.5,-390.8333 2082.5,-394.6667 2078.6667,-398.5 2074.8333,-398.5 2074.8333,-398.5 1981.1667,-398.5 1981.1667,-398.5 1977.3333,-398.5 1973.5,-394.6667 1973.5,-390.8333 1973.5,-390.8333 1973.5,-383.1667 1973.5,-383.1667 1973.5,-379.3333 1977.3333,-375.5 1981.1667,-375.5"/>
<text text-anchor="start" x="2000" y="-383.3" font-family="Times,serif" font-size="14.00" fill="#ffffff">PERF OK</text>
<polygon fill="#c0c0c0" stroke="transparent" points="1973.5,-350.5 1973.5,-371.5 2007.5,-371.5 2007.5,-350.5 1973.5,-350.5"/>
<text text-anchor="start" x="1976.5" y="-357.3" font-family="Times,serif" font-size="14.00" fill="#000000">ident</text>
<polygon fill="#c0c0c0" stroke="transparent" points="2011.5,-350.5 2011.5,-371.5 2082.5,-371.5 2082.5,-350.5 2011.5,-350.5"/>
<text text-anchor="start" x="2014.5" y="-357.3" font-family="Times,serif" font-size="14.00" fill="#000000">[number*8]</text>
<text text-anchor="start" x="1987" y="-332.3" font-family="Times,serif" font-size="14.00" fill="#000000">remember perf</text>
<text text-anchor="start" x="1988.5" y="-307.3" font-family="Times,serif" font-size="14.00" fill="#000000">signal got perf</text>
<polygon fill="none" stroke="#000000" points="1968,-295.5 1968,-403.5 2087,-403.5 2087,-295.5 1968,-295.5"/>
</g>
<!-- s_connected&#45;&gt;m_connected_perf_ok -->
<g id="edge17" class="edge">
<title>s_connected&#45;&gt;m_connected_perf_ok</title>
<path fill="none" stroke="#000000" d="M1607.9089,-608.9106C1656.5866,-573.8914 1741.9,-516.3604 1822.5,-481 1877.0091,-457.0861 1901.8866,-477.888 1951.5,-445 1963.5538,-437.0097 1974.5823,-426.492 1984.2755,-415.3626"/>
<polygon fill="#000000" stroke="#000000" points="1987.0477,-417.5032 1990.7689,-407.5833 1981.6738,-413.0175 1987.0477,-417.5032"/>
</g>
<!-- m_connected_request_info -->
<g id="node12" class="node">
<title>m_connected_request_info</title>
<polygon fill="#ffffff" stroke="transparent" points="1515.5,-308 1515.5,-391 1619.5,-391 1619.5,-308 1515.5,-308"/>
<path fill="#e5e5e5" stroke="transparent" d="M1528.1667,-362.5C1528.1667,-362.5 1606.8333,-362.5 1606.8333,-362.5 1610.6667,-362.5 1614.5,-366.3333 1614.5,-370.1667 1614.5,-370.1667 1614.5,-377.8333 1614.5,-377.8333 1614.5,-381.6667 1610.6667,-385.5 1606.8333,-385.5 1606.8333,-385.5 1528.1667,-385.5 1528.1667,-385.5 1524.3333,-385.5 1520.5,-381.6667 1520.5,-377.8333 1520.5,-377.8333 1520.5,-370.1667 1520.5,-370.1667 1520.5,-366.3333 1524.3333,-362.5 1528.1667,-362.5"/>
<path fill="none" stroke="#000000" d="M1528.1667,-362.5C1528.1667,-362.5 1606.8333,-362.5 1606.8333,-362.5 1610.6667,-362.5 1614.5,-366.3333 1614.5,-370.1667 1614.5,-370.1667 1614.5,-377.8333 1614.5,-377.8333 1614.5,-381.6667 1610.6667,-385.5 1606.8333,-385.5 1606.8333,-385.5 1528.1667,-385.5 1528.1667,-385.5 1524.3333,-385.5 1520.5,-381.6667 1520.5,-377.8333 1520.5,-377.8333 1520.5,-370.1667 1520.5,-370.1667 1520.5,-366.3333 1524.3333,-362.5 1528.1667,-362.5"/>
<text text-anchor="start" x="1535" y="-370.3" font-family="Times,serif" font-size="14.00" fill="#000000">request info</text>
<text text-anchor="start" x="1525.5" y="-344.3" font-family="Times,serif" font-size="14.00" fill="#000000">set info request</text>
<text text-anchor="start" x="1532.5" y="-319.3" font-family="Times,serif" font-size="14.00" fill="#000000">send (INFO)</text>
<polygon fill="none" stroke="#000000" points="1515.5,-308 1515.5,-391 1619.5,-391 1619.5,-308 1515.5,-308"/>
</g>
<!-- s_connected&#45;&gt;m_connected_request_info -->
<g id="edge19" class="edge">
<title>s_connected&#45;&gt;m_connected_request_info</title>
<path fill="none" stroke="#000000" d="M1562.2455,-588.9035C1560.3233,-537.7742 1560.2541,-458.5876 1562.038,-405.4385"/>
<polygon fill="#000000" stroke="#000000" points="1565.5456,-405.295 1562.4194,-395.1719 1558.5504,-405.035 1565.5456,-405.295"/>
</g>
<!-- s_connected&#45;&gt;m_connected_request_info -->
<g id="edge20" class="edge">
<title>s_connected&#45;&gt;m_connected_request_info</title>
<path fill="none" stroke="#000000" d="M1573.1037,-578.6607C1574.7901,-524.0194 1574.6158,-444.7118 1572.5806,-395.1719"/>
<polygon fill="#000000" stroke="#000000" points="1569.5974,-578.79 1572.7545,-588.9035 1576.5933,-579.0286 1569.5974,-578.79"/>
</g>
<!-- m_connected_info_ok -->
<g id="node13" class="node">
<title>m_connected_info_ok</title>
<polygon fill="#ffffff" stroke="transparent" points="1654,-283 1654,-416 1789,-416 1789,-283 1654,-283"/>
<path fill="#4d4d4d" stroke="transparent" d="M1667.1667,-387.5C1667.1667,-387.5 1776.8333,-387.5 1776.8333,-387.5 1780.6667,-387.5 1784.5,-391.3333 1784.5,-395.1667 1784.5,-395.1667 1784.5,-402.8333 1784.5,-402.8333 1784.5,-406.6667 1780.6667,-410.5 1776.8333,-410.5 1776.8333,-410.5 1667.1667,-410.5 1667.1667,-410.5 1663.3333,-410.5 1659.5,-406.6667 1659.5,-402.8333 1659.5,-402.8333 1659.5,-395.1667 1659.5,-395.1667 1659.5,-391.3333 1663.3333,-387.5 1667.1667,-387.5"/>
<path fill="none" stroke="#000000" d="M1667.1667,-387.5C1667.1667,-387.5 1776.8333,-387.5 1776.8333,-387.5 1780.6667,-387.5 1784.5,-391.3333 1784.5,-395.1667 1784.5,-395.1667 1784.5,-402.8333 1784.5,-402.8333 1784.5,-406.6667 1780.6667,-410.5 1776.8333,-410.5 1776.8333,-410.5 1667.1667,-410.5 1667.1667,-410.5 1663.3333,-410.5 1659.5,-406.6667 1659.5,-402.8333 1659.5,-402.8333 1659.5,-395.1667 1659.5,-395.1667 1659.5,-391.3333 1663.3333,-387.5 1667.1667,-387.5"/>
<text text-anchor="start" x="1694.5" y="-395.3" font-family="Times,serif" font-size="14.00" fill="#ffffff">INFO OK</text>
<polygon fill="#c0c0c0" stroke="transparent" points="1659.5,-362.5 1659.5,-383.5 1709.5,-383.5 1709.5,-362.5 1659.5,-362.5"/>
<text text-anchor="start" x="1678.5" y="-369.3" font-family="Times,serif" font-size="14.00" fill="#000000">ident</text>
<polygon fill="#c0c0c0" stroke="transparent" points="1713.5,-362.5 1713.5,-383.5 1784.5,-383.5 1784.5,-362.5 1713.5,-362.5"/>
<text text-anchor="start" x="1716.5" y="-369.3" font-family="Times,serif" font-size="14.00" fill="#000000">[number*8]</text>
<polygon fill="#c0c0c0" stroke="transparent" points="1659.5,-337.5 1659.5,-358.5 1709.5,-358.5 1709.5,-337.5 1659.5,-337.5"/>
<text text-anchor="start" x="1662.5" y="-344.3" font-family="Times,serif" font-size="14.00" fill="#000000">perfinfo</text>
<polygon fill="#c0c0c0" stroke="transparent" points="1713.5,-337.5 1713.5,-358.5 1784.5,-358.5 1784.5,-337.5 1713.5,-337.5"/>
<text text-anchor="start" x="1716.5" y="-344.3" font-family="Times,serif" font-size="14.00" fill="#000000">[string]</text>
<text text-anchor="start" x="1681" y="-319.3" font-family="Times,serif" font-size="14.00" fill="#000000">remember info</text>
<text text-anchor="start" x="1682.5" y="-294.3" font-family="Times,serif" font-size="14.00" fill="#000000">signal got info</text>
<polygon fill="none" stroke="#000000" points="1654,-283 1654,-416 1789,-416 1789,-283 1654,-283"/>
</g>
<!-- s_connected&#45;&gt;m_connected_info_ok -->
<g id="edge22" class="edge">
<title>s_connected&#45;&gt;m_connected_info_ok</title>
<path fill="none" stroke="#000000" d="M1587.1279,-592.4868C1608.7411,-548.5188 1643.9802,-481.6546 1673.0058,-429.1895"/>
<polygon fill="#000000" stroke="#000000" points="1676.1828,-430.6776 1677.977,-420.2357 1670.0628,-427.2796 1676.1828,-430.6776"/>
</g>
<!-- s_connected&#45;&gt;m_connected_info_ok -->
<g id="edge23" class="edge">
<title>s_connected&#45;&gt;m_connected_info_ok</title>
<path fill="none" stroke="#000000" d="M1599.8067,-588.1949C1626.3078,-541.6223 1663.4376,-472.2077 1689.7736,-420.2227"/>
<polygon fill="#000000" stroke="#000000" points="1596.7517,-586.4868 1594.821,-596.9042 1602.8267,-589.9645 1596.7517,-586.4868"/>
</g>
<!-- s_have_perf -->
<g id="node4" class="node">
<title>s_have_perf</title>
<ellipse fill="none" stroke="#000000" cx="727.5" cy="-881.1961" rx="44.3766" ry="44.3766"/>
<ellipse fill="none" stroke="#000000" cx="727.5" cy="-881.1961" rx="48.393" ry="48.393"/>
<text text-anchor="middle" x="727.5" y="-877.4961" font-family="Times,serif" font-size="14.00" fill="#000000">have perf</text>
</g>
<!-- s_have_perf&#45;&gt;s_connected -->
<g id="edge3" class="edge">
<title>s_have_perf&#45;&gt;s_connected</title>
<path fill="none" stroke="#000000" stroke-dasharray="5,2" d="M775.8421,-877.0328C864.9803,-868.4555 1060.5644,-845.4179 1218.5,-797 1327.6669,-763.533 1447.3677,-703.8977 1514.3803,-668.2419"/>
<polygon fill="none" stroke="#000000" points="1516.3125,-671.1777 1523.4798,-663.3751 1513.0111,-665.0051 1516.3125,-671.1777"/>
</g>
<!-- s_have_perf&#45;&gt;m_connected_perf_ok -->
<g id="edge18" class="edge">
<title>s_have_perf&#45;&gt;m_connected_perf_ok</title>
<path fill="none" stroke="#000000" d="M785.8793,-878.1543C973.2001,-868.0602 1551.2988,-834.1947 1626.5,-797 1802.9948,-709.7051 1937.2196,-507.8669 1995.5604,-407.8472"/>
<polygon fill="#000000" stroke="#000000" points="785.4784,-874.6707 775.6802,-878.7012 785.8533,-881.6606 785.4784,-874.6707"/>
</g>
<!-- m_have_perf_request_borc -->
<g id="node14" class="node">
<title>m_have_perf_request_borc</title>
<polygon fill="#ffffff" stroke="transparent" points="277,-597.5 277,-680.5 394,-680.5 394,-597.5 277,-597.5"/>
<path fill="#e5e5e5" stroke="transparent" d="M290.1667,-652C290.1667,-652 381.8333,-652 381.8333,-652 385.6667,-652 389.5,-655.8333 389.5,-659.6667 389.5,-659.6667 389.5,-667.3333 389.5,-667.3333 389.5,-671.1667 385.6667,-675 381.8333,-675 381.8333,-675 290.1667,-675 290.1667,-675 286.3333,-675 282.5,-671.1667 282.5,-667.3333 282.5,-667.3333 282.5,-659.6667 282.5,-659.6667 282.5,-655.8333 286.3333,-652 290.1667,-652"/>
<path fill="none" stroke="#000000" d="M290.1667,-652C290.1667,-652 381.8333,-652 381.8333,-652 385.6667,-652 389.5,-655.8333 389.5,-659.6667 389.5,-659.6667 389.5,-667.3333 389.5,-667.3333 389.5,-671.1667 385.6667,-675 381.8333,-675 381.8333,-675 290.1667,-675 290.1667,-675 286.3333,-675 282.5,-671.1667 282.5,-667.3333 282.5,-667.3333 282.5,-659.6667 282.5,-659.6667 282.5,-655.8333 286.3333,-652 290.1667,-652"/>
<text text-anchor="start" x="302.5" y="-659.8" font-family="Times,serif" font-size="14.00" fill="#000000">request borc</text>
<text text-anchor="start" x="287.5" y="-633.8" font-family="Times,serif" font-size="14.00" fill="#000000">set socket request</text>
<text text-anchor="start" x="290.5" y="-608.8" font-family="Times,serif" font-size="14.00" fill="#000000">send (SOCKET)</text>
<polygon fill="none" stroke="#000000" points="277,-597.5 277,-680.5 394,-680.5 394,-597.5 277,-597.5"/>
</g>
<!-- s_have_perf&#45;&gt;m_have_perf_request_borc -->
<g id="edge24" class="edge">
<title>s_have_perf&#45;&gt;m_have_perf_request_borc</title>
<path fill="none" stroke="#000000" d="M679.3293,-876.8245C618.6588,-869.0792 513.9917,-848.5725 441.5,-797 404.1955,-770.4606 374.2658,-727.9995 355.6193,-693.7758"/>
<polygon fill="#000000" stroke="#000000" points="358.6544,-692.028 350.8935,-684.8156 352.4628,-695.2935 358.6544,-692.028"/>
</g>
<!-- s_have_perf&#45;&gt;m_have_perf_request_borc -->
<g id="edge25" class="edge">
<title>s_have_perf&#45;&gt;m_have_perf_request_borc</title>
<path fill="none" stroke="#000000" d="M669.5471,-873.4334C611.8816,-863.6813 523.2494,-842.353 459.5,-797 418.8619,-768.089 386.9755,-720.2836 365.4855,-684.8156"/>
<polygon fill="#000000" stroke="#000000" points="669.1547,-876.9155 679.5871,-875.0675 670.2792,-870.0064 669.1547,-876.9155"/>
</g>
<!-- m_have_perf_socket_ok -->
<g id="node15" class="node">
<title>m_have_perf_socket_ok</title>
<polygon fill="#ffffff" stroke="transparent" points="658,-560 658,-718 797,-718 797,-560 658,-560"/>
<path fill="#4d4d4d" stroke="transparent" d="M671.1667,-690C671.1667,-690 784.8333,-690 784.8333,-690 788.6667,-690 792.5,-693.8333 792.5,-697.6667 792.5,-697.6667 792.5,-705.3333 792.5,-705.3333 792.5,-709.1667 788.6667,-713 784.8333,-713 784.8333,-713 671.1667,-713 671.1667,-713 667.3333,-713 663.5,-709.1667 663.5,-705.3333 663.5,-705.3333 663.5,-697.6667 663.5,-697.6667 663.5,-693.8333 667.3333,-690 671.1667,-690"/>
<path fill="none" stroke="#000000" d="M671.1667,-690C671.1667,-690 784.8333,-690 784.8333,-690 788.6667,-690 792.5,-693.8333 792.5,-697.6667 792.5,-697.6667 792.5,-705.3333 792.5,-705.3333 792.5,-709.1667 788.6667,-713 784.8333,-713 784.8333,-713 671.1667,-713 671.1667,-713 667.3333,-713 663.5,-709.1667 663.5,-705.3333 663.5,-705.3333 663.5,-697.6667 663.5,-697.6667 663.5,-693.8333 667.3333,-690 671.1667,-690"/>
<text text-anchor="start" x="690" y="-697.8" font-family="Times,serif" font-size="14.00" fill="#ffffff">SOCKET OK</text>
<polygon fill="#c0c0c0" stroke="transparent" points="663.5,-665 663.5,-686 717.5,-686 717.5,-665 663.5,-665"/>
<text text-anchor="start" x="686.5" y="-671.8" font-family="Times,serif" font-size="14.00" fill="#000000">ident</text>
<polygon fill="#c0c0c0" stroke="transparent" points="721.5,-665 721.5,-686 792.5,-686 792.5,-665 721.5,-665"/>
<text text-anchor="start" x="724.5" y="-671.8" font-family="Times,serif" font-size="14.00" fill="#000000">[number*8]</text>
<polygon fill="#c0c0c0" stroke="transparent" points="663.5,-640 663.5,-661 717.5,-661 717.5,-640 663.5,-640"/>
<text text-anchor="start" x="689.5" y="-646.8" font-family="Times,serif" font-size="14.00" fill="#000000">borc</text>
<polygon fill="#c0c0c0" stroke="transparent" points="721.5,-640 721.5,-661 792.5,-661 792.5,-640 721.5,-640"/>
<text text-anchor="start" x="724.5" y="-646.8" font-family="Times,serif" font-size="14.00" fill="#000000">[string]</text>
<polygon fill="#c0c0c0" stroke="transparent" points="663.5,-615 663.5,-636 717.5,-636 717.5,-615 663.5,-615"/>
<text text-anchor="start" x="666.5" y="-621.8" font-family="Times,serif" font-size="14.00" fill="#000000">endpoint</text>
<polygon fill="#c0c0c0" stroke="transparent" points="721.5,-615 721.5,-636 792.5,-636 792.5,-615 721.5,-615"/>
<text text-anchor="start" x="724.5" y="-621.8" font-family="Times,serif" font-size="14.00" fill="#000000">[string]</text>
<text text-anchor="start" x="679.5" y="-596.8" font-family="Times,serif" font-size="14.00" fill="#000000">set socket request</text>
<text text-anchor="start" x="671" y="-571.8" font-family="Times,serif" font-size="14.00" fill="#000000">signal socket request</text>
<polygon fill="none" stroke="#000000" points="658,-560 658,-718 797,-718 797,-560 658,-560"/>
</g>
<!-- s_have_perf&#45;&gt;m_have_perf_socket_ok -->
<g id="edge27" class="edge">
<title>s_have_perf&#45;&gt;m_have_perf_socket_ok</title>
<path fill="none" stroke="#000000" d="M721.985,-833.0564C720.8663,-804.3035 720.5076,-766.802 720.909,-732.4395"/>
<polygon fill="#000000" stroke="#000000" points="724.4096,-732.4148 721.0501,-722.3667 717.4103,-732.3167 724.4096,-732.4148"/>
</g>
<!-- s_have_perf&#45;&gt;m_have_perf_socket_ok -->
<g id="edge28" class="edge">
<title>s_have_perf&#45;&gt;m_have_perf_socket_ok</title>
<path fill="none" stroke="#000000" d="M733.3733,-822.7268C734.2997,-792.6317 734.4919,-755.4164 733.9499,-722.3667"/>
<polygon fill="#000000" stroke="#000000" points="729.8639,-822.941 733.015,-833.0564 736.8597,-823.1837 729.8639,-822.941"/>
</g>
<!-- m_have_perf_request_measure -->
<g id="node16" class="node">
<title>m_have_perf_request_measure</title>
<polygon fill="#ffffff" stroke="transparent" points="467.5,-597.5 467.5,-680.5 623.5,-680.5 623.5,-597.5 467.5,-597.5"/>
<path fill="#e5e5e5" stroke="transparent" d="M480.1667,-652C480.1667,-652 610.8333,-652 610.8333,-652 614.6667,-652 618.5,-655.8333 618.5,-659.6667 618.5,-659.6667 618.5,-667.3333 618.5,-667.3333 618.5,-671.1667 614.6667,-675 610.8333,-675 610.8333,-675 480.1667,-675 480.1667,-675 476.3333,-675 472.5,-671.1667 472.5,-667.3333 472.5,-667.3333 472.5,-659.6667 472.5,-659.6667 472.5,-655.8333 476.3333,-652 480.1667,-652"/>
<path fill="none" stroke="#000000" d="M480.1667,-652C480.1667,-652 610.8333,-652 610.8333,-652 614.6667,-652 618.5,-655.8333 618.5,-659.6667 618.5,-659.6667 618.5,-667.3333 618.5,-667.3333 618.5,-671.1667 614.6667,-675 610.8333,-675 610.8333,-675 480.1667,-675 480.1667,-675 476.3333,-675 472.5,-671.1667 472.5,-667.3333 472.5,-667.3333 472.5,-659.6667 472.5,-659.6667 472.5,-655.8333 476.3333,-652 480.1667,-652"/>
<text text-anchor="start" x="501" y="-659.8" font-family="Times,serif" font-size="14.00" fill="#000000">request measure</text>
<text text-anchor="start" x="477.5" y="-633.8" font-family="Times,serif" font-size="14.00" fill="#000000">set measurement request</text>
<text text-anchor="start" x="494" y="-608.8" font-family="Times,serif" font-size="14.00" fill="#000000">send (MEASURE)</text>
<polygon fill="none" stroke="#000000" points="467.5,-597.5 467.5,-680.5 623.5,-680.5 623.5,-597.5 467.5,-597.5"/>
</g>
<!-- s_have_perf&#45;&gt;m_have_perf_request_measure -->
<g id="edge29" class="edge">
<title>s_have_perf&#45;&gt;m_have_perf_request_measure</title>
<path fill="none" stroke="#000000" d="M687.7935,-853.6879C669.624,-838.0094 648.7394,-817.4561 632.5,-797 606.8892,-764.7392 582.831,-725.1177 566.3384,-693.6224"/>
<polygon fill="#000000" stroke="#000000" points="569.3612,-691.8466 561.6813,-684.5479 563.1334,-695.0428 569.3612,-691.8466"/>
</g>
<!-- s_have_perf&#45;&gt;m_have_perf_request_measure -->
<g id="edge30" class="edge">
<title>s_have_perf&#45;&gt;m_have_perf_request_measure</title>
<path fill="none" stroke="#000000" d="M687.5794,-837.7847C675.0758,-825.227 661.6859,-811.0904 650.5,-797 622.3611,-761.5547 596.0964,-717.2237 576.6738,-684.5479"/>
<polygon fill="#000000" stroke="#000000" points="685.2577,-840.4121 694.8155,-844.9838 690.1948,-835.4496 685.2577,-840.4121"/>
</g>
<!-- m_have_perf_result -->
<g id="node17" class="node">
<title>m_have_perf_result</title>
<polygon fill="#ffffff" stroke="transparent" points="1064,-485 1064,-793 1201,-793 1201,-485 1064,-485"/>
<path fill="#4d4d4d" stroke="transparent" d="M1077.1667,-765C1077.1667,-765 1188.8333,-765 1188.8333,-765 1192.6667,-765 1196.5,-768.8333 1196.5,-772.6667 1196.5,-772.6667 1196.5,-780.3333 1196.5,-780.3333 1196.5,-784.1667 1192.6667,-788 1188.8333,-788 1188.8333,-788 1077.1667,-788 1077.1667,-788 1073.3333,-788 1069.5,-784.1667 1069.5,-780.3333 1069.5,-780.3333 1069.5,-772.6667 1069.5,-772.6667 1069.5,-768.8333 1073.3333,-765 1077.1667,-765"/>
<path fill="none" stroke="#000000" d="M1077.1667,-765C1077.1667,-765 1188.8333,-765 1188.8333,-765 1192.6667,-765 1196.5,-768.8333 1196.5,-772.6667 1196.5,-772.6667 1196.5,-780.3333 1196.5,-780.3333 1196.5,-784.1667 1192.6667,-788 1188.8333,-788 1188.8333,-788 1077.1667,-788 1077.1667,-788 1073.3333,-788 1069.5,-784.1667 1069.5,-780.3333 1069.5,-780.3333 1069.5,-772.6667 1069.5,-772.6667 1069.5,-768.8333 1073.3333,-765 1077.1667,-765"/>
<text text-anchor="start" x="1107" y="-772.8" font-family="Times,serif" font-size="14.00" fill="#ffffff">RESULT</text>
<polygon fill="#c0c0c0" stroke="transparent" points="1069.5,-740 1069.5,-761 1121.5,-761 1121.5,-740 1069.5,-740"/>
<text text-anchor="start" x="1090.5" y="-746.8" font-family="Times,serif" font-size="14.00" fill="#000000">ident</text>
<polygon fill="#c0c0c0" stroke="transparent" points="1125.5,-740 1125.5,-761 1196.5,-761 1196.5,-740 1125.5,-740"/>
<text text-anchor="start" x="1128.5" y="-746.8" font-family="Times,serif" font-size="14.00" fill="#000000">[number*8]</text>
<polygon fill="#c0c0c0" stroke="transparent" points="1069.5,-715 1069.5,-736 1121.5,-736 1121.5,-715 1069.5,-715"/>
<text text-anchor="start" x="1072.5" y="-721.8" font-family="Times,serif" font-size="14.00" fill="#000000">measure</text>
<polygon fill="#c0c0c0" stroke="transparent" points="1125.5,-715 1125.5,-736 1196.5,-736 1196.5,-715 1125.5,-715"/>
<text text-anchor="start" x="1128.5" y="-721.8" font-family="Times,serif" font-size="14.00" fill="#000000">[string]</text>
<polygon fill="#c0c0c0" stroke="transparent" points="1069.5,-690 1069.5,-711 1121.5,-711 1121.5,-690 1069.5,-690"/>
<text text-anchor="start" x="1082.5" y="-696.8" font-family="Times,serif" font-size="14.00" fill="#000000">nmsgs</text>
<polygon fill="#c0c0c0" stroke="transparent" points="1125.5,-690 1125.5,-711 1196.5,-711 1196.5,-690 1125.5,-690"/>
<text text-anchor="start" x="1128.5" y="-696.8" font-family="Times,serif" font-size="14.00" fill="#000000">[number*4]</text>
<polygon fill="#c0c0c0" stroke="transparent" points="1069.5,-665 1069.5,-686 1121.5,-686 1121.5,-665 1069.5,-665"/>
<text text-anchor="start" x="1073.5" y="-671.8" font-family="Times,serif" font-size="14.00" fill="#000000">msgsize</text>
<polygon fill="#c0c0c0" stroke="transparent" points="1125.5,-665 1125.5,-686 1196.5,-686 1196.5,-665 1125.5,-665"/>
<text text-anchor="start" x="1128.5" y="-671.8" font-family="Times,serif" font-size="14.00" fill="#000000">[number*8]</text>
<polygon fill="#c0c0c0" stroke="transparent" points="1069.5,-640 1069.5,-661 1121.5,-661 1121.5,-640 1069.5,-640"/>
<text text-anchor="start" x="1075.5" y="-646.8" font-family="Times,serif" font-size="14.00" fill="#000000">timeout</text>
<polygon fill="#c0c0c0" stroke="transparent" points="1125.5,-640 1125.5,-661 1196.5,-661 1196.5,-640 1125.5,-640"/>
<text text-anchor="start" x="1128.5" y="-646.8" font-family="Times,serif" font-size="14.00" fill="#000000">[number*4]</text>
<polygon fill="#c0c0c0" stroke="transparent" points="1069.5,-615 1069.5,-636 1121.5,-636 1121.5,-615 1069.5,-615"/>
<text text-anchor="start" x="1074.5" y="-621.8" font-family="Times,serif" font-size="14.00" fill="#000000">time_us</text>
<polygon fill="#c0c0c0" stroke="transparent" points="1125.5,-615 1125.5,-636 1196.5,-636 1196.5,-615 1125.5,-615"/>
<text text-anchor="start" x="1128.5" y="-621.8" font-family="Times,serif" font-size="14.00" fill="#000000">[number*8]</text>
<polygon fill="#c0c0c0" stroke="transparent" points="1069.5,-590 1069.5,-611 1121.5,-611 1121.5,-590 1069.5,-590"/>
<text text-anchor="start" x="1079.5" y="-596.8" font-family="Times,serif" font-size="14.00" fill="#000000">cpu_us</text>
<polygon fill="#c0c0c0" stroke="transparent" points="1125.5,-590 1125.5,-611 1196.5,-611 1196.5,-590 1125.5,-590"/>
<text text-anchor="start" x="1128.5" y="-596.8" font-family="Times,serif" font-size="14.00" fill="#000000">[number*8]</text>
<polygon fill="#c0c0c0" stroke="transparent" points="1069.5,-565 1069.5,-586 1121.5,-586 1121.5,-565 1069.5,-565"/>
<text text-anchor="start" x="1092.5" y="-571.8" font-family="Times,serif" font-size="14.00" fill="#000000">noos</text>
<polygon fill="#c0c0c0" stroke="transparent" points="1125.5,-565 1125.5,-586 1196.5,-586 1196.5,-565 1125.5,-565"/>
<text text-anchor="start" x="1128.5" y="-571.8" font-family="Times,serif" font-size="14.00" fill="#000000">[number*4]</text>
<polygon fill="#c0c0c0" stroke="transparent" points="1069.5,-540 1069.5,-561 1121.5,-561 1121.5,-540 1069.5,-540"/>
<text text-anchor="start" x="1082.5" y="-546.8" font-family="Times,serif" font-size="14.00" fill="#000000">nbytes</text>
<polygon fill="#c0c0c0" stroke="transparent" points="1125.5,-540 1125.5,-561 1196.5,-561 1196.5,-540 1125.5,-540"/>
<text text-anchor="start" x="1128.5" y="-546.8" font-family="Times,serif" font-size="14.00" fill="#000000">[number*8]</text>
<text text-anchor="start" x="1105.5" y="-521.8" font-family="Times,serif" font-size="14.00" fill="#000000">set results</text>
<text text-anchor="start" x="1097" y="-496.8" font-family="Times,serif" font-size="14.00" fill="#000000">signal results</text>
<polygon fill="none" stroke="#000000" points="1064,-485 1064,-793 1201,-793 1201,-485 1064,-485"/>
</g>
<!-- s_have_perf&#45;&gt;m_have_perf_result -->
<g id="edge32" class="edge">
<title>s_have_perf&#45;&gt;m_have_perf_result</title>
<path fill="none" stroke="#000000" d="M774.937,-872.4966C851.4314,-858.5755 997.2103,-829.528 1038.5,-797 1041.9407,-794.2894 1045.26,-791.3998 1048.4621,-788.3591"/>
<polygon fill="#000000" stroke="#000000" points="1051.1892,-790.5785 1055.7235,-781.003 1046.2075,-785.661 1051.1892,-790.5785"/>
</g>
<!-- s_have_perf&#45;&gt;m_have_perf_result -->
<g id="edge33" class="edge">
<title>s_have_perf&#45;&gt;m_have_perf_result</title>
<path fill="none" stroke="#000000" d="M785.232,-872.6857C868.1029,-858.8397 1015.0224,-829.676 1056.5,-797 1056.6223,-796.9036 1056.7445,-796.807 1056.8666,-796.7102"/>
<polygon fill="#000000" stroke="#000000" points="784.5069,-869.2578 775.2092,-874.3374 785.6452,-876.1647 784.5069,-869.2578"/>
</g>
<!-- m_defaults_destructor -->
<g id="node18" class="node">
<title>m_defaults_destructor</title>
<polygon fill="#ffffff" stroke="transparent" points="732.5,-118.5 732.5,-176.5 856.5,-176.5 856.5,-118.5 732.5,-118.5"/>
<path fill="#e5e5e5" stroke="transparent" d="M745.1667,-148.5C745.1667,-148.5 843.8333,-148.5 843.8333,-148.5 847.6667,-148.5 851.5,-152.3333 851.5,-156.1667 851.5,-156.1667 851.5,-163.8333 851.5,-163.8333 851.5,-167.6667 847.6667,-171.5 843.8333,-171.5 843.8333,-171.5 745.1667,-171.5 745.1667,-171.5 741.3333,-171.5 737.5,-167.6667 737.5,-163.8333 737.5,-163.8333 737.5,-156.1667 737.5,-156.1667 737.5,-152.3333 741.3333,-148.5 745.1667,-148.5"/>
<path fill="none" stroke="#000000" d="M745.1667,-148.5C745.1667,-148.5 843.8333,-148.5 843.8333,-148.5 847.6667,-148.5 851.5,-152.3333 851.5,-156.1667 851.5,-156.1667 851.5,-163.8333 851.5,-163.8333 851.5,-167.6667 847.6667,-171.5 843.8333,-171.5 843.8333,-171.5 745.1667,-171.5 745.1667,-171.5 741.3333,-171.5 737.5,-167.6667 737.5,-163.8333 737.5,-163.8333 737.5,-156.1667 737.5,-156.1667 737.5,-152.3333 741.3333,-148.5 745.1667,-148.5"/>
<text text-anchor="start" x="767" y="-156.3" font-family="Times,serif" font-size="14.00" fill="#000000">destructor</text>
<text text-anchor="start" x="742.5" y="-130.3" font-family="Times,serif" font-size="14.00" fill="#000000">send (GOODBYE)</text>
<polygon fill="none" stroke="#000000" points="732.5,-118.5 732.5,-176.5 856.5,-176.5 856.5,-118.5 732.5,-118.5"/>
</g>
<!-- s_defaults&#45;&gt;m_defaults_destructor -->
<g id="edge34" class="edge">
<title>s_defaults&#45;&gt;m_defaults_destructor</title>
<path fill="none" stroke="#000000" d="M1192.7818,-311.496C1183.8724,-291.1376 1171.1672,-267.5285 1151.5,-254 1045.5836,-181.1431 981.5288,-271.2042 864.5,-218 848.7018,-210.8177 833.8119,-199.3451 821.7603,-187.7232"/>
<polygon fill="#000000" stroke="#000000" points="824.1547,-185.1666 814.6406,-180.5047 819.1709,-190.0821 824.1547,-185.1666"/>
</g>
<!-- s_defaults&#45;&gt;m_defaults_destructor -->
<g id="edge35" class="edge">
<title>s_defaults&#45;&gt;m_defaults_destructor</title>
<path fill="none" stroke="#000000" d="M1203.1805,-297.5199C1195.851,-281.0963 1184.7755,-264.5076 1169.5,-254 1063.5836,-181.1431 999.5288,-271.2042 882.5,-218 863.4229,-209.3271 845.6704,-194.3981 831.051,-180.5047"/>
<polygon fill="#000000" stroke="#000000" points="1200.0711,-299.1666 1207.0666,-307.1236 1206.56,-296.5409 1200.0711,-299.1666"/>
</g>
<!-- m_defaults_goodbye_ok -->
<g id="node19" class="node">
<title>m_defaults_goodbye_ok</title>
<polygon fill="#ffffff" stroke="transparent" points="890.5,-106 890.5,-189 1002.5,-189 1002.5,-106 890.5,-106"/>
<path fill="#4d4d4d" stroke="transparent" d="M903.1667,-160.5C903.1667,-160.5 989.8333,-160.5 989.8333,-160.5 993.6667,-160.5 997.5,-164.3333 997.5,-168.1667 997.5,-168.1667 997.5,-175.8333 997.5,-175.8333 997.5,-179.6667 993.6667,-183.5 989.8333,-183.5 989.8333,-183.5 903.1667,-183.5 903.1667,-183.5 899.3333,-183.5 895.5,-179.6667 895.5,-175.8333 895.5,-175.8333 895.5,-168.1667 895.5,-168.1667 895.5,-164.3333 899.3333,-160.5 903.1667,-160.5"/>
<path fill="none" stroke="#000000" d="M903.1667,-160.5C903.1667,-160.5 989.8333,-160.5 989.8333,-160.5 993.6667,-160.5 997.5,-164.3333 997.5,-168.1667 997.5,-168.1667 997.5,-175.8333 997.5,-175.8333 997.5,-179.6667 993.6667,-183.5 989.8333,-183.5 989.8333,-183.5 903.1667,-183.5 903.1667,-183.5 899.3333,-183.5 895.5,-179.6667 895.5,-175.8333 895.5,-175.8333 895.5,-168.1667 895.5,-168.1667 895.5,-164.3333 899.3333,-160.5 903.1667,-160.5"/>
<text text-anchor="start" x="901.5" y="-168.3" font-family="Times,serif" font-size="14.00" fill="#ffffff">GOODBYE OK</text>
<text text-anchor="start" x="908" y="-142.3" font-family="Times,serif" font-size="14.00" fill="#000000">signal success</text>
<text text-anchor="start" x="920.5" y="-117.3" font-family="Times,serif" font-size="14.00" fill="#000000">terminate</text>
<polygon fill="none" stroke="#000000" points="890.5,-106 890.5,-189 1002.5,-189 1002.5,-106 890.5,-106"/>
</g>
<!-- s_defaults&#45;&gt;m_defaults_goodbye_ok -->
<g id="edge37" class="edge">
<title>s_defaults&#45;&gt;m_defaults_goodbye_ok</title>
<path fill="none" stroke="#000000" d="M1191.8818,-311.9508C1182.7676,-291.9956 1170.122,-268.6323 1151.5,-254 1100.9828,-214.306 1067.6822,-249.1636 1011.5,-218 1002.6553,-213.094 994.0807,-206.8775 986.1937,-200.1775"/>
<polygon fill="#000000" stroke="#000000" points="988.3397,-197.4013 978.5513,-193.3469 983.6748,-202.6205 988.3397,-197.4013"/>
</g>
<!-- s_defaults&#45;&gt;m_defaults_goodbye_ok -->
<g id="edge38" class="edge">
<title>s_defaults&#45;&gt;m_defaults_goodbye_ok</title>
<path fill="none" stroke="#000000" d="M1202.0113,-297.763C1194.6231,-281.693 1183.8313,-265.2609 1169.5,-254 1118.9828,-214.306 1085.6822,-249.1636 1029.5,-218 1017.7071,-211.4586 1006.3943,-202.5877 996.0803,-193.3469"/>
<polygon fill="#000000" stroke="#000000" points="1198.8563,-299.2889 1205.9691,-307.1412 1205.3055,-296.5672 1198.8563,-299.2889"/>
</g>
<!-- m_defaults_expired -->
<g id="node20" class="node">
<title>m_defaults_expired</title>
<polygon fill="#ffffff" stroke="transparent" points="1037,-106 1037,-189 1206,-189 1206,-106 1037,-106"/>
<path fill="#e5e5e5" stroke="transparent" d="M1050.1667,-160.5C1050.1667,-160.5 1193.8333,-160.5 1193.8333,-160.5 1197.6667,-160.5 1201.5,-164.3333 1201.5,-168.1667 1201.5,-168.1667 1201.5,-175.8333 1201.5,-175.8333 1201.5,-179.6667 1197.6667,-183.5 1193.8333,-183.5 1193.8333,-183.5 1050.1667,-183.5 1050.1667,-183.5 1046.3333,-183.5 1042.5,-179.6667 1042.5,-175.8333 1042.5,-175.8333 1042.5,-168.1667 1042.5,-168.1667 1042.5,-164.3333 1046.3333,-160.5 1050.1667,-160.5"/>
<path fill="none" stroke="#000000" d="M1050.1667,-160.5C1050.1667,-160.5 1193.8333,-160.5 1193.8333,-160.5 1197.6667,-160.5 1201.5,-164.3333 1201.5,-168.1667 1201.5,-168.1667 1201.5,-175.8333 1201.5,-175.8333 1201.5,-179.6667 1197.6667,-183.5 1193.8333,-183.5 1193.8333,-183.5 1050.1667,-183.5 1050.1667,-183.5 1046.3333,-183.5 1042.5,-179.6667 1042.5,-175.8333 1042.5,-175.8333 1042.5,-168.1667 1042.5,-168.1667 1042.5,-164.3333 1046.3333,-160.5 1050.1667,-160.5"/>
<text text-anchor="start" x="1101.5" y="-168.3" font-family="Times,serif" font-size="14.00" fill="#000000">expired</text>
<text text-anchor="start" x="1047.5" y="-142.3" font-family="Times,serif" font-size="14.00" fill="#000000">check if connection is dead</text>
<text text-anchor="start" x="1087" y="-117.3" font-family="Times,serif" font-size="14.00" fill="#000000">send (PING)</text>
<polygon fill="none" stroke="#000000" points="1037,-106 1037,-189 1206,-189 1206,-106 1037,-106"/>
</g>
<!-- s_defaults&#45;&gt;m_defaults_expired -->
<g id="edge39" class="edge">
<title>s_defaults&#45;&gt;m_defaults_expired</title>
<path fill="none" stroke="#000000" d="M1189.8616,-312.9193C1174.5726,-282.1582 1154.5213,-237.7145 1139.9779,-202.6392"/>
<polygon fill="#000000" stroke="#000000" points="1143.0632,-200.9379 1136.0306,-193.0137 1136.5867,-203.594 1143.0632,-200.9379"/>
</g>
<!-- s_defaults&#45;&gt;m_defaults_expired -->
<g id="edge40" class="edge">
<title>s_defaults&#45;&gt;m_defaults_expired</title>
<path fill="none" stroke="#000000" d="M1195.0572,-299.2958C1181.7323,-266.8012 1162.9732,-224.8231 1147.6411,-193.2501"/>
<polygon fill="#000000" stroke="#000000" points="1191.8369,-300.6683 1198.8358,-308.6223 1198.3246,-298.0398 1191.8369,-300.6683"/>
</g>
<!-- m_defaults_ping_ok -->
<g id="node21" class="node">
<title>m_defaults_ping_ok</title>
<polygon fill="#ffffff" stroke="transparent" points="1240.5,-118.5 1240.5,-176.5 1362.5,-176.5 1362.5,-118.5 1240.5,-118.5"/>
<path fill="#4d4d4d" stroke="transparent" d="M1253.1667,-148.5C1253.1667,-148.5 1349.8333,-148.5 1349.8333,-148.5 1353.6667,-148.5 1357.5,-152.3333 1357.5,-156.1667 1357.5,-156.1667 1357.5,-163.8333 1357.5,-163.8333 1357.5,-167.6667 1353.6667,-171.5 1349.8333,-171.5 1349.8333,-171.5 1253.1667,-171.5 1253.1667,-171.5 1249.3333,-171.5 1245.5,-167.6667 1245.5,-163.8333 1245.5,-163.8333 1245.5,-156.1667 1245.5,-156.1667 1245.5,-152.3333 1249.3333,-148.5 1253.1667,-148.5"/>
<path fill="none" stroke="#000000" d="M1253.1667,-148.5C1253.1667,-148.5 1349.8333,-148.5 1349.8333,-148.5 1353.6667,-148.5 1357.5,-152.3333 1357.5,-156.1667 1357.5,-156.1667 1357.5,-163.8333 1357.5,-163.8333 1357.5,-167.6667 1353.6667,-171.5 1349.8333,-171.5 1349.8333,-171.5 1253.1667,-171.5 1253.1667,-171.5 1249.3333,-171.5 1245.5,-167.6667 1245.5,-163.8333 1245.5,-163.8333 1245.5,-156.1667 1245.5,-156.1667 1245.5,-152.3333 1249.3333,-148.5 1253.1667,-148.5"/>
<text text-anchor="start" x="1274" y="-156.3" font-family="Times,serif" font-size="14.00" fill="#ffffff">PING OK</text>
<text text-anchor="start" x="1250.5" y="-130.3" font-family="Times,serif" font-size="14.00" fill="#000000">client is connected</text>
<polygon fill="none" stroke="#000000" points="1240.5,-118.5 1240.5,-176.5 1362.5,-176.5 1362.5,-118.5 1240.5,-118.5"/>
</g>
<!-- s_defaults&#45;&gt;m_defaults_ping_ok -->
<g id="edge42" class="edge">
<title>s_defaults&#45;&gt;m_defaults_ping_ok</title>
<path fill="none" stroke="#000000" d="M1224.1642,-308.6223C1237.9998,-274.0171 1259.9953,-224.6068 1277.1164,-189.646"/>
<polygon fill="#000000" stroke="#000000" points="1280.2749,-191.1547 1281.5803,-180.6406 1274.0031,-188.0459 1280.2749,-191.1547"/>
</g>
<!-- s_defaults&#45;&gt;m_defaults_ping_ok -->
<g id="edge43" class="edge">
<title>s_defaults&#45;&gt;m_defaults_ping_ok</title>
<path fill="none" stroke="#000000" d="M1237.6437,-303.7444C1255.8075,-266.3398 1278.7801,-214.3339 1291.8291,-180.7934"/>
<polygon fill="#000000" stroke="#000000" points="1234.4045,-302.4004 1233.1384,-312.9193 1240.6879,-305.4859 1234.4045,-302.4004"/>
</g>
<!-- m_defaults_error -->
<g id="node22" class="node">
<title>m_defaults_error</title>
<polygon fill="#ffffff" stroke="transparent" points="1397,-81 1397,-214 1524,-214 1524,-81 1397,-81"/>
<path fill="#4d4d4d" stroke="transparent" d="M1410.1667,-185.5C1410.1667,-185.5 1511.8333,-185.5 1511.8333,-185.5 1515.6667,-185.5 1519.5,-189.3333 1519.5,-193.1667 1519.5,-193.1667 1519.5,-200.8333 1519.5,-200.8333 1519.5,-204.6667 1515.6667,-208.5 1511.8333,-208.5 1511.8333,-208.5 1410.1667,-208.5 1410.1667,-208.5 1406.3333,-208.5 1402.5,-204.6667 1402.5,-200.8333 1402.5,-200.8333 1402.5,-193.1667 1402.5,-193.1667 1402.5,-189.3333 1406.3333,-185.5 1410.1667,-185.5"/>
<path fill="none" stroke="#000000" d="M1410.1667,-185.5C1410.1667,-185.5 1511.8333,-185.5 1511.8333,-185.5 1515.6667,-185.5 1519.5,-189.3333 1519.5,-193.1667 1519.5,-193.1667 1519.5,-200.8333 1519.5,-200.8333 1519.5,-204.6667 1515.6667,-208.5 1511.8333,-208.5 1511.8333,-208.5 1410.1667,-208.5 1410.1667,-208.5 1406.3333,-208.5 1402.5,-204.6667 1402.5,-200.8333 1402.5,-200.8333 1402.5,-193.1667 1402.5,-193.1667 1402.5,-189.3333 1406.3333,-185.5 1410.1667,-185.5"/>
<text text-anchor="start" x="1438" y="-193.3" font-family="Times,serif" font-size="14.00" fill="#ffffff">ERROR</text>
<polygon fill="#c0c0c0" stroke="transparent" points="1402.5,-160.5 1402.5,-181.5 1444.5,-181.5 1444.5,-160.5 1402.5,-160.5"/>
<text text-anchor="start" x="1410.5" y="-167.3" font-family="Times,serif" font-size="14.00" fill="#000000">status</text>
<polygon fill="#c0c0c0" stroke="transparent" points="1448.5,-160.5 1448.5,-181.5 1519.5,-181.5 1519.5,-160.5 1448.5,-160.5"/>
<text text-anchor="start" x="1451.5" y="-167.3" font-family="Times,serif" font-size="14.00" fill="#000000">[number*2]</text>
<polygon fill="#c0c0c0" stroke="transparent" points="1402.5,-135.5 1402.5,-156.5 1444.5,-156.5 1444.5,-135.5 1402.5,-135.5"/>
<text text-anchor="start" x="1405.5" y="-142.3" font-family="Times,serif" font-size="14.00" fill="#000000">reason</text>
<polygon fill="#c0c0c0" stroke="transparent" points="1448.5,-135.5 1448.5,-156.5 1519.5,-156.5 1519.5,-135.5 1448.5,-135.5"/>
<text text-anchor="start" x="1451.5" y="-142.3" font-family="Times,serif" font-size="14.00" fill="#000000">[string]</text>
<text text-anchor="start" x="1413" y="-117.3" font-family="Times,serif" font-size="14.00" fill="#000000">check status code</text>
<text text-anchor="start" x="1435" y="-92.3" font-family="Times,serif" font-size="14.00" fill="#000000">terminate</text>
<polygon fill="none" stroke="#000000" points="1397,-81 1397,-214 1524,-214 1524,-81 1397,-81"/>
</g>
<!-- s_defaults&#45;&gt;m_defaults_error -->
<g id="edge44" class="edge">
<title>s_defaults&#45;&gt;m_defaults_error</title>
<path fill="none" stroke="#000000" d="M1242.5848,-320.5468C1274.9898,-294.2647 1326.6567,-254.1976 1370.5,-218 1373.9077,-215.1866 1377.3787,-212.2898 1380.8793,-209.3491"/>
<polygon fill="#000000" stroke="#000000" points="1383.1892,-211.9796 1388.5769,-202.8568 1378.6762,-206.6286 1383.1892,-211.9796"/>
</g>
<!-- s_defaults&#45;&gt;m_defaults_error -->
<g id="edge45" class="edge">
<title>s_defaults&#45;&gt;m_defaults_error</title>
<path fill="none" stroke="#000000" d="M1255.9228,-321.1125C1292.2452,-294.842 1344.341,-254.4582 1388.5,-218 1388.6438,-217.8813 1388.7876,-217.7625 1388.9316,-217.6435"/>
<polygon fill="#000000" stroke="#000000" points="1253.5908,-318.4778 1247.5034,-327.1493 1257.6698,-324.1666 1253.5908,-318.4778"/>
</g>
<!-- m_defaults_exception -->
<g id="node23" class="node">
<title>m_defaults_exception</title>
<polygon fill="#ffffff" stroke="transparent" points="1558.5,-131 1558.5,-164 1630.5,-164 1630.5,-131 1558.5,-131"/>
<path fill="#e5e5e5" stroke="transparent" d="M1571.1667,-135.5C1571.1667,-135.5 1617.8333,-135.5 1617.8333,-135.5 1621.6667,-135.5 1625.5,-139.3333 1625.5,-143.1667 1625.5,-143.1667 1625.5,-150.8333 1625.5,-150.8333 1625.5,-154.6667 1621.6667,-158.5 1617.8333,-158.5 1617.8333,-158.5 1571.1667,-158.5 1571.1667,-158.5 1567.3333,-158.5 1563.5,-154.6667 1563.5,-150.8333 1563.5,-150.8333 1563.5,-143.1667 1563.5,-143.1667 1563.5,-139.3333 1567.3333,-135.5 1571.1667,-135.5"/>
<path fill="none" stroke="#000000" d="M1571.1667,-135.5C1571.1667,-135.5 1617.8333,-135.5 1617.8333,-135.5 1621.6667,-135.5 1625.5,-139.3333 1625.5,-143.1667 1625.5,-143.1667 1625.5,-150.8333 1625.5,-150.8333 1625.5,-154.6667 1621.6667,-158.5 1617.8333,-158.5 1617.8333,-158.5 1571.1667,-158.5 1571.1667,-158.5 1567.3333,-158.5 1563.5,-154.6667 1563.5,-150.8333 1563.5,-150.8333 1563.5,-143.1667 1563.5,-143.1667 1563.5,-139.3333 1567.3333,-135.5 1571.1667,-135.5"/>
<text text-anchor="start" x="1568" y="-143.3" font-family="Times,serif" font-size="14.00" fill="#000000">exception</text>
<polygon fill="none" stroke="#000000" points="1558.5,-131 1558.5,-164 1630.5,-164 1630.5,-131 1558.5,-131"/>
</g>
<!-- s_defaults&#45;&gt;m_defaults_exception -->
<g id="edge46" class="edge">
<title>s_defaults&#45;&gt;m_defaults_exception</title>
<path fill="none" stroke="#000000" d="M1240.4468,-318.3885C1265.8722,-297.0488 1304.3127,-269.8288 1342.5,-254 1421.8964,-221.0899 1459.5312,-263.4138 1532.5,-218 1548.5838,-207.9899 1561.5003,-191.1894 1571.5701,-176.4997"/>
<polygon fill="#000000" stroke="#000000" points="1574.5004,-178.4141 1577.1726,-168.1618 1568.6902,-174.51 1574.5004,-178.4141"/>
</g>
<!-- s_defaults&#45;&gt;m_defaults_exception -->
<g id="edge47" class="edge">
<title>s_defaults&#45;&gt;m_defaults_exception</title>
<path fill="none" stroke="#000000" d="M1254.5743,-319.0629C1283.06,-297.6252 1321.9093,-269.996 1360.5,-254 1439.8964,-221.0899 1477.5312,-263.4138 1550.5,-218 1569.7405,-206.0253 1584.4482,-184.3332 1591.6945,-168.1618"/>
<polygon fill="#000000" stroke="#000000" points="1252.3114,-316.3862 1246.4518,-325.2133 1256.5371,-321.9669 1252.3114,-316.3862"/>
</g>
<!-- m_defaults__ -->
<g id="node24" class="node">
<title>m_defaults__</title>
<polygon fill="#ffffff" stroke="transparent" points="570.5,-106 570.5,-189 698.5,-189 698.5,-106 570.5,-106"/>
<path fill="#e5e5e5" stroke="transparent" d="M583.1667,-160.5C583.1667,-160.5 685.8333,-160.5 685.8333,-160.5 689.6667,-160.5 693.5,-164.3333 693.5,-168.1667 693.5,-168.1667 693.5,-175.8333 693.5,-175.8333 693.5,-179.6667 689.6667,-183.5 685.8333,-183.5 685.8333,-183.5 583.1667,-183.5 583.1667,-183.5 579.3333,-183.5 575.5,-179.6667 575.5,-175.8333 575.5,-175.8333 575.5,-168.1667 575.5,-168.1667 575.5,-164.3333 579.3333,-160.5 583.1667,-160.5"/>
<path fill="none" stroke="#000000" d="M583.1667,-160.5C583.1667,-160.5 685.8333,-160.5 685.8333,-160.5 689.6667,-160.5 693.5,-164.3333 693.5,-168.1667 693.5,-168.1667 693.5,-175.8333 693.5,-175.8333 693.5,-179.6667 689.6667,-183.5 685.8333,-183.5 685.8333,-183.5 583.1667,-183.5 583.1667,-183.5 579.3333,-183.5 575.5,-179.6667 575.5,-175.8333 575.5,-175.8333 575.5,-168.1667 575.5,-168.1667 575.5,-164.3333 579.3333,-160.5 583.1667,-160.5"/>
<text text-anchor="start" x="631" y="-168.3" font-family="Times,serif" font-size="14.00" fill="#000000">*</text>
<text text-anchor="start" x="580.5" y="-142.3" font-family="Times,serif" font-size="14.00" fill="#000000">signal internal error</text>
<text text-anchor="start" x="608.5" y="-117.3" font-family="Times,serif" font-size="14.00" fill="#000000">terminate</text>
<polygon fill="none" stroke="#000000" points="570.5,-106 570.5,-189 698.5,-189 698.5,-106 570.5,-106"/>
</g>
<!-- s_defaults&#45;&gt;m_defaults__ -->
<g id="edge48" class="edge">
<title>s_defaults&#45;&gt;m_defaults__</title>
<path fill="none" stroke="#000000" d="M1193.0052,-311.1634C1184.1679,-290.6977 1171.4604,-267.092 1151.5,-254 1068.5406,-199.5872 797.9396,-256.4944 706.5,-218 695.7354,-213.4683 685.3886,-206.9325 676.0315,-199.6449"/>
<polygon fill="#000000" stroke="#000000" points="678.0177,-196.746 668.0778,-193.0785 673.5611,-202.1441 678.0177,-196.746"/>
</g>
<!-- s_defaults&#45;&gt;m_defaults__ -->
<g id="edge49" class="edge">
<title>s_defaults&#45;&gt;m_defaults__</title>
<path fill="none" stroke="#000000" d="M1203.6237,-297.554C1196.3193,-280.9598 1185.1346,-264.2547 1169.5,-254 1086.5406,-199.5872 815.9396,-256.4944 724.5,-218 710.5822,-212.1409 697.3626,-202.9315 685.5077,-193.0785"/>
<polygon fill="#000000" stroke="#000000" points="1200.5355,-299.2606 1207.4802,-307.2619 1207.041,-296.6762 1200.5355,-299.2606"/>
</g>
<!-- m_hello -->
<g id="node25" class="node">
<title>m_hello</title>
<polygon fill="#ffffff" stroke="transparent" points="416.5,-118.5 416.5,-176.5 536.5,-176.5 536.5,-118.5 416.5,-118.5"/>
<path fill="#4d4d4d" stroke="transparent" d="M429.1667,-148.5C429.1667,-148.5 523.8333,-148.5 523.8333,-148.5 527.6667,-148.5 531.5,-152.3333 531.5,-156.1667 531.5,-156.1667 531.5,-163.8333 531.5,-163.8333 531.5,-167.6667 527.6667,-171.5 523.8333,-171.5 523.8333,-171.5 429.1667,-171.5 429.1667,-171.5 425.3333,-171.5 421.5,-167.6667 421.5,-163.8333 421.5,-163.8333 421.5,-156.1667 421.5,-156.1667 421.5,-152.3333 425.3333,-148.5 429.1667,-148.5"/>
<path fill="none" stroke="#000000" d="M429.1667,-148.5C429.1667,-148.5 523.8333,-148.5 523.8333,-148.5 527.6667,-148.5 531.5,-152.3333 531.5,-156.1667 531.5,-156.1667 531.5,-163.8333 531.5,-163.8333 531.5,-167.6667 527.6667,-171.5 523.8333,-171.5 523.8333,-171.5 429.1667,-171.5 429.1667,-171.5 425.3333,-171.5 421.5,-167.6667 421.5,-163.8333 421.5,-163.8333 421.5,-156.1667 421.5,-156.1667 421.5,-152.3333 425.3333,-148.5 429.1667,-148.5"/>
<text text-anchor="start" x="454" y="-156.3" font-family="Times,serif" font-size="14.00" fill="#ffffff">HELLO</text>
<polygon fill="#c0c0c0" stroke="transparent" points="421.5,-123.5 421.5,-144.5 481.5,-144.5 481.5,-123.5 421.5,-123.5"/>
<text text-anchor="start" x="424.5" y="-130.3" font-family="Times,serif" font-size="14.00" fill="#000000">nickname</text>
<polygon fill="#c0c0c0" stroke="transparent" points="485.5,-123.5 485.5,-144.5 531.5,-144.5 531.5,-123.5 485.5,-123.5"/>
<text text-anchor="start" x="488.5" y="-130.3" font-family="Times,serif" font-size="14.00" fill="#000000">[string]</text>
<polygon fill="none" stroke="#000000" points="416.5,-118.5 416.5,-176.5 536.5,-176.5 536.5,-118.5 416.5,-118.5"/>
</g>
<!-- m_start_say_hello&#45;&gt;m_hello -->
<g id="edge6" class="edge">
<title>m_start_say_hello:hello&#45;&gt;m_hello</title>
<path fill="none" stroke="#000000" stroke-dasharray="1,5" d="M862.5,-297.5C840.8348,-297.5 858.2122,-266.4764 840.5,-254 735.4012,-179.9685 670.1871,-271.9495 553.5,-218 537.9686,-210.8192 523.4208,-199.3469 511.2433,-187.725"/>
<polygon fill="#000000" stroke="#000000" points="503.9798,-180.5063 514.2449,-184.3637 507.5263,-184.0309 511.0728,-187.5555 511.0728,-187.5555 511.0728,-187.5555 507.5263,-184.0309 507.9007,-190.7473 503.9798,-180.5063 503.9798,-180.5063"/>
</g>
<!-- f_say_hello -->
<g id="node33" class="node">
<title>f_say_hello</title>
<polygon fill="#ffffff" stroke="transparent" points="262.5,-81 262.5,-214 382.5,-214 382.5,-81 262.5,-81"/>
<path fill="#e5e5e5" stroke="transparent" d="M275.1667,-185.5C275.1667,-185.5 369.8333,-185.5 369.8333,-185.5 373.6667,-185.5 377.5,-189.3333 377.5,-193.1667 377.5,-193.1667 377.5,-200.8333 377.5,-200.8333 377.5,-204.6667 373.6667,-208.5 369.8333,-208.5 369.8333,-208.5 275.1667,-208.5 275.1667,-208.5 271.3333,-208.5 267.5,-204.6667 267.5,-200.8333 267.5,-200.8333 267.5,-193.1667 267.5,-193.1667 267.5,-189.3333 271.3333,-185.5 275.1667,-185.5"/>
<path fill="none" stroke="#0000ff" d="M275.1667,-185.5C275.1667,-185.5 369.8333,-185.5 369.8333,-185.5 373.6667,-185.5 377.5,-189.3333 377.5,-193.1667 377.5,-193.1667 377.5,-200.8333 377.5,-200.8333 377.5,-204.6667 373.6667,-208.5 369.8333,-208.5 369.8333,-208.5 275.1667,-208.5 275.1667,-208.5 271.3333,-208.5 267.5,-204.6667 267.5,-200.8333 267.5,-200.8333 267.5,-193.1667 267.5,-193.1667 267.5,-189.3333 271.3333,-185.5 275.1667,-185.5"/>
<text text-anchor="start" x="298" y="-193.3" font-family="Times,serif" font-size="14.00" fill="#0000ff">say hello</text>
<polygon fill="#c0c0c0" stroke="transparent" points="267.5,-160.5 267.5,-181.5 327.5,-181.5 327.5,-160.5 267.5,-160.5"/>
<text text-anchor="start" x="270.5" y="-167.3" font-family="Times,serif" font-size="14.00" fill="#000000">nickname</text>
<polygon fill="#c0c0c0" stroke="transparent" points="331.5,-160.5 331.5,-181.5 377.5,-181.5 377.5,-160.5 331.5,-160.5"/>
<text text-anchor="start" x="334.5" y="-167.3" font-family="Times,serif" font-size="14.00" fill="#000000">[string]</text>
<polygon fill="#c0c0c0" stroke="transparent" points="267.5,-135.5 267.5,-156.5 327.5,-156.5 327.5,-135.5 267.5,-135.5"/>
<text text-anchor="start" x="276.5" y="-142.3" font-family="Times,serif" font-size="14.00" fill="#000000">endpoint</text>
<polygon fill="#c0c0c0" stroke="transparent" points="331.5,-135.5 331.5,-156.5 377.5,-156.5 377.5,-135.5 331.5,-135.5"/>
<text text-anchor="start" x="334.5" y="-142.3" font-family="Times,serif" font-size="14.00" fill="#000000">[string]</text>
<polygon fill="#c0c0c0" stroke="transparent" points="267.5,-110.5 267.5,-131.5 377.5,-131.5 377.5,-110.5 267.5,-110.5"/>
<text text-anchor="start" x="281.5" y="-117.3" font-family="Times,serif" font-size="14.00" fill="#000000">CONNECTED</text>
<polygon fill="#c0c0c0" stroke="transparent" points="267.5,-85.5 267.5,-106.5 377.5,-106.5 377.5,-85.5 267.5,-85.5"/>
<text text-anchor="start" x="293.5" y="-92.3" font-family="Times,serif" font-size="14.00" fill="#000000">FAILURE</text>
<polygon fill="none" stroke="#0000ff" points="262.5,-81 262.5,-214 382.5,-214 382.5,-81 262.5,-81"/>
</g>
<!-- m_start_say_hello&#45;&gt;f_say_hello -->
<g id="edge50" class="edge">
<title>m_start_say_hello&#45;&gt;f_say_hello</title>
<path fill="none" stroke="#0000ff" d="M865.8232,-271.5793C858.0235,-264.7037 849.5535,-258.6146 840.5,-254 665.2944,-164.6971 579.7433,-296.6407 399.5,-218 396.5097,-216.6953 393.5593,-215.2256 390.6579,-213.6205"/>
<polygon fill="#0000ff" stroke="#0000ff" points="863.7109,-274.397 873.3963,-278.6916 868.503,-269.2945 863.7109,-274.397"/>
</g>
<!-- m_create -->
<g id="node26" class="node">
<title>m_create</title>
<polygon fill="#ffffff" stroke="transparent" points="2150.5,-118.5 2150.5,-176.5 2270.5,-176.5 2270.5,-118.5 2150.5,-118.5"/>
<path fill="#4d4d4d" stroke="transparent" d="M2163.1667,-148.5C2163.1667,-148.5 2257.8333,-148.5 2257.8333,-148.5 2261.6667,-148.5 2265.5,-152.3333 2265.5,-156.1667 2265.5,-156.1667 2265.5,-163.8333 2265.5,-163.8333 2265.5,-167.6667 2261.6667,-171.5 2257.8333,-171.5 2257.8333,-171.5 2163.1667,-171.5 2163.1667,-171.5 2159.3333,-171.5 2155.5,-167.6667 2155.5,-163.8333 2155.5,-163.8333 2155.5,-156.1667 2155.5,-156.1667 2155.5,-152.3333 2159.3333,-148.5 2163.1667,-148.5"/>
<path fill="none" stroke="#000000" d="M2163.1667,-148.5C2163.1667,-148.5 2257.8333,-148.5 2257.8333,-148.5 2261.6667,-148.5 2265.5,-152.3333 2265.5,-156.1667 2265.5,-156.1667 2265.5,-163.8333 2265.5,-163.8333 2265.5,-167.6667 2261.6667,-171.5 2257.8333,-171.5 2257.8333,-171.5 2163.1667,-171.5 2163.1667,-171.5 2159.3333,-171.5 2155.5,-167.6667 2155.5,-163.8333 2155.5,-163.8333 2155.5,-156.1667 2155.5,-156.1667 2155.5,-152.3333 2159.3333,-148.5 2163.1667,-148.5"/>
<text text-anchor="start" x="2184" y="-156.3" font-family="Times,serif" font-size="14.00" fill="#ffffff">CREATE</text>
<polygon fill="#c0c0c0" stroke="transparent" points="2155.5,-123.5 2155.5,-144.5 2190.5,-144.5 2190.5,-123.5 2155.5,-123.5"/>
<text text-anchor="start" x="2158.5" y="-130.3" font-family="Times,serif" font-size="14.00" fill="#000000">stype</text>
<polygon fill="#c0c0c0" stroke="transparent" points="2194.5,-123.5 2194.5,-144.5 2265.5,-144.5 2265.5,-123.5 2194.5,-123.5"/>
<text text-anchor="start" x="2197.5" y="-130.3" font-family="Times,serif" font-size="14.00" fill="#000000">[number*4]</text>
<polygon fill="none" stroke="#000000" points="2150.5,-118.5 2150.5,-176.5 2270.5,-176.5 2270.5,-118.5 2150.5,-118.5"/>
</g>
<!-- m_connected_create_perf&#45;&gt;m_create -->
<g id="edge13" class="edge">
<title>m_connected_create_perf:create&#45;&gt;m_create</title>
<path fill="none" stroke="#000000" stroke-dasharray="1,5" d="M1929.5,-322.5C1961.4761,-322.5 1927.6224,-275.268 1951.5,-254 2013.0728,-199.1566 2059.9221,-255.2197 2133.5,-218 2148.5008,-210.4118 2162.7392,-199.0679 2174.7987,-187.6858"/>
<polygon fill="#000000" stroke="#000000" points="2182.0132,-180.6271 2178.0124,-190.8372 2178.4392,-184.1239 2174.8653,-187.6206 2174.8653,-187.6206 2174.8653,-187.6206 2178.4392,-184.1239 2171.7182,-184.4041 2182.0132,-180.6271 2182.0132,-180.6271"/>
</g>
<!-- f_create_perf -->
<g id="node34" class="node">
<title>f_create_perf</title>
<polygon fill="#ffffff" stroke="transparent" points="1996.5,-93.5 1996.5,-201.5 2116.5,-201.5 2116.5,-93.5 1996.5,-93.5"/>
<path fill="#e5e5e5" stroke="transparent" d="M2009.1667,-173.5C2009.1667,-173.5 2103.8333,-173.5 2103.8333,-173.5 2107.6667,-173.5 2111.5,-177.3333 2111.5,-181.1667 2111.5,-181.1667 2111.5,-188.8333 2111.5,-188.8333 2111.5,-192.6667 2107.6667,-196.5 2103.8333,-196.5 2103.8333,-196.5 2009.1667,-196.5 2009.1667,-196.5 2005.3333,-196.5 2001.5,-192.6667 2001.5,-188.8333 2001.5,-188.8333 2001.5,-181.1667 2001.5,-181.1667 2001.5,-177.3333 2005.3333,-173.5 2009.1667,-173.5"/>
<path fill="none" stroke="#0000ff" d="M2009.1667,-173.5C2009.1667,-173.5 2103.8333,-173.5 2103.8333,-173.5 2107.6667,-173.5 2111.5,-177.3333 2111.5,-181.1667 2111.5,-181.1667 2111.5,-188.8333 2111.5,-188.8333 2111.5,-192.6667 2107.6667,-196.5 2103.8333,-196.5 2103.8333,-196.5 2009.1667,-196.5 2009.1667,-196.5 2005.3333,-196.5 2001.5,-192.6667 2001.5,-188.8333 2001.5,-188.8333 2001.5,-181.1667 2001.5,-181.1667 2001.5,-177.3333 2005.3333,-173.5 2009.1667,-173.5"/>
<text text-anchor="start" x="2027.5" y="-181.3" font-family="Times,serif" font-size="14.00" fill="#0000ff">create perf</text>
<polygon fill="#c0c0c0" stroke="transparent" points="2001.5,-148.5 2001.5,-169.5 2036.5,-169.5 2036.5,-148.5 2001.5,-148.5"/>
<text text-anchor="start" x="2004.5" y="-155.3" font-family="Times,serif" font-size="14.00" fill="#000000">stype</text>
<polygon fill="#c0c0c0" stroke="transparent" points="2040.5,-148.5 2040.5,-169.5 2111.5,-169.5 2111.5,-148.5 2040.5,-148.5"/>
<text text-anchor="start" x="2043.5" y="-155.3" font-family="Times,serif" font-size="14.00" fill="#000000">[number*4]</text>
<polygon fill="#c0c0c0" stroke="transparent" points="2001.5,-123.5 2001.5,-144.5 2111.5,-144.5 2111.5,-123.5 2001.5,-123.5"/>
<text text-anchor="start" x="2018" y="-130.3" font-family="Times,serif" font-size="14.00" fill="#000000">PERF IDENT</text>
<polygon fill="#c0c0c0" stroke="transparent" points="2001.5,-98.5 2001.5,-119.5 2111.5,-119.5 2111.5,-98.5 2001.5,-98.5"/>
<text text-anchor="start" x="2027.5" y="-105.3" font-family="Times,serif" font-size="14.00" fill="#000000">FAILURE</text>
<polygon fill="none" stroke="#0000ff" points="1996.5,-93.5 1996.5,-201.5 2116.5,-201.5 2116.5,-93.5 1996.5,-93.5"/>
</g>
<!-- m_connected_create_perf&#45;&gt;f_create_perf -->
<g id="edge51" class="edge">
<title>m_connected_create_perf&#45;&gt;f_create_perf</title>
<path fill="none" stroke="#0000ff" d="M1917.6612,-295.8145C1928.3025,-281.9181 1940.0564,-267.1672 1951.5,-254 1965.5517,-237.832 1981.4514,-221.0241 1996.5487,-205.6681"/>
<polygon fill="#0000ff" stroke="#0000ff" points="1914.797,-293.799 1911.5351,-303.8793 1920.3712,-298.0332 1914.797,-293.799"/>
</g>
<!-- m_lookup -->
<g id="node27" class="node">
<title>m_lookup</title>
<polygon fill="#ffffff" stroke="transparent" points="1665,-118.5 1665,-176.5 1784,-176.5 1784,-118.5 1665,-118.5"/>
<path fill="#4d4d4d" stroke="transparent" d="M1678.1667,-148.5C1678.1667,-148.5 1771.8333,-148.5 1771.8333,-148.5 1775.6667,-148.5 1779.5,-152.3333 1779.5,-156.1667 1779.5,-156.1667 1779.5,-163.8333 1779.5,-163.8333 1779.5,-167.6667 1775.6667,-171.5 1771.8333,-171.5 1771.8333,-171.5 1678.1667,-171.5 1678.1667,-171.5 1674.3333,-171.5 1670.5,-167.6667 1670.5,-163.8333 1670.5,-163.8333 1670.5,-156.1667 1670.5,-156.1667 1670.5,-152.3333 1674.3333,-148.5 1678.1667,-148.5"/>
<path fill="none" stroke="#000000" d="M1678.1667,-148.5C1678.1667,-148.5 1771.8333,-148.5 1771.8333,-148.5 1775.6667,-148.5 1779.5,-152.3333 1779.5,-156.1667 1779.5,-156.1667 1779.5,-163.8333 1779.5,-163.8333 1779.5,-167.6667 1775.6667,-171.5 1771.8333,-171.5 1771.8333,-171.5 1678.1667,-171.5 1678.1667,-171.5 1674.3333,-171.5 1670.5,-167.6667 1670.5,-163.8333 1670.5,-163.8333 1670.5,-156.1667 1670.5,-156.1667 1670.5,-152.3333 1674.3333,-148.5 1678.1667,-148.5"/>
<text text-anchor="start" x="1697.5" y="-156.3" font-family="Times,serif" font-size="14.00" fill="#ffffff">LOOKUP</text>
<polygon fill="#c0c0c0" stroke="transparent" points="1670.5,-123.5 1670.5,-144.5 1704.5,-144.5 1704.5,-123.5 1670.5,-123.5"/>
<text text-anchor="start" x="1673.5" y="-130.3" font-family="Times,serif" font-size="14.00" fill="#000000">ident</text>
<polygon fill="#c0c0c0" stroke="transparent" points="1708.5,-123.5 1708.5,-144.5 1779.5,-144.5 1779.5,-123.5 1708.5,-123.5"/>
<text text-anchor="start" x="1711.5" y="-130.3" font-family="Times,serif" font-size="14.00" fill="#000000">[number*8]</text>
<polygon fill="none" stroke="#000000" points="1665,-118.5 1665,-176.5 1784,-176.5 1784,-118.5 1665,-118.5"/>
</g>
<!-- m_connected_request_lookup&#45;&gt;m_lookup -->
<g id="edge16" class="edge">
<title>m_connected_request_lookup:lookup&#45;&gt;m_lookup</title>
<path fill="none" stroke="#000000" stroke-dasharray="1,5" d="M1476.5,-322.5C1508.4761,-322.5 1475.0719,-275.7622 1498.5,-254 1548.4155,-207.6338 1587.3635,-250.0153 1647.5,-218 1662.2065,-210.1706 1676.2794,-198.8741 1688.2775,-187.6099"/>
<polygon fill="#000000" stroke="#000000" points="1695.4671,-180.6318 1691.4254,-190.8257 1691.8792,-184.1142 1688.2913,-187.5966 1688.2913,-187.5966 1688.2913,-187.5966 1691.8792,-184.1142 1685.1571,-184.3675 1695.4671,-180.6318 1695.4671,-180.6318"/>
</g>
<!-- m_info -->
<g id="node28" class="node">
<title>m_info</title>
<polygon fill="#ffffff" stroke="transparent" points="1818.5,-93.5 1818.5,-201.5 1962.5,-201.5 1962.5,-93.5 1818.5,-93.5"/>
<path fill="#4d4d4d" stroke="transparent" d="M1831.1667,-173.5C1831.1667,-173.5 1949.8333,-173.5 1949.8333,-173.5 1953.6667,-173.5 1957.5,-177.3333 1957.5,-181.1667 1957.5,-181.1667 1957.5,-188.8333 1957.5,-188.8333 1957.5,-192.6667 1953.6667,-196.5 1949.8333,-196.5 1949.8333,-196.5 1831.1667,-196.5 1831.1667,-196.5 1827.3333,-196.5 1823.5,-192.6667 1823.5,-188.8333 1823.5,-188.8333 1823.5,-181.1667 1823.5,-181.1667 1823.5,-177.3333 1827.3333,-173.5 1831.1667,-173.5"/>
<path fill="none" stroke="#000000" d="M1831.1667,-173.5C1831.1667,-173.5 1949.8333,-173.5 1949.8333,-173.5 1953.6667,-173.5 1957.5,-177.3333 1957.5,-181.1667 1957.5,-181.1667 1957.5,-188.8333 1957.5,-188.8333 1957.5,-192.6667 1953.6667,-196.5 1949.8333,-196.5 1949.8333,-196.5 1831.1667,-196.5 1831.1667,-196.5 1827.3333,-196.5 1823.5,-192.6667 1823.5,-188.8333 1823.5,-188.8333 1823.5,-181.1667 1823.5,-181.1667 1823.5,-177.3333 1827.3333,-173.5 1831.1667,-173.5"/>
<text text-anchor="start" x="1874.5" y="-181.3" font-family="Times,serif" font-size="14.00" fill="#ffffff">INFO</text>
<polygon fill="#c0c0c0" stroke="transparent" points="1823.5,-148.5 1823.5,-169.5 1882.5,-169.5 1882.5,-148.5 1823.5,-148.5"/>
<text text-anchor="start" x="1851.5" y="-155.3" font-family="Times,serif" font-size="14.00" fill="#000000">ident</text>
<polygon fill="#c0c0c0" stroke="transparent" points="1886.5,-148.5 1886.5,-169.5 1957.5,-169.5 1957.5,-148.5 1886.5,-148.5"/>
<text text-anchor="start" x="1889.5" y="-155.3" font-family="Times,serif" font-size="14.00" fill="#000000">[number*8]</text>
<polygon fill="#c0c0c0" stroke="transparent" points="1823.5,-123.5 1823.5,-144.5 1882.5,-144.5 1882.5,-123.5 1823.5,-123.5"/>
<text text-anchor="start" x="1850.5" y="-130.3" font-family="Times,serif" font-size="14.00" fill="#000000">stype</text>
<polygon fill="#c0c0c0" stroke="transparent" points="1886.5,-123.5 1886.5,-144.5 1957.5,-144.5 1957.5,-123.5 1886.5,-123.5"/>
<text text-anchor="start" x="1889.5" y="-130.3" font-family="Times,serif" font-size="14.00" fill="#000000">[number*4]</text>
<polygon fill="#c0c0c0" stroke="transparent" points="1823.5,-98.5 1823.5,-119.5 1882.5,-119.5 1882.5,-98.5 1823.5,-98.5"/>
<text text-anchor="start" x="1826.5" y="-105.3" font-family="Times,serif" font-size="14.00" fill="#000000">endpoints</text>
<polygon fill="#c0c0c0" stroke="transparent" points="1886.5,-98.5 1886.5,-119.5 1957.5,-119.5 1957.5,-98.5 1886.5,-98.5"/>
<text text-anchor="start" x="1889.5" y="-105.3" font-family="Times,serif" font-size="14.00" fill="#000000">[hash]</text>
<polygon fill="none" stroke="#000000" points="1818.5,-93.5 1818.5,-201.5 1962.5,-201.5 1962.5,-93.5 1818.5,-93.5"/>
</g>
<!-- m_connected_request_info&#45;&gt;m_info -->
<g id="edge21" class="edge">
<title>m_connected_request_info:info&#45;&gt;m_info</title>
<path fill="none" stroke="#000000" stroke-dasharray="1,5" d="M1614.5,-322.5C1646.6148,-322.5 1613.6004,-275.4515 1637.5,-254 1693.0349,-204.1535 1734.0794,-249.9882 1801.5,-218 1805.8882,-215.918 1810.2562,-213.5836 1814.5673,-211.0647"/>
<polygon fill="#000000" stroke="#000000" points="1823.3245,-205.6571 1817.1803,-214.7401 1819.0702,-208.2842 1814.8159,-210.9112 1814.8159,-210.9112 1814.8159,-210.9112 1819.0702,-208.2842 1812.4516,-207.0824 1823.3245,-205.6571 1823.3245,-205.6571"/>
</g>
<!-- m_socket -->
<g id="node29" class="node">
<title>m_socket</title>
<polygon fill="#ffffff" stroke="transparent" points="181,-295.5 181,-403.5 320,-403.5 320,-295.5 181,-295.5"/>
<path fill="#4d4d4d" stroke="transparent" d="M194.1667,-375.5C194.1667,-375.5 307.8333,-375.5 307.8333,-375.5 311.6667,-375.5 315.5,-379.3333 315.5,-383.1667 315.5,-383.1667 315.5,-390.8333 315.5,-390.8333 315.5,-394.6667 311.6667,-398.5 307.8333,-398.5 307.8333,-398.5 194.1667,-398.5 194.1667,-398.5 190.3333,-398.5 186.5,-394.6667 186.5,-390.8333 186.5,-390.8333 186.5,-383.1667 186.5,-383.1667 186.5,-379.3333 190.3333,-375.5 194.1667,-375.5"/>
<path fill="none" stroke="#000000" d="M194.1667,-375.5C194.1667,-375.5 307.8333,-375.5 307.8333,-375.5 311.6667,-375.5 315.5,-379.3333 315.5,-383.1667 315.5,-383.1667 315.5,-390.8333 315.5,-390.8333 315.5,-394.6667 311.6667,-398.5 307.8333,-398.5 307.8333,-398.5 194.1667,-398.5 194.1667,-398.5 190.3333,-398.5 186.5,-394.6667 186.5,-390.8333 186.5,-390.8333 186.5,-383.1667 186.5,-383.1667 186.5,-379.3333 190.3333,-375.5 194.1667,-375.5"/>
<text text-anchor="start" x="224.5" y="-383.3" font-family="Times,serif" font-size="14.00" fill="#ffffff">SOCKET</text>
<polygon fill="#c0c0c0" stroke="transparent" points="186.5,-350.5 186.5,-371.5 240.5,-371.5 240.5,-350.5 186.5,-350.5"/>
<text text-anchor="start" x="209.5" y="-357.3" font-family="Times,serif" font-size="14.00" fill="#000000">ident</text>
<polygon fill="#c0c0c0" stroke="transparent" points="244.5,-350.5 244.5,-371.5 315.5,-371.5 315.5,-350.5 244.5,-350.5"/>
<text text-anchor="start" x="247.5" y="-357.3" font-family="Times,serif" font-size="14.00" fill="#000000">[number*8]</text>
<polygon fill="#c0c0c0" stroke="transparent" points="186.5,-325.5 186.5,-346.5 240.5,-346.5 240.5,-325.5 186.5,-325.5"/>
<text text-anchor="start" x="212.5" y="-332.3" font-family="Times,serif" font-size="14.00" fill="#000000">borc</text>
<polygon fill="#c0c0c0" stroke="transparent" points="244.5,-325.5 244.5,-346.5 315.5,-346.5 315.5,-325.5 244.5,-325.5"/>
<text text-anchor="start" x="247.5" y="-332.3" font-family="Times,serif" font-size="14.00" fill="#000000">[string]</text>
<polygon fill="#c0c0c0" stroke="transparent" points="186.5,-300.5 186.5,-321.5 240.5,-321.5 240.5,-300.5 186.5,-300.5"/>
<text text-anchor="start" x="189.5" y="-307.3" font-family="Times,serif" font-size="14.00" fill="#000000">endpoint</text>
<polygon fill="#c0c0c0" stroke="transparent" points="244.5,-300.5 244.5,-321.5 315.5,-321.5 315.5,-300.5 244.5,-300.5"/>
<text text-anchor="start" x="247.5" y="-307.3" font-family="Times,serif" font-size="14.00" fill="#000000">[string]</text>
<polygon fill="none" stroke="#000000" points="181,-295.5 181,-403.5 320,-403.5 320,-295.5 181,-295.5"/>
</g>
<!-- m_have_perf_request_borc&#45;&gt;m_socket -->
<g id="edge26" class="edge">
<title>m_have_perf_request_borc:socket&#45;&gt;m_socket</title>
<path fill="none" stroke="#000000" stroke-dasharray="1,5" d="M282.5,-612C204.2911,-612 215.9984,-495.7637 232.5863,-417.9868"/>
<polygon fill="#000000" stroke="#000000" points="234.8424,-407.7573 237.083,-418.4918 233.7655,-412.6399 232.6886,-417.5226 232.6886,-417.5226 232.6886,-417.5226 233.7655,-412.6399 228.2942,-416.5534 234.8424,-407.7573 234.8424,-407.7573"/>
</g>
<!-- f_request_borc -->
<g id="node35" class="node">
<title>f_request_borc</title>
<polygon fill="#ffffff" stroke="transparent" points="8,-270.5 8,-428.5 147,-428.5 147,-270.5 8,-270.5"/>
<path fill="#e5e5e5" stroke="transparent" d="M21.1667,-400.5C21.1667,-400.5 134.8333,-400.5 134.8333,-400.5 138.6667,-400.5 142.5,-404.3333 142.5,-408.1667 142.5,-408.1667 142.5,-415.8333 142.5,-415.8333 142.5,-419.6667 138.6667,-423.5 134.8333,-423.5 134.8333,-423.5 21.1667,-423.5 21.1667,-423.5 17.3333,-423.5 13.5,-419.6667 13.5,-415.8333 13.5,-415.8333 13.5,-408.1667 13.5,-408.1667 13.5,-404.3333 17.3333,-400.5 21.1667,-400.5"/>
<path fill="none" stroke="#0000ff" d="M21.1667,-400.5C21.1667,-400.5 134.8333,-400.5 134.8333,-400.5 138.6667,-400.5 142.5,-404.3333 142.5,-408.1667 142.5,-408.1667 142.5,-415.8333 142.5,-415.8333 142.5,-419.6667 138.6667,-423.5 134.8333,-423.5 134.8333,-423.5 21.1667,-423.5 21.1667,-423.5 17.3333,-423.5 13.5,-419.6667 13.5,-415.8333 13.5,-415.8333 13.5,-408.1667 13.5,-408.1667 13.5,-404.3333 17.3333,-400.5 21.1667,-400.5"/>
<text text-anchor="start" x="44.5" y="-408.3" font-family="Times,serif" font-size="14.00" fill="#0000ff">request borc</text>
<polygon fill="#c0c0c0" stroke="transparent" points="13.5,-375.5 13.5,-396.5 67.5,-396.5 67.5,-375.5 13.5,-375.5"/>
<text text-anchor="start" x="36.5" y="-382.3" font-family="Times,serif" font-size="14.00" fill="#000000">ident</text>
<polygon fill="#c0c0c0" stroke="transparent" points="71.5,-375.5 71.5,-396.5 142.5,-396.5 142.5,-375.5 71.5,-375.5"/>
<text text-anchor="start" x="74.5" y="-382.3" font-family="Times,serif" font-size="14.00" fill="#000000">[number*8]</text>
<polygon fill="#c0c0c0" stroke="transparent" points="13.5,-350.5 13.5,-371.5 67.5,-371.5 67.5,-350.5 13.5,-350.5"/>
<text text-anchor="start" x="39.5" y="-357.3" font-family="Times,serif" font-size="14.00" fill="#000000">borc</text>
<polygon fill="#c0c0c0" stroke="transparent" points="71.5,-350.5 71.5,-371.5 142.5,-371.5 142.5,-350.5 71.5,-350.5"/>
<text text-anchor="start" x="74.5" y="-357.3" font-family="Times,serif" font-size="14.00" fill="#000000">[string]</text>
<polygon fill="#c0c0c0" stroke="transparent" points="13.5,-325.5 13.5,-346.5 67.5,-346.5 67.5,-325.5 13.5,-325.5"/>
<text text-anchor="start" x="16.5" y="-332.3" font-family="Times,serif" font-size="14.00" fill="#000000">endpoint</text>
<polygon fill="#c0c0c0" stroke="transparent" points="71.5,-325.5 71.5,-346.5 142.5,-346.5 142.5,-325.5 71.5,-325.5"/>
<text text-anchor="start" x="74.5" y="-332.3" font-family="Times,serif" font-size="14.00" fill="#000000">[string]</text>
<polygon fill="#c0c0c0" stroke="transparent" points="13.5,-300.5 13.5,-321.5 142.5,-321.5 142.5,-300.5 13.5,-300.5"/>
<text text-anchor="start" x="26" y="-307.3" font-family="Times,serif" font-size="14.00" fill="#000000">PERF ENDPOINT</text>
<polygon fill="#c0c0c0" stroke="transparent" points="13.5,-275.5 13.5,-296.5 142.5,-296.5 142.5,-275.5 13.5,-275.5"/>
<text text-anchor="start" x="49" y="-282.3" font-family="Times,serif" font-size="14.00" fill="#000000">FAILURE</text>
<polygon fill="none" stroke="#0000ff" points="8,-270.5 8,-428.5 147,-428.5 147,-270.5 8,-270.5"/>
</g>
<!-- m_have_perf_request_borc&#45;&gt;f_request_borc -->
<g id="edge52" class="edge">
<title>m_have_perf_request_borc&#45;&gt;f_request_borc</title>
<path fill="none" stroke="#0000ff" d="M288.206,-585.9317C250.0151,-543.078 195.586,-482.0034 151.6147,-432.6636"/>
<polygon fill="#0000ff" stroke="#0000ff" points="285.6375,-588.3102 294.9037,-593.4472 290.8634,-583.6529 285.6375,-588.3102"/>
</g>
<!-- m_measure -->
<g id="node30" class="node">
<title>m_measure</title>
<polygon fill="#ffffff" stroke="transparent" points="525,-270.5 525,-428.5 662,-428.5 662,-270.5 525,-270.5"/>
<path fill="#4d4d4d" stroke="transparent" d="M538.1667,-400.5C538.1667,-400.5 649.8333,-400.5 649.8333,-400.5 653.6667,-400.5 657.5,-404.3333 657.5,-408.1667 657.5,-408.1667 657.5,-415.8333 657.5,-415.8333 657.5,-419.6667 653.6667,-423.5 649.8333,-423.5 649.8333,-423.5 538.1667,-423.5 538.1667,-423.5 534.3333,-423.5 530.5,-419.6667 530.5,-415.8333 530.5,-415.8333 530.5,-408.1667 530.5,-408.1667 530.5,-404.3333 534.3333,-400.5 538.1667,-400.5"/>
<path fill="none" stroke="#000000" d="M538.1667,-400.5C538.1667,-400.5 649.8333,-400.5 649.8333,-400.5 653.6667,-400.5 657.5,-404.3333 657.5,-408.1667 657.5,-408.1667 657.5,-415.8333 657.5,-415.8333 657.5,-419.6667 653.6667,-423.5 649.8333,-423.5 649.8333,-423.5 538.1667,-423.5 538.1667,-423.5 534.3333,-423.5 530.5,-419.6667 530.5,-415.8333 530.5,-415.8333 530.5,-408.1667 530.5,-408.1667 530.5,-404.3333 534.3333,-400.5 538.1667,-400.5"/>
<text text-anchor="start" x="561" y="-408.3" font-family="Times,serif" font-size="14.00" fill="#ffffff">MEASURE</text>
<polygon fill="#c0c0c0" stroke="transparent" points="530.5,-375.5 530.5,-396.5 582.5,-396.5 582.5,-375.5 530.5,-375.5"/>
<text text-anchor="start" x="551.5" y="-382.3" font-family="Times,serif" font-size="14.00" fill="#000000">ident</text>
<polygon fill="#c0c0c0" stroke="transparent" points="586.5,-375.5 586.5,-396.5 657.5,-396.5 657.5,-375.5 586.5,-375.5"/>
<text text-anchor="start" x="589.5" y="-382.3" font-family="Times,serif" font-size="14.00" fill="#000000">[number*8]</text>
<polygon fill="#c0c0c0" stroke="transparent" points="530.5,-350.5 530.5,-371.5 582.5,-371.5 582.5,-350.5 530.5,-350.5"/>
<text text-anchor="start" x="533.5" y="-357.3" font-family="Times,serif" font-size="14.00" fill="#000000">measure</text>
<polygon fill="#c0c0c0" stroke="transparent" points="586.5,-350.5 586.5,-371.5 657.5,-371.5 657.5,-350.5 586.5,-350.5"/>
<text text-anchor="start" x="589.5" y="-357.3" font-family="Times,serif" font-size="14.00" fill="#000000">[string]</text>
<polygon fill="#c0c0c0" stroke="transparent" points="530.5,-325.5 530.5,-346.5 582.5,-346.5 582.5,-325.5 530.5,-325.5"/>
<text text-anchor="start" x="543.5" y="-332.3" font-family="Times,serif" font-size="14.00" fill="#000000">nmsgs</text>
<polygon fill="#c0c0c0" stroke="transparent" points="586.5,-325.5 586.5,-346.5 657.5,-346.5 657.5,-325.5 586.5,-325.5"/>
<text text-anchor="start" x="589.5" y="-332.3" font-family="Times,serif" font-size="14.00" fill="#000000">[number*4]</text>
<polygon fill="#c0c0c0" stroke="transparent" points="530.5,-300.5 530.5,-321.5 582.5,-321.5 582.5,-300.5 530.5,-300.5"/>
<text text-anchor="start" x="534.5" y="-307.3" font-family="Times,serif" font-size="14.00" fill="#000000">msgsize</text>
<polygon fill="#c0c0c0" stroke="transparent" points="586.5,-300.5 586.5,-321.5 657.5,-321.5 657.5,-300.5 586.5,-300.5"/>
<text text-anchor="start" x="589.5" y="-307.3" font-family="Times,serif" font-size="14.00" fill="#000000">[number*8]</text>
<polygon fill="#c0c0c0" stroke="transparent" points="530.5,-275.5 530.5,-296.5 582.5,-296.5 582.5,-275.5 530.5,-275.5"/>
<text text-anchor="start" x="536.5" y="-282.3" font-family="Times,serif" font-size="14.00" fill="#000000">timeout</text>
<polygon fill="#c0c0c0" stroke="transparent" points="586.5,-275.5 586.5,-296.5 657.5,-296.5 657.5,-275.5 586.5,-275.5"/>
<text text-anchor="start" x="589.5" y="-282.3" font-family="Times,serif" font-size="14.00" fill="#000000">[number*4]</text>
<polygon fill="none" stroke="#000000" points="525,-270.5 525,-428.5 662,-428.5 662,-270.5 525,-270.5"/>
</g>
<!-- m_have_perf_request_measure&#45;&gt;m_measure -->
<g id="edge31" class="edge">
<title>m_have_perf_request_measure:measure&#45;&gt;m_measure</title>
<path fill="none" stroke="#000000" stroke-dasharray="1,5" d="M545.5,-602C545.5,-548.5727 556.0001,-489.8875 567.1783,-442.5501"/>
<polygon fill="#000000" stroke="#000000" points="569.5703,-432.627 571.6015,-443.4031 568.3985,-437.4877 567.2268,-442.3485 567.2268,-442.3485 567.2268,-442.3485 568.3985,-437.4877 562.8521,-441.2939 569.5703,-432.627 569.5703,-432.627"/>
</g>
<!-- f_request_measure -->
<g id="node36" class="node">
<title>f_request_measure</title>
<polygon fill="#ffffff" stroke="transparent" points="354.5,-258 354.5,-441 490.5,-441 490.5,-258 354.5,-258"/>
<path fill="#e5e5e5" stroke="transparent" d="M367.1667,-412.5C367.1667,-412.5 477.8333,-412.5 477.8333,-412.5 481.6667,-412.5 485.5,-416.3333 485.5,-420.1667 485.5,-420.1667 485.5,-427.8333 485.5,-427.8333 485.5,-431.6667 481.6667,-435.5 477.8333,-435.5 477.8333,-435.5 367.1667,-435.5 367.1667,-435.5 363.3333,-435.5 359.5,-431.6667 359.5,-427.8333 359.5,-427.8333 359.5,-420.1667 359.5,-420.1667 359.5,-416.3333 363.3333,-412.5 367.1667,-412.5"/>
<path fill="none" stroke="#0000ff" d="M367.1667,-412.5C367.1667,-412.5 477.8333,-412.5 477.8333,-412.5 481.6667,-412.5 485.5,-416.3333 485.5,-420.1667 485.5,-420.1667 485.5,-427.8333 485.5,-427.8333 485.5,-431.6667 481.6667,-435.5 477.8333,-435.5 477.8333,-435.5 367.1667,-435.5 367.1667,-435.5 363.3333,-435.5 359.5,-431.6667 359.5,-427.8333 359.5,-427.8333 359.5,-420.1667 359.5,-420.1667 359.5,-416.3333 363.3333,-412.5 367.1667,-412.5"/>
<text text-anchor="start" x="378" y="-420.3" font-family="Times,serif" font-size="14.00" fill="#0000ff">request measure</text>
<polygon fill="#c0c0c0" stroke="transparent" points="359.5,-387.5 359.5,-408.5 410.5,-408.5 410.5,-387.5 359.5,-387.5"/>
<text text-anchor="start" x="379.5" y="-394.3" font-family="Times,serif" font-size="14.00" fill="#000000">ident</text>
<polygon fill="#c0c0c0" stroke="transparent" points="414.5,-387.5 414.5,-408.5 485.5,-408.5 485.5,-387.5 414.5,-387.5"/>
<text text-anchor="start" x="417.5" y="-394.3" font-family="Times,serif" font-size="14.00" fill="#000000">[number*4]</text>
<polygon fill="#c0c0c0" stroke="transparent" points="359.5,-362.5 359.5,-383.5 410.5,-383.5 410.5,-362.5 359.5,-362.5"/>
<text text-anchor="start" x="371.5" y="-369.3" font-family="Times,serif" font-size="14.00" fill="#000000">nmsgs</text>
<polygon fill="#c0c0c0" stroke="transparent" points="414.5,-362.5 414.5,-383.5 485.5,-383.5 485.5,-362.5 414.5,-362.5"/>
<text text-anchor="start" x="417.5" y="-369.3" font-family="Times,serif" font-size="14.00" fill="#000000">[number*4]</text>
<polygon fill="#c0c0c0" stroke="transparent" points="359.5,-337.5 359.5,-358.5 410.5,-358.5 410.5,-337.5 359.5,-337.5"/>
<text text-anchor="start" x="362.5" y="-344.3" font-family="Times,serif" font-size="14.00" fill="#000000">msgsize</text>
<polygon fill="#c0c0c0" stroke="transparent" points="414.5,-337.5 414.5,-358.5 485.5,-358.5 485.5,-337.5 414.5,-337.5"/>
<text text-anchor="start" x="417.5" y="-344.3" font-family="Times,serif" font-size="14.00" fill="#000000">[number*8]</text>
<polygon fill="#c0c0c0" stroke="transparent" points="359.5,-312.5 359.5,-333.5 410.5,-333.5 410.5,-312.5 359.5,-312.5"/>
<text text-anchor="start" x="364.5" y="-319.3" font-family="Times,serif" font-size="14.00" fill="#000000">timeout</text>
<polygon fill="#c0c0c0" stroke="transparent" points="414.5,-312.5 414.5,-333.5 485.5,-333.5 485.5,-312.5 414.5,-312.5"/>
<text text-anchor="start" x="417.5" y="-319.3" font-family="Times,serif" font-size="14.00" fill="#000000">[number*4]</text>
<polygon fill="#c0c0c0" stroke="transparent" points="359.5,-287.5 359.5,-308.5 485.5,-308.5 485.5,-287.5 359.5,-287.5"/>
<text text-anchor="start" x="396.5" y="-294.3" font-family="Times,serif" font-size="14.00" fill="#000000">RESULT</text>
<polygon fill="#c0c0c0" stroke="transparent" points="359.5,-262.5 359.5,-283.5 485.5,-283.5 485.5,-262.5 359.5,-262.5"/>
<text text-anchor="start" x="393.5" y="-269.3" font-family="Times,serif" font-size="14.00" fill="#000000">FAILURE</text>
<polygon fill="none" stroke="#0000ff" points="354.5,-258 354.5,-441 490.5,-441 490.5,-258 354.5,-258"/>
</g>
<!-- m_have_perf_request_measure&#45;&gt;f_request_measure -->
<g id="edge53" class="edge">
<title>m_have_perf_request_measure&#45;&gt;f_request_measure</title>
<path fill="none" stroke="#0000ff" d="M522.0546,-583.8175C505.421,-544.6676 482.6686,-491.1163 463.1134,-445.09"/>
<polygon fill="#0000ff" stroke="#0000ff" points="519.0142,-585.6121 526.1459,-593.4472 525.4568,-582.8748 519.0142,-585.6121"/>
</g>
<!-- m_goodbye -->
<g id="node32" class="node">
<title>m_goodbye</title>
<polygon fill="#ffffff" stroke="transparent" points="751.5,-4 751.5,-37 837.5,-37 837.5,-4 751.5,-4"/>
<path fill="#4d4d4d" stroke="transparent" d="M764.1667,-8.5C764.1667,-8.5 824.8333,-8.5 824.8333,-8.5 828.6667,-8.5 832.5,-12.3333 832.5,-16.1667 832.5,-16.1667 832.5,-23.8333 832.5,-23.8333 832.5,-27.6667 828.6667,-31.5 824.8333,-31.5 824.8333,-31.5 764.1667,-31.5 764.1667,-31.5 760.3333,-31.5 756.5,-27.6667 756.5,-23.8333 756.5,-23.8333 756.5,-16.1667 756.5,-16.1667 756.5,-12.3333 760.3333,-8.5 764.1667,-8.5"/>
<path fill="none" stroke="#000000" d="M764.1667,-8.5C764.1667,-8.5 824.8333,-8.5 824.8333,-8.5 828.6667,-8.5 832.5,-12.3333 832.5,-16.1667 832.5,-16.1667 832.5,-23.8333 832.5,-23.8333 832.5,-27.6667 828.6667,-31.5 824.8333,-31.5 824.8333,-31.5 764.1667,-31.5 764.1667,-31.5 760.3333,-31.5 756.5,-27.6667 756.5,-23.8333 756.5,-23.8333 756.5,-16.1667 756.5,-16.1667 756.5,-12.3333 760.3333,-8.5 764.1667,-8.5"/>
<text text-anchor="start" x="761" y="-16.3" font-family="Times,serif" font-size="14.00" fill="#ffffff">GOODBYE</text>
<polygon fill="none" stroke="#000000" points="751.5,-4 751.5,-37 837.5,-37 837.5,-4 751.5,-4"/>
</g>
<!-- m_defaults_destructor&#45;&gt;m_goodbye -->
<g id="edge36" class="edge">
<title>m_defaults_destructor:goodbye&#45;&gt;m_goodbye</title>
<path fill="none" stroke="#000000" stroke-dasharray="1,5" d="M794.5,-123.5C794.5,-99.1359 794.5,-71.5299 794.5,-51.0344"/>
<polygon fill="#000000" stroke="#000000" points="794.5,-41.0195 799.0001,-51.0195 794.5,-46.0195 794.5001,-51.0195 794.5001,-51.0195 794.5001,-51.0195 794.5,-46.0195 790.0001,-51.0196 794.5,-41.0195 794.5,-41.0195"/>
</g>
<!-- m_ping -->
<g id="node31" class="node">
<title>m_ping</title>
<polygon fill="#ffffff" stroke="transparent" points="1097.5,-4 1097.5,-37 1147.5,-37 1147.5,-4 1097.5,-4"/>
<path fill="#4d4d4d" stroke="transparent" d="M1110.1667,-8.5C1110.1667,-8.5 1134.8333,-8.5 1134.8333,-8.5 1138.6667,-8.5 1142.5,-12.3333 1142.5,-16.1667 1142.5,-16.1667 1142.5,-23.8333 1142.5,-23.8333 1142.5,-27.6667 1138.6667,-31.5 1134.8333,-31.5 1134.8333,-31.5 1110.1667,-31.5 1110.1667,-31.5 1106.3333,-31.5 1102.5,-27.6667 1102.5,-23.8333 1102.5,-23.8333 1102.5,-16.1667 1102.5,-16.1667 1102.5,-12.3333 1106.3333,-8.5 1110.1667,-8.5"/>
<path fill="none" stroke="#000000" d="M1110.1667,-8.5C1110.1667,-8.5 1134.8333,-8.5 1134.8333,-8.5 1138.6667,-8.5 1142.5,-12.3333 1142.5,-16.1667 1142.5,-16.1667 1142.5,-23.8333 1142.5,-23.8333 1142.5,-27.6667 1138.6667,-31.5 1134.8333,-31.5 1134.8333,-31.5 1110.1667,-31.5 1110.1667,-31.5 1106.3333,-31.5 1102.5,-27.6667 1102.5,-23.8333 1102.5,-23.8333 1102.5,-16.1667 1102.5,-16.1667 1102.5,-12.3333 1106.3333,-8.5 1110.1667,-8.5"/>
<text text-anchor="start" x="1106.5" y="-16.3" font-family="Times,serif" font-size="14.00" fill="#ffffff">PING</text>
<polygon fill="none" stroke="#000000" points="1097.5,-4 1097.5,-37 1147.5,-37 1147.5,-4 1097.5,-4"/>
</g>
<!-- m_defaults_expired&#45;&gt;m_ping -->
<g id="edge41" class="edge">
<title>m_defaults_expired:ping&#45;&gt;m_ping</title>
<path fill="none" stroke="#000000" stroke-dasharray="1,5" d="M1122.5,-110.5C1122.5,-90.832 1122.5,-68.7464 1122.5,-51.3757"/>
<polygon fill="#000000" stroke="#000000" points="1122.5,-41.233 1127.0001,-51.233 1122.5,-46.233 1122.5001,-51.233 1122.5001,-51.233 1122.5001,-51.233 1122.5,-46.233 1118.0001,-51.2331 1122.5,-41.233 1122.5,-41.233"/>
</g>
</g>
</svg>
