<?xml version="1.0" encoding="UTF-8" standalone="no"?>
<!DOCTYPE svg PUBLIC "-//W3C//DTD SVG 1.1//EN"
 "http://www.w3.org/Graphics/SVG/1.1/DTD/svg11.dtd">
<!-- Generated by graphviz version 2.40.1 (20161225.0304)
 -->
<!-- Title: zperf_protocol Pages: 1 -->
<svg width="2268pt" height="1055pt"
 viewBox="0.00 0.00 2268.00 1055.00" xmlns="http://www.w3.org/2000/svg" xmlns:xlink="http://www.w3.org/1999/xlink">
<g id="graph0" class="graph" transform="scale(1 1) rotate(0) translate(4 1051)">
<title>zperf_protocol</title>
<polygon fill="#ffffff" stroke="transparent" points="-4,4 -4,-1051 2264,-1051 2264,4 -4,4"/>
<text text-anchor="middle" x="1130" y="-1031.8" font-family="Times,serif" font-size="14.00" fill="#000000">zperf_client and zperf_msg</text>
<!-- s_start -->
<g id="node1" class="node">
<title>s_start</title>
<ellipse fill="none" stroke="#000000" cx="847" cy="-639" rx="25.9957" ry="25.9957"/>
<ellipse fill="none" stroke="#000000" cx="847" cy="-639" rx="29.9954" ry="29.9954"/>
<text text-anchor="middle" x="847" y="-635.3" font-family="Times,serif" font-size="14.00" fill="#000000">start</text>
</g>
<!-- m_start_connect -->
<g id="node6" class="node">
<title>m_start_connect</title>
<polygon fill="#ffffff" stroke="transparent" points="842.5,-283 842.5,-416 1007.5,-416 1007.5,-283 842.5,-283"/>
<path fill="#e5e5e5" stroke="transparent" d="M855.6667,-387.5C855.6667,-387.5 995.3333,-387.5 995.3333,-387.5 999.1667,-387.5 1003,-391.3333 1003,-395.1667 1003,-395.1667 1003,-402.8333 1003,-402.8333 1003,-406.6667 999.1667,-410.5 995.3333,-410.5 995.3333,-410.5 855.6667,-410.5 855.6667,-410.5 851.8333,-410.5 848,-406.6667 848,-402.8333 848,-402.8333 848,-395.1667 848,-395.1667 848,-391.3333 851.8333,-387.5 855.6667,-387.5"/>
<path fill="none" stroke="#000000" d="M855.6667,-387.5C855.6667,-387.5 995.3333,-387.5 995.3333,-387.5 999.1667,-387.5 1003,-391.3333 1003,-395.1667 1003,-395.1667 1003,-402.8333 1003,-402.8333 1003,-406.6667 999.1667,-410.5 995.3333,-410.5 995.3333,-410.5 855.6667,-410.5 855.6667,-410.5 851.8333,-410.5 848,-406.6667 848,-402.8333 848,-402.8333 848,-395.1667 848,-395.1667 848,-391.3333 851.8333,-387.5 855.6667,-387.5"/>
<text text-anchor="start" x="904" y="-395.3" font-family="Times,serif" font-size="14.00" fill="#000000">connect</text>
<text text-anchor="start" x="853" y="-369.3" font-family="Times,serif" font-size="14.00" fill="#000000">connect to server endpoint</text>
<text text-anchor="start" x="889" y="-344.3" font-family="Times,serif" font-size="14.00" fill="#000000">set nickname</text>
<text text-anchor="start" x="870.5" y="-319.3" font-family="Times,serif" font-size="14.00" fill="#000000">use connect timeout</text>
<text text-anchor="start" x="884.5" y="-294.3" font-family="Times,serif" font-size="14.00" fill="#000000">send (HELLO)</text>
<polygon fill="none" stroke="#000000" points="842.5,-283 842.5,-416 1007.5,-416 1007.5,-283 842.5,-283"/>
</g>
<!-- s_start&#45;&gt;m_start_connect -->
<g id="edge4" class="edge">
<title>s_start&#45;&gt;m_start_connect</title>
<path fill="none" stroke="#000000" d="M853.7856,-609.775C861.2667,-577.9835 873.8571,-525.7169 886,-481 890.4862,-464.4792 895.5284,-446.8669 900.4605,-430.0791"/>
<polygon fill="#000000" stroke="#000000" points="903.8715,-430.8862 903.3466,-420.3044 897.158,-428.9039 903.8715,-430.8862"/>
</g>
<!-- m_start_bad_endpoint -->
<g id="node7" class="node">
<title>m_start_bad_endpoint</title>
<polygon fill="#ffffff" stroke="transparent" points="681.5,-308 681.5,-391 808.5,-391 808.5,-308 681.5,-308"/>
<path fill="#e5e5e5" stroke="transparent" d="M694.6667,-362.5C694.6667,-362.5 796.3333,-362.5 796.3333,-362.5 800.1667,-362.5 804,-366.3333 804,-370.1667 804,-370.1667 804,-377.8333 804,-377.8333 804,-381.6667 800.1667,-385.5 796.3333,-385.5 796.3333,-385.5 694.6667,-385.5 694.6667,-385.5 690.8333,-385.5 687,-381.6667 687,-377.8333 687,-377.8333 687,-370.1667 687,-370.1667 687,-366.3333 690.8333,-362.5 694.6667,-362.5"/>
<path fill="none" stroke="#000000" d="M694.6667,-362.5C694.6667,-362.5 796.3333,-362.5 796.3333,-362.5 800.1667,-362.5 804,-366.3333 804,-370.1667 804,-370.1667 804,-377.8333 804,-377.8333 804,-381.6667 800.1667,-385.5 796.3333,-385.5 796.3333,-385.5 694.6667,-385.5 694.6667,-385.5 690.8333,-385.5 687,-381.6667 687,-377.8333 687,-377.8333 687,-370.1667 687,-370.1667 687,-366.3333 690.8333,-362.5 694.6667,-362.5"/>
<text text-anchor="start" x="710" y="-370.3" font-family="Times,serif" font-size="14.00" fill="#000000">bad endpoint</text>
<text text-anchor="start" x="692" y="-344.3" font-family="Times,serif" font-size="14.00" fill="#000000">signal bad endpoint</text>
<text text-anchor="start" x="719.5" y="-319.3" font-family="Times,serif" font-size="14.00" fill="#000000">terminate</text>
<polygon fill="none" stroke="#000000" points="681.5,-308 681.5,-391 808.5,-391 808.5,-308 681.5,-308"/>
</g>
<!-- s_start&#45;&gt;m_start_bad_endpoint -->
<g id="edge7" class="edge">
<title>s_start&#45;&gt;m_start_bad_endpoint</title>
<path fill="none" stroke="#000000" d="M835.6827,-611.0683C827.2344,-579.0725 815.9114,-525.3472 800,-481 790.7305,-455.1645 777.8768,-427.699 766.7969,-404.5874"/>
<polygon fill="#000000" stroke="#000000" points="769.8188,-402.7951 762.3322,-395.2982 763.5097,-405.8274 769.8188,-402.7951"/>
</g>
<!-- s_start&#45;&gt;m_start_bad_endpoint -->
<g id="edge8" class="edge">
<title>s_start&#45;&gt;m_start_bad_endpoint</title>
<path fill="none" stroke="#000000" d="M847.1631,-599.0427C842.5322,-566.6746 832.0566,-520.1778 818,-481 807.4533,-451.6049 792.2669,-420.0998 778.3358,-395.2982"/>
<polygon fill="#000000" stroke="#000000" points="843.701,-599.5616 848.4584,-609.0282 850.6429,-598.661 843.701,-599.5616"/>
</g>
<!-- s_expect_hello_ok -->
<g id="node2" class="node">
<title>s_expect_hello_ok</title>
<ellipse fill="none" stroke="#000000" cx="964" cy="-639" rx="64.9888" ry="64.9888"/>
<ellipse fill="none" stroke="#000000" cx="964" cy="-639" rx="68.9885" ry="68.9885"/>
<text text-anchor="middle" x="964" y="-635.3" font-family="Times,serif" font-size="14.00" fill="#000000">expect hello ok</text>
</g>
<!-- s_defaults -->
<g id="node5" class="node">
<title>s_defaults</title>
<ellipse fill="none" stroke="#000000" cx="1232" cy="-349.5" rx="38.2082" ry="38.2082"/>
<ellipse fill="none" stroke="#000000" cx="1232" cy="-349.5" rx="42.1937" ry="42.1937"/>
<text text-anchor="middle" x="1232" y="-345.8" font-family="Times,serif" font-size="14.00" fill="#000000">defaults</text>
</g>
<!-- s_expect_hello_ok&#45;&gt;s_defaults -->
<g id="edge1" class="edge">
<title>s_expect_hello_ok&#45;&gt;s_defaults</title>
<path fill="none" stroke="#000000" stroke-dasharray="5,2" d="M982.5391,-572.2151C994.6026,-540.3275 1013.5212,-504.1631 1042,-481 1091.5081,-440.7329 1130.8554,-484.4716 1181,-445 1195.9539,-433.229 1207.0567,-415.8303 1215.0156,-399.0968"/>
<polygon fill="none" stroke="#000000" points="1218.2369,-400.4669 1219.1183,-389.9088 1211.8451,-397.6128 1218.2369,-400.4669"/>
</g>
<!-- s_expect_hello_ok&#45;&gt;m_start_connect -->
<g id="edge5" class="edge">
<title>s_expect_hello_ok&#45;&gt;m_start_connect</title>
<path fill="none" stroke="#000000" d="M953.4062,-560.3612C947.5095,-516.59 940.2291,-462.5468 934.5151,-420.1316"/>
<polygon fill="#000000" stroke="#000000" points="949.9537,-560.9494 954.7575,-570.3925 956.891,-560.0148 949.9537,-560.9494"/>
</g>
<!-- m_expect_hello_ok_hello_ok -->
<g id="node8" class="node">
<title>m_expect_hello_ok_hello_ok</title>
<polygon fill="#ffffff" stroke="transparent" points="1042,-295.5 1042,-403.5 1164,-403.5 1164,-295.5 1042,-295.5"/>
<path fill="#4d4d4d" stroke="transparent" d="M1054.6667,-375.5C1054.6667,-375.5 1151.3333,-375.5 1151.3333,-375.5 1155.1667,-375.5 1159,-379.3333 1159,-383.1667 1159,-383.1667 1159,-390.8333 1159,-390.8333 1159,-394.6667 1155.1667,-398.5 1151.3333,-398.5 1151.3333,-398.5 1054.6667,-398.5 1054.6667,-398.5 1050.8333,-398.5 1047,-394.6667 1047,-390.8333 1047,-390.8333 1047,-383.1667 1047,-383.1667 1047,-379.3333 1050.8333,-375.5 1054.6667,-375.5"/>
<path fill="none" stroke="#000000" d="M1054.6667,-375.5C1054.6667,-375.5 1151.3333,-375.5 1151.3333,-375.5 1155.1667,-375.5 1159,-379.3333 1159,-383.1667 1159,-383.1667 1159,-390.8333 1159,-390.8333 1159,-394.6667 1155.1667,-398.5 1151.3333,-398.5 1151.3333,-398.5 1054.6667,-398.5 1054.6667,-398.5 1050.8333,-398.5 1047,-394.6667 1047,-390.8333 1047,-390.8333 1047,-383.1667 1047,-383.1667 1047,-379.3333 1050.8333,-375.5 1054.6667,-375.5"/>
<text text-anchor="start" x="1069" y="-383.3" font-family="Times,serif" font-size="14.00" fill="#ffffff">HELLO OK</text>
<polygon fill="#c0c0c0" stroke="transparent" points="1047,-350.5 1047,-371.5 1108,-371.5 1108,-350.5 1047,-350.5"/>
<text text-anchor="start" x="1051" y="-357.3" font-family="Times,serif" font-size="14.00" fill="#000000">nickname</text>
<polygon fill="#c0c0c0" stroke="transparent" points="1112,-350.5 1112,-371.5 1159,-371.5 1159,-350.5 1112,-350.5"/>
<text text-anchor="start" x="1115" y="-357.3" font-family="Times,serif" font-size="14.00" fill="#000000">[string]</text>
<text text-anchor="start" x="1057.5" y="-332.3" font-family="Times,serif" font-size="14.00" fill="#000000">signal connected</text>
<text text-anchor="start" x="1052" y="-307.3" font-family="Times,serif" font-size="14.00" fill="#000000">client is connected</text>
<polygon fill="none" stroke="#000000" points="1042,-295.5 1042,-403.5 1164,-403.5 1164,-295.5 1042,-295.5"/>
</g>
<!-- s_expect_hello_ok&#45;&gt;m_expect_hello_ok_hello_ok -->
<g id="edge9" class="edge">
<title>s_expect_hello_ok&#45;&gt;m_expect_hello_ok_hello_ok</title>
<path fill="none" stroke="#000000" d="M993.9898,-576.5392C1016.5578,-529.5361 1047.4488,-465.1983 1070.5854,-417.011"/>
<polygon fill="#000000" stroke="#000000" points="1073.7846,-418.434 1074.9579,-407.9043 1067.4743,-415.4041 1073.7846,-418.434"/>
</g>
<!-- s_connected -->
<g id="node3" class="node">
<title>s_connected</title>
<ellipse fill="none" stroke="#000000" cx="1619" cy="-639" rx="46.2806" ry="46.2806"/>
<ellipse fill="none" stroke="#000000" cx="1619" cy="-639" rx="50.2922" ry="50.2922"/>
<text text-anchor="middle" x="1619" y="-635.3" font-family="Times,serif" font-size="14.00" fill="#000000">connected</text>
</g>
<!-- s_connected&#45;&gt;s_defaults -->
<g id="edge2" class="edge">
<title>s_connected&#45;&gt;s_defaults</title>
<path fill="none" stroke="#000000" stroke-dasharray="5,2" d="M1578.6794,-608.8377C1505.0474,-553.7564 1349.5018,-437.3987 1274.3751,-381.1992"/>
<polygon fill="none" stroke="#000000" points="1276.1607,-378.164 1266.0567,-374.9765 1271.9677,-383.7693 1276.1607,-378.164"/>
</g>
<!-- s_connected&#45;&gt;m_expect_hello_ok_hello_ok -->
<g id="edge10" class="edge">
<title>s_connected&#45;&gt;m_expect_hello_ok_hello_ok</title>
<path fill="none" stroke="#000000" d="M1560.7858,-622.8218C1472.2864,-596.2234 1301.4793,-536.8625 1181,-445 1167.2111,-434.4863 1154.3392,-421.0651 1143.1845,-407.6287"/>
<polygon fill="#000000" stroke="#000000" points="1559.8019,-626.1807 1570.3847,-625.675 1561.7964,-619.4708 1559.8019,-626.1807"/>
</g>
<!-- m_connected_create_perf -->
<g id="node9" class="node">
<title>m_connected_create_perf</title>
<polygon fill="#ffffff" stroke="transparent" points="1874.5,-308 1874.5,-391 1985.5,-391 1985.5,-308 1874.5,-308"/>
<path fill="#e5e5e5" stroke="transparent" d="M1887.6667,-362.5C1887.6667,-362.5 1973.3333,-362.5 1973.3333,-362.5 1977.1667,-362.5 1981,-366.3333 1981,-370.1667 1981,-370.1667 1981,-377.8333 1981,-377.8333 1981,-381.6667 1977.1667,-385.5 1973.3333,-385.5 1973.3333,-385.5 1887.6667,-385.5 1887.6667,-385.5 1883.8333,-385.5 1880,-381.6667 1880,-377.8333 1880,-377.8333 1880,-370.1667 1880,-370.1667 1880,-366.3333 1883.8333,-362.5 1887.6667,-362.5"/>
<path fill="none" stroke="#000000" d="M1887.6667,-362.5C1887.6667,-362.5 1973.3333,-362.5 1973.3333,-362.5 1977.1667,-362.5 1981,-366.3333 1981,-370.1667 1981,-370.1667 1981,-377.8333 1981,-377.8333 1981,-381.6667 1977.1667,-385.5 1973.3333,-385.5 1973.3333,-385.5 1887.6667,-385.5 1887.6667,-385.5 1883.8333,-385.5 1880,-381.6667 1880,-377.8333 1880,-377.8333 1880,-370.1667 1880,-370.1667 1880,-366.3333 1883.8333,-362.5 1887.6667,-362.5"/>
<text text-anchor="start" x="1901.5" y="-370.3" font-family="Times,serif" font-size="14.00" fill="#000000">create perf</text>
<text text-anchor="start" x="1894" y="-344.3" font-family="Times,serif" font-size="14.00" fill="#000000">set perf stype</text>
<text text-anchor="start" x="1885" y="-319.3" font-family="Times,serif" font-size="14.00" fill="#000000">send (CREATE)</text>
<polygon fill="none" stroke="#000000" points="1874.5,-308 1874.5,-391 1985.5,-391 1985.5,-308 1874.5,-308"/>
</g>
<!-- s_connected&#45;&gt;m_connected_create_perf -->
<g id="edge11" class="edge">
<title>s_connected&#45;&gt;m_connected_create_perf</title>
<path fill="none" stroke="#000000" d="M1657.8955,-607.2717C1705.6926,-571.0845 1787.5893,-508.6517 1849,-445 1861.2927,-432.2587 1873.3841,-417.4106 1884.3771,-403.2726"/>
<polygon fill="#000000" stroke="#000000" points="1887.3814,-405.1081 1890.7159,-395.0516 1881.8379,-400.8337 1887.3814,-405.1081"/>
</g>
<!-- s_connected&#45;&gt;m_connected_create_perf -->
<g id="edge12" class="edge">
<title>s_connected&#45;&gt;m_connected_create_perf</title>
<path fill="none" stroke="#000000" d="M1670.7731,-607.4495C1723.4239,-571.2893 1805.4886,-508.7561 1867,-445 1881.7053,-429.7581 1896.1224,-411.5012 1907.5773,-395.0516"/>
<polygon fill="#000000" stroke="#000000" points="1668.5617,-604.7207 1662.262,-613.2391 1672.4989,-610.5086 1668.5617,-604.7207"/>
</g>
<!-- m_connected_request_lookup -->
<g id="node10" class="node">
<title>m_connected_request_lookup</title>
<polygon fill="#ffffff" stroke="transparent" points="1419.5,-308 1419.5,-391 1532.5,-391 1532.5,-308 1419.5,-308"/>
<path fill="#e5e5e5" stroke="transparent" d="M1432.6667,-362.5C1432.6667,-362.5 1520.3333,-362.5 1520.3333,-362.5 1524.1667,-362.5 1528,-366.3333 1528,-370.1667 1528,-370.1667 1528,-377.8333 1528,-377.8333 1528,-381.6667 1524.1667,-385.5 1520.3333,-385.5 1520.3333,-385.5 1432.6667,-385.5 1432.6667,-385.5 1428.8333,-385.5 1425,-381.6667 1425,-377.8333 1425,-377.8333 1425,-370.1667 1425,-370.1667 1425,-366.3333 1428.8333,-362.5 1432.6667,-362.5"/>
<path fill="none" stroke="#000000" d="M1432.6667,-362.5C1432.6667,-362.5 1520.3333,-362.5 1520.3333,-362.5 1524.1667,-362.5 1528,-366.3333 1528,-370.1667 1528,-370.1667 1528,-377.8333 1528,-377.8333 1528,-381.6667 1524.1667,-385.5 1520.3333,-385.5 1520.3333,-385.5 1432.6667,-385.5 1432.6667,-385.5 1428.8333,-385.5 1425,-381.6667 1425,-377.8333 1425,-377.8333 1425,-370.1667 1425,-370.1667 1425,-366.3333 1428.8333,-362.5 1432.6667,-362.5"/>
<text text-anchor="start" x="1436" y="-370.3" font-family="Times,serif" font-size="14.00" fill="#000000">request lookup</text>
<text text-anchor="start" x="1440.5" y="-344.3" font-family="Times,serif" font-size="14.00" fill="#000000">set perf ident</text>
<text text-anchor="start" x="1430" y="-319.3" font-family="Times,serif" font-size="14.00" fill="#000000">send (LOOKUP)</text>
<polygon fill="none" stroke="#000000" points="1419.5,-308 1419.5,-391 1532.5,-391 1532.5,-308 1419.5,-308"/>
</g>
<!-- s_connected&#45;&gt;m_connected_request_lookup -->
<g id="edge14" class="edge">
<title>s_connected&#45;&gt;m_connected_request_lookup</title>
<path fill="none" stroke="#000000" d="M1592.7769,-595.9715C1565.414,-545.0486 1523.3305,-460.1632 1497.7416,-404.5095"/>
<polygon fill="#000000" stroke="#000000" points="1500.8088,-402.8 1493.4722,-395.1563 1494.4408,-405.7068 1500.8088,-402.8"/>
</g>
<!-- s_connected&#45;&gt;m_connected_request_lookup -->
<g id="edge15" class="edge">
<title>s_connected&#45;&gt;m_connected_request_lookup</title>
<path fill="none" stroke="#000000" d="M1596.787,-582.9662C1571.6196,-528.3082 1530.9255,-446.1796 1503.7151,-395.3116"/>
<polygon fill="#000000" stroke="#000000" points="1593.6518,-584.5263 1600.9934,-592.1651 1600.0178,-581.6152 1593.6518,-584.5263"/>
</g>
<!-- m_connected_perf_ok -->
<g id="node11" class="node">
<title>m_connected_perf_ok</title>
<polygon fill="#ffffff" stroke="transparent" points="2019.5,-295.5 2019.5,-403.5 2138.5,-403.5 2138.5,-295.5 2019.5,-295.5"/>
<path fill="#4d4d4d" stroke="transparent" d="M2032.6667,-375.5C2032.6667,-375.5 2126.3333,-375.5 2126.3333,-375.5 2130.1667,-375.5 2134,-379.3333 2134,-383.1667 2134,-383.1667 2134,-390.8333 2134,-390.8333 2134,-394.6667 2130.1667,-398.5 2126.3333,-398.5 2126.3333,-398.5 2032.6667,-398.5 2032.6667,-398.5 2028.8333,-398.5 2025,-394.6667 2025,-390.8333 2025,-390.8333 2025,-383.1667 2025,-383.1667 2025,-379.3333 2028.8333,-375.5 2032.6667,-375.5"/>
<path fill="none" stroke="#000000" d="M2032.6667,-375.5C2032.6667,-375.5 2126.3333,-375.5 2126.3333,-375.5 2130.1667,-375.5 2134,-379.3333 2134,-383.1667 2134,-383.1667 2134,-390.8333 2134,-390.8333 2134,-394.6667 2130.1667,-398.5 2126.3333,-398.5 2126.3333,-398.5 2032.6667,-398.5 2032.6667,-398.5 2028.8333,-398.5 2025,-394.6667 2025,-390.8333 2025,-390.8333 2025,-383.1667 2025,-383.1667 2025,-379.3333 2028.8333,-375.5 2032.6667,-375.5"/>
<text text-anchor="start" x="2051.5" y="-383.3" font-family="Times,serif" font-size="14.00" fill="#ffffff">PERF OK</text>
<polygon fill="#c0c0c0" stroke="transparent" points="2025,-350.5 2025,-371.5 2059,-371.5 2059,-350.5 2025,-350.5"/>
<text text-anchor="start" x="2028" y="-357.3" font-family="Times,serif" font-size="14.00" fill="#000000">ident</text>
<polygon fill="#c0c0c0" stroke="transparent" points="2063,-350.5 2063,-371.5 2134,-371.5 2134,-350.5 2063,-350.5"/>
<text text-anchor="start" x="2066" y="-357.3" font-family="Times,serif" font-size="14.00" fill="#000000">[number*8]</text>
<text text-anchor="start" x="2038.5" y="-332.3" font-family="Times,serif" font-size="14.00" fill="#000000">remember perf</text>
<text text-anchor="start" x="2040" y="-307.3" font-family="Times,serif" font-size="14.00" fill="#000000">signal got perf</text>
<polygon fill="none" stroke="#000000" points="2019.5,-295.5 2019.5,-403.5 2138.5,-403.5 2138.5,-295.5 2019.5,-295.5"/>
</g>
<!-- s_connected&#45;&gt;m_connected_perf_ok -->
<g id="edge17" class="edge">
<title>s_connected&#45;&gt;m_connected_perf_ok</title>
<path fill="none" stroke="#000000" d="M1659.4089,-608.9106C1708.0866,-573.8914 1793.4,-516.3604 1874,-481 1928.5091,-457.0861 1953.3866,-477.888 2003,-445 2015.0538,-437.0097 2026.0823,-426.492 2035.7755,-415.3626"/>
<polygon fill="#000000" stroke="#000000" points="2038.5477,-417.5032 2042.2689,-407.5833 2033.1738,-413.0175 2038.5477,-417.5032"/>
</g>
<!-- m_connected_request_info -->
<g id="node12" class="node">
<title>m_connected_request_info</title>
<polygon fill="#ffffff" stroke="transparent" points="1567,-308 1567,-391 1671,-391 1671,-308 1567,-308"/>
<path fill="#e5e5e5" stroke="transparent" d="M1579.6667,-362.5C1579.6667,-362.5 1658.3333,-362.5 1658.3333,-362.5 1662.1667,-362.5 1666,-366.3333 1666,-370.1667 1666,-370.1667 1666,-377.8333 1666,-377.8333 1666,-381.6667 1662.1667,-385.5 1658.3333,-385.5 1658.3333,-385.5 1579.6667,-385.5 1579.6667,-385.5 1575.8333,-385.5 1572,-381.6667 1572,-377.8333 1572,-377.8333 1572,-370.1667 1572,-370.1667 1572,-366.3333 1575.8333,-362.5 1579.6667,-362.5"/>
<path fill="none" stroke="#000000" d="M1579.6667,-362.5C1579.6667,-362.5 1658.3333,-362.5 1658.3333,-362.5 1662.1667,-362.5 1666,-366.3333 1666,-370.1667 1666,-370.1667 1666,-377.8333 1666,-377.8333 1666,-381.6667 1662.1667,-385.5 1658.3333,-385.5 1658.3333,-385.5 1579.6667,-385.5 1579.6667,-385.5 1575.8333,-385.5 1572,-381.6667 1572,-377.8333 1572,-377.8333 1572,-370.1667 1572,-370.1667 1572,-366.3333 1575.8333,-362.5 1579.6667,-362.5"/>
<text text-anchor="start" x="1586.5" y="-370.3" font-family="Times,serif" font-size="14.00" fill="#000000">request info</text>
<text text-anchor="start" x="1577" y="-344.3" font-family="Times,serif" font-size="14.00" fill="#000000">set info request</text>
<text text-anchor="start" x="1584" y="-319.3" font-family="Times,serif" font-size="14.00" fill="#000000">send (INFO)</text>
<polygon fill="none" stroke="#000000" points="1567,-308 1567,-391 1671,-391 1671,-308 1567,-308"/>
</g>
<!-- s_connected&#45;&gt;m_connected_request_info -->
<g id="edge19" class="edge">
<title>s_connected&#45;&gt;m_connected_request_info</title>
<path fill="none" stroke="#000000" d="M1613.7455,-588.9035C1611.8233,-537.7742 1611.7541,-458.5876 1613.538,-405.4385"/>
<polygon fill="#000000" stroke="#000000" points="1617.0456,-405.295 1613.9194,-395.1719 1610.0504,-405.035 1617.0456,-405.295"/>
</g>
<!-- s_connected&#45;&gt;m_connected_request_info -->
<g id="edge20" class="edge">
<title>s_connected&#45;&gt;m_connected_request_info</title>
<path fill="none" stroke="#000000" d="M1624.6037,-578.6607C1626.2901,-524.0194 1626.1158,-444.7118 1624.0806,-395.1719"/>
<polygon fill="#000000" stroke="#000000" points="1621.0974,-578.79 1624.2545,-588.9035 1628.0933,-579.0286 1621.0974,-578.79"/>
</g>
<!-- m_connected_info_ok -->
<g id="node13" class="node">
<title>m_connected_info_ok</title>
<polygon fill="#ffffff" stroke="transparent" points="1705.5,-283 1705.5,-416 1840.5,-416 1840.5,-283 1705.5,-283"/>
<path fill="#4d4d4d" stroke="transparent" d="M1718.6667,-387.5C1718.6667,-387.5 1828.3333,-387.5 1828.3333,-387.5 1832.1667,-387.5 1836,-391.3333 1836,-395.1667 1836,-395.1667 1836,-402.8333 1836,-402.8333 1836,-406.6667 1832.1667,-410.5 1828.3333,-410.5 1828.3333,-410.5 1718.6667,-410.5 1718.6667,-410.5 1714.8333,-410.5 1711,-406.6667 1711,-402.8333 1711,-402.8333 1711,-395.1667 1711,-395.1667 1711,-391.3333 1714.8333,-387.5 1718.6667,-387.5"/>
<path fill="none" stroke="#000000" d="M1718.6667,-387.5C1718.6667,-387.5 1828.3333,-387.5 1828.3333,-387.5 1832.1667,-387.5 1836,-391.3333 1836,-395.1667 1836,-395.1667 1836,-402.8333 1836,-402.8333 1836,-406.6667 1832.1667,-410.5 1828.3333,-410.5 1828.3333,-410.5 1718.6667,-410.5 1718.6667,-410.5 1714.8333,-410.5 1711,-406.6667 1711,-402.8333 1711,-402.8333 1711,-395.1667 1711,-395.1667 1711,-391.3333 1714.8333,-387.5 1718.6667,-387.5"/>
<text text-anchor="start" x="1746" y="-395.3" font-family="Times,serif" font-size="14.00" fill="#ffffff">INFO OK</text>
<polygon fill="#c0c0c0" stroke="transparent" points="1711,-362.5 1711,-383.5 1761,-383.5 1761,-362.5 1711,-362.5"/>
<text text-anchor="start" x="1730" y="-369.3" font-family="Times,serif" font-size="14.00" fill="#000000">ident</text>
<polygon fill="#c0c0c0" stroke="transparent" points="1765,-362.5 1765,-383.5 1836,-383.5 1836,-362.5 1765,-362.5"/>
<text text-anchor="start" x="1768" y="-369.3" font-family="Times,serif" font-size="14.00" fill="#000000">[number*8]</text>
<polygon fill="#c0c0c0" stroke="transparent" points="1711,-337.5 1711,-358.5 1761,-358.5 1761,-337.5 1711,-337.5"/>
<text text-anchor="start" x="1714" y="-344.3" font-family="Times,serif" font-size="14.00" fill="#000000">perfinfo</text>
<polygon fill="#c0c0c0" stroke="transparent" points="1765,-337.5 1765,-358.5 1836,-358.5 1836,-337.5 1765,-337.5"/>
<text text-anchor="start" x="1768" y="-344.3" font-family="Times,serif" font-size="14.00" fill="#000000">[string]</text>
<text text-anchor="start" x="1732.5" y="-319.3" font-family="Times,serif" font-size="14.00" fill="#000000">remember info</text>
<text text-anchor="start" x="1734" y="-294.3" font-family="Times,serif" font-size="14.00" fill="#000000">signal got info</text>
<polygon fill="none" stroke="#000000" points="1705.5,-283 1705.5,-416 1840.5,-416 1840.5,-283 1705.5,-283"/>
</g>
<!-- s_connected&#45;&gt;m_connected_info_ok -->
<g id="edge22" class="edge">
<title>s_connected&#45;&gt;m_connected_info_ok</title>
<path fill="none" stroke="#000000" d="M1638.6279,-592.4868C1660.2411,-548.5188 1695.4802,-481.6546 1724.5058,-429.1895"/>
<polygon fill="#000000" stroke="#000000" points="1727.6828,-430.6776 1729.477,-420.2357 1721.5628,-427.2796 1727.6828,-430.6776"/>
</g>
<!-- s_connected&#45;&gt;m_connected_info_ok -->
<g id="edge23" class="edge">
<title>s_connected&#45;&gt;m_connected_info_ok</title>
<path fill="none" stroke="#000000" d="M1651.3067,-588.1949C1677.8078,-541.6223 1714.9376,-472.2077 1741.2736,-420.2227"/>
<polygon fill="#000000" stroke="#000000" points="1648.2517,-586.4868 1646.321,-596.9042 1654.3267,-589.9645 1648.2517,-586.4868"/>
</g>
<!-- s_have_perf -->
<g id="node4" class="node">
<title>s_have_perf</title>
<ellipse fill="none" stroke="#000000" cx="722" cy="-928.5" rx="44.3766" ry="44.3766"/>
<ellipse fill="none" stroke="#000000" cx="722" cy="-928.5" rx="48.393" ry="48.393"/>
<text text-anchor="middle" x="722" y="-924.8" font-family="Times,serif" font-size="14.00" fill="#000000">have perf</text>
</g>
<!-- s_have_perf&#45;&gt;s_connected -->
<g id="edge3" class="edge">
<title>s_have_perf&#45;&gt;s_connected</title>
<path fill="none" stroke="#000000" stroke-dasharray="5,2" d="M738.3992,-882.7078C747.4478,-864.1555 760.6516,-844.4455 779,-833 861.1104,-781.7808 1118.7058,-818.7747 1213,-797 1343.7458,-766.8079 1488.2638,-702.5801 1564.6719,-665.9917"/>
<polygon fill="none" stroke="#000000" points="1566.6045,-668.9458 1574.0956,-661.4535 1563.5673,-662.6389 1566.6045,-668.9458"/>
</g>
<!-- s_have_perf&#45;&gt;m_connected_perf_ok -->
<g id="edge18" class="edge">
<title>s_have_perf&#45;&gt;m_connected_perf_ok</title>
<path fill="none" stroke="#000000" d="M742.7176,-873.5454C751.4535,-857.7649 763.3222,-842.3203 779,-833 864.9309,-781.9151 1587.242,-838.914 1678,-797 1857.4711,-714.1164 1990.9675,-508.7331 2048.2128,-407.6229"/>
<polygon fill="#000000" stroke="#000000" points="739.4016,-872.3394 737.9308,-882.8317 745.6236,-875.5467 739.4016,-872.3394"/>
</g>
<!-- m_have_perf_request_borc -->
<g id="node14" class="node">
<title>m_have_perf_request_borc</title>
<polygon fill="#ffffff" stroke="transparent" points="263.5,-597.5 263.5,-680.5 380.5,-680.5 380.5,-597.5 263.5,-597.5"/>
<path fill="#e5e5e5" stroke="transparent" d="M276.6667,-652C276.6667,-652 368.3333,-652 368.3333,-652 372.1667,-652 376,-655.8333 376,-659.6667 376,-659.6667 376,-667.3333 376,-667.3333 376,-671.1667 372.1667,-675 368.3333,-675 368.3333,-675 276.6667,-675 276.6667,-675 272.8333,-675 269,-671.1667 269,-667.3333 269,-667.3333 269,-659.6667 269,-659.6667 269,-655.8333 272.8333,-652 276.6667,-652"/>
<path fill="none" stroke="#000000" d="M276.6667,-652C276.6667,-652 368.3333,-652 368.3333,-652 372.1667,-652 376,-655.8333 376,-659.6667 376,-659.6667 376,-667.3333 376,-667.3333 376,-671.1667 372.1667,-675 368.3333,-675 368.3333,-675 276.6667,-675 276.6667,-675 272.8333,-675 269,-671.1667 269,-667.3333 269,-667.3333 269,-659.6667 269,-659.6667 269,-655.8333 272.8333,-652 276.6667,-652"/>
<text text-anchor="start" x="289" y="-659.8" font-family="Times,serif" font-size="14.00" fill="#000000">request borc</text>
<text text-anchor="start" x="274" y="-633.8" font-family="Times,serif" font-size="14.00" fill="#000000">set socket request</text>
<text text-anchor="start" x="277" y="-608.8" font-family="Times,serif" font-size="14.00" fill="#000000">send (SOCKET)</text>
<polygon fill="none" stroke="#000000" points="263.5,-597.5 263.5,-680.5 380.5,-680.5 380.5,-597.5 263.5,-597.5"/>
</g>
<!-- s_have_perf&#45;&gt;m_have_perf_request_borc -->
<g id="edge24" class="edge">
<title>s_have_perf&#45;&gt;m_have_perf_request_borc</title>
<path fill="none" stroke="#000000" d="M675.3854,-915.9136C615.2474,-896.8288 510.0058,-856.3906 436,-797 399.9128,-768.0396 368.1002,-726.4808 347.1381,-693.2538"/>
<polygon fill="#000000" stroke="#000000" points="350.0079,-691.2392 341.7831,-684.5606 344.048,-694.9106 350.0079,-691.2392"/>
</g>
<!-- s_have_perf&#45;&gt;m_have_perf_request_borc -->
<g id="edge25" class="edge">
<title>s_have_perf&#45;&gt;m_have_perf_request_borc</title>
<path fill="none" stroke="#000000" d="M666.8788,-908.5325C609.5872,-887.3328 519.5432,-849.5993 454,-797 414.688,-765.4516 380.4487,-718.9527 356.5123,-684.5606"/>
<polygon fill="#000000" stroke="#000000" points="665.8883,-911.8969 676.4821,-912.0455 668.2932,-905.323 665.8883,-911.8969"/>
</g>
<!-- m_have_perf_socket_ok -->
<g id="node15" class="node">
<title>m_have_perf_socket_ok</title>
<polygon fill="#ffffff" stroke="transparent" points="652.5,-560 652.5,-718 791.5,-718 791.5,-560 652.5,-560"/>
<path fill="#4d4d4d" stroke="transparent" d="M665.6667,-690C665.6667,-690 779.3333,-690 779.3333,-690 783.1667,-690 787,-693.8333 787,-697.6667 787,-697.6667 787,-705.3333 787,-705.3333 787,-709.1667 783.1667,-713 779.3333,-713 779.3333,-713 665.6667,-713 665.6667,-713 661.8333,-713 658,-709.1667 658,-705.3333 658,-705.3333 658,-697.6667 658,-697.6667 658,-693.8333 661.8333,-690 665.6667,-690"/>
<path fill="none" stroke="#000000" d="M665.6667,-690C665.6667,-690 779.3333,-690 779.3333,-690 783.1667,-690 787,-693.8333 787,-697.6667 787,-697.6667 787,-705.3333 787,-705.3333 787,-709.1667 783.1667,-713 779.3333,-713 779.3333,-713 665.6667,-713 665.6667,-713 661.8333,-713 658,-709.1667 658,-705.3333 658,-705.3333 658,-697.6667 658,-697.6667 658,-693.8333 661.8333,-690 665.6667,-690"/>
<text text-anchor="start" x="684.5" y="-697.8" font-family="Times,serif" font-size="14.00" fill="#ffffff">SOCKET OK</text>
<polygon fill="#c0c0c0" stroke="transparent" points="658,-665 658,-686 712,-686 712,-665 658,-665"/>
<text text-anchor="start" x="681" y="-671.8" font-family="Times,serif" font-size="14.00" fill="#000000">ident</text>
<polygon fill="#c0c0c0" stroke="transparent" points="716,-665 716,-686 787,-686 787,-665 716,-665"/>
<text text-anchor="start" x="719" y="-671.8" font-family="Times,serif" font-size="14.00" fill="#000000">[number*8]</text>
<polygon fill="#c0c0c0" stroke="transparent" points="658,-640 658,-661 712,-661 712,-640 658,-640"/>
<text text-anchor="start" x="684" y="-646.8" font-family="Times,serif" font-size="14.00" fill="#000000">borc</text>
<polygon fill="#c0c0c0" stroke="transparent" points="716,-640 716,-661 787,-661 787,-640 716,-640"/>
<text text-anchor="start" x="719" y="-646.8" font-family="Times,serif" font-size="14.00" fill="#000000">[string]</text>
<polygon fill="#c0c0c0" stroke="transparent" points="658,-615 658,-636 712,-636 712,-615 658,-615"/>
<text text-anchor="start" x="661" y="-621.8" font-family="Times,serif" font-size="14.00" fill="#000000">endpoint</text>
<polygon fill="#c0c0c0" stroke="transparent" points="716,-615 716,-636 787,-636 787,-615 716,-615"/>
<text text-anchor="start" x="719" y="-621.8" font-family="Times,serif" font-size="14.00" fill="#000000">[string]</text>
<text text-anchor="start" x="674" y="-596.8" font-family="Times,serif" font-size="14.00" fill="#000000">set socket request</text>
<text text-anchor="start" x="665.5" y="-571.8" font-family="Times,serif" font-size="14.00" fill="#000000">signal socket request</text>
<polygon fill="none" stroke="#000000" points="652.5,-560 652.5,-718 791.5,-718 791.5,-560 652.5,-560"/>
</g>
<!-- s_have_perf&#45;&gt;m_have_perf_socket_ok -->
<g id="edge27" class="edge">
<title>s_have_perf&#45;&gt;m_have_perf_socket_ok</title>
<path fill="none" stroke="#000000" d="M716.8209,-880.37C715.2479,-840.1328 714.8562,-781.5641 715.6459,-732.1975"/>
<polygon fill="#000000" stroke="#000000" points="719.1464,-732.1955 715.8259,-722.1344 712.1475,-732.0702 719.1464,-732.1955"/>
</g>
<!-- s_have_perf&#45;&gt;m_have_perf_socket_ok -->
<g id="edge28" class="edge">
<title>s_have_perf&#45;&gt;m_have_perf_socket_ok</title>
<path fill="none" stroke="#000000" d="M727.5398,-870.192C728.9031,-827.6914 729.1146,-769.5016 728.1741,-722.1344"/>
<polygon fill="#000000" stroke="#000000" points="724.0356,-870.2523 727.1791,-880.37 731.0312,-870.5003 724.0356,-870.2523"/>
</g>
<!-- m_have_perf_request_measure -->
<g id="node16" class="node">
<title>m_have_perf_request_measure</title>
<polygon fill="#ffffff" stroke="transparent" points="462,-597.5 462,-680.5 618,-680.5 618,-597.5 462,-597.5"/>
<path fill="#e5e5e5" stroke="transparent" d="M474.6667,-652C474.6667,-652 605.3333,-652 605.3333,-652 609.1667,-652 613,-655.8333 613,-659.6667 613,-659.6667 613,-667.3333 613,-667.3333 613,-671.1667 609.1667,-675 605.3333,-675 605.3333,-675 474.6667,-675 474.6667,-675 470.8333,-675 467,-671.1667 467,-667.3333 467,-667.3333 467,-659.6667 467,-659.6667 467,-655.8333 470.8333,-652 474.6667,-652"/>
<path fill="none" stroke="#000000" d="M474.6667,-652C474.6667,-652 605.3333,-652 605.3333,-652 609.1667,-652 613,-655.8333 613,-659.6667 613,-659.6667 613,-667.3333 613,-667.3333 613,-671.1667 609.1667,-675 605.3333,-675 605.3333,-675 474.6667,-675 474.6667,-675 470.8333,-675 467,-671.1667 467,-667.3333 467,-667.3333 467,-659.6667 467,-659.6667 467,-655.8333 470.8333,-652 474.6667,-652"/>
<text text-anchor="start" x="495.5" y="-659.8" font-family="Times,serif" font-size="14.00" fill="#000000">request measure</text>
<text text-anchor="start" x="472" y="-633.8" font-family="Times,serif" font-size="14.00" fill="#000000">set measurement request</text>
<text text-anchor="start" x="488.5" y="-608.8" font-family="Times,serif" font-size="14.00" fill="#000000">send (MEASURE)</text>
<polygon fill="none" stroke="#000000" points="462,-597.5 462,-680.5 618,-680.5 618,-597.5 462,-597.5"/>
</g>
<!-- s_have_perf&#45;&gt;m_have_perf_request_measure -->
<g id="edge29" class="edge">
<title>s_have_perf&#45;&gt;m_have_perf_request_measure</title>
<path fill="none" stroke="#000000" d="M690.2501,-892.1484C671.3502,-865.8631 647.4422,-829.4197 627,-797 605.4196,-762.7754 581.8152,-723.9461 564.4871,-693.3452"/>
<polygon fill="#000000" stroke="#000000" points="567.4911,-691.5462 559.5471,-684.536 561.3856,-694.9701 567.4911,-691.5462"/>
</g>
<!-- s_have_perf&#45;&gt;m_have_perf_request_measure -->
<g id="edge30" class="edge">
<title>s_have_perf&#45;&gt;m_have_perf_request_measure</title>
<path fill="none" stroke="#000000" d="M695.4887,-876.2863C680.4548,-852.2589 661.5866,-823.3049 645,-797 621.2894,-759.397 595.1354,-716.2353 574.6967,-684.536"/>
<polygon fill="#000000" stroke="#000000" points="692.5916,-878.2554 700.8427,-884.9015 698.537,-874.5606 692.5916,-878.2554"/>
</g>
<!-- m_have_perf_result -->
<g id="node17" class="node">
<title>m_have_perf_result</title>
<polygon fill="#ffffff" stroke="transparent" points="1058.5,-485 1058.5,-793 1195.5,-793 1195.5,-485 1058.5,-485"/>
<path fill="#4d4d4d" stroke="transparent" d="M1071.6667,-765C1071.6667,-765 1183.3333,-765 1183.3333,-765 1187.1667,-765 1191,-768.8333 1191,-772.6667 1191,-772.6667 1191,-780.3333 1191,-780.3333 1191,-784.1667 1187.1667,-788 1183.3333,-788 1183.3333,-788 1071.6667,-788 1071.6667,-788 1067.8333,-788 1064,-784.1667 1064,-780.3333 1064,-780.3333 1064,-772.6667 1064,-772.6667 1064,-768.8333 1067.8333,-765 1071.6667,-765"/>
<path fill="none" stroke="#000000" d="M1071.6667,-765C1071.6667,-765 1183.3333,-765 1183.3333,-765 1187.1667,-765 1191,-768.8333 1191,-772.6667 1191,-772.6667 1191,-780.3333 1191,-780.3333 1191,-784.1667 1187.1667,-788 1183.3333,-788 1183.3333,-788 1071.6667,-788 1071.6667,-788 1067.8333,-788 1064,-784.1667 1064,-780.3333 1064,-780.3333 1064,-772.6667 1064,-772.6667 1064,-768.8333 1067.8333,-765 1071.6667,-765"/>
<text text-anchor="start" x="1101.5" y="-772.8" font-family="Times,serif" font-size="14.00" fill="#ffffff">RESULT</text>
<polygon fill="#c0c0c0" stroke="transparent" points="1064,-740 1064,-761 1116,-761 1116,-740 1064,-740"/>
<text text-anchor="start" x="1085" y="-746.8" font-family="Times,serif" font-size="14.00" fill="#000000">ident</text>
<polygon fill="#c0c0c0" stroke="transparent" points="1120,-740 1120,-761 1191,-761 1191,-740 1120,-740"/>
<text text-anchor="start" x="1123" y="-746.8" font-family="Times,serif" font-size="14.00" fill="#000000">[number*8]</text>
<polygon fill="#c0c0c0" stroke="transparent" points="1064,-715 1064,-736 1116,-736 1116,-715 1064,-715"/>
<text text-anchor="start" x="1067" y="-721.8" font-family="Times,serif" font-size="14.00" fill="#000000">measure</text>
<polygon fill="#c0c0c0" stroke="transparent" points="1120,-715 1120,-736 1191,-736 1191,-715 1120,-715"/>
<text text-anchor="start" x="1123" y="-721.8" font-family="Times,serif" font-size="14.00" fill="#000000">[string]</text>
<polygon fill="#c0c0c0" stroke="transparent" points="1064,-690 1064,-711 1116,-711 1116,-690 1064,-690"/>
<text text-anchor="start" x="1077" y="-696.8" font-family="Times,serif" font-size="14.00" fill="#000000">nmsgs</text>
<polygon fill="#c0c0c0" stroke="transparent" points="1120,-690 1120,-711 1191,-711 1191,-690 1120,-690"/>
<text text-anchor="start" x="1123" y="-696.8" font-family="Times,serif" font-size="14.00" fill="#000000">[number*4]</text>
<polygon fill="#c0c0c0" stroke="transparent" points="1064,-665 1064,-686 1116,-686 1116,-665 1064,-665"/>
<text text-anchor="start" x="1068" y="-671.8" font-family="Times,serif" font-size="14.00" fill="#000000">msgsize</text>
<polygon fill="#c0c0c0" stroke="transparent" points="1120,-665 1120,-686 1191,-686 1191,-665 1120,-665"/>
<text text-anchor="start" x="1123" y="-671.8" font-family="Times,serif" font-size="14.00" fill="#000000">[number*8]</text>
<polygon fill="#c0c0c0" stroke="transparent" points="1064,-640 1064,-661 1116,-661 1116,-640 1064,-640"/>
<text text-anchor="start" x="1070" y="-646.8" font-family="Times,serif" font-size="14.00" fill="#000000">timeout</text>
<polygon fill="#c0c0c0" stroke="transparent" points="1120,-640 1120,-661 1191,-661 1191,-640 1120,-640"/>
<text text-anchor="start" x="1123" y="-646.8" font-family="Times,serif" font-size="14.00" fill="#000000">[number*4]</text>
<polygon fill="#c0c0c0" stroke="transparent" points="1064,-615 1064,-636 1116,-636 1116,-615 1064,-615"/>
<text text-anchor="start" x="1069" y="-621.8" font-family="Times,serif" font-size="14.00" fill="#000000">time_us</text>
<polygon fill="#c0c0c0" stroke="transparent" points="1120,-615 1120,-636 1191,-636 1191,-615 1120,-615"/>
<text text-anchor="start" x="1123" y="-621.8" font-family="Times,serif" font-size="14.00" fill="#000000">[number*8]</text>
<polygon fill="#c0c0c0" stroke="transparent" points="1064,-590 1064,-611 1116,-611 1116,-590 1064,-590"/>
<text text-anchor="start" x="1074" y="-596.8" font-family="Times,serif" font-size="14.00" fill="#000000">cpu_us</text>
<polygon fill="#c0c0c0" stroke="transparent" points="1120,-590 1120,-611 1191,-611 1191,-590 1120,-590"/>
<text text-anchor="start" x="1123" y="-596.8" font-family="Times,serif" font-size="14.00" fill="#000000">[number*8]</text>
<polygon fill="#c0c0c0" stroke="transparent" points="1064,-565 1064,-586 1116,-586 1116,-565 1064,-565"/>
<text text-anchor="start" x="1087" y="-571.8" font-family="Times,serif" font-size="14.00" fill="#000000">noos</text>
<polygon fill="#c0c0c0" stroke="transparent" points="1120,-565 1120,-586 1191,-586 1191,-565 1120,-565"/>
<text text-anchor="start" x="1123" y="-571.8" font-family="Times,serif" font-size="14.00" fill="#000000">[number*4]</text>
<polygon fill="#c0c0c0" stroke="transparent" points="1064,-540 1064,-561 1116,-561 1116,-540 1064,-540"/>
<text text-anchor="start" x="1077" y="-546.8" font-family="Times,serif" font-size="14.00" fill="#000000">nbytes</text>
<polygon fill="#c0c0c0" stroke="transparent" points="1120,-540 1120,-561 1191,-561 1191,-540 1120,-540"/>
<text text-anchor="start" x="1123" y="-546.8" font-family="Times,serif" font-size="14.00" fill="#000000">[number*8]</text>
<text text-anchor="start" x="1100" y="-521.8" font-family="Times,serif" font-size="14.00" fill="#000000">set results</text>
<text text-anchor="start" x="1091.5" y="-496.8" font-family="Times,serif" font-size="14.00" fill="#000000">signal results</text>
<polygon fill="none" stroke="#000000" points="1058.5,-485 1058.5,-793 1195.5,-793 1195.5,-485 1058.5,-485"/>
</g>
<!-- s_have_perf&#45;&gt;m_have_perf_result -->
<g id="edge32" class="edge">
<title>s_have_perf&#45;&gt;m_have_perf_result</title>
<path fill="none" stroke="#000000" d="M731.3615,-881.1846C739.7447,-863.2985 752.6071,-844.5041 770,-833 868.4019,-767.9148 936.072,-864.2604 1033,-797 1036.3587,-794.6693 1039.5965,-792.1623 1042.7181,-789.5031"/>
<polygon fill="#000000" stroke="#000000" points="1045.2434,-791.9359 1050.2409,-782.5937 1040.5083,-786.7805 1045.2434,-791.9359"/>
</g>
<!-- s_have_perf&#45;&gt;m_have_perf_result -->
<g id="edge33" class="edge">
<title>s_have_perf&#45;&gt;m_have_perf_result</title>
<path fill="none" stroke="#000000" d="M750.3495,-876.9798C759.7821,-860.4064 771.9659,-843.6053 788,-833 886.4019,-767.9148 954.072,-864.2604 1051,-797 1051.128,-796.9112 1051.2557,-796.8222 1051.3833,-796.7329"/>
<polygon fill="#000000" stroke="#000000" points="747.0809,-875.6648 745.3852,-886.1231 753.2326,-879.0049 747.0809,-875.6648"/>
</g>
<!-- m_defaults_destructor -->
<g id="node18" class="node">
<title>m_defaults_destructor</title>
<polygon fill="#ffffff" stroke="transparent" points="843,-118.5 843,-176.5 967,-176.5 967,-118.5 843,-118.5"/>
<path fill="#e5e5e5" stroke="transparent" d="M855.6667,-148.5C855.6667,-148.5 954.3333,-148.5 954.3333,-148.5 958.1667,-148.5 962,-152.3333 962,-156.1667 962,-156.1667 962,-163.8333 962,-163.8333 962,-167.6667 958.1667,-171.5 954.3333,-171.5 954.3333,-171.5 855.6667,-171.5 855.6667,-171.5 851.8333,-171.5 848,-167.6667 848,-163.8333 848,-163.8333 848,-156.1667 848,-156.1667 848,-152.3333 851.8333,-148.5 855.6667,-148.5"/>
<path fill="none" stroke="#000000" d="M855.6667,-148.5C855.6667,-148.5 954.3333,-148.5 954.3333,-148.5 958.1667,-148.5 962,-152.3333 962,-156.1667 962,-156.1667 962,-163.8333 962,-163.8333 962,-167.6667 958.1667,-171.5 954.3333,-171.5 954.3333,-171.5 855.6667,-171.5 855.6667,-171.5 851.8333,-171.5 848,-167.6667 848,-163.8333 848,-163.8333 848,-156.1667 848,-156.1667 848,-152.3333 851.8333,-148.5 855.6667,-148.5"/>
<text text-anchor="start" x="877.5" y="-156.3" font-family="Times,serif" font-size="14.00" fill="#000000">destructor</text>
<text text-anchor="start" x="853" y="-130.3" font-family="Times,serif" font-size="14.00" fill="#000000">send (GOODBYE)</text>
<polygon fill="none" stroke="#000000" points="843,-118.5 843,-176.5 967,-176.5 967,-118.5 843,-118.5"/>
</g>
<!-- s_defaults&#45;&gt;m_defaults_destructor -->
<g id="edge34" class="edge">
<title>s_defaults&#45;&gt;m_defaults_destructor</title>
<path fill="none" stroke="#000000" d="M1212.7742,-311.4327C1203.7827,-291.3155 1191.1292,-267.9626 1172,-254 1100.1085,-201.5254 1054.9629,-257.0886 975,-218 959.6824,-210.5122 945.0942,-199.196 933.1455,-187.8084"/>
<polygon fill="#000000" stroke="#000000" points="935.6149,-185.328 926.0639,-180.7423 930.6706,-190.2832 935.6149,-185.328"/>
</g>
<!-- s_defaults&#45;&gt;m_defaults_destructor -->
<g id="edge35" class="edge">
<title>s_defaults&#45;&gt;m_defaults_destructor</title>
<path fill="none" stroke="#000000" d="M1223.1527,-297.5831C1215.7954,-281.3343 1204.8486,-264.8382 1190,-254 1118.1085,-201.5254 1072.9629,-257.0886 993,-218 974.5033,-208.9582 957.0701,-194.3338 942.5566,-180.7423"/>
<polygon fill="#000000" stroke="#000000" points="1220.0209,-299.1693 1227.072,-307.077 1226.4912,-296.4981 1220.0209,-299.1693"/>
</g>
<!-- m_defaults_goodbye_ok -->
<g id="node19" class="node">
<title>m_defaults_goodbye_ok</title>
<polygon fill="#ffffff" stroke="transparent" points="1001,-106 1001,-189 1113,-189 1113,-106 1001,-106"/>
<path fill="#4d4d4d" stroke="transparent" d="M1013.6667,-160.5C1013.6667,-160.5 1100.3333,-160.5 1100.3333,-160.5 1104.1667,-160.5 1108,-164.3333 1108,-168.1667 1108,-168.1667 1108,-175.8333 1108,-175.8333 1108,-179.6667 1104.1667,-183.5 1100.3333,-183.5 1100.3333,-183.5 1013.6667,-183.5 1013.6667,-183.5 1009.8333,-183.5 1006,-179.6667 1006,-175.8333 1006,-175.8333 1006,-168.1667 1006,-168.1667 1006,-164.3333 1009.8333,-160.5 1013.6667,-160.5"/>
<path fill="none" stroke="#000000" d="M1013.6667,-160.5C1013.6667,-160.5 1100.3333,-160.5 1100.3333,-160.5 1104.1667,-160.5 1108,-164.3333 1108,-168.1667 1108,-168.1667 1108,-175.8333 1108,-175.8333 1108,-179.6667 1104.1667,-183.5 1100.3333,-183.5 1100.3333,-183.5 1013.6667,-183.5 1013.6667,-183.5 1009.8333,-183.5 1006,-179.6667 1006,-175.8333 1006,-175.8333 1006,-168.1667 1006,-168.1667 1006,-164.3333 1009.8333,-160.5 1013.6667,-160.5"/>
<text text-anchor="start" x="1012" y="-168.3" font-family="Times,serif" font-size="14.00" fill="#ffffff">GOODBYE OK</text>
<text text-anchor="start" x="1018.5" y="-142.3" font-family="Times,serif" font-size="14.00" fill="#000000">signal success</text>
<text text-anchor="start" x="1031" y="-117.3" font-family="Times,serif" font-size="14.00" fill="#000000">terminate</text>
<polygon fill="none" stroke="#000000" points="1001,-106 1001,-189 1113,-189 1113,-106 1001,-106"/>
</g>
<!-- s_defaults&#45;&gt;m_defaults_goodbye_ok -->
<g id="edge37" class="edge">
<title>s_defaults&#45;&gt;m_defaults_goodbye_ok</title>
<path fill="none" stroke="#000000" d="M1209.5667,-313.5051C1199.7895,-294.4976 1187.3444,-271.5433 1172,-254 1153.9722,-233.3887 1143.0736,-235.4852 1122,-218 1115.3258,-212.4622 1108.5027,-206.4693 1101.8936,-200.3968"/>
<polygon fill="#000000" stroke="#000000" points="1103.9497,-197.5277 1094.255,-193.2542 1099.1688,-202.6407 1103.9497,-197.5277"/>
</g>
<!-- s_defaults&#45;&gt;m_defaults_goodbye_ok -->
<g id="edge38" class="edge">
<title>s_defaults&#45;&gt;m_defaults_goodbye_ok</title>
<path fill="none" stroke="#000000" d="M1218.8065,-298.5323C1211.3326,-283.2715 1201.4773,-267.1221 1190,-254 1171.9722,-233.3887 1161.0736,-235.4852 1140,-218 1130.7141,-210.2953 1121.1401,-201.7095 1111.9177,-193.2542"/>
<polygon fill="#000000" stroke="#000000" points="1215.7619,-300.2863 1223.1456,-307.8844 1222.1117,-297.3401 1215.7619,-300.2863"/>
</g>
<!-- m_defaults_expired -->
<g id="node20" class="node">
<title>m_defaults_expired</title>
<polygon fill="#ffffff" stroke="transparent" points="1147.5,-106 1147.5,-189 1316.5,-189 1316.5,-106 1147.5,-106"/>
<path fill="#e5e5e5" stroke="transparent" d="M1160.6667,-160.5C1160.6667,-160.5 1304.3333,-160.5 1304.3333,-160.5 1308.1667,-160.5 1312,-164.3333 1312,-168.1667 1312,-168.1667 1312,-175.8333 1312,-175.8333 1312,-179.6667 1308.1667,-183.5 1304.3333,-183.5 1304.3333,-183.5 1160.6667,-183.5 1160.6667,-183.5 1156.8333,-183.5 1153,-179.6667 1153,-175.8333 1153,-175.8333 1153,-168.1667 1153,-168.1667 1153,-164.3333 1156.8333,-160.5 1160.6667,-160.5"/>
<path fill="none" stroke="#000000" d="M1160.6667,-160.5C1160.6667,-160.5 1304.3333,-160.5 1304.3333,-160.5 1308.1667,-160.5 1312,-164.3333 1312,-168.1667 1312,-168.1667 1312,-175.8333 1312,-175.8333 1312,-179.6667 1308.1667,-183.5 1304.3333,-183.5 1304.3333,-183.5 1160.6667,-183.5 1160.6667,-183.5 1156.8333,-183.5 1153,-179.6667 1153,-175.8333 1153,-175.8333 1153,-168.1667 1153,-168.1667 1153,-164.3333 1156.8333,-160.5 1160.6667,-160.5"/>
<text text-anchor="start" x="1212" y="-168.3" font-family="Times,serif" font-size="14.00" fill="#000000">expired</text>
<text text-anchor="start" x="1158" y="-142.3" font-family="Times,serif" font-size="14.00" fill="#000000">check if connection is dead</text>
<text text-anchor="start" x="1197.5" y="-117.3" font-family="Times,serif" font-size="14.00" fill="#000000">send (PING)</text>
<polygon fill="none" stroke="#000000" points="1147.5,-106 1147.5,-189 1316.5,-189 1316.5,-106 1147.5,-106"/>
</g>
<!-- s_defaults&#45;&gt;m_defaults_expired -->
<g id="edge39" class="edge">
<title>s_defaults&#45;&gt;m_defaults_expired</title>
<path fill="none" stroke="#000000" d="M1226.3855,-307.1542C1225.0645,-277.0894 1224.8961,-236.4135 1225.8804,-203.6437"/>
<polygon fill="#000000" stroke="#000000" points="1229.3901,-203.4212 1226.2404,-193.3054 1222.3944,-203.1774 1229.3901,-203.4212"/>
</g>
<!-- s_defaults&#45;&gt;m_defaults_expired -->
<g id="edge40" class="edge">
<title>s_defaults&#45;&gt;m_defaults_expired</title>
<path fill="none" stroke="#000000" d="M1238.0029,-297.0435C1239.0744,-264.8989 1238.9933,-224.1471 1237.7596,-193.3054"/>
<polygon fill="#000000" stroke="#000000" points="1234.501,-297.0272 1237.6145,-307.1542 1241.4959,-297.2959 1234.501,-297.0272"/>
</g>
<!-- m_defaults_ping_ok -->
<g id="node21" class="node">
<title>m_defaults_ping_ok</title>
<polygon fill="#ffffff" stroke="transparent" points="1351,-118.5 1351,-176.5 1473,-176.5 1473,-118.5 1351,-118.5"/>
<path fill="#4d4d4d" stroke="transparent" d="M1363.6667,-148.5C1363.6667,-148.5 1460.3333,-148.5 1460.3333,-148.5 1464.1667,-148.5 1468,-152.3333 1468,-156.1667 1468,-156.1667 1468,-163.8333 1468,-163.8333 1468,-167.6667 1464.1667,-171.5 1460.3333,-171.5 1460.3333,-171.5 1363.6667,-171.5 1363.6667,-171.5 1359.8333,-171.5 1356,-167.6667 1356,-163.8333 1356,-163.8333 1356,-156.1667 1356,-156.1667 1356,-152.3333 1359.8333,-148.5 1363.6667,-148.5"/>
<path fill="none" stroke="#000000" d="M1363.6667,-148.5C1363.6667,-148.5 1460.3333,-148.5 1460.3333,-148.5 1464.1667,-148.5 1468,-152.3333 1468,-156.1667 1468,-156.1667 1468,-163.8333 1468,-163.8333 1468,-167.6667 1464.1667,-171.5 1460.3333,-171.5 1460.3333,-171.5 1363.6667,-171.5 1363.6667,-171.5 1359.8333,-171.5 1356,-167.6667 1356,-163.8333 1356,-163.8333 1356,-156.1667 1356,-156.1667 1356,-152.3333 1359.8333,-148.5 1363.6667,-148.5"/>
<text text-anchor="start" x="1384.5" y="-156.3" font-family="Times,serif" font-size="14.00" fill="#ffffff">PING OK</text>
<text text-anchor="start" x="1361" y="-130.3" font-family="Times,serif" font-size="14.00" fill="#000000">client is connected</text>
<polygon fill="none" stroke="#000000" points="1351,-118.5 1351,-176.5 1473,-176.5 1473,-118.5 1351,-118.5"/>
</g>
<!-- s_defaults&#45;&gt;m_defaults_ping_ok -->
<g id="edge42" class="edge">
<title>s_defaults&#45;&gt;m_defaults_ping_ok</title>
<path fill="none" stroke="#000000" d="M1257.3176,-315.2335C1286.6654,-280.1345 1335.1749,-225.5737 1370.1218,-188.2751"/>
<polygon fill="#000000" stroke="#000000" points="1373.0513,-190.2697 1377.3615,-180.5912 1367.9565,-185.4694 1373.0513,-190.2697"/>
</g>
<!-- s_defaults&#45;&gt;m_defaults_ping_ok -->
<g id="edge43" class="edge">
<title>s_defaults&#45;&gt;m_defaults_ping_ok</title>
<path fill="none" stroke="#000000" d="M1270.4248,-312.4013C1305.9431,-274.6893 1357.4501,-216.8068 1387.6546,-180.6026"/>
<polygon fill="#000000" stroke="#000000" points="1267.4407,-310.4619 1263.1016,-320.1275 1272.5212,-315.2774 1267.4407,-310.4619"/>
</g>
<!-- m_defaults_error -->
<g id="node22" class="node">
<title>m_defaults_error</title>
<polygon fill="#ffffff" stroke="transparent" points="1507.5,-81 1507.5,-214 1634.5,-214 1634.5,-81 1507.5,-81"/>
<path fill="#4d4d4d" stroke="transparent" d="M1520.6667,-185.5C1520.6667,-185.5 1622.3333,-185.5 1622.3333,-185.5 1626.1667,-185.5 1630,-189.3333 1630,-193.1667 1630,-193.1667 1630,-200.8333 1630,-200.8333 1630,-204.6667 1626.1667,-208.5 1622.3333,-208.5 1622.3333,-208.5 1520.6667,-208.5 1520.6667,-208.5 1516.8333,-208.5 1513,-204.6667 1513,-200.8333 1513,-200.8333 1513,-193.1667 1513,-193.1667 1513,-189.3333 1516.8333,-185.5 1520.6667,-185.5"/>
<path fill="none" stroke="#000000" d="M1520.6667,-185.5C1520.6667,-185.5 1622.3333,-185.5 1622.3333,-185.5 1626.1667,-185.5 1630,-189.3333 1630,-193.1667 1630,-193.1667 1630,-200.8333 1630,-200.8333 1630,-204.6667 1626.1667,-208.5 1622.3333,-208.5 1622.3333,-208.5 1520.6667,-208.5 1520.6667,-208.5 1516.8333,-208.5 1513,-204.6667 1513,-200.8333 1513,-200.8333 1513,-193.1667 1513,-193.1667 1513,-189.3333 1516.8333,-185.5 1520.6667,-185.5"/>
<text text-anchor="start" x="1548.5" y="-193.3" font-family="Times,serif" font-size="14.00" fill="#ffffff">ERROR</text>
<polygon fill="#c0c0c0" stroke="transparent" points="1513,-160.5 1513,-181.5 1555,-181.5 1555,-160.5 1513,-160.5"/>
<text text-anchor="start" x="1521" y="-167.3" font-family="Times,serif" font-size="14.00" fill="#000000">status</text>
<polygon fill="#c0c0c0" stroke="transparent" points="1559,-160.5 1559,-181.5 1630,-181.5 1630,-160.5 1559,-160.5"/>
<text text-anchor="start" x="1562" y="-167.3" font-family="Times,serif" font-size="14.00" fill="#000000">[number*2]</text>
<polygon fill="#c0c0c0" stroke="transparent" points="1513,-135.5 1513,-156.5 1555,-156.5 1555,-135.5 1513,-135.5"/>
<text text-anchor="start" x="1516" y="-142.3" font-family="Times,serif" font-size="14.00" fill="#000000">reason</text>
<polygon fill="#c0c0c0" stroke="transparent" points="1559,-135.5 1559,-156.5 1630,-156.5 1630,-135.5 1559,-135.5"/>
<text text-anchor="start" x="1562" y="-142.3" font-family="Times,serif" font-size="14.00" fill="#000000">[string]</text>
<text text-anchor="start" x="1523.5" y="-117.3" font-family="Times,serif" font-size="14.00" fill="#000000">check status code</text>
<text text-anchor="start" x="1545.5" y="-92.3" font-family="Times,serif" font-size="14.00" fill="#000000">terminate</text>
<polygon fill="none" stroke="#000000" points="1507.5,-81 1507.5,-214 1634.5,-214 1634.5,-81 1507.5,-81"/>
</g>
<!-- s_defaults&#45;&gt;m_defaults_error -->
<g id="edge44" class="edge">
<title>s_defaults&#45;&gt;m_defaults_error</title>
<path fill="none" stroke="#000000" d="M1266.5069,-324.3539C1298.966,-304.2278 1348.8561,-275.8535 1394,-254 1431.6651,-235.7668 1445.4188,-240.0247 1481,-218 1484.3809,-215.9072 1487.7607,-213.6738 1491.1213,-211.3377"/>
<polygon fill="#000000" stroke="#000000" points="1493.3671,-214.0332 1499.4249,-205.341 1489.2688,-208.3583 1493.3671,-214.0332"/>
</g>
<!-- s_defaults&#45;&gt;m_defaults_error -->
<g id="edge45" class="edge">
<title>s_defaults&#45;&gt;m_defaults_error</title>
<path fill="none" stroke="#000000" d="M1278.7282,-325.6626C1314.781,-305.4723 1365.8686,-276.3315 1412,-254 1449.6651,-235.7668 1463.4188,-240.0247 1499,-218 1499.1585,-217.9019 1499.317,-217.8034 1499.4755,-217.7047"/>
<polygon fill="#000000" stroke="#000000" points="1276.9229,-322.662 1269.8983,-330.5933 1280.3357,-328.7737 1276.9229,-322.662"/>
</g>
<!-- m_defaults_exception -->
<g id="node23" class="node">
<title>m_defaults_exception</title>
<polygon fill="#ffffff" stroke="transparent" points="575,-131 575,-164 647,-164 647,-131 575,-131"/>
<path fill="#e5e5e5" stroke="transparent" d="M587.6667,-135.5C587.6667,-135.5 634.3333,-135.5 634.3333,-135.5 638.1667,-135.5 642,-139.3333 642,-143.1667 642,-143.1667 642,-150.8333 642,-150.8333 642,-154.6667 638.1667,-158.5 634.3333,-158.5 634.3333,-158.5 587.6667,-158.5 587.6667,-158.5 583.8333,-158.5 580,-154.6667 580,-150.8333 580,-150.8333 580,-143.1667 580,-143.1667 580,-139.3333 583.8333,-135.5 587.6667,-135.5"/>
<path fill="none" stroke="#000000" d="M587.6667,-135.5C587.6667,-135.5 634.3333,-135.5 634.3333,-135.5 638.1667,-135.5 642,-139.3333 642,-143.1667 642,-143.1667 642,-150.8333 642,-150.8333 642,-154.6667 638.1667,-158.5 634.3333,-158.5 634.3333,-158.5 587.6667,-158.5 587.6667,-158.5 583.8333,-158.5 580,-154.6667 580,-150.8333 580,-150.8333 580,-143.1667 580,-143.1667 580,-139.3333 583.8333,-135.5 587.6667,-135.5"/>
<text text-anchor="start" x="584.5" y="-143.3" font-family="Times,serif" font-size="14.00" fill="#000000">exception</text>
<polygon fill="none" stroke="#000000" points="575,-131 575,-164 647,-164 647,-131 575,-131"/>
</g>
<!-- s_defaults&#45;&gt;m_defaults_exception -->
<g id="edge46" class="edge">
<title>s_defaults&#45;&gt;m_defaults_exception</title>
<path fill="none" stroke="#000000" d="M1213.5608,-311.0781C1204.7415,-290.5848 1192.0334,-266.98 1172,-254 1075.3469,-191.377 756.1876,-272.9957 655,-218 638.4455,-209.0026 625.5605,-192.3671 617.6414,-177.5146"/>
<polygon fill="#000000" stroke="#000000" points="620.6235,-175.6358 613.1659,-168.1101 614.3027,-178.6438 620.6235,-175.6358"/>
</g>
<!-- s_defaults&#45;&gt;m_defaults_exception -->
<g id="edge47" class="edge">
<title>s_defaults&#45;&gt;m_defaults_exception</title>
<path fill="none" stroke="#000000" d="M1224.1878,-297.4556C1216.8893,-280.8525 1205.6918,-264.1669 1190,-254 1093.3469,-191.377 774.1876,-272.9957 673,-218 652.8193,-207.0317 638.0917,-184.7127 627.5449,-168.1101"/>
<polygon fill="#000000" stroke="#000000" points="1221.1004,-299.1651 1228.039,-307.1718 1227.6079,-296.5857 1221.1004,-299.1651"/>
</g>
<!-- m_defaults__ -->
<g id="node24" class="node">
<title>m_defaults__</title>
<polygon fill="#ffffff" stroke="transparent" points="681,-106 681,-189 809,-189 809,-106 681,-106"/>
<path fill="#e5e5e5" stroke="transparent" d="M693.6667,-160.5C693.6667,-160.5 796.3333,-160.5 796.3333,-160.5 800.1667,-160.5 804,-164.3333 804,-168.1667 804,-168.1667 804,-175.8333 804,-175.8333 804,-179.6667 800.1667,-183.5 796.3333,-183.5 796.3333,-183.5 693.6667,-183.5 693.6667,-183.5 689.8333,-183.5 686,-179.6667 686,-175.8333 686,-175.8333 686,-168.1667 686,-168.1667 686,-164.3333 689.8333,-160.5 693.6667,-160.5"/>
<path fill="none" stroke="#000000" d="M693.6667,-160.5C693.6667,-160.5 796.3333,-160.5 796.3333,-160.5 800.1667,-160.5 804,-164.3333 804,-168.1667 804,-168.1667 804,-175.8333 804,-175.8333 804,-179.6667 800.1667,-183.5 796.3333,-183.5 796.3333,-183.5 693.6667,-183.5 693.6667,-183.5 689.8333,-183.5 686,-179.6667 686,-175.8333 686,-175.8333 686,-168.1667 686,-168.1667 686,-164.3333 689.8333,-160.5 693.6667,-160.5"/>
<text text-anchor="start" x="741.5" y="-168.3" font-family="Times,serif" font-size="14.00" fill="#000000">*</text>
<text text-anchor="start" x="691" y="-142.3" font-family="Times,serif" font-size="14.00" fill="#000000">signal internal error</text>
<text text-anchor="start" x="719" y="-117.3" font-family="Times,serif" font-size="14.00" fill="#000000">terminate</text>
<polygon fill="none" stroke="#000000" points="681,-106 681,-189 809,-189 809,-106 681,-106"/>
</g>
<!-- s_defaults&#45;&gt;m_defaults__ -->
<g id="edge48" class="edge">
<title>s_defaults&#45;&gt;m_defaults__</title>
<path fill="none" stroke="#000000" d="M1213.4029,-311.3176C1204.5327,-290.9016 1191.8262,-267.2943 1172,-254 1040.2836,-165.6789 962.5297,-281.0153 817,-218 806.4144,-213.4164 796.214,-206.93 786.958,-199.7283"/>
<polygon fill="#000000" stroke="#000000" points="789.0265,-196.8978 779.0811,-193.2454 784.5781,-202.3026 789.0265,-196.8978"/>
</g>
<!-- s_defaults&#45;&gt;m_defaults__ -->
<g id="edge49" class="edge">
<title>s_defaults&#45;&gt;m_defaults__</title>
<path fill="none" stroke="#000000" d="M1223.8206,-297.3137C1216.5029,-280.8727 1205.399,-264.3256 1190,-254 1058.2836,-165.6789 980.5297,-281.0153 835,-218 821.3136,-212.0737 808.271,-202.9666 796.5318,-193.2454"/>
<polygon fill="#000000" stroke="#000000" points="1220.7126,-298.9657 1227.6954,-306.9339 1227.2057,-296.3504 1220.7126,-298.9657"/>
</g>
<!-- m_hello -->
<g id="node25" class="node">
<title>m_hello</title>
<polygon fill="#ffffff" stroke="transparent" points="421,-118.5 421,-176.5 541,-176.5 541,-118.5 421,-118.5"/>
<path fill="#4d4d4d" stroke="transparent" d="M433.6667,-148.5C433.6667,-148.5 528.3333,-148.5 528.3333,-148.5 532.1667,-148.5 536,-152.3333 536,-156.1667 536,-156.1667 536,-163.8333 536,-163.8333 536,-167.6667 532.1667,-171.5 528.3333,-171.5 528.3333,-171.5 433.6667,-171.5 433.6667,-171.5 429.8333,-171.5 426,-167.6667 426,-163.8333 426,-163.8333 426,-156.1667 426,-156.1667 426,-152.3333 429.8333,-148.5 433.6667,-148.5"/>
<path fill="none" stroke="#000000" d="M433.6667,-148.5C433.6667,-148.5 528.3333,-148.5 528.3333,-148.5 532.1667,-148.5 536,-152.3333 536,-156.1667 536,-156.1667 536,-163.8333 536,-163.8333 536,-167.6667 532.1667,-171.5 528.3333,-171.5 528.3333,-171.5 433.6667,-171.5 433.6667,-171.5 429.8333,-171.5 426,-167.6667 426,-163.8333 426,-163.8333 426,-156.1667 426,-156.1667 426,-152.3333 429.8333,-148.5 433.6667,-148.5"/>
<text text-anchor="start" x="458.5" y="-156.3" font-family="Times,serif" font-size="14.00" fill="#ffffff">HELLO</text>
<polygon fill="#c0c0c0" stroke="transparent" points="426,-123.5 426,-144.5 486,-144.5 486,-123.5 426,-123.5"/>
<text text-anchor="start" x="429" y="-130.3" font-family="Times,serif" font-size="14.00" fill="#000000">nickname</text>
<polygon fill="#c0c0c0" stroke="transparent" points="490,-123.5 490,-144.5 536,-144.5 536,-123.5 490,-123.5"/>
<text text-anchor="start" x="493" y="-130.3" font-family="Times,serif" font-size="14.00" fill="#000000">[string]</text>
<polygon fill="none" stroke="#000000" points="421,-118.5 421,-176.5 541,-176.5 541,-118.5 421,-118.5"/>
</g>
<!-- m_start_connect&#45;&gt;m_hello -->
<g id="edge6" class="edge">
<title>m_start_connect:hello&#45;&gt;m_hello</title>
<path fill="none" stroke="#000000" stroke-dasharray="1,5" d="M848,-297.5C826.3348,-297.5 843.6574,-266.5538 826,-254 728.051,-184.362 666.8644,-268.9117 558,-218 542.6361,-210.8149 528.2158,-199.4625 516.1021,-187.9496"/>
<polygon fill="#000000" stroke="#000000" points="508.8699,-180.7962 519.1441,-184.629 512.4247,-184.3123 515.9796,-187.8284 515.9796,-187.8284 515.9796,-187.8284 512.4247,-184.3123 512.8151,-191.0278 508.8699,-180.7962 508.8699,-180.7962"/>
</g>
<!-- m_create -->
<g id="node26" class="node">
<title>m_create</title>
<polygon fill="#ffffff" stroke="transparent" points="2132,-118.5 2132,-176.5 2252,-176.5 2252,-118.5 2132,-118.5"/>
<path fill="#4d4d4d" stroke="transparent" d="M2144.6667,-148.5C2144.6667,-148.5 2239.3333,-148.5 2239.3333,-148.5 2243.1667,-148.5 2247,-152.3333 2247,-156.1667 2247,-156.1667 2247,-163.8333 2247,-163.8333 2247,-167.6667 2243.1667,-171.5 2239.3333,-171.5 2239.3333,-171.5 2144.6667,-171.5 2144.6667,-171.5 2140.8333,-171.5 2137,-167.6667 2137,-163.8333 2137,-163.8333 2137,-156.1667 2137,-156.1667 2137,-152.3333 2140.8333,-148.5 2144.6667,-148.5"/>
<path fill="none" stroke="#000000" d="M2144.6667,-148.5C2144.6667,-148.5 2239.3333,-148.5 2239.3333,-148.5 2243.1667,-148.5 2247,-152.3333 2247,-156.1667 2247,-156.1667 2247,-163.8333 2247,-163.8333 2247,-167.6667 2243.1667,-171.5 2239.3333,-171.5 2239.3333,-171.5 2144.6667,-171.5 2144.6667,-171.5 2140.8333,-171.5 2137,-167.6667 2137,-163.8333 2137,-163.8333 2137,-156.1667 2137,-156.1667 2137,-152.3333 2140.8333,-148.5 2144.6667,-148.5"/>
<text text-anchor="start" x="2165.5" y="-156.3" font-family="Times,serif" font-size="14.00" fill="#ffffff">CREATE</text>
<polygon fill="#c0c0c0" stroke="transparent" points="2137,-123.5 2137,-144.5 2172,-144.5 2172,-123.5 2137,-123.5"/>
<text text-anchor="start" x="2140" y="-130.3" font-family="Times,serif" font-size="14.00" fill="#000000">stype</text>
<polygon fill="#c0c0c0" stroke="transparent" points="2176,-123.5 2176,-144.5 2247,-144.5 2247,-123.5 2176,-123.5"/>
<text text-anchor="start" x="2179" y="-130.3" font-family="Times,serif" font-size="14.00" fill="#000000">[number*4]</text>
<polygon fill="none" stroke="#000000" points="2132,-118.5 2132,-176.5 2252,-176.5 2252,-118.5 2132,-118.5"/>
</g>
<!-- m_connected_create_perf&#45;&gt;m_create -->
<g id="edge13" class="edge">
<title>m_connected_create_perf:create&#45;&gt;m_create</title>
<path fill="none" stroke="#000000" stroke-dasharray="1,5" d="M1981,-322.5C2012.9761,-322.5 1980.3922,-276.6132 2003,-254 2039.9674,-217.0238 2069.7866,-244.2597 2115,-218 2129.014,-209.8607 2142.632,-198.8067 2154.421,-187.8669"/>
<polygon fill="#000000" stroke="#000000" points="2161.8897,-180.7262 2157.7714,-190.8894 2158.2757,-184.1815 2154.6616,-187.6368 2154.6616,-187.6368 2154.6616,-187.6368 2158.2757,-184.1815 2151.5519,-184.3842 2161.8897,-180.7262 2161.8897,-180.7262"/>
</g>
<!-- f_create_perf -->
<g id="node33" class="node">
<title>f_create_perf</title>
<polygon fill="#ffffff" stroke="transparent" points="2000.5,-93.5 2000.5,-201.5 2097.5,-201.5 2097.5,-93.5 2000.5,-93.5"/>
<path fill="#e5e5e5" stroke="transparent" d="M2013.6667,-173.5C2013.6667,-173.5 2085.3333,-173.5 2085.3333,-173.5 2089.1667,-173.5 2093,-177.3333 2093,-181.1667 2093,-181.1667 2093,-188.8333 2093,-188.8333 2093,-192.6667 2089.1667,-196.5 2085.3333,-196.5 2085.3333,-196.5 2013.6667,-196.5 2013.6667,-196.5 2009.8333,-196.5 2006,-192.6667 2006,-188.8333 2006,-188.8333 2006,-181.1667 2006,-181.1667 2006,-177.3333 2009.8333,-173.5 2013.6667,-173.5"/>
<path fill="none" stroke="#0000ff" d="M2013.6667,-173.5C2013.6667,-173.5 2085.3333,-173.5 2085.3333,-173.5 2089.1667,-173.5 2093,-177.3333 2093,-181.1667 2093,-181.1667 2093,-188.8333 2093,-188.8333 2093,-192.6667 2089.1667,-196.5 2085.3333,-196.5 2085.3333,-196.5 2013.6667,-196.5 2013.6667,-196.5 2009.8333,-196.5 2006,-192.6667 2006,-188.8333 2006,-188.8333 2006,-181.1667 2006,-181.1667 2006,-177.3333 2009.8333,-173.5 2013.6667,-173.5"/>
<text text-anchor="start" x="2020.5" y="-181.3" font-family="Times,serif" font-size="14.00" fill="#0000ff">create perf</text>
<polygon fill="#c0c0c0" stroke="transparent" points="2006,-148.5 2006,-169.5 2042,-169.5 2042,-148.5 2006,-148.5"/>
<text text-anchor="start" x="2010" y="-155.3" font-family="Times,serif" font-size="14.00" fill="#000000">stype</text>
<polygon fill="#c0c0c0" stroke="transparent" points="2046,-148.5 2046,-169.5 2093,-169.5 2093,-148.5 2046,-148.5"/>
<text text-anchor="start" x="2049" y="-155.3" font-family="Times,serif" font-size="14.00" fill="#000000">[string]</text>
<polygon fill="#c0c0c0" stroke="transparent" points="2006,-123.5 2006,-144.5 2093,-144.5 2093,-123.5 2006,-123.5"/>
<text text-anchor="start" x="2011" y="-130.3" font-family="Times,serif" font-size="14.00" fill="#000000">PERF IDENT</text>
<polygon fill="#c0c0c0" stroke="transparent" points="2006,-98.5 2006,-119.5 2093,-119.5 2093,-98.5 2006,-98.5"/>
<text text-anchor="start" x="2020.5" y="-105.3" font-family="Times,serif" font-size="14.00" fill="#000000">FAILURE</text>
<polygon fill="none" stroke="#0000ff" points="2000.5,-93.5 2000.5,-201.5 2097.5,-201.5 2097.5,-93.5 2000.5,-93.5"/>
</g>
<!-- m_connected_create_perf&#45;&gt;f_create_perf -->
<g id="edge50" class="edge">
<title>m_connected_create_perf&#45;&gt;f_create_perf</title>
<path fill="none" stroke="#0000ff" d="M1962.0162,-295.1531C1978.3234,-267.472 1998.1604,-233.7991 2014.7705,-205.6039"/>
<polygon fill="#0000ff" stroke="#0000ff" points="1958.9145,-293.5228 1956.8543,-303.9154 1964.9458,-297.0759 1958.9145,-293.5228"/>
</g>
<!-- m_lookup -->
<g id="node27" class="node">
<title>m_lookup</title>
<polygon fill="#ffffff" stroke="transparent" points="1668.5,-118.5 1668.5,-176.5 1787.5,-176.5 1787.5,-118.5 1668.5,-118.5"/>
<path fill="#4d4d4d" stroke="transparent" d="M1681.6667,-148.5C1681.6667,-148.5 1775.3333,-148.5 1775.3333,-148.5 1779.1667,-148.5 1783,-152.3333 1783,-156.1667 1783,-156.1667 1783,-163.8333 1783,-163.8333 1783,-167.6667 1779.1667,-171.5 1775.3333,-171.5 1775.3333,-171.5 1681.6667,-171.5 1681.6667,-171.5 1677.8333,-171.5 1674,-167.6667 1674,-163.8333 1674,-163.8333 1674,-156.1667 1674,-156.1667 1674,-152.3333 1677.8333,-148.5 1681.6667,-148.5"/>
<path fill="none" stroke="#000000" d="M1681.6667,-148.5C1681.6667,-148.5 1775.3333,-148.5 1775.3333,-148.5 1779.1667,-148.5 1783,-152.3333 1783,-156.1667 1783,-156.1667 1783,-163.8333 1783,-163.8333 1783,-167.6667 1779.1667,-171.5 1775.3333,-171.5 1775.3333,-171.5 1681.6667,-171.5 1681.6667,-171.5 1677.8333,-171.5 1674,-167.6667 1674,-163.8333 1674,-163.8333 1674,-156.1667 1674,-156.1667 1674,-152.3333 1677.8333,-148.5 1681.6667,-148.5"/>
<text text-anchor="start" x="1701" y="-156.3" font-family="Times,serif" font-size="14.00" fill="#ffffff">LOOKUP</text>
<polygon fill="#c0c0c0" stroke="transparent" points="1674,-123.5 1674,-144.5 1708,-144.5 1708,-123.5 1674,-123.5"/>
<text text-anchor="start" x="1677" y="-130.3" font-family="Times,serif" font-size="14.00" fill="#000000">ident</text>
<polygon fill="#c0c0c0" stroke="transparent" points="1712,-123.5 1712,-144.5 1783,-144.5 1783,-123.5 1712,-123.5"/>
<text text-anchor="start" x="1715" y="-130.3" font-family="Times,serif" font-size="14.00" fill="#000000">[number*8]</text>
<polygon fill="none" stroke="#000000" points="1668.5,-118.5 1668.5,-176.5 1787.5,-176.5 1787.5,-118.5 1668.5,-118.5"/>
</g>
<!-- m_connected_request_lookup&#45;&gt;m_lookup -->
<g id="edge16" class="edge">
<title>m_connected_request_lookup:lookup&#45;&gt;m_lookup</title>
<path fill="none" stroke="#000000" stroke-dasharray="1,5" d="M1528,-322.5C1559.9761,-322.5 1527.7143,-276.9307 1550,-254 1583.5051,-219.5251 1610.8553,-242.8642 1652,-218 1665.7726,-209.6771 1679.1958,-198.5677 1690.8335,-187.6336"/>
<polygon fill="#000000" stroke="#000000" points="1698.209,-180.5047 1694.1461,-190.6902 1694.6138,-183.9797 1691.0187,-187.4546 1691.0187,-187.4546 1691.0187,-187.4546 1694.6138,-183.9797 1687.8913,-184.2189 1698.209,-180.5047 1698.209,-180.5047"/>
</g>
<!-- m_info -->
<g id="node28" class="node">
<title>m_info</title>
<polygon fill="#ffffff" stroke="transparent" points="1822,-93.5 1822,-201.5 1966,-201.5 1966,-93.5 1822,-93.5"/>
<path fill="#4d4d4d" stroke="transparent" d="M1834.6667,-173.5C1834.6667,-173.5 1953.3333,-173.5 1953.3333,-173.5 1957.1667,-173.5 1961,-177.3333 1961,-181.1667 1961,-181.1667 1961,-188.8333 1961,-188.8333 1961,-192.6667 1957.1667,-196.5 1953.3333,-196.5 1953.3333,-196.5 1834.6667,-196.5 1834.6667,-196.5 1830.8333,-196.5 1827,-192.6667 1827,-188.8333 1827,-188.8333 1827,-181.1667 1827,-181.1667 1827,-177.3333 1830.8333,-173.5 1834.6667,-173.5"/>
<path fill="none" stroke="#000000" d="M1834.6667,-173.5C1834.6667,-173.5 1953.3333,-173.5 1953.3333,-173.5 1957.1667,-173.5 1961,-177.3333 1961,-181.1667 1961,-181.1667 1961,-188.8333 1961,-188.8333 1961,-192.6667 1957.1667,-196.5 1953.3333,-196.5 1953.3333,-196.5 1834.6667,-196.5 1834.6667,-196.5 1830.8333,-196.5 1827,-192.6667 1827,-188.8333 1827,-188.8333 1827,-181.1667 1827,-181.1667 1827,-177.3333 1830.8333,-173.5 1834.6667,-173.5"/>
<text text-anchor="start" x="1878" y="-181.3" font-family="Times,serif" font-size="14.00" fill="#ffffff">INFO</text>
<polygon fill="#c0c0c0" stroke="transparent" points="1827,-148.5 1827,-169.5 1886,-169.5 1886,-148.5 1827,-148.5"/>
<text text-anchor="start" x="1855" y="-155.3" font-family="Times,serif" font-size="14.00" fill="#000000">ident</text>
<polygon fill="#c0c0c0" stroke="transparent" points="1890,-148.5 1890,-169.5 1961,-169.5 1961,-148.5 1890,-148.5"/>
<text text-anchor="start" x="1893" y="-155.3" font-family="Times,serif" font-size="14.00" fill="#000000">[number*8]</text>
<polygon fill="#c0c0c0" stroke="transparent" points="1827,-123.5 1827,-144.5 1886,-144.5 1886,-123.5 1827,-123.5"/>
<text text-anchor="start" x="1854" y="-130.3" font-family="Times,serif" font-size="14.00" fill="#000000">stype</text>
<polygon fill="#c0c0c0" stroke="transparent" points="1890,-123.5 1890,-144.5 1961,-144.5 1961,-123.5 1890,-123.5"/>
<text text-anchor="start" x="1893" y="-130.3" font-family="Times,serif" font-size="14.00" fill="#000000">[number*4]</text>
<polygon fill="#c0c0c0" stroke="transparent" points="1827,-98.5 1827,-119.5 1886,-119.5 1886,-98.5 1827,-98.5"/>
<text text-anchor="start" x="1830" y="-105.3" font-family="Times,serif" font-size="14.00" fill="#000000">endpoints</text>
<polygon fill="#c0c0c0" stroke="transparent" points="1890,-98.5 1890,-119.5 1961,-119.5 1961,-98.5 1890,-98.5"/>
<text text-anchor="start" x="1893" y="-105.3" font-family="Times,serif" font-size="14.00" fill="#000000">[hash]</text>
<polygon fill="none" stroke="#000000" points="1822,-93.5 1822,-201.5 1966,-201.5 1966,-93.5 1822,-93.5"/>
</g>
<!-- m_connected_request_info&#45;&gt;m_info -->
<g id="edge21" class="edge">
<title>m_connected_request_info:info&#45;&gt;m_info</title>
<path fill="none" stroke="#000000" stroke-dasharray="1,5" d="M1666,-322.5C1698.1148,-322.5 1666.0316,-276.4457 1689,-254 1727.6073,-216.2713 1757.2548,-243.1867 1805,-218 1809.0317,-215.8732 1813.0613,-213.5553 1817.0563,-211.0983"/>
<polygon fill="#000000" stroke="#000000" points="1825.7339,-205.5172 1819.7574,-214.7114 1821.5285,-208.2219 1817.3232,-210.9266 1817.3232,-210.9266 1817.3232,-210.9266 1821.5285,-208.2219 1814.889,-207.1418 1825.7339,-205.5172 1825.7339,-205.5172"/>
</g>
<!-- m_socket -->
<g id="node29" class="node">
<title>m_socket</title>
<polygon fill="#ffffff" stroke="transparent" points="166.5,-295.5 166.5,-403.5 305.5,-403.5 305.5,-295.5 166.5,-295.5"/>
<path fill="#4d4d4d" stroke="transparent" d="M179.6667,-375.5C179.6667,-375.5 293.3333,-375.5 293.3333,-375.5 297.1667,-375.5 301,-379.3333 301,-383.1667 301,-383.1667 301,-390.8333 301,-390.8333 301,-394.6667 297.1667,-398.5 293.3333,-398.5 293.3333,-398.5 179.6667,-398.5 179.6667,-398.5 175.8333,-398.5 172,-394.6667 172,-390.8333 172,-390.8333 172,-383.1667 172,-383.1667 172,-379.3333 175.8333,-375.5 179.6667,-375.5"/>
<path fill="none" stroke="#000000" d="M179.6667,-375.5C179.6667,-375.5 293.3333,-375.5 293.3333,-375.5 297.1667,-375.5 301,-379.3333 301,-383.1667 301,-383.1667 301,-390.8333 301,-390.8333 301,-394.6667 297.1667,-398.5 293.3333,-398.5 293.3333,-398.5 179.6667,-398.5 179.6667,-398.5 175.8333,-398.5 172,-394.6667 172,-390.8333 172,-390.8333 172,-383.1667 172,-383.1667 172,-379.3333 175.8333,-375.5 179.6667,-375.5"/>
<text text-anchor="start" x="210" y="-383.3" font-family="Times,serif" font-size="14.00" fill="#ffffff">SOCKET</text>
<polygon fill="#c0c0c0" stroke="transparent" points="172,-350.5 172,-371.5 226,-371.5 226,-350.5 172,-350.5"/>
<text text-anchor="start" x="195" y="-357.3" font-family="Times,serif" font-size="14.00" fill="#000000">ident</text>
<polygon fill="#c0c0c0" stroke="transparent" points="230,-350.5 230,-371.5 301,-371.5 301,-350.5 230,-350.5"/>
<text text-anchor="start" x="233" y="-357.3" font-family="Times,serif" font-size="14.00" fill="#000000">[number*8]</text>
<polygon fill="#c0c0c0" stroke="transparent" points="172,-325.5 172,-346.5 226,-346.5 226,-325.5 172,-325.5"/>
<text text-anchor="start" x="198" y="-332.3" font-family="Times,serif" font-size="14.00" fill="#000000">borc</text>
<polygon fill="#c0c0c0" stroke="transparent" points="230,-325.5 230,-346.5 301,-346.5 301,-325.5 230,-325.5"/>
<text text-anchor="start" x="233" y="-332.3" font-family="Times,serif" font-size="14.00" fill="#000000">[string]</text>
<polygon fill="#c0c0c0" stroke="transparent" points="172,-300.5 172,-321.5 226,-321.5 226,-300.5 172,-300.5"/>
<text text-anchor="start" x="175" y="-307.3" font-family="Times,serif" font-size="14.00" fill="#000000">endpoint</text>
<polygon fill="#c0c0c0" stroke="transparent" points="230,-300.5 230,-321.5 301,-321.5 301,-300.5 230,-300.5"/>
<text text-anchor="start" x="233" y="-307.3" font-family="Times,serif" font-size="14.00" fill="#000000">[string]</text>
<polygon fill="none" stroke="#000000" points="166.5,-295.5 166.5,-403.5 305.5,-403.5 305.5,-295.5 166.5,-295.5"/>
</g>
<!-- m_have_perf_request_borc&#45;&gt;m_socket -->
<g id="edge26" class="edge">
<title>m_have_perf_request_borc:socket&#45;&gt;m_socket</title>
<path fill="none" stroke="#000000" stroke-dasharray="1,5" d="M269,-612C190.7548,-612 202.0313,-495.7637 218.335,-417.9868"/>
<polygon fill="#000000" stroke="#000000" points="220.5538,-407.7573 222.8318,-418.4839 219.4939,-412.6436 218.434,-417.53 218.434,-417.53 218.434,-417.53 219.4939,-412.6436 214.0363,-416.5761 220.5538,-407.7573 220.5538,-407.7573"/>
</g>
<!-- f_request_borc -->
<g id="node34" class="node">
<title>f_request_borc</title>
<polygon fill="#ffffff" stroke="transparent" points="8,-270.5 8,-428.5 132,-428.5 132,-270.5 8,-270.5"/>
<path fill="#e5e5e5" stroke="transparent" d="M20.6667,-400.5C20.6667,-400.5 119.3333,-400.5 119.3333,-400.5 123.1667,-400.5 127,-404.3333 127,-408.1667 127,-408.1667 127,-415.8333 127,-415.8333 127,-419.6667 123.1667,-423.5 119.3333,-423.5 119.3333,-423.5 20.6667,-423.5 20.6667,-423.5 16.8333,-423.5 13,-419.6667 13,-415.8333 13,-415.8333 13,-408.1667 13,-408.1667 13,-404.3333 16.8333,-400.5 20.6667,-400.5"/>
<path fill="none" stroke="#0000ff" d="M20.6667,-400.5C20.6667,-400.5 119.3333,-400.5 119.3333,-400.5 123.1667,-400.5 127,-404.3333 127,-408.1667 127,-408.1667 127,-415.8333 127,-415.8333 127,-419.6667 123.1667,-423.5 119.3333,-423.5 119.3333,-423.5 20.6667,-423.5 20.6667,-423.5 16.8333,-423.5 13,-419.6667 13,-415.8333 13,-415.8333 13,-408.1667 13,-408.1667 13,-404.3333 16.8333,-400.5 20.6667,-400.5"/>
<text text-anchor="start" x="36.5" y="-408.3" font-family="Times,serif" font-size="14.00" fill="#0000ff">request borc</text>
<polygon fill="#c0c0c0" stroke="transparent" points="13,-375.5 13,-396.5 72,-396.5 72,-375.5 13,-375.5"/>
<text text-anchor="start" x="41" y="-382.3" font-family="Times,serif" font-size="14.00" fill="#000000">ident</text>
<polygon fill="#c0c0c0" stroke="transparent" points="76,-375.5 76,-396.5 127,-396.5 127,-375.5 76,-375.5"/>
<text text-anchor="start" x="79" y="-382.3" font-family="Times,serif" font-size="14.00" fill="#000000">[string]</text>
<polygon fill="#c0c0c0" stroke="transparent" points="13,-350.5 13,-371.5 72,-371.5 72,-350.5 13,-350.5"/>
<text text-anchor="start" x="44" y="-357.3" font-family="Times,serif" font-size="14.00" fill="#000000">borc</text>
<polygon fill="#c0c0c0" stroke="transparent" points="76,-350.5 76,-371.5 127,-371.5 127,-350.5 76,-350.5"/>
<text text-anchor="start" x="79" y="-357.3" font-family="Times,serif" font-size="14.00" fill="#000000">[string]</text>
<polygon fill="#c0c0c0" stroke="transparent" points="13,-325.5 13,-346.5 72,-346.5 72,-325.5 13,-325.5"/>
<text text-anchor="start" x="21" y="-332.3" font-family="Times,serif" font-size="14.00" fill="#000000">endpoint</text>
<polygon fill="#c0c0c0" stroke="transparent" points="76,-325.5 76,-346.5 127,-346.5 127,-325.5 76,-325.5"/>
<text text-anchor="start" x="79" y="-332.3" font-family="Times,serif" font-size="14.00" fill="#000000">[string]</text>
<polygon fill="#c0c0c0" stroke="transparent" points="13,-300.5 13,-321.5 127,-321.5 127,-300.5 13,-300.5"/>
<text text-anchor="start" x="18" y="-307.3" font-family="Times,serif" font-size="14.00" fill="#000000">PERF ENDPOINT</text>
<polygon fill="#c0c0c0" stroke="transparent" points="13,-275.5 13,-296.5 127,-296.5 127,-275.5 13,-275.5"/>
<text text-anchor="start" x="41" y="-282.3" font-family="Times,serif" font-size="14.00" fill="#000000">FAILURE</text>
<polygon fill="none" stroke="#0000ff" points="8,-270.5 8,-428.5 132,-428.5 132,-270.5 8,-270.5"/>
</g>
<!-- m_have_perf_request_borc&#45;&gt;f_request_borc -->
<g id="edge51" class="edge">
<title>m_have_perf_request_borc&#45;&gt;f_request_borc</title>
<path fill="none" stroke="#0000ff" d="M273.4527,-585.6379C238.4741,-546.9301 190.3501,-493.1389 149,-445 145.565,-441.001 142.0638,-436.8927 138.5407,-432.7327"/>
<polygon fill="#0000ff" stroke="#0000ff" points="270.9635,-588.1035 280.2672,-593.1722 276.155,-583.4079 270.9635,-588.1035"/>
</g>
<!-- m_measure -->
<g id="node30" class="node">
<title>m_measure</title>
<polygon fill="#ffffff" stroke="transparent" points="510.5,-270.5 510.5,-428.5 647.5,-428.5 647.5,-270.5 510.5,-270.5"/>
<path fill="#4d4d4d" stroke="transparent" d="M523.6667,-400.5C523.6667,-400.5 635.3333,-400.5 635.3333,-400.5 639.1667,-400.5 643,-404.3333 643,-408.1667 643,-408.1667 643,-415.8333 643,-415.8333 643,-419.6667 639.1667,-423.5 635.3333,-423.5 635.3333,-423.5 523.6667,-423.5 523.6667,-423.5 519.8333,-423.5 516,-419.6667 516,-415.8333 516,-415.8333 516,-408.1667 516,-408.1667 516,-404.3333 519.8333,-400.5 523.6667,-400.5"/>
<path fill="none" stroke="#000000" d="M523.6667,-400.5C523.6667,-400.5 635.3333,-400.5 635.3333,-400.5 639.1667,-400.5 643,-404.3333 643,-408.1667 643,-408.1667 643,-415.8333 643,-415.8333 643,-419.6667 639.1667,-423.5 635.3333,-423.5 635.3333,-423.5 523.6667,-423.5 523.6667,-423.5 519.8333,-423.5 516,-419.6667 516,-415.8333 516,-415.8333 516,-408.1667 516,-408.1667 516,-404.3333 519.8333,-400.5 523.6667,-400.5"/>
<text text-anchor="start" x="546.5" y="-408.3" font-family="Times,serif" font-size="14.00" fill="#ffffff">MEASURE</text>
<polygon fill="#c0c0c0" stroke="transparent" points="516,-375.5 516,-396.5 568,-396.5 568,-375.5 516,-375.5"/>
<text text-anchor="start" x="537" y="-382.3" font-family="Times,serif" font-size="14.00" fill="#000000">ident</text>
<polygon fill="#c0c0c0" stroke="transparent" points="572,-375.5 572,-396.5 643,-396.5 643,-375.5 572,-375.5"/>
<text text-anchor="start" x="575" y="-382.3" font-family="Times,serif" font-size="14.00" fill="#000000">[number*8]</text>
<polygon fill="#c0c0c0" stroke="transparent" points="516,-350.5 516,-371.5 568,-371.5 568,-350.5 516,-350.5"/>
<text text-anchor="start" x="519" y="-357.3" font-family="Times,serif" font-size="14.00" fill="#000000">measure</text>
<polygon fill="#c0c0c0" stroke="transparent" points="572,-350.5 572,-371.5 643,-371.5 643,-350.5 572,-350.5"/>
<text text-anchor="start" x="575" y="-357.3" font-family="Times,serif" font-size="14.00" fill="#000000">[string]</text>
<polygon fill="#c0c0c0" stroke="transparent" points="516,-325.5 516,-346.5 568,-346.5 568,-325.5 516,-325.5"/>
<text text-anchor="start" x="529" y="-332.3" font-family="Times,serif" font-size="14.00" fill="#000000">nmsgs</text>
<polygon fill="#c0c0c0" stroke="transparent" points="572,-325.5 572,-346.5 643,-346.5 643,-325.5 572,-325.5"/>
<text text-anchor="start" x="575" y="-332.3" font-family="Times,serif" font-size="14.00" fill="#000000">[number*4]</text>
<polygon fill="#c0c0c0" stroke="transparent" points="516,-300.5 516,-321.5 568,-321.5 568,-300.5 516,-300.5"/>
<text text-anchor="start" x="520" y="-307.3" font-family="Times,serif" font-size="14.00" fill="#000000">msgsize</text>
<polygon fill="#c0c0c0" stroke="transparent" points="572,-300.5 572,-321.5 643,-321.5 643,-300.5 572,-300.5"/>
<text text-anchor="start" x="575" y="-307.3" font-family="Times,serif" font-size="14.00" fill="#000000">[number*8]</text>
<polygon fill="#c0c0c0" stroke="transparent" points="516,-275.5 516,-296.5 568,-296.5 568,-275.5 516,-275.5"/>
<text text-anchor="start" x="522" y="-282.3" font-family="Times,serif" font-size="14.00" fill="#000000">timeout</text>
<polygon fill="#c0c0c0" stroke="transparent" points="572,-275.5 572,-296.5 643,-296.5 643,-275.5 572,-275.5"/>
<text text-anchor="start" x="575" y="-282.3" font-family="Times,serif" font-size="14.00" fill="#000000">[number*4]</text>
<polygon fill="none" stroke="#000000" points="510.5,-270.5 510.5,-428.5 647.5,-428.5 647.5,-270.5 510.5,-270.5"/>
</g>
<!-- m_have_perf_request_measure&#45;&gt;m_measure -->
<g id="edge31" class="edge">
<title>m_have_perf_request_measure:measure&#45;&gt;m_measure</title>
<path fill="none" stroke="#000000" stroke-dasharray="1,5" d="M540,-602C540,-548.7868 548.5646,-489.9969 557.6667,-442.5429"/>
<polygon fill="#000000" stroke="#000000" points="559.6143,-432.5949 562.1091,-443.2732 558.6536,-437.5017 557.6929,-442.4086 557.6929,-442.4086 557.6929,-442.4086 558.6536,-437.5017 553.2767,-441.544 559.6143,-432.5949 559.6143,-432.5949"/>
</g>
<!-- f_request_measure -->
<g id="node35" class="node">
<title>f_request_measure</title>
<polygon fill="#ffffff" stroke="transparent" points="340,-258 340,-441 476,-441 476,-258 340,-258"/>
<path fill="#e5e5e5" stroke="transparent" d="M352.6667,-412.5C352.6667,-412.5 463.3333,-412.5 463.3333,-412.5 467.1667,-412.5 471,-416.3333 471,-420.1667 471,-420.1667 471,-427.8333 471,-427.8333 471,-431.6667 467.1667,-435.5 463.3333,-435.5 463.3333,-435.5 352.6667,-435.5 352.6667,-435.5 348.8333,-435.5 345,-431.6667 345,-427.8333 345,-427.8333 345,-420.1667 345,-420.1667 345,-416.3333 348.8333,-412.5 352.6667,-412.5"/>
<path fill="none" stroke="#0000ff" d="M352.6667,-412.5C352.6667,-412.5 463.3333,-412.5 463.3333,-412.5 467.1667,-412.5 471,-416.3333 471,-420.1667 471,-420.1667 471,-427.8333 471,-427.8333 471,-431.6667 467.1667,-435.5 463.3333,-435.5 463.3333,-435.5 352.6667,-435.5 352.6667,-435.5 348.8333,-435.5 345,-431.6667 345,-427.8333 345,-427.8333 345,-420.1667 345,-420.1667 345,-416.3333 348.8333,-412.5 352.6667,-412.5"/>
<text text-anchor="start" x="363.5" y="-420.3" font-family="Times,serif" font-size="14.00" fill="#0000ff">request measure</text>
<polygon fill="#c0c0c0" stroke="transparent" points="345,-387.5 345,-408.5 396,-408.5 396,-387.5 345,-387.5"/>
<text text-anchor="start" x="365" y="-394.3" font-family="Times,serif" font-size="14.00" fill="#000000">ident</text>
<polygon fill="#c0c0c0" stroke="transparent" points="400,-387.5 400,-408.5 471,-408.5 471,-387.5 400,-387.5"/>
<text text-anchor="start" x="403" y="-394.3" font-family="Times,serif" font-size="14.00" fill="#000000">[string]</text>
<polygon fill="#c0c0c0" stroke="transparent" points="345,-362.5 345,-383.5 396,-383.5 396,-362.5 345,-362.5"/>
<text text-anchor="start" x="357" y="-369.3" font-family="Times,serif" font-size="14.00" fill="#000000">nmsgs</text>
<polygon fill="#c0c0c0" stroke="transparent" points="400,-362.5 400,-383.5 471,-383.5 471,-362.5 400,-362.5"/>
<text text-anchor="start" x="403" y="-369.3" font-family="Times,serif" font-size="14.00" fill="#000000">[number*4]</text>
<polygon fill="#c0c0c0" stroke="transparent" points="345,-337.5 345,-358.5 396,-358.5 396,-337.5 345,-337.5"/>
<text text-anchor="start" x="348" y="-344.3" font-family="Times,serif" font-size="14.00" fill="#000000">msgsize</text>
<polygon fill="#c0c0c0" stroke="transparent" points="400,-337.5 400,-358.5 471,-358.5 471,-337.5 400,-337.5"/>
<text text-anchor="start" x="403" y="-344.3" font-family="Times,serif" font-size="14.00" fill="#000000">[number*8]</text>
<polygon fill="#c0c0c0" stroke="transparent" points="345,-312.5 345,-333.5 396,-333.5 396,-312.5 345,-312.5"/>
<text text-anchor="start" x="350" y="-319.3" font-family="Times,serif" font-size="14.00" fill="#000000">timeout</text>
<polygon fill="#c0c0c0" stroke="transparent" points="400,-312.5 400,-333.5 471,-333.5 471,-312.5 400,-312.5"/>
<text text-anchor="start" x="403" y="-319.3" font-family="Times,serif" font-size="14.00" fill="#000000">[number*4]</text>
<polygon fill="#c0c0c0" stroke="transparent" points="345,-287.5 345,-308.5 471,-308.5 471,-287.5 345,-287.5"/>
<text text-anchor="start" x="382" y="-294.3" font-family="Times,serif" font-size="14.00" fill="#000000">RESULT</text>
<polygon fill="#c0c0c0" stroke="transparent" points="345,-262.5 345,-283.5 471,-283.5 471,-262.5 345,-262.5"/>
<text text-anchor="start" x="379" y="-269.3" font-family="Times,serif" font-size="14.00" fill="#000000">FAILURE</text>
<polygon fill="none" stroke="#0000ff" points="340,-258 340,-441 476,-441 476,-258 340,-258"/>
</g>
<!-- m_have_perf_request_measure&#45;&gt;f_request_measure -->
<g id="edge52" class="edge">
<title>m_have_perf_request_measure&#45;&gt;f_request_measure</title>
<path fill="none" stroke="#0000ff" d="M515.0656,-584.3143C497.1953,-545.1216 472.6601,-491.3113 451.5851,-445.09"/>
<polygon fill="#0000ff" stroke="#0000ff" points="511.8965,-585.8004 519.2298,-593.4472 518.2656,-582.8963 511.8965,-585.8004"/>
</g>
<!-- m_goodbye -->
<g id="node32" class="node">
<title>m_goodbye</title>
<polygon fill="#ffffff" stroke="transparent" points="862,-4 862,-37 948,-37 948,-4 862,-4"/>
<path fill="#4d4d4d" stroke="transparent" d="M874.6667,-8.5C874.6667,-8.5 935.3333,-8.5 935.3333,-8.5 939.1667,-8.5 943,-12.3333 943,-16.1667 943,-16.1667 943,-23.8333 943,-23.8333 943,-27.6667 939.1667,-31.5 935.3333,-31.5 935.3333,-31.5 874.6667,-31.5 874.6667,-31.5 870.8333,-31.5 867,-27.6667 867,-23.8333 867,-23.8333 867,-16.1667 867,-16.1667 867,-12.3333 870.8333,-8.5 874.6667,-8.5"/>
<path fill="none" stroke="#000000" d="M874.6667,-8.5C874.6667,-8.5 935.3333,-8.5 935.3333,-8.5 939.1667,-8.5 943,-12.3333 943,-16.1667 943,-16.1667 943,-23.8333 943,-23.8333 943,-27.6667 939.1667,-31.5 935.3333,-31.5 935.3333,-31.5 874.6667,-31.5 874.6667,-31.5 870.8333,-31.5 867,-27.6667 867,-23.8333 867,-23.8333 867,-16.1667 867,-16.1667 867,-12.3333 870.8333,-8.5 874.6667,-8.5"/>
<text text-anchor="start" x="871.5" y="-16.3" font-family="Times,serif" font-size="14.00" fill="#ffffff">GOODBYE</text>
<polygon fill="none" stroke="#000000" points="862,-4 862,-37 948,-37 948,-4 862,-4"/>
</g>
<!-- m_defaults_destructor&#45;&gt;m_goodbye -->
<g id="edge36" class="edge">
<title>m_defaults_destructor:goodbye&#45;&gt;m_goodbye</title>
<path fill="none" stroke="#000000" stroke-dasharray="1,5" d="M905,-123.5C905,-99.1359 905,-71.5299 905,-51.0344"/>
<polygon fill="#000000" stroke="#000000" points="905,-41.0195 909.5001,-51.0195 905,-46.0195 905.0001,-51.0195 905.0001,-51.0195 905.0001,-51.0195 905,-46.0195 900.5001,-51.0196 905,-41.0195 905,-41.0195"/>
</g>
<!-- m_ping -->
<g id="node31" class="node">
<title>m_ping</title>
<polygon fill="#ffffff" stroke="transparent" points="1208,-4 1208,-37 1258,-37 1258,-4 1208,-4"/>
<path fill="#4d4d4d" stroke="transparent" d="M1220.6667,-8.5C1220.6667,-8.5 1245.3333,-8.5 1245.3333,-8.5 1249.1667,-8.5 1253,-12.3333 1253,-16.1667 1253,-16.1667 1253,-23.8333 1253,-23.8333 1253,-27.6667 1249.1667,-31.5 1245.3333,-31.5 1245.3333,-31.5 1220.6667,-31.5 1220.6667,-31.5 1216.8333,-31.5 1213,-27.6667 1213,-23.8333 1213,-23.8333 1213,-16.1667 1213,-16.1667 1213,-12.3333 1216.8333,-8.5 1220.6667,-8.5"/>
<path fill="none" stroke="#000000" d="M1220.6667,-8.5C1220.6667,-8.5 1245.3333,-8.5 1245.3333,-8.5 1249.1667,-8.5 1253,-12.3333 1253,-16.1667 1253,-16.1667 1253,-23.8333 1253,-23.8333 1253,-27.6667 1249.1667,-31.5 1245.3333,-31.5 1245.3333,-31.5 1220.6667,-31.5 1220.6667,-31.5 1216.8333,-31.5 1213,-27.6667 1213,-23.8333 1213,-23.8333 1213,-16.1667 1213,-16.1667 1213,-12.3333 1216.8333,-8.5 1220.6667,-8.5"/>
<text text-anchor="start" x="1217" y="-16.3" font-family="Times,serif" font-size="14.00" fill="#ffffff">PING</text>
<polygon fill="none" stroke="#000000" points="1208,-4 1208,-37 1258,-37 1258,-4 1208,-4"/>
</g>
<!-- m_defaults_expired&#45;&gt;m_ping -->
<g id="edge41" class="edge">
<title>m_defaults_expired:ping&#45;&gt;m_ping</title>
<path fill="none" stroke="#000000" stroke-dasharray="1,5" d="M1233,-110.5C1233,-90.832 1233,-68.7464 1233,-51.3757"/>
<polygon fill="#000000" stroke="#000000" points="1233,-41.233 1237.5001,-51.233 1233,-46.233 1233.0001,-51.233 1233.0001,-51.233 1233.0001,-51.233 1233,-46.233 1228.5001,-51.2331 1233,-41.233 1233,-41.233"/>
</g>
<!-- f_launch_measure -->
<g id="node36" class="node">
<title>f_launch_measure</title>
<polygon fill="#ffffff" stroke="transparent" points="796,-837 796,-1020 932,-1020 932,-837 796,-837"/>
<path fill="#e5e5e5" stroke="transparent" d="M808.6667,-991.5C808.6667,-991.5 919.3333,-991.5 919.3333,-991.5 923.1667,-991.5 927,-995.3333 927,-999.1667 927,-999.1667 927,-1006.8333 927,-1006.8333 927,-1010.6667 923.1667,-1014.5 919.3333,-1014.5 919.3333,-1014.5 808.6667,-1014.5 808.6667,-1014.5 804.8333,-1014.5 801,-1010.6667 801,-1006.8333 801,-1006.8333 801,-999.1667 801,-999.1667 801,-995.3333 804.8333,-991.5 808.6667,-991.5"/>
<path fill="none" stroke="#0000ff" d="M808.6667,-991.5C808.6667,-991.5 919.3333,-991.5 919.3333,-991.5 923.1667,-991.5 927,-995.3333 927,-999.1667 927,-999.1667 927,-1006.8333 927,-1006.8333 927,-1010.6667 923.1667,-1014.5 919.3333,-1014.5 919.3333,-1014.5 808.6667,-1014.5 808.6667,-1014.5 804.8333,-1014.5 801,-1010.6667 801,-1006.8333 801,-1006.8333 801,-999.1667 801,-999.1667 801,-995.3333 804.8333,-991.5 808.6667,-991.5"/>
<text text-anchor="start" x="821" y="-999.3" font-family="Times,serif" font-size="14.00" fill="#0000ff">launch measure</text>
<polygon fill="#c0c0c0" stroke="transparent" points="801,-966.5 801,-987.5 852,-987.5 852,-966.5 801,-966.5"/>
<text text-anchor="start" x="821" y="-973.3" font-family="Times,serif" font-size="14.00" fill="#000000">ident</text>
<polygon fill="#c0c0c0" stroke="transparent" points="856,-966.5 856,-987.5 927,-987.5 927,-966.5 856,-966.5"/>
<text text-anchor="start" x="859" y="-973.3" font-family="Times,serif" font-size="14.00" fill="#000000">[string]</text>
<polygon fill="#c0c0c0" stroke="transparent" points="801,-941.5 801,-962.5 852,-962.5 852,-941.5 801,-941.5"/>
<text text-anchor="start" x="813" y="-948.3" font-family="Times,serif" font-size="14.00" fill="#000000">nmsgs</text>
<polygon fill="#c0c0c0" stroke="transparent" points="856,-941.5 856,-962.5 927,-962.5 927,-941.5 856,-941.5"/>
<text text-anchor="start" x="859" y="-948.3" font-family="Times,serif" font-size="14.00" fill="#000000">[number*4]</text>
<polygon fill="#c0c0c0" stroke="transparent" points="801,-916.5 801,-937.5 852,-937.5 852,-916.5 801,-916.5"/>
<text text-anchor="start" x="804" y="-923.3" font-family="Times,serif" font-size="14.00" fill="#000000">msgsize</text>
<polygon fill="#c0c0c0" stroke="transparent" points="856,-916.5 856,-937.5 927,-937.5 927,-916.5 856,-916.5"/>
<text text-anchor="start" x="859" y="-923.3" font-family="Times,serif" font-size="14.00" fill="#000000">[number*8]</text>
<polygon fill="#c0c0c0" stroke="transparent" points="801,-891.5 801,-912.5 852,-912.5 852,-891.5 801,-891.5"/>
<text text-anchor="start" x="806" y="-898.3" font-family="Times,serif" font-size="14.00" fill="#000000">timeout</text>
<polygon fill="#c0c0c0" stroke="transparent" points="856,-891.5 856,-912.5 927,-912.5 927,-891.5 856,-891.5"/>
<text text-anchor="start" x="859" y="-898.3" font-family="Times,serif" font-size="14.00" fill="#000000">[number*4]</text>
<polygon fill="#c0c0c0" stroke="transparent" points="801,-866.5 801,-887.5 927,-887.5 927,-866.5 801,-866.5"/>
<text text-anchor="start" x="838" y="-873.3" font-family="Times,serif" font-size="14.00" fill="#000000">RESULT</text>
<polygon fill="#c0c0c0" stroke="transparent" points="801,-841.5 801,-862.5 927,-862.5 927,-841.5 801,-841.5"/>
<text text-anchor="start" x="835" y="-848.3" font-family="Times,serif" font-size="14.00" fill="#000000">FAILURE</text>
<polygon fill="none" stroke="#0000ff" points="796,-837 796,-1020 932,-1020 932,-837 796,-837"/>
</g>
</g>
</svg>
