<?xml version="1.0" encoding="UTF-8" standalone="no"?>
<!DOCTYPE svg PUBLIC "-//W3C//DTD SVG 1.1//EN"
 "http://www.w3.org/Graphics/SVG/1.1/DTD/svg11.dtd">
<!-- Generated by graphviz version 2.40.1 (20161225.0304)
 -->
<!-- Title: zperf_protocol Pages: 1 -->
<svg width="1401pt" height="960pt"
 viewBox="0.00 0.00 1401.00 960.39" xmlns="http://www.w3.org/2000/svg" xmlns:xlink="http://www.w3.org/1999/xlink">
<g id="graph0" class="graph" transform="scale(1 1) rotate(0) translate(4 956.3922)">
<title>zperf_protocol</title>
<polygon fill="#ffffff" stroke="transparent" points="-4,4 -4,-956.3922 1397,-956.3922 1397,4 -4,4"/>
<text text-anchor="middle" x="696.5" y="-937.1922" font-family="Times,serif" font-size="14.00" fill="#000000">zperf_server and zperf_msg</text>
<!-- s_start -->
<g id="node1" class="node">
<title>s_start</title>
<ellipse fill="none" stroke="#000000" cx="461.5" cy="-689" rx="25.9957" ry="25.9957"/>
<ellipse fill="none" stroke="#000000" cx="461.5" cy="-689" rx="29.9954" ry="29.9954"/>
<text text-anchor="middle" x="461.5" y="-685.3" font-family="Times,serif" font-size="14.00" fill="#000000">start</text>
</g>
<!-- s_defaults -->
<g id="node4" class="node">
<title>s_defaults</title>
<ellipse fill="none" stroke="#000000" cx="461.5" cy="-412" rx="38.2082" ry="38.2082"/>
<ellipse fill="none" stroke="#000000" cx="461.5" cy="-412" rx="42.1937" ry="42.1937"/>
<text text-anchor="middle" x="461.5" y="-408.3" font-family="Times,serif" font-size="14.00" fill="#000000">defaults</text>
</g>
<!-- s_start&#45;&gt;s_defaults -->
<g id="edge1" class="edge">
<title>s_start&#45;&gt;s_defaults</title>
<path fill="none" stroke="#000000" stroke-dasharray="5,2" d="M461.5,-658.8288C461.5,-612.3636 461.5,-522.6505 461.5,-465.1348"/>
<polygon fill="none" stroke="#000000" points="465.0001,-464.7877 461.5,-454.7878 458.0001,-464.7878 465.0001,-464.7877"/>
</g>
<!-- m_start_hello -->
<g id="node5" class="node">
<title>m_start_hello</title>
<polygon fill="#ffffff" stroke="transparent" points="608,-370.5 608,-453.5 737,-453.5 737,-370.5 608,-370.5"/>
<path fill="#4d4d4d" stroke="transparent" d="M621.1667,-425C621.1667,-425 724.8333,-425 724.8333,-425 728.6667,-425 732.5,-428.8333 732.5,-432.6667 732.5,-432.6667 732.5,-440.3333 732.5,-440.3333 732.5,-444.1667 728.6667,-448 724.8333,-448 724.8333,-448 621.1667,-448 621.1667,-448 617.3333,-448 613.5,-444.1667 613.5,-440.3333 613.5,-440.3333 613.5,-432.6667 613.5,-432.6667 613.5,-428.8333 617.3333,-425 621.1667,-425"/>
<path fill="none" stroke="#000000" d="M621.1667,-425C621.1667,-425 724.8333,-425 724.8333,-425 728.6667,-425 732.5,-428.8333 732.5,-432.6667 732.5,-432.6667 732.5,-440.3333 732.5,-440.3333 732.5,-444.1667 728.6667,-448 724.8333,-448 724.8333,-448 621.1667,-448 621.1667,-448 617.3333,-448 613.5,-444.1667 613.5,-440.3333 613.5,-440.3333 613.5,-432.6667 613.5,-432.6667 613.5,-428.8333 617.3333,-425 621.1667,-425"/>
<text text-anchor="start" x="650.5" y="-432.8" font-family="Times,serif" font-size="14.00" fill="#ffffff">HELLO</text>
<polygon fill="#c0c0c0" stroke="transparent" points="613.5,-400 613.5,-421 677.5,-421 677.5,-400 613.5,-400"/>
<text text-anchor="start" x="620.5" y="-406.8" font-family="Times,serif" font-size="14.00" fill="#000000">nickname</text>
<polygon fill="#c0c0c0" stroke="transparent" points="681.5,-400 681.5,-421 732.5,-421 732.5,-400 681.5,-400"/>
<text text-anchor="start" x="684.5" y="-406.8" font-family="Times,serif" font-size="14.00" fill="#000000">[string]</text>
<text text-anchor="start" x="618.5" y="-381.8" font-family="Times,serif" font-size="14.00" fill="#000000">send (HELLO_OK)</text>
<polygon fill="none" stroke="#000000" points="608,-370.5 608,-453.5 737,-453.5 737,-370.5 608,-370.5"/>
</g>
<!-- s_start&#45;&gt;m_start_hello -->
<g id="edge4" class="edge">
<title>s_start&#45;&gt;m_start_hello</title>
<path fill="none" stroke="#000000" d="M467.9965,-659.4002C473.87,-636.721 484.0027,-605.3003 499.5,-581 527.8355,-536.569 569.9694,-495.0831 605.5613,-464.334"/>
<polygon fill="#000000" stroke="#000000" points="608.1816,-466.6991 613.5157,-457.5449 603.6372,-461.3747 608.1816,-466.6991"/>
</g>
<!-- s_connected -->
<g id="node2" class="node">
<title>s_connected</title>
<ellipse fill="none" stroke="#000000" cx="732.5" cy="-689" rx="46.2806" ry="46.2806"/>
<ellipse fill="none" stroke="#000000" cx="732.5" cy="-689" rx="50.2922" ry="50.2922"/>
<text text-anchor="middle" x="732.5" y="-685.3" font-family="Times,serif" font-size="14.00" fill="#000000">connected</text>
</g>
<!-- s_connected&#45;&gt;s_defaults -->
<g id="edge2" class="edge">
<title>s_connected&#45;&gt;s_defaults</title>
<path fill="none" stroke="#000000" stroke-dasharray="5,2" d="M714.5427,-641.9169C704.6973,-621.0895 690.7372,-597.6086 672.5,-581 643.0725,-554.2004 623.1879,-567.7091 590.5,-545 553.5543,-519.3329 518.4766,-482.0171 494.2519,-453.44"/>
<polygon fill="none" stroke="#000000" points="496.8166,-451.051 487.7146,-445.6284 491.4484,-455.5435 496.8166,-451.051"/>
</g>
<!-- s_connected&#45;&gt;m_start_hello -->
<g id="edge5" class="edge">
<title>s_connected&#45;&gt;m_start_hello</title>
<path fill="none" stroke="#000000" d="M719.676,-629.7958C708.5094,-578.2432 692.5548,-504.5863 682.3621,-457.53"/>
<polygon fill="#000000" stroke="#000000" points="716.3046,-630.7647 721.8423,-639.7971 723.146,-629.2828 716.3046,-630.7647"/>
</g>
<!-- m_connected_create -->
<g id="node6" class="node">
<title>m_connected_create</title>
<polygon fill="#ffffff" stroke="transparent" points="771.5,-358 771.5,-466 891.5,-466 891.5,-358 771.5,-358"/>
<path fill="#4d4d4d" stroke="transparent" d="M784.1667,-438C784.1667,-438 878.8333,-438 878.8333,-438 882.6667,-438 886.5,-441.8333 886.5,-445.6667 886.5,-445.6667 886.5,-453.3333 886.5,-453.3333 886.5,-457.1667 882.6667,-461 878.8333,-461 878.8333,-461 784.1667,-461 784.1667,-461 780.3333,-461 776.5,-457.1667 776.5,-453.3333 776.5,-453.3333 776.5,-445.6667 776.5,-445.6667 776.5,-441.8333 780.3333,-438 784.1667,-438"/>
<path fill="none" stroke="#000000" d="M784.1667,-438C784.1667,-438 878.8333,-438 878.8333,-438 882.6667,-438 886.5,-441.8333 886.5,-445.6667 886.5,-445.6667 886.5,-453.3333 886.5,-453.3333 886.5,-457.1667 882.6667,-461 878.8333,-461 878.8333,-461 784.1667,-461 784.1667,-461 780.3333,-461 776.5,-457.1667 776.5,-453.3333 776.5,-453.3333 776.5,-445.6667 776.5,-445.6667 776.5,-441.8333 780.3333,-438 784.1667,-438"/>
<text text-anchor="start" x="805" y="-445.8" font-family="Times,serif" font-size="14.00" fill="#ffffff">CREATE</text>
<polygon fill="#c0c0c0" stroke="transparent" points="776.5,-413 776.5,-434 811.5,-434 811.5,-413 776.5,-413"/>
<text text-anchor="start" x="779.5" y="-419.8" font-family="Times,serif" font-size="14.00" fill="#000000">stype</text>
<polygon fill="#c0c0c0" stroke="transparent" points="815.5,-413 815.5,-434 886.5,-434 886.5,-413 815.5,-413"/>
<text text-anchor="start" x="818.5" y="-419.8" font-family="Times,serif" font-size="14.00" fill="#000000">[number*4]</text>
<text text-anchor="start" x="802.5" y="-394.8" font-family="Times,serif" font-size="14.00" fill="#000000">create perf</text>
<text text-anchor="start" x="783" y="-369.8" font-family="Times,serif" font-size="14.00" fill="#000000">send (PERF_OK)</text>
<polygon fill="none" stroke="#000000" points="771.5,-358 771.5,-466 891.5,-466 891.5,-358 771.5,-358"/>
</g>
<!-- s_connected&#45;&gt;m_connected_create -->
<g id="edge7" class="edge">
<title>s_connected&#45;&gt;m_connected_create</title>
<path fill="none" stroke="#000000" d="M749.4062,-641.6967C765.334,-597.1312 789.3668,-529.888 807.3193,-479.6572"/>
<polygon fill="#000000" stroke="#000000" points="810.641,-480.7625 810.7108,-470.1678 804.0494,-478.4065 810.641,-480.7625"/>
</g>
<!-- m_connected_lookup -->
<g id="node7" class="node">
<title>m_connected_lookup</title>
<polygon fill="#ffffff" stroke="transparent" points="926,-358 926,-466 1045,-466 1045,-358 926,-358"/>
<path fill="#4d4d4d" stroke="transparent" d="M939.1667,-438C939.1667,-438 1032.8333,-438 1032.8333,-438 1036.6667,-438 1040.5,-441.8333 1040.5,-445.6667 1040.5,-445.6667 1040.5,-453.3333 1040.5,-453.3333 1040.5,-457.1667 1036.6667,-461 1032.8333,-461 1032.8333,-461 939.1667,-461 939.1667,-461 935.3333,-461 931.5,-457.1667 931.5,-453.3333 931.5,-453.3333 931.5,-445.6667 931.5,-445.6667 931.5,-441.8333 935.3333,-438 939.1667,-438"/>
<path fill="none" stroke="#000000" d="M939.1667,-438C939.1667,-438 1032.8333,-438 1032.8333,-438 1036.6667,-438 1040.5,-441.8333 1040.5,-445.6667 1040.5,-445.6667 1040.5,-453.3333 1040.5,-453.3333 1040.5,-457.1667 1036.6667,-461 1032.8333,-461 1032.8333,-461 939.1667,-461 939.1667,-461 935.3333,-461 931.5,-457.1667 931.5,-453.3333 931.5,-453.3333 931.5,-445.6667 931.5,-445.6667 931.5,-441.8333 935.3333,-438 939.1667,-438"/>
<text text-anchor="start" x="958.5" y="-445.8" font-family="Times,serif" font-size="14.00" fill="#ffffff">LOOKUP</text>
<polygon fill="#c0c0c0" stroke="transparent" points="931.5,-413 931.5,-434 965.5,-434 965.5,-413 931.5,-413"/>
<text text-anchor="start" x="934.5" y="-419.8" font-family="Times,serif" font-size="14.00" fill="#000000">ident</text>
<polygon fill="#c0c0c0" stroke="transparent" points="969.5,-413 969.5,-434 1040.5,-434 1040.5,-413 969.5,-413"/>
<text text-anchor="start" x="972.5" y="-419.8" font-family="Times,serif" font-size="14.00" fill="#000000">[number*8]</text>
<text text-anchor="start" x="954" y="-394.8" font-family="Times,serif" font-size="14.00" fill="#000000">lookup perf</text>
<text text-anchor="start" x="937.5" y="-369.8" font-family="Times,serif" font-size="14.00" fill="#000000">send (PERF_OK)</text>
<polygon fill="none" stroke="#000000" points="926,-358 926,-466 1045,-466 1045,-358 926,-358"/>
</g>
<!-- s_connected&#45;&gt;m_connected_lookup -->
<g id="edge10" class="edge">
<title>s_connected&#45;&gt;m_connected_lookup</title>
<path fill="none" stroke="#000000" d="M748.9109,-641.4909C758.3875,-620.3176 772.3014,-596.6734 791.5,-581 833.645,-546.5936 865.9316,-578.8811 908.5,-545 930.0651,-527.8358 946.7643,-502.8672 959.013,-479.1876"/>
<polygon fill="#000000" stroke="#000000" points="962.1667,-480.7061 963.4904,-470.1942 955.9003,-477.5863 962.1667,-480.7061"/>
</g>
<!-- s_have_perf -->
<g id="node3" class="node">
<title>s_have_perf</title>
<ellipse fill="none" stroke="#000000" cx="877.5" cy="-881.1961" rx="44.3766" ry="44.3766"/>
<ellipse fill="none" stroke="#000000" cx="877.5" cy="-881.1961" rx="48.393" ry="48.393"/>
<text text-anchor="middle" x="877.5" y="-877.4961" font-family="Times,serif" font-size="14.00" fill="#000000">have perf</text>
</g>
<!-- s_have_perf&#45;&gt;s_connected -->
<g id="edge3" class="edge">
<title>s_have_perf&#45;&gt;s_connected</title>
<path fill="none" stroke="#000000" stroke-dasharray="5,2" d="M840.7444,-849.7487C824.5041,-834.7651 805.8775,-815.9915 791.5,-797 779.1456,-780.6807 767.7752,-761.451 758.3826,-743.7745"/>
<polygon fill="none" stroke="#000000" points="761.3787,-741.9498 753.6564,-734.696 755.1697,-745.1823 761.3787,-741.9498"/>
</g>
<!-- s_have_perf&#45;&gt;m_connected_create -->
<g id="edge8" class="edge">
<title>s_have_perf&#45;&gt;m_connected_create</title>
<path fill="none" stroke="#000000" d="M924.982,-846.7112C939.895,-833.0868 954.5351,-816.1006 962.5,-797 999.4482,-708.3951 1007.7984,-665.6408 962.5,-581 948.8895,-555.5686 928.2414,-566.0304 908.5,-545 888.0481,-523.2128 870.7533,-495.0323 857.7678,-470.2229"/>
<polygon fill="#000000" stroke="#000000" points="922.4163,-844.3053 917.1925,-853.5228 927.0243,-849.5748 922.4163,-844.3053"/>
</g>
<!-- s_have_perf&#45;&gt;m_connected_lookup -->
<g id="edge11" class="edge">
<title>s_have_perf&#45;&gt;m_connected_lookup</title>
<path fill="none" stroke="#000000" d="M930.5163,-856.6948C954.0464,-842.7907 979.3489,-822.9275 992.5,-797 1045.7998,-691.9192 1022.3902,-549.0397 1002.6325,-470.2169"/>
<polygon fill="#000000" stroke="#000000" points="928.5936,-853.7613 921.614,-861.7322 932.0409,-859.8536 928.5936,-853.7613"/>
</g>
<!-- m_have_perf_socket -->
<g id="node8" class="node">
<title>m_have_perf_socket</title>
<polygon fill="#ffffff" stroke="transparent" points="517,-610 517,-768 656,-768 656,-610 517,-610"/>
<path fill="#4d4d4d" stroke="transparent" d="M530.1667,-740C530.1667,-740 643.8333,-740 643.8333,-740 647.6667,-740 651.5,-743.8333 651.5,-747.6667 651.5,-747.6667 651.5,-755.3333 651.5,-755.3333 651.5,-759.1667 647.6667,-763 643.8333,-763 643.8333,-763 530.1667,-763 530.1667,-763 526.3333,-763 522.5,-759.1667 522.5,-755.3333 522.5,-755.3333 522.5,-747.6667 522.5,-747.6667 522.5,-743.8333 526.3333,-740 530.1667,-740"/>
<path fill="none" stroke="#000000" d="M530.1667,-740C530.1667,-740 643.8333,-740 643.8333,-740 647.6667,-740 651.5,-743.8333 651.5,-747.6667 651.5,-747.6667 651.5,-755.3333 651.5,-755.3333 651.5,-759.1667 647.6667,-763 643.8333,-763 643.8333,-763 530.1667,-763 530.1667,-763 526.3333,-763 522.5,-759.1667 522.5,-755.3333 522.5,-755.3333 522.5,-747.6667 522.5,-747.6667 522.5,-743.8333 526.3333,-740 530.1667,-740"/>
<text text-anchor="start" x="560.5" y="-747.8" font-family="Times,serif" font-size="14.00" fill="#ffffff">SOCKET</text>
<polygon fill="#c0c0c0" stroke="transparent" points="522.5,-715 522.5,-736 576.5,-736 576.5,-715 522.5,-715"/>
<text text-anchor="start" x="545.5" y="-721.8" font-family="Times,serif" font-size="14.00" fill="#000000">ident</text>
<polygon fill="#c0c0c0" stroke="transparent" points="580.5,-715 580.5,-736 651.5,-736 651.5,-715 580.5,-715"/>
<text text-anchor="start" x="583.5" y="-721.8" font-family="Times,serif" font-size="14.00" fill="#000000">[number*8]</text>
<polygon fill="#c0c0c0" stroke="transparent" points="522.5,-690 522.5,-711 576.5,-711 576.5,-690 522.5,-690"/>
<text text-anchor="start" x="548.5" y="-696.8" font-family="Times,serif" font-size="14.00" fill="#000000">borc</text>
<polygon fill="#c0c0c0" stroke="transparent" points="580.5,-690 580.5,-711 651.5,-711 651.5,-690 580.5,-690"/>
<text text-anchor="start" x="583.5" y="-696.8" font-family="Times,serif" font-size="14.00" fill="#000000">[string]</text>
<polygon fill="#c0c0c0" stroke="transparent" points="522.5,-665 522.5,-686 576.5,-686 576.5,-665 522.5,-665"/>
<text text-anchor="start" x="525.5" y="-671.8" font-family="Times,serif" font-size="14.00" fill="#000000">endpoint</text>
<polygon fill="#c0c0c0" stroke="transparent" points="580.5,-665 580.5,-686 651.5,-686 651.5,-665 580.5,-665"/>
<text text-anchor="start" x="583.5" y="-671.8" font-family="Times,serif" font-size="14.00" fill="#000000">[string]</text>
<text text-anchor="start" x="555" y="-646.8" font-family="Times,serif" font-size="14.00" fill="#000000">lookup perf</text>
<text text-anchor="start" x="544.5" y="-621.8" font-family="Times,serif" font-size="14.00" fill="#000000">connect or bind</text>
<polygon fill="none" stroke="#000000" points="517,-610 517,-768 656,-768 656,-610 517,-610"/>
</g>
<!-- s_have_perf&#45;&gt;m_have_perf_socket -->
<g id="edge13" class="edge">
<title>s_have_perf&#45;&gt;m_have_perf_socket</title>
<path fill="none" stroke="#000000" d="M830.2607,-870.9692C784.3915,-858.5997 714.8233,-834.6287 664.5,-797 657.5704,-791.8184 650.8718,-785.9633 644.5009,-779.7259"/>
<polygon fill="#000000" stroke="#000000" points="646.6748,-776.9432 637.1784,-772.2455 641.6726,-781.8399 646.6748,-776.9432"/>
</g>
<!-- s_have_perf&#45;&gt;m_have_perf_socket -->
<g id="edge14" class="edge">
<title>s_have_perf&#45;&gt;m_have_perf_socket</title>
<path fill="none" stroke="#000000" d="M821.5418,-864.0492C780.3942,-850.4895 724.6852,-828.5435 682.5,-797 672.8588,-789.7909 663.6649,-781.2779 655.0443,-772.2455"/>
<polygon fill="#000000" stroke="#000000" points="820.5511,-867.4072 831.1428,-867.1493 822.7021,-860.7459 820.5511,-867.4072"/>
</g>
<!-- m_have_perf_socket_return -->
<g id="node9" class="node">
<title>m_have_perf_socket_return</title>
<polygon fill="#ffffff" stroke="transparent" points="269,-647.5 269,-730.5 406,-730.5 406,-647.5 269,-647.5"/>
<path fill="#e5e5e5" stroke="transparent" d="M282.1667,-702C282.1667,-702 393.8333,-702 393.8333,-702 397.6667,-702 401.5,-705.8333 401.5,-709.6667 401.5,-709.6667 401.5,-717.3333 401.5,-717.3333 401.5,-721.1667 397.6667,-725 393.8333,-725 393.8333,-725 282.1667,-725 282.1667,-725 278.3333,-725 274.5,-721.1667 274.5,-717.3333 274.5,-717.3333 274.5,-709.6667 274.5,-709.6667 274.5,-705.8333 278.3333,-702 282.1667,-702"/>
<path fill="none" stroke="#000000" d="M282.1667,-702C282.1667,-702 393.8333,-702 393.8333,-702 397.6667,-702 401.5,-705.8333 401.5,-709.6667 401.5,-709.6667 401.5,-717.3333 401.5,-717.3333 401.5,-721.1667 397.6667,-725 393.8333,-725 393.8333,-725 282.1667,-725 282.1667,-725 278.3333,-725 274.5,-721.1667 274.5,-717.3333 274.5,-717.3333 274.5,-709.6667 274.5,-709.6667 274.5,-705.8333 278.3333,-702 282.1667,-702"/>
<text text-anchor="start" x="302.5" y="-709.8" font-family="Times,serif" font-size="14.00" fill="#000000">socket return</text>
<text text-anchor="start" x="307.5" y="-683.8" font-family="Times,serif" font-size="14.00" fill="#000000">borc return</text>
<text text-anchor="start" x="279.5" y="-658.8" font-family="Times,serif" font-size="14.00" fill="#000000">send (SOCKET_OK)</text>
<polygon fill="none" stroke="#000000" points="269,-647.5 269,-730.5 406,-730.5 406,-647.5 269,-647.5"/>
</g>
<!-- s_have_perf&#45;&gt;m_have_perf_socket_return -->
<g id="edge15" class="edge">
<title>s_have_perf&#45;&gt;m_have_perf_socket_return</title>
<path fill="none" stroke="#000000" d="M829.2231,-877.0638C724.8869,-866.9839 482.7743,-838.8547 413.5,-797 391.7883,-783.8821 373.4505,-763.0338 360.0734,-743.138"/>
<polygon fill="#000000" stroke="#000000" points="362.9987,-741.2161 354.6486,-734.6949 357.1095,-744.9999 362.9987,-741.2161"/>
</g>
<!-- s_have_perf&#45;&gt;m_have_perf_socket_return -->
<g id="edge16" class="edge">
<title>s_have_perf&#45;&gt;m_have_perf_socket_return</title>
<path fill="none" stroke="#000000" d="M819.38,-875.0171C713.9721,-863.4985 496.5455,-836.2997 431.5,-797 406.6867,-782.0081 386.28,-756.9193 370.7243,-734.6949"/>
<polygon fill="#000000" stroke="#000000" points="819.2092,-878.5189 829.5278,-876.1155 819.9625,-871.5596 819.2092,-878.5189"/>
</g>
<!-- m_have_perf_measure -->
<g id="node10" class="node">
<title>m_have_perf_measure</title>
<polygon fill="#ffffff" stroke="transparent" points="809,-585 809,-793 946,-793 946,-585 809,-585"/>
<path fill="#4d4d4d" stroke="transparent" d="M822.1667,-765C822.1667,-765 933.8333,-765 933.8333,-765 937.6667,-765 941.5,-768.8333 941.5,-772.6667 941.5,-772.6667 941.5,-780.3333 941.5,-780.3333 941.5,-784.1667 937.6667,-788 933.8333,-788 933.8333,-788 822.1667,-788 822.1667,-788 818.3333,-788 814.5,-784.1667 814.5,-780.3333 814.5,-780.3333 814.5,-772.6667 814.5,-772.6667 814.5,-768.8333 818.3333,-765 822.1667,-765"/>
<path fill="none" stroke="#000000" d="M822.1667,-765C822.1667,-765 933.8333,-765 933.8333,-765 937.6667,-765 941.5,-768.8333 941.5,-772.6667 941.5,-772.6667 941.5,-780.3333 941.5,-780.3333 941.5,-784.1667 937.6667,-788 933.8333,-788 933.8333,-788 822.1667,-788 822.1667,-788 818.3333,-788 814.5,-784.1667 814.5,-780.3333 814.5,-780.3333 814.5,-772.6667 814.5,-772.6667 814.5,-768.8333 818.3333,-765 822.1667,-765"/>
<text text-anchor="start" x="845" y="-772.8" font-family="Times,serif" font-size="14.00" fill="#ffffff">MEASURE</text>
<polygon fill="#c0c0c0" stroke="transparent" points="814.5,-740 814.5,-761 866.5,-761 866.5,-740 814.5,-740"/>
<text text-anchor="start" x="835.5" y="-746.8" font-family="Times,serif" font-size="14.00" fill="#000000">ident</text>
<polygon fill="#c0c0c0" stroke="transparent" points="870.5,-740 870.5,-761 941.5,-761 941.5,-740 870.5,-740"/>
<text text-anchor="start" x="873.5" y="-746.8" font-family="Times,serif" font-size="14.00" fill="#000000">[number*8]</text>
<polygon fill="#c0c0c0" stroke="transparent" points="814.5,-715 814.5,-736 866.5,-736 866.5,-715 814.5,-715"/>
<text text-anchor="start" x="817.5" y="-721.8" font-family="Times,serif" font-size="14.00" fill="#000000">measure</text>
<polygon fill="#c0c0c0" stroke="transparent" points="870.5,-715 870.5,-736 941.5,-736 941.5,-715 870.5,-715"/>
<text text-anchor="start" x="873.5" y="-721.8" font-family="Times,serif" font-size="14.00" fill="#000000">[string]</text>
<polygon fill="#c0c0c0" stroke="transparent" points="814.5,-690 814.5,-711 866.5,-711 866.5,-690 814.5,-690"/>
<text text-anchor="start" x="827.5" y="-696.8" font-family="Times,serif" font-size="14.00" fill="#000000">nmsgs</text>
<polygon fill="#c0c0c0" stroke="transparent" points="870.5,-690 870.5,-711 941.5,-711 941.5,-690 870.5,-690"/>
<text text-anchor="start" x="873.5" y="-696.8" font-family="Times,serif" font-size="14.00" fill="#000000">[number*4]</text>
<polygon fill="#c0c0c0" stroke="transparent" points="814.5,-665 814.5,-686 866.5,-686 866.5,-665 814.5,-665"/>
<text text-anchor="start" x="818.5" y="-671.8" font-family="Times,serif" font-size="14.00" fill="#000000">msgsize</text>
<polygon fill="#c0c0c0" stroke="transparent" points="870.5,-665 870.5,-686 941.5,-686 941.5,-665 870.5,-665"/>
<text text-anchor="start" x="873.5" y="-671.8" font-family="Times,serif" font-size="14.00" fill="#000000">[number*8]</text>
<polygon fill="#c0c0c0" stroke="transparent" points="814.5,-640 814.5,-661 866.5,-661 866.5,-640 814.5,-640"/>
<text text-anchor="start" x="820.5" y="-646.8" font-family="Times,serif" font-size="14.00" fill="#000000">timeout</text>
<polygon fill="#c0c0c0" stroke="transparent" points="870.5,-640 870.5,-661 941.5,-661 941.5,-640 870.5,-640"/>
<text text-anchor="start" x="873.5" y="-646.8" font-family="Times,serif" font-size="14.00" fill="#000000">[number*4]</text>
<text text-anchor="start" x="846" y="-621.8" font-family="Times,serif" font-size="14.00" fill="#000000">lookup perf</text>
<text text-anchor="start" x="841.5" y="-596.8" font-family="Times,serif" font-size="14.00" fill="#000000">start measure</text>
<polygon fill="none" stroke="#000000" points="809,-585 809,-793 946,-793 946,-585 809,-585"/>
</g>
<!-- s_have_perf&#45;&gt;m_have_perf_measure -->
<g id="edge18" class="edge">
<title>s_have_perf&#45;&gt;m_have_perf_measure</title>
<path fill="none" stroke="#000000" d="M871.5658,-833.1927C871.2666,-825.1143 871.0498,-816.425 870.9151,-807.4609"/>
<polygon fill="#000000" stroke="#000000" points="874.4125,-807.2004 870.7981,-797.2412 867.4129,-807.2806 874.4125,-807.2004"/>
</g>
<!-- s_have_perf&#45;&gt;m_have_perf_measure -->
<g id="edge19" class="edge">
<title>s_have_perf&#45;&gt;m_have_perf_measure</title>
<path fill="none" stroke="#000000" d="M883.7597,-823.0071C883.9842,-814.7605 884.1315,-806.0703 884.2019,-797.2412"/>
<polygon fill="#000000" stroke="#000000" points="880.2555,-823.0859 883.4342,-833.1927 887.2519,-823.3096 880.2555,-823.0859"/>
</g>
<!-- m_have_perf_measure_return -->
<g id="node11" class="node">
<title>m_have_perf_measure_return</title>
<polygon fill="#ffffff" stroke="transparent" points="1057,-660 1057,-718 1166,-718 1166,-660 1057,-660"/>
<path fill="#e5e5e5" stroke="transparent" d="M1070.1667,-690C1070.1667,-690 1153.8333,-690 1153.8333,-690 1157.6667,-690 1161.5,-693.8333 1161.5,-697.6667 1161.5,-697.6667 1161.5,-705.3333 1161.5,-705.3333 1161.5,-709.1667 1157.6667,-713 1153.8333,-713 1153.8333,-713 1070.1667,-713 1070.1667,-713 1066.3333,-713 1062.5,-709.1667 1062.5,-705.3333 1062.5,-705.3333 1062.5,-697.6667 1062.5,-697.6667 1062.5,-693.8333 1066.3333,-690 1070.1667,-690"/>
<path fill="none" stroke="#000000" d="M1070.1667,-690C1070.1667,-690 1153.8333,-690 1153.8333,-690 1157.6667,-690 1161.5,-693.8333 1161.5,-697.6667 1161.5,-697.6667 1161.5,-705.3333 1161.5,-705.3333 1161.5,-709.1667 1157.6667,-713 1153.8333,-713 1153.8333,-713 1070.1667,-713 1070.1667,-713 1066.3333,-713 1062.5,-709.1667 1062.5,-705.3333 1062.5,-705.3333 1062.5,-697.6667 1062.5,-697.6667 1062.5,-693.8333 1066.3333,-690 1070.1667,-690"/>
<text text-anchor="start" x="1071" y="-697.8" font-family="Times,serif" font-size="14.00" fill="#000000">measure return</text>
<text text-anchor="start" x="1067.5" y="-671.8" font-family="Times,serif" font-size="14.00" fill="#000000">send (RESULT)</text>
<polygon fill="none" stroke="#000000" points="1057,-660 1057,-718 1166,-718 1166,-660 1057,-660"/>
</g>
<!-- s_have_perf&#45;&gt;m_have_perf_measure_return -->
<g id="edge20" class="edge">
<title>s_have_perf&#45;&gt;m_have_perf_measure_return</title>
<path fill="none" stroke="#000000" d="M921.2306,-860.877C952.5237,-846.3328 994.2756,-824.4875 1025.5,-797 1046.8623,-778.1943 1065.5452,-752.3738 1080.1694,-730.6952"/>
<polygon fill="#000000" stroke="#000000" points="1083.1287,-732.5661 1085.7754,-722.3071 1077.3088,-728.6764 1083.1287,-732.5661"/>
</g>
<!-- s_have_perf&#45;&gt;m_have_perf_measure_return -->
<g id="edge21" class="edge">
<title>s_have_perf&#45;&gt;m_have_perf_measure_return</title>
<path fill="none" stroke="#000000" d="M932.9509,-862.4357C967.471,-847.9152 1011.1393,-825.4878 1043.5,-797 1067.6981,-775.6979 1088.458,-745.3952 1100.8314,-722.3071"/>
<polygon fill="#000000" stroke="#000000" points="931.3996,-859.2889 923.4741,-866.3201 934.0544,-865.766 931.3996,-859.2889"/>
</g>
<!-- m_have_perf_info -->
<g id="node12" class="node">
<title>m_have_perf_info</title>
<polygon fill="#ffffff" stroke="transparent" points="1200.5,-597.5 1200.5,-780.5 1344.5,-780.5 1344.5,-597.5 1200.5,-597.5"/>
<path fill="#4d4d4d" stroke="transparent" d="M1213.1667,-752C1213.1667,-752 1331.8333,-752 1331.8333,-752 1335.6667,-752 1339.5,-755.8333 1339.5,-759.6667 1339.5,-759.6667 1339.5,-767.3333 1339.5,-767.3333 1339.5,-771.1667 1335.6667,-775 1331.8333,-775 1331.8333,-775 1213.1667,-775 1213.1667,-775 1209.3333,-775 1205.5,-771.1667 1205.5,-767.3333 1205.5,-767.3333 1205.5,-759.6667 1205.5,-759.6667 1205.5,-755.8333 1209.3333,-752 1213.1667,-752"/>
<path fill="none" stroke="#000000" d="M1213.1667,-752C1213.1667,-752 1331.8333,-752 1331.8333,-752 1335.6667,-752 1339.5,-755.8333 1339.5,-759.6667 1339.5,-759.6667 1339.5,-767.3333 1339.5,-767.3333 1339.5,-771.1667 1335.6667,-775 1331.8333,-775 1331.8333,-775 1213.1667,-775 1213.1667,-775 1209.3333,-775 1205.5,-771.1667 1205.5,-767.3333 1205.5,-767.3333 1205.5,-759.6667 1205.5,-759.6667 1205.5,-755.8333 1209.3333,-752 1213.1667,-752"/>
<text text-anchor="start" x="1256.5" y="-759.8" font-family="Times,serif" font-size="14.00" fill="#ffffff">INFO</text>
<polygon fill="#c0c0c0" stroke="transparent" points="1205.5,-727 1205.5,-748 1264.5,-748 1264.5,-727 1205.5,-727"/>
<text text-anchor="start" x="1233.5" y="-733.8" font-family="Times,serif" font-size="14.00" fill="#000000">ident</text>
<polygon fill="#c0c0c0" stroke="transparent" points="1268.5,-727 1268.5,-748 1339.5,-748 1339.5,-727 1268.5,-727"/>
<text text-anchor="start" x="1271.5" y="-733.8" font-family="Times,serif" font-size="14.00" fill="#000000">[number*8]</text>
<polygon fill="#c0c0c0" stroke="transparent" points="1205.5,-702 1205.5,-723 1264.5,-723 1264.5,-702 1205.5,-702"/>
<text text-anchor="start" x="1232.5" y="-708.8" font-family="Times,serif" font-size="14.00" fill="#000000">stype</text>
<polygon fill="#c0c0c0" stroke="transparent" points="1268.5,-702 1268.5,-723 1339.5,-723 1339.5,-702 1268.5,-702"/>
<text text-anchor="start" x="1271.5" y="-708.8" font-family="Times,serif" font-size="14.00" fill="#000000">[number*4]</text>
<polygon fill="#c0c0c0" stroke="transparent" points="1205.5,-677 1205.5,-698 1264.5,-698 1264.5,-677 1205.5,-677"/>
<text text-anchor="start" x="1208.5" y="-683.8" font-family="Times,serif" font-size="14.00" fill="#000000">endpoints</text>
<polygon fill="#c0c0c0" stroke="transparent" points="1268.5,-677 1268.5,-698 1339.5,-698 1339.5,-677 1268.5,-677"/>
<text text-anchor="start" x="1271.5" y="-683.8" font-family="Times,serif" font-size="14.00" fill="#000000">[hash]</text>
<text text-anchor="start" x="1240.5" y="-658.8" font-family="Times,serif" font-size="14.00" fill="#000000">lookup perf</text>
<text text-anchor="start" x="1239" y="-633.8" font-family="Times,serif" font-size="14.00" fill="#000000">set perf info</text>
<text text-anchor="start" x="1224.5" y="-608.8" font-family="Times,serif" font-size="14.00" fill="#000000">send (INFO_OK)</text>
<polygon fill="none" stroke="#000000" points="1200.5,-597.5 1200.5,-780.5 1344.5,-780.5 1344.5,-597.5 1200.5,-597.5"/>
</g>
<!-- s_have_perf&#45;&gt;m_have_perf_info -->
<g id="edge23" class="edge">
<title>s_have_perf&#45;&gt;m_have_perf_info</title>
<path fill="none" stroke="#000000" d="M925.4676,-876.2511C987.3896,-868.2353 1096.1264,-847.7926 1174.5,-797 1177.9008,-794.796 1181.2363,-792.4207 1184.503,-789.9058"/>
<polygon fill="#000000" stroke="#000000" points="1186.9525,-792.4241 1192.4794,-783.3851 1182.522,-787.0046 1186.9525,-792.4241"/>
</g>
<!-- s_have_perf&#45;&gt;m_have_perf_info -->
<g id="edge24" class="edge">
<title>s_have_perf&#45;&gt;m_have_perf_info</title>
<path fill="none" stroke="#000000" d="M935.6653,-876.5552C1002.5792,-868.7577 1113.1154,-848.4479 1192.5,-797 1198.2089,-793.3002 1203.7336,-789.1177 1209.0345,-784.6024"/>
<polygon fill="#000000" stroke="#000000" points="935.268,-873.0777 925.7152,-877.6596 936.0403,-880.0349 935.268,-873.0777"/>
</g>
<!-- m_defaults_ping -->
<g id="node13" class="node">
<title>m_defaults_ping</title>
<polygon fill="#ffffff" stroke="transparent" points="332.5,-156 332.5,-214 448.5,-214 448.5,-156 332.5,-156"/>
<path fill="#4d4d4d" stroke="transparent" d="M345.1667,-186C345.1667,-186 435.8333,-186 435.8333,-186 439.6667,-186 443.5,-189.8333 443.5,-193.6667 443.5,-193.6667 443.5,-201.3333 443.5,-201.3333 443.5,-205.1667 439.6667,-209 435.8333,-209 435.8333,-209 345.1667,-209 345.1667,-209 341.3333,-209 337.5,-205.1667 337.5,-201.3333 337.5,-201.3333 337.5,-193.6667 337.5,-193.6667 337.5,-189.8333 341.3333,-186 345.1667,-186"/>
<path fill="none" stroke="#000000" d="M345.1667,-186C345.1667,-186 435.8333,-186 435.8333,-186 439.6667,-186 443.5,-189.8333 443.5,-193.6667 443.5,-193.6667 443.5,-201.3333 443.5,-201.3333 443.5,-205.1667 439.6667,-209 435.8333,-209 435.8333,-209 345.1667,-209 345.1667,-209 341.3333,-209 337.5,-205.1667 337.5,-201.3333 337.5,-201.3333 337.5,-193.6667 337.5,-193.6667 337.5,-189.8333 341.3333,-186 345.1667,-186"/>
<text text-anchor="start" x="374.5" y="-193.8" font-family="Times,serif" font-size="14.00" fill="#ffffff">PING</text>
<text text-anchor="start" x="342.5" y="-167.8" font-family="Times,serif" font-size="14.00" fill="#000000">send (PING_OK)</text>
<polygon fill="none" stroke="#000000" points="332.5,-156 332.5,-214 448.5,-214 448.5,-156 332.5,-156"/>
</g>
<!-- s_defaults&#45;&gt;m_defaults_ping -->
<g id="edge26" class="edge">
<title>s_defaults&#45;&gt;m_defaults_ping</title>
<path fill="none" stroke="#000000" d="M444.1458,-373.2352C429.5619,-332.876 409.7755,-269.8215 398.5157,-227.9669"/>
<polygon fill="#000000" stroke="#000000" points="401.8413,-226.8512 395.9121,-218.0708 395.0717,-228.6323 401.8413,-226.8512"/>
</g>
<!-- s_defaults&#45;&gt;m_defaults_ping -->
<g id="edge27" class="edge">
<title>s_defaults&#45;&gt;m_defaults_ping</title>
<path fill="none" stroke="#000000" d="M451.0817,-360.2444C438.9802,-316.6228 419.5883,-255.5097 405.8148,-218.1777"/>
<polygon fill="#000000" stroke="#000000" points="447.7619,-361.3741 453.7708,-370.1002 454.515,-359.5315 447.7619,-361.3741"/>
</g>
<!-- m_defaults_goodbye -->
<g id="node14" class="node">
<title>m_defaults_goodbye</title>
<polygon fill="#ffffff" stroke="transparent" points="482.5,-143.5 482.5,-226.5 632.5,-226.5 632.5,-143.5 482.5,-143.5"/>
<path fill="#4d4d4d" stroke="transparent" d="M495.1667,-198C495.1667,-198 619.8333,-198 619.8333,-198 623.6667,-198 627.5,-201.8333 627.5,-205.6667 627.5,-205.6667 627.5,-213.3333 627.5,-213.3333 627.5,-217.1667 623.6667,-221 619.8333,-221 619.8333,-221 495.1667,-221 495.1667,-221 491.3333,-221 487.5,-217.1667 487.5,-213.3333 487.5,-213.3333 487.5,-205.6667 487.5,-205.6667 487.5,-201.8333 491.3333,-198 495.1667,-198"/>
<path fill="none" stroke="#000000" d="M495.1667,-198C495.1667,-198 619.8333,-198 619.8333,-198 623.6667,-198 627.5,-201.8333 627.5,-205.6667 627.5,-205.6667 627.5,-213.3333 627.5,-213.3333 627.5,-217.1667 623.6667,-221 619.8333,-221 619.8333,-221 495.1667,-221 495.1667,-221 491.3333,-221 487.5,-217.1667 487.5,-213.3333 487.5,-213.3333 487.5,-205.6667 487.5,-205.6667 487.5,-201.8333 491.3333,-198 495.1667,-198"/>
<text text-anchor="start" x="524" y="-205.8" font-family="Times,serif" font-size="14.00" fill="#ffffff">GOODBYE</text>
<text text-anchor="start" x="492.5" y="-179.8" font-family="Times,serif" font-size="14.00" fill="#000000">send (GOODBYE_OK)</text>
<text text-anchor="start" x="531.5" y="-154.8" font-family="Times,serif" font-size="14.00" fill="#000000">terminate</text>
<polygon fill="none" stroke="#000000" points="482.5,-143.5 482.5,-226.5 632.5,-226.5 632.5,-143.5 482.5,-143.5"/>
</g>
<!-- s_defaults&#45;&gt;m_defaults_goodbye -->
<g id="edge29" class="edge">
<title>s_defaults&#45;&gt;m_defaults_goodbye</title>
<path fill="none" stroke="#000000" d="M473.4457,-371.1548C487.2783,-334.4441 510.0204,-280.2392 528.462,-239.7766"/>
<polygon fill="#000000" stroke="#000000" points="531.6902,-241.1339 532.687,-230.586 525.33,-238.21 531.6902,-241.1339"/>
</g>
<!-- s_defaults&#45;&gt;m_defaults_goodbye -->
<g id="edge30" class="edge">
<title>s_defaults&#45;&gt;m_defaults_goodbye</title>
<path fill="none" stroke="#000000" d="M486.5624,-365.8761C504.8548,-326.4034 528.7471,-269.8905 543.7593,-230.5764"/>
<polygon fill="#000000" stroke="#000000" points="483.3501,-364.4828 482.2784,-375.0233 489.6893,-367.4518 483.3501,-364.4828"/>
</g>
<!-- m_defaults_expired -->
<g id="node15" class="node">
<title>m_defaults_expired</title>
<polygon fill="#ffffff" stroke="transparent" points="666.5,-156 666.5,-214 738.5,-214 738.5,-156 666.5,-156"/>
<path fill="#e5e5e5" stroke="transparent" d="M679.1667,-186C679.1667,-186 725.8333,-186 725.8333,-186 729.6667,-186 733.5,-189.8333 733.5,-193.6667 733.5,-193.6667 733.5,-201.3333 733.5,-201.3333 733.5,-205.1667 729.6667,-209 725.8333,-209 725.8333,-209 679.1667,-209 679.1667,-209 675.3333,-209 671.5,-205.1667 671.5,-201.3333 671.5,-201.3333 671.5,-193.6667 671.5,-193.6667 671.5,-189.8333 675.3333,-186 679.1667,-186"/>
<path fill="none" stroke="#000000" d="M679.1667,-186C679.1667,-186 725.8333,-186 725.8333,-186 729.6667,-186 733.5,-189.8333 733.5,-193.6667 733.5,-193.6667 733.5,-201.3333 733.5,-201.3333 733.5,-205.1667 729.6667,-209 725.8333,-209 725.8333,-209 679.1667,-209 679.1667,-209 675.3333,-209 671.5,-205.1667 671.5,-201.3333 671.5,-201.3333 671.5,-193.6667 671.5,-193.6667 671.5,-189.8333 675.3333,-186 679.1667,-186"/>
<text text-anchor="start" x="682" y="-193.8" font-family="Times,serif" font-size="14.00" fill="#000000">expired</text>
<text text-anchor="start" x="676.5" y="-167.8" font-family="Times,serif" font-size="14.00" fill="#000000">terminate</text>
<polygon fill="none" stroke="#000000" points="666.5,-156 666.5,-214 738.5,-214 738.5,-156 666.5,-156"/>
</g>
<!-- s_defaults&#45;&gt;m_defaults_expired -->
<g id="edge32" class="edge">
<title>s_defaults&#45;&gt;m_defaults_expired</title>
<path fill="none" stroke="#000000" d="M484.3586,-376.2538C507.51,-347.9932 544.5618,-308.5217 581.5,-279 605.496,-259.822 616.7919,-262.5328 640.5,-243 646.9317,-237.701 653.312,-231.628 659.4216,-225.4521"/>
<polygon fill="#000000" stroke="#000000" points="662.009,-227.8115 666.4561,-218.1951 656.9828,-222.9393 662.009,-227.8115"/>
</g>
<!-- s_defaults&#45;&gt;m_defaults_expired -->
<g id="edge33" class="edge">
<title>s_defaults&#45;&gt;m_defaults_expired</title>
<path fill="none" stroke="#000000" d="M499.5175,-375.6506C526.0358,-347.4336 562.8239,-308.3122 599.5,-279 623.496,-259.822 634.7919,-262.5328 658.5,-243 667.4484,-235.6275 676.2975,-226.7566 683.7972,-218.1951"/>
<polygon fill="#000000" stroke="#000000" points="496.9639,-373.257 492.6618,-382.9391 502.0627,-378.0531 496.9639,-373.257"/>
</g>
<!-- m_defaults_exception -->
<g id="node16" class="node">
<title>m_defaults_exception</title>
<polygon fill="#ffffff" stroke="transparent" points="8,-143.5 8,-226.5 111,-226.5 111,-143.5 8,-143.5"/>
<path fill="#e5e5e5" stroke="transparent" d="M21.1667,-198C21.1667,-198 98.8333,-198 98.8333,-198 102.6667,-198 106.5,-201.8333 106.5,-205.6667 106.5,-205.6667 106.5,-213.3333 106.5,-213.3333 106.5,-217.1667 102.6667,-221 98.8333,-221 98.8333,-221 21.1667,-221 21.1667,-221 17.3333,-221 13.5,-217.1667 13.5,-213.3333 13.5,-213.3333 13.5,-205.6667 13.5,-205.6667 13.5,-201.8333 17.3333,-198 21.1667,-198"/>
<path fill="none" stroke="#000000" d="M21.1667,-198C21.1667,-198 98.8333,-198 98.8333,-198 102.6667,-198 106.5,-201.8333 106.5,-205.6667 106.5,-205.6667 106.5,-213.3333 106.5,-213.3333 106.5,-217.1667 102.6667,-221 98.8333,-221 98.8333,-221 21.1667,-221 21.1667,-221 17.3333,-221 13.5,-217.1667 13.5,-213.3333 13.5,-213.3333 13.5,-205.6667 13.5,-205.6667 13.5,-201.8333 17.3333,-198 21.1667,-198"/>
<text text-anchor="start" x="33.5" y="-205.8" font-family="Times,serif" font-size="14.00" fill="#000000">exception</text>
<text text-anchor="start" x="18.5" y="-179.8" font-family="Times,serif" font-size="14.00" fill="#000000">send (ERROR)</text>
<text text-anchor="start" x="34" y="-154.8" font-family="Times,serif" font-size="14.00" fill="#000000">terminate</text>
<polygon fill="none" stroke="#000000" points="8,-143.5 8,-226.5 111,-226.5 111,-143.5 8,-143.5"/>
</g>
<!-- s_defaults&#45;&gt;m_defaults_exception -->
<g id="edge34" class="edge">
<title>s_defaults&#45;&gt;m_defaults_exception</title>
<path fill="none" stroke="#000000" d="M449.2707,-371.142C441.7615,-340.8444 428.8435,-301.1127 400.5,-279 300.8806,-201.2799 234.0445,-294.1266 118.5,-243 114.119,-241.0615 109.8056,-238.7469 105.6231,-236.1751"/>
<polygon fill="#000000" stroke="#000000" points="107.5007,-233.2203 97.2418,-230.5733 103.6108,-239.0401 107.5007,-233.2203"/>
</g>
<!-- s_defaults&#45;&gt;m_defaults_exception -->
<g id="edge35" class="edge">
<title>s_defaults&#45;&gt;m_defaults_exception</title>
<path fill="none" stroke="#000000" d="M461.9957,-359.4171C456.299,-331.207 443.3082,-298.3546 418.5,-279 318.8806,-201.2799 252.0445,-294.1266 136.5,-243 129.1214,-239.7351 121.9347,-235.4035 115.091,-230.5733"/>
<polygon fill="#000000" stroke="#000000" points="458.6005,-360.3201 463.7728,-369.5666 465.4956,-359.1128 458.6005,-360.3201"/>
</g>
<!-- m_defaults__ -->
<g id="node17" class="node">
<title>m_defaults__</title>
<polygon fill="#ffffff" stroke="transparent" points="145,-131 145,-239 298,-239 298,-131 145,-131"/>
<path fill="#e5e5e5" stroke="transparent" d="M158.1667,-211C158.1667,-211 285.8333,-211 285.8333,-211 289.6667,-211 293.5,-214.8333 293.5,-218.6667 293.5,-218.6667 293.5,-226.3333 293.5,-226.3333 293.5,-230.1667 289.6667,-234 285.8333,-234 285.8333,-234 158.1667,-234 158.1667,-234 154.3333,-234 150.5,-230.1667 150.5,-226.3333 150.5,-226.3333 150.5,-218.6667 150.5,-218.6667 150.5,-214.8333 154.3333,-211 158.1667,-211"/>
<path fill="none" stroke="#000000" d="M158.1667,-211C158.1667,-211 285.8333,-211 285.8333,-211 289.6667,-211 293.5,-214.8333 293.5,-218.6667 293.5,-218.6667 293.5,-226.3333 293.5,-226.3333 293.5,-230.1667 289.6667,-234 285.8333,-234 285.8333,-234 158.1667,-234 158.1667,-234 154.3333,-234 150.5,-230.1667 150.5,-226.3333 150.5,-226.3333 150.5,-218.6667 150.5,-218.6667 150.5,-214.8333 154.3333,-211 158.1667,-211"/>
<text text-anchor="start" x="218.5" y="-218.8" font-family="Times,serif" font-size="14.00" fill="#000000">*</text>
<text text-anchor="start" x="155.5" y="-192.8" font-family="Times,serif" font-size="14.00" fill="#000000">signal command invalid</text>
<text text-anchor="start" x="180.5" y="-167.8" font-family="Times,serif" font-size="14.00" fill="#000000">send (ERROR)</text>
<text text-anchor="start" x="196" y="-142.8" font-family="Times,serif" font-size="14.00" fill="#000000">terminate</text>
<polygon fill="none" stroke="#000000" points="145,-131 145,-239 298,-239 298,-131 145,-131"/>
</g>
<!-- s_defaults&#45;&gt;m_defaults__ -->
<g id="edge37" class="edge">
<title>s_defaults&#45;&gt;m_defaults__</title>
<path fill="none" stroke="#000000" d="M447.4101,-372.044C439.0263,-342.8237 425.7441,-304.0691 400.5,-279 371.2364,-249.9393 350.1209,-260.7193 315.3811,-246.943"/>
<polygon fill="#000000" stroke="#000000" points="316.801,-243.744 306.2421,-242.8723 313.9528,-250.1384 316.801,-243.744"/>
</g>
<!-- s_defaults&#45;&gt;m_defaults__ -->
<g id="edge38" class="edge">
<title>s_defaults&#45;&gt;m_defaults__</title>
<path fill="none" stroke="#000000" d="M459.6102,-359.4633C453.1327,-332.3882 440.2605,-300.6096 418.5,-279 386.7564,-247.4765 364.6005,-262.8325 324.5,-243 318.484,-240.0246 312.3559,-236.7787 306.2359,-233.3918"/>
<polygon fill="#000000" stroke="#000000" points="456.2612,-360.5378 461.7849,-369.5788 463.1048,-359.0665 456.2612,-360.5378"/>
</g>
<!-- m_hello_ok -->
<g id="node18" class="node">
<title>m_hello_ok</title>
<polygon fill="#ffffff" stroke="transparent" points="772.5,-156 772.5,-214 892.5,-214 892.5,-156 772.5,-156"/>
<path fill="#4d4d4d" stroke="transparent" d="M785.1667,-186C785.1667,-186 879.8333,-186 879.8333,-186 883.6667,-186 887.5,-189.8333 887.5,-193.6667 887.5,-193.6667 887.5,-201.3333 887.5,-201.3333 887.5,-205.1667 883.6667,-209 879.8333,-209 879.8333,-209 785.1667,-209 785.1667,-209 781.3333,-209 777.5,-205.1667 777.5,-201.3333 777.5,-201.3333 777.5,-193.6667 777.5,-193.6667 777.5,-189.8333 781.3333,-186 785.1667,-186"/>
<path fill="none" stroke="#000000" d="M785.1667,-186C785.1667,-186 879.8333,-186 879.8333,-186 883.6667,-186 887.5,-189.8333 887.5,-193.6667 887.5,-193.6667 887.5,-201.3333 887.5,-201.3333 887.5,-205.1667 883.6667,-209 879.8333,-209 879.8333,-209 785.1667,-209 785.1667,-209 781.3333,-209 777.5,-205.1667 777.5,-201.3333 777.5,-201.3333 777.5,-193.6667 777.5,-193.6667 777.5,-189.8333 781.3333,-186 785.1667,-186"/>
<text text-anchor="start" x="798.5" y="-193.8" font-family="Times,serif" font-size="14.00" fill="#ffffff">HELLO OK</text>
<polygon fill="#c0c0c0" stroke="transparent" points="777.5,-161 777.5,-182 837.5,-182 837.5,-161 777.5,-161"/>
<text text-anchor="start" x="780.5" y="-167.8" font-family="Times,serif" font-size="14.00" fill="#000000">nickname</text>
<polygon fill="#c0c0c0" stroke="transparent" points="841.5,-161 841.5,-182 887.5,-182 887.5,-161 841.5,-161"/>
<text text-anchor="start" x="844.5" y="-167.8" font-family="Times,serif" font-size="14.00" fill="#000000">[string]</text>
<polygon fill="none" stroke="#000000" points="772.5,-156 772.5,-214 892.5,-214 892.5,-156 772.5,-156"/>
</g>
<!-- m_start_hello&#45;&gt;m_hello_ok -->
<g id="edge6" class="edge">
<title>m_start_hello:hello_ok&#45;&gt;m_hello_ok</title>
<path fill="none" stroke="#000000" stroke-dasharray="1,5" d="M732.5,-385C756.5575,-385 744.0652,-300.6767 754.5,-279 763.6642,-259.9626 777.5098,-241.5055 791.0048,-226.0605"/>
<polygon fill="#000000" stroke="#000000" points="798.0031,-218.2712 794.6672,-228.7174 794.6615,-221.9905 791.3198,-225.7098 791.3198,-225.7098 791.3198,-225.7098 794.6615,-221.9905 787.9724,-222.7023 798.0031,-218.2712 798.0031,-218.2712"/>
</g>
<!-- m_perf_ok -->
<g id="node19" class="node">
<title>m_perf_ok</title>
<polygon fill="#ffffff" stroke="transparent" points="927,-156 927,-214 1046,-214 1046,-156 927,-156"/>
<path fill="#4d4d4d" stroke="transparent" d="M940.1667,-186C940.1667,-186 1033.8333,-186 1033.8333,-186 1037.6667,-186 1041.5,-189.8333 1041.5,-193.6667 1041.5,-193.6667 1041.5,-201.3333 1041.5,-201.3333 1041.5,-205.1667 1037.6667,-209 1033.8333,-209 1033.8333,-209 940.1667,-209 940.1667,-209 936.3333,-209 932.5,-205.1667 932.5,-201.3333 932.5,-201.3333 932.5,-193.6667 932.5,-193.6667 932.5,-189.8333 936.3333,-186 940.1667,-186"/>
<path fill="none" stroke="#000000" d="M940.1667,-186C940.1667,-186 1033.8333,-186 1033.8333,-186 1037.6667,-186 1041.5,-189.8333 1041.5,-193.6667 1041.5,-193.6667 1041.5,-201.3333 1041.5,-201.3333 1041.5,-205.1667 1037.6667,-209 1033.8333,-209 1033.8333,-209 940.1667,-209 940.1667,-209 936.3333,-209 932.5,-205.1667 932.5,-201.3333 932.5,-201.3333 932.5,-193.6667 932.5,-193.6667 932.5,-189.8333 936.3333,-186 940.1667,-186"/>
<text text-anchor="start" x="959" y="-193.8" font-family="Times,serif" font-size="14.00" fill="#ffffff">PERF OK</text>
<polygon fill="#c0c0c0" stroke="transparent" points="932.5,-161 932.5,-182 966.5,-182 966.5,-161 932.5,-161"/>
<text text-anchor="start" x="935.5" y="-167.8" font-family="Times,serif" font-size="14.00" fill="#000000">ident</text>
<polygon fill="#c0c0c0" stroke="transparent" points="970.5,-161 970.5,-182 1041.5,-182 1041.5,-161 970.5,-161"/>
<text text-anchor="start" x="973.5" y="-167.8" font-family="Times,serif" font-size="14.00" fill="#000000">[number*8]</text>
<polygon fill="none" stroke="#000000" points="927,-156 927,-214 1046,-214 1046,-156 927,-156"/>
</g>
<!-- m_connected_create&#45;&gt;m_perf_ok -->
<g id="edge9" class="edge">
<title>m_connected_create:perf_ok&#45;&gt;m_perf_ok</title>
<path fill="none" stroke="#000000" stroke-dasharray="1,5" d="M886.5,-373C929.4067,-373 889.4027,-317.4224 908.5,-279 917.904,-260.0799 931.8027,-241.6487 945.2731,-226.1917"/>
<polygon fill="#000000" stroke="#000000" points="952.2521,-218.393 948.9368,-228.8457 948.9178,-222.1189 945.5835,-225.8448 945.5835,-225.8448 945.5835,-225.8448 948.9178,-222.1189 942.2302,-222.844 952.2521,-218.393 952.2521,-218.393"/>
</g>
<!-- m_connected_lookup&#45;&gt;m_perf_ok -->
<g id="edge12" class="edge">
<title>m_connected_lookup:perf_ok&#45;&gt;m_perf_ok</title>
<path fill="none" stroke="#000000" stroke-dasharray="1,5" d="M986.5,-363C986.5,-317.0134 986.5,-264.3439 986.5,-228.2998"/>
<polygon fill="#000000" stroke="#000000" points="986.5,-218.1342 991.0001,-228.1342 986.5,-223.1342 986.5001,-228.1342 986.5001,-228.1342 986.5001,-228.1342 986.5,-223.1342 982.0001,-228.1342 986.5,-218.1342 986.5,-218.1342"/>
</g>
<!-- m_socket_ok -->
<g id="node21" class="node">
<title>m_socket_ok</title>
<polygon fill="#ffffff" stroke="transparent" points="254,-358 254,-466 393,-466 393,-358 254,-358"/>
<path fill="#4d4d4d" stroke="transparent" d="M267.1667,-438C267.1667,-438 380.8333,-438 380.8333,-438 384.6667,-438 388.5,-441.8333 388.5,-445.6667 388.5,-445.6667 388.5,-453.3333 388.5,-453.3333 388.5,-457.1667 384.6667,-461 380.8333,-461 380.8333,-461 267.1667,-461 267.1667,-461 263.3333,-461 259.5,-457.1667 259.5,-453.3333 259.5,-453.3333 259.5,-445.6667 259.5,-445.6667 259.5,-441.8333 263.3333,-438 267.1667,-438"/>
<path fill="none" stroke="#000000" d="M267.1667,-438C267.1667,-438 380.8333,-438 380.8333,-438 384.6667,-438 388.5,-441.8333 388.5,-445.6667 388.5,-445.6667 388.5,-453.3333 388.5,-453.3333 388.5,-457.1667 384.6667,-461 380.8333,-461 380.8333,-461 267.1667,-461 267.1667,-461 263.3333,-461 259.5,-457.1667 259.5,-453.3333 259.5,-453.3333 259.5,-445.6667 259.5,-445.6667 259.5,-441.8333 263.3333,-438 267.1667,-438"/>
<text text-anchor="start" x="286" y="-445.8" font-family="Times,serif" font-size="14.00" fill="#ffffff">SOCKET OK</text>
<polygon fill="#c0c0c0" stroke="transparent" points="259.5,-413 259.5,-434 313.5,-434 313.5,-413 259.5,-413"/>
<text text-anchor="start" x="282.5" y="-419.8" font-family="Times,serif" font-size="14.00" fill="#000000">ident</text>
<polygon fill="#c0c0c0" stroke="transparent" points="317.5,-413 317.5,-434 388.5,-434 388.5,-413 317.5,-413"/>
<text text-anchor="start" x="320.5" y="-419.8" font-family="Times,serif" font-size="14.00" fill="#000000">[number*8]</text>
<polygon fill="#c0c0c0" stroke="transparent" points="259.5,-388 259.5,-409 313.5,-409 313.5,-388 259.5,-388"/>
<text text-anchor="start" x="285.5" y="-394.8" font-family="Times,serif" font-size="14.00" fill="#000000">borc</text>
<polygon fill="#c0c0c0" stroke="transparent" points="317.5,-388 317.5,-409 388.5,-409 388.5,-388 317.5,-388"/>
<text text-anchor="start" x="320.5" y="-394.8" font-family="Times,serif" font-size="14.00" fill="#000000">[string]</text>
<polygon fill="#c0c0c0" stroke="transparent" points="259.5,-363 259.5,-384 313.5,-384 313.5,-363 259.5,-363"/>
<text text-anchor="start" x="262.5" y="-369.8" font-family="Times,serif" font-size="14.00" fill="#000000">endpoint</text>
<polygon fill="#c0c0c0" stroke="transparent" points="317.5,-363 317.5,-384 388.5,-384 388.5,-363 317.5,-363"/>
<text text-anchor="start" x="320.5" y="-369.8" font-family="Times,serif" font-size="14.00" fill="#000000">[string]</text>
<polygon fill="none" stroke="#000000" points="254,-358 254,-466 393,-466 393,-358 254,-358"/>
</g>
<!-- m_have_perf_socket_return&#45;&gt;m_socket_ok -->
<g id="edge17" class="edge">
<title>m_have_perf_socket_return:socket_ok&#45;&gt;m_socket_ok</title>
<path fill="none" stroke="#000000" stroke-dasharray="1,5" d="M338.5,-652C338.5,-593.9263 334.0711,-528.1018 330.0264,-480.0968"/>
<polygon fill="#000000" stroke="#000000" points="329.1709,-470.1327 334.5099,-479.7111 329.5986,-475.1144 330.0264,-480.0961 330.0264,-480.0961 330.0264,-480.0961 329.5986,-475.1144 325.5429,-480.4811 329.1709,-470.1327 329.1709,-470.1327"/>
</g>
<!-- m_result -->
<g id="node22" class="node">
<title>m_result</title>
<polygon fill="#ffffff" stroke="transparent" points="1079,-283 1079,-541 1216,-541 1216,-283 1079,-283"/>
<path fill="#4d4d4d" stroke="transparent" d="M1092.1667,-513C1092.1667,-513 1203.8333,-513 1203.8333,-513 1207.6667,-513 1211.5,-516.8333 1211.5,-520.6667 1211.5,-520.6667 1211.5,-528.3333 1211.5,-528.3333 1211.5,-532.1667 1207.6667,-536 1203.8333,-536 1203.8333,-536 1092.1667,-536 1092.1667,-536 1088.3333,-536 1084.5,-532.1667 1084.5,-528.3333 1084.5,-528.3333 1084.5,-520.6667 1084.5,-520.6667 1084.5,-516.8333 1088.3333,-513 1092.1667,-513"/>
<path fill="none" stroke="#000000" d="M1092.1667,-513C1092.1667,-513 1203.8333,-513 1203.8333,-513 1207.6667,-513 1211.5,-516.8333 1211.5,-520.6667 1211.5,-520.6667 1211.5,-528.3333 1211.5,-528.3333 1211.5,-532.1667 1207.6667,-536 1203.8333,-536 1203.8333,-536 1092.1667,-536 1092.1667,-536 1088.3333,-536 1084.5,-532.1667 1084.5,-528.3333 1084.5,-528.3333 1084.5,-520.6667 1084.5,-520.6667 1084.5,-516.8333 1088.3333,-513 1092.1667,-513"/>
<text text-anchor="start" x="1122" y="-520.8" font-family="Times,serif" font-size="14.00" fill="#ffffff">RESULT</text>
<polygon fill="#c0c0c0" stroke="transparent" points="1084.5,-488 1084.5,-509 1136.5,-509 1136.5,-488 1084.5,-488"/>
<text text-anchor="start" x="1105.5" y="-494.8" font-family="Times,serif" font-size="14.00" fill="#000000">ident</text>
<polygon fill="#c0c0c0" stroke="transparent" points="1140.5,-488 1140.5,-509 1211.5,-509 1211.5,-488 1140.5,-488"/>
<text text-anchor="start" x="1143.5" y="-494.8" font-family="Times,serif" font-size="14.00" fill="#000000">[number*8]</text>
<polygon fill="#c0c0c0" stroke="transparent" points="1084.5,-463 1084.5,-484 1136.5,-484 1136.5,-463 1084.5,-463"/>
<text text-anchor="start" x="1087.5" y="-469.8" font-family="Times,serif" font-size="14.00" fill="#000000">measure</text>
<polygon fill="#c0c0c0" stroke="transparent" points="1140.5,-463 1140.5,-484 1211.5,-484 1211.5,-463 1140.5,-463"/>
<text text-anchor="start" x="1143.5" y="-469.8" font-family="Times,serif" font-size="14.00" fill="#000000">[string]</text>
<polygon fill="#c0c0c0" stroke="transparent" points="1084.5,-438 1084.5,-459 1136.5,-459 1136.5,-438 1084.5,-438"/>
<text text-anchor="start" x="1097.5" y="-444.8" font-family="Times,serif" font-size="14.00" fill="#000000">nmsgs</text>
<polygon fill="#c0c0c0" stroke="transparent" points="1140.5,-438 1140.5,-459 1211.5,-459 1211.5,-438 1140.5,-438"/>
<text text-anchor="start" x="1143.5" y="-444.8" font-family="Times,serif" font-size="14.00" fill="#000000">[number*4]</text>
<polygon fill="#c0c0c0" stroke="transparent" points="1084.5,-413 1084.5,-434 1136.5,-434 1136.5,-413 1084.5,-413"/>
<text text-anchor="start" x="1088.5" y="-419.8" font-family="Times,serif" font-size="14.00" fill="#000000">msgsize</text>
<polygon fill="#c0c0c0" stroke="transparent" points="1140.5,-413 1140.5,-434 1211.5,-434 1211.5,-413 1140.5,-413"/>
<text text-anchor="start" x="1143.5" y="-419.8" font-family="Times,serif" font-size="14.00" fill="#000000">[number*8]</text>
<polygon fill="#c0c0c0" stroke="transparent" points="1084.5,-388 1084.5,-409 1136.5,-409 1136.5,-388 1084.5,-388"/>
<text text-anchor="start" x="1090.5" y="-394.8" font-family="Times,serif" font-size="14.00" fill="#000000">timeout</text>
<polygon fill="#c0c0c0" stroke="transparent" points="1140.5,-388 1140.5,-409 1211.5,-409 1211.5,-388 1140.5,-388"/>
<text text-anchor="start" x="1143.5" y="-394.8" font-family="Times,serif" font-size="14.00" fill="#000000">[number*4]</text>
<polygon fill="#c0c0c0" stroke="transparent" points="1084.5,-363 1084.5,-384 1136.5,-384 1136.5,-363 1084.5,-363"/>
<text text-anchor="start" x="1089.5" y="-369.8" font-family="Times,serif" font-size="14.00" fill="#000000">time_us</text>
<polygon fill="#c0c0c0" stroke="transparent" points="1140.5,-363 1140.5,-384 1211.5,-384 1211.5,-363 1140.5,-363"/>
<text text-anchor="start" x="1143.5" y="-369.8" font-family="Times,serif" font-size="14.00" fill="#000000">[number*8]</text>
<polygon fill="#c0c0c0" stroke="transparent" points="1084.5,-338 1084.5,-359 1136.5,-359 1136.5,-338 1084.5,-338"/>
<text text-anchor="start" x="1094.5" y="-344.8" font-family="Times,serif" font-size="14.00" fill="#000000">cpu_us</text>
<polygon fill="#c0c0c0" stroke="transparent" points="1140.5,-338 1140.5,-359 1211.5,-359 1211.5,-338 1140.5,-338"/>
<text text-anchor="start" x="1143.5" y="-344.8" font-family="Times,serif" font-size="14.00" fill="#000000">[number*8]</text>
<polygon fill="#c0c0c0" stroke="transparent" points="1084.5,-313 1084.5,-334 1136.5,-334 1136.5,-313 1084.5,-313"/>
<text text-anchor="start" x="1107.5" y="-319.8" font-family="Times,serif" font-size="14.00" fill="#000000">noos</text>
<polygon fill="#c0c0c0" stroke="transparent" points="1140.5,-313 1140.5,-334 1211.5,-334 1211.5,-313 1140.5,-313"/>
<text text-anchor="start" x="1143.5" y="-319.8" font-family="Times,serif" font-size="14.00" fill="#000000">[number*4]</text>
<polygon fill="#c0c0c0" stroke="transparent" points="1084.5,-288 1084.5,-309 1136.5,-309 1136.5,-288 1084.5,-288"/>
<text text-anchor="start" x="1097.5" y="-294.8" font-family="Times,serif" font-size="14.00" fill="#000000">nbytes</text>
<polygon fill="#c0c0c0" stroke="transparent" points="1140.5,-288 1140.5,-309 1211.5,-309 1211.5,-288 1140.5,-288"/>
<text text-anchor="start" x="1143.5" y="-294.8" font-family="Times,serif" font-size="14.00" fill="#000000">[number*8]</text>
<polygon fill="none" stroke="#000000" points="1079,-283 1079,-541 1216,-541 1216,-283 1079,-283"/>
</g>
<!-- m_have_perf_measure_return&#45;&gt;m_result -->
<g id="edge22" class="edge">
<title>m_have_perf_measure_return:result&#45;&gt;m_result</title>
<path fill="none" stroke="#000000" stroke-dasharray="1,5" d="M1112.5,-665C1112.5,-629.2311 1115.9751,-590.8838 1120.7353,-555.1344"/>
<polygon fill="#000000" stroke="#000000" points="1122.1102,-545.1244 1125.2075,-555.6438 1121.4298,-550.0779 1120.7494,-555.0314 1120.7494,-555.0314 1120.7494,-555.0314 1121.4298,-550.0779 1116.2912,-554.4191 1122.1102,-545.1244 1122.1102,-545.1244"/>
</g>
<!-- m_info_ok -->
<g id="node20" class="node">
<title>m_info_ok</title>
<polygon fill="#ffffff" stroke="transparent" points="1250,-370.5 1250,-453.5 1385,-453.5 1385,-370.5 1250,-370.5"/>
<path fill="#4d4d4d" stroke="transparent" d="M1263.1667,-425C1263.1667,-425 1372.8333,-425 1372.8333,-425 1376.6667,-425 1380.5,-428.8333 1380.5,-432.6667 1380.5,-432.6667 1380.5,-440.3333 1380.5,-440.3333 1380.5,-444.1667 1376.6667,-448 1372.8333,-448 1372.8333,-448 1263.1667,-448 1263.1667,-448 1259.3333,-448 1255.5,-444.1667 1255.5,-440.3333 1255.5,-440.3333 1255.5,-432.6667 1255.5,-432.6667 1255.5,-428.8333 1259.3333,-425 1263.1667,-425"/>
<path fill="none" stroke="#000000" d="M1263.1667,-425C1263.1667,-425 1372.8333,-425 1372.8333,-425 1376.6667,-425 1380.5,-428.8333 1380.5,-432.6667 1380.5,-432.6667 1380.5,-440.3333 1380.5,-440.3333 1380.5,-444.1667 1376.6667,-448 1372.8333,-448 1372.8333,-448 1263.1667,-448 1263.1667,-448 1259.3333,-448 1255.5,-444.1667 1255.5,-440.3333 1255.5,-440.3333 1255.5,-432.6667 1255.5,-432.6667 1255.5,-428.8333 1259.3333,-425 1263.1667,-425"/>
<text text-anchor="start" x="1290.5" y="-432.8" font-family="Times,serif" font-size="14.00" fill="#ffffff">INFO OK</text>
<polygon fill="#c0c0c0" stroke="transparent" points="1255.5,-400 1255.5,-421 1305.5,-421 1305.5,-400 1255.5,-400"/>
<text text-anchor="start" x="1274.5" y="-406.8" font-family="Times,serif" font-size="14.00" fill="#000000">ident</text>
<polygon fill="#c0c0c0" stroke="transparent" points="1309.5,-400 1309.5,-421 1380.5,-421 1380.5,-400 1309.5,-400"/>
<text text-anchor="start" x="1312.5" y="-406.8" font-family="Times,serif" font-size="14.00" fill="#000000">[number*8]</text>
<polygon fill="#c0c0c0" stroke="transparent" points="1255.5,-375 1255.5,-396 1305.5,-396 1305.5,-375 1255.5,-375"/>
<text text-anchor="start" x="1258.5" y="-381.8" font-family="Times,serif" font-size="14.00" fill="#000000">perfinfo</text>
<polygon fill="#c0c0c0" stroke="transparent" points="1309.5,-375 1309.5,-396 1380.5,-396 1380.5,-375 1309.5,-375"/>
<text text-anchor="start" x="1312.5" y="-381.8" font-family="Times,serif" font-size="14.00" fill="#000000">[string]</text>
<polygon fill="none" stroke="#000000" points="1250,-370.5 1250,-453.5 1385,-453.5 1385,-370.5 1250,-370.5"/>
</g>
<!-- m_have_perf_info&#45;&gt;m_info_ok -->
<g id="edge25" class="edge">
<title>m_have_perf_info:info_ok&#45;&gt;m_info_ok</title>
<path fill="none" stroke="#000000" stroke-dasharray="1,5" d="M1272.5,-602C1272.5,-555.7899 1285.2597,-504.9186 1297.1902,-467.453"/>
<polygon fill="#000000" stroke="#000000" points="1300.3591,-457.7431 1301.5345,-468.6458 1298.8078,-462.4964 1297.2565,-467.2497 1297.2565,-467.2497 1297.2565,-467.2497 1298.8078,-462.4964 1292.9786,-465.8535 1300.3591,-457.7431 1300.3591,-457.7431"/>
</g>
<!-- m_ping_ok -->
<g id="node23" class="node">
<title>m_ping_ok</title>
<polygon fill="#ffffff" stroke="transparent" points="353.5,-29 353.5,-62 427.5,-62 427.5,-29 353.5,-29"/>
<path fill="#4d4d4d" stroke="transparent" d="M366.1667,-33.5C366.1667,-33.5 414.8333,-33.5 414.8333,-33.5 418.6667,-33.5 422.5,-37.3333 422.5,-41.1667 422.5,-41.1667 422.5,-48.8333 422.5,-48.8333 422.5,-52.6667 418.6667,-56.5 414.8333,-56.5 414.8333,-56.5 366.1667,-56.5 366.1667,-56.5 362.3333,-56.5 358.5,-52.6667 358.5,-48.8333 358.5,-48.8333 358.5,-41.1667 358.5,-41.1667 358.5,-37.3333 362.3333,-33.5 366.1667,-33.5"/>
<path fill="none" stroke="#000000" d="M366.1667,-33.5C366.1667,-33.5 414.8333,-33.5 414.8333,-33.5 418.6667,-33.5 422.5,-37.3333 422.5,-41.1667 422.5,-41.1667 422.5,-48.8333 422.5,-48.8333 422.5,-52.6667 418.6667,-56.5 414.8333,-56.5 414.8333,-56.5 366.1667,-56.5 366.1667,-56.5 362.3333,-56.5 358.5,-52.6667 358.5,-48.8333 358.5,-48.8333 358.5,-41.1667 358.5,-41.1667 358.5,-37.3333 362.3333,-33.5 366.1667,-33.5"/>
<text text-anchor="start" x="363" y="-41.3" font-family="Times,serif" font-size="14.00" fill="#ffffff">PING OK</text>
<polygon fill="none" stroke="#000000" points="353.5,-29 353.5,-62 427.5,-62 427.5,-29 353.5,-29"/>
</g>
<!-- m_defaults_ping&#45;&gt;m_ping_ok -->
<g id="edge28" class="edge">
<title>m_defaults_ping:ping_ok&#45;&gt;m_ping_ok</title>
<path fill="none" stroke="#000000" stroke-dasharray="1,5" d="M390.5,-161C390.5,-132.4375 390.5,-99.9019 390.5,-76.6574"/>
<polygon fill="#000000" stroke="#000000" points="390.5,-66.3654 395.0001,-76.3653 390.5,-71.3654 390.5001,-76.3654 390.5001,-76.3654 390.5001,-76.3654 390.5,-71.3654 386.0001,-76.3654 390.5,-66.3654 390.5,-66.3654"/>
</g>
<!-- m_goodbye_ok -->
<g id="node24" class="node">
<title>m_goodbye_ok</title>
<polygon fill="#ffffff" stroke="transparent" points="503.5,-29 503.5,-62 611.5,-62 611.5,-29 503.5,-29"/>
<path fill="#4d4d4d" stroke="transparent" d="M516.1667,-33.5C516.1667,-33.5 598.8333,-33.5 598.8333,-33.5 602.6667,-33.5 606.5,-37.3333 606.5,-41.1667 606.5,-41.1667 606.5,-48.8333 606.5,-48.8333 606.5,-52.6667 602.6667,-56.5 598.8333,-56.5 598.8333,-56.5 516.1667,-56.5 516.1667,-56.5 512.3333,-56.5 508.5,-52.6667 508.5,-48.8333 508.5,-48.8333 508.5,-41.1667 508.5,-41.1667 508.5,-37.3333 512.3333,-33.5 516.1667,-33.5"/>
<path fill="none" stroke="#000000" d="M516.1667,-33.5C516.1667,-33.5 598.8333,-33.5 598.8333,-33.5 602.6667,-33.5 606.5,-37.3333 606.5,-41.1667 606.5,-41.1667 606.5,-48.8333 606.5,-48.8333 606.5,-52.6667 602.6667,-56.5 598.8333,-56.5 598.8333,-56.5 516.1667,-56.5 516.1667,-56.5 512.3333,-56.5 508.5,-52.6667 508.5,-48.8333 508.5,-48.8333 508.5,-41.1667 508.5,-41.1667 508.5,-37.3333 512.3333,-33.5 516.1667,-33.5"/>
<text text-anchor="start" x="512.5" y="-41.3" font-family="Times,serif" font-size="14.00" fill="#ffffff">GOODBYE OK</text>
<polygon fill="none" stroke="#000000" points="503.5,-29 503.5,-62 611.5,-62 611.5,-29 503.5,-29"/>
</g>
<!-- m_defaults_goodbye&#45;&gt;m_goodbye_ok -->
<g id="edge31" class="edge">
<title>m_defaults_goodbye:goodbye_ok&#45;&gt;m_goodbye_ok</title>
<path fill="none" stroke="#000000" stroke-dasharray="1,5" d="M627.5,-183C676.0932,-183 620.6686,-113.9558 584.2434,-73.7193"/>
<polygon fill="#000000" stroke="#000000" points="577.2481,-66.0851 587.3218,-70.4179 580.626,-69.7716 584.004,-73.458 584.004,-73.458 584.004,-73.458 580.626,-69.7716 580.6862,-76.4982 577.2481,-66.0851 577.2481,-66.0851"/>
</g>
<!-- m_error -->
<g id="node25" class="node">
<title>m_error</title>
<polygon fill="#ffffff" stroke="transparent" points="78,-4 78,-87 205,-87 205,-4 78,-4"/>
<path fill="#4d4d4d" stroke="transparent" d="M91.1667,-58.5C91.1667,-58.5 192.8333,-58.5 192.8333,-58.5 196.6667,-58.5 200.5,-62.3333 200.5,-66.1667 200.5,-66.1667 200.5,-73.8333 200.5,-73.8333 200.5,-77.6667 196.6667,-81.5 192.8333,-81.5 192.8333,-81.5 91.1667,-81.5 91.1667,-81.5 87.3333,-81.5 83.5,-77.6667 83.5,-73.8333 83.5,-73.8333 83.5,-66.1667 83.5,-66.1667 83.5,-62.3333 87.3333,-58.5 91.1667,-58.5"/>
<path fill="none" stroke="#000000" d="M91.1667,-58.5C91.1667,-58.5 192.8333,-58.5 192.8333,-58.5 196.6667,-58.5 200.5,-62.3333 200.5,-66.1667 200.5,-66.1667 200.5,-73.8333 200.5,-73.8333 200.5,-77.6667 196.6667,-81.5 192.8333,-81.5 192.8333,-81.5 91.1667,-81.5 91.1667,-81.5 87.3333,-81.5 83.5,-77.6667 83.5,-73.8333 83.5,-73.8333 83.5,-66.1667 83.5,-66.1667 83.5,-62.3333 87.3333,-58.5 91.1667,-58.5"/>
<text text-anchor="start" x="119" y="-66.3" font-family="Times,serif" font-size="14.00" fill="#ffffff">ERROR</text>
<polygon fill="#c0c0c0" stroke="transparent" points="83.5,-33.5 83.5,-54.5 125.5,-54.5 125.5,-33.5 83.5,-33.5"/>
<text text-anchor="start" x="91.5" y="-40.3" font-family="Times,serif" font-size="14.00" fill="#000000">status</text>
<polygon fill="#c0c0c0" stroke="transparent" points="129.5,-33.5 129.5,-54.5 200.5,-54.5 200.5,-33.5 129.5,-33.5"/>
<text text-anchor="start" x="132.5" y="-40.3" font-family="Times,serif" font-size="14.00" fill="#000000">[number*2]</text>
<polygon fill="#c0c0c0" stroke="transparent" points="83.5,-8.5 83.5,-29.5 125.5,-29.5 125.5,-8.5 83.5,-8.5"/>
<text text-anchor="start" x="86.5" y="-15.3" font-family="Times,serif" font-size="14.00" fill="#000000">reason</text>
<polygon fill="#c0c0c0" stroke="transparent" points="129.5,-8.5 129.5,-29.5 200.5,-29.5 200.5,-8.5 129.5,-8.5"/>
<text text-anchor="start" x="132.5" y="-15.3" font-family="Times,serif" font-size="14.00" fill="#000000">[string]</text>
<polygon fill="none" stroke="#000000" points="78,-4 78,-87 205,-87 205,-4 78,-4"/>
</g>
<!-- m_defaults_exception&#45;&gt;m_error -->
<g id="edge36" class="edge">
<title>m_defaults_exception:error&#45;&gt;m_error</title>
<path fill="none" stroke="#000000" stroke-dasharray="1,5" d="M106.5,-183C115.3752,-183 125.3503,-139.4209 132.3739,-101.3305"/>
<polygon fill="#000000" stroke="#000000" points="134.1833,-91.2855 136.8392,-101.9249 133.2969,-96.2063 132.4105,-101.1271 132.4105,-101.1271 132.4105,-101.1271 133.2969,-96.2063 127.9817,-100.3294 134.1833,-91.2855 134.1833,-91.2855"/>
</g>
<!-- m_defaults__&#45;&gt;m_error -->
<g id="edge39" class="edge">
<title>m_defaults__:error&#45;&gt;m_error</title>
<path fill="none" stroke="#000000" stroke-dasharray="1,5" d="M150.5,-171C135.5043,-171 134.0048,-134.9018 135.8383,-101.4256"/>
<polygon fill="#000000" stroke="#000000" points="136.503,-91.1634 140.3471,-101.4334 136.1798,-96.1529 135.8565,-101.1425 135.8565,-101.1425 135.8565,-101.1425 136.1798,-96.1529 131.3659,-100.8515 136.503,-91.1634 136.503,-91.1634"/>
</g>
</g>
</svg>
