<?xml version="1.0" encoding="UTF-8" standalone="no"?>
<!DOCTYPE svg PUBLIC "-//W3C//DTD SVG 1.1//EN"
 "http://www.w3.org/Graphics/SVG/1.1/DTD/svg11.dtd">
<!-- Generated by graphviz version 2.40.1 (20161225.0304)
 -->
<!-- Title: zperf_protocol Pages: 1 -->
<svg width="2220pt" height="960pt"
 viewBox="0.00 0.00 2220.00 960.39" xmlns="http://www.w3.org/2000/svg" xmlns:xlink="http://www.w3.org/1999/xlink">
<g id="graph0" class="graph" transform="scale(1 1) rotate(0) translate(4 956.3922)">
<title>zperf_protocol</title>
<polygon fill="#ffffff" stroke="transparent" points="-4,4 -4,-956.3922 2216,-956.3922 2216,4 -4,4"/>
<text text-anchor="middle" x="1106" y="-937.1922" font-family="Times,serif" font-size="14.00" fill="#000000">zperf_client and zperf_msg</text>
<!-- s_start -->
<g id="node1" class="node">
<title>s_start</title>
<ellipse fill="none" stroke="#000000" cx="810" cy="-639" rx="25.9957" ry="25.9957"/>
<ellipse fill="none" stroke="#000000" cx="810" cy="-639" rx="29.9954" ry="29.9954"/>
<text text-anchor="middle" x="810" y="-635.3" font-family="Times,serif" font-size="14.00" fill="#000000">start</text>
</g>
<!-- m_start_say_hello -->
<g id="node6" class="node">
<title>m_start_say_hello</title>
<polygon fill="#ffffff" stroke="transparent" points="817,-283 817,-416 947,-416 947,-283 817,-283"/>
<path fill="#e5e5e5" stroke="transparent" d="M829.6667,-387.5C829.6667,-387.5 934.3333,-387.5 934.3333,-387.5 938.1667,-387.5 942,-391.3333 942,-395.1667 942,-395.1667 942,-402.8333 942,-402.8333 942,-406.6667 938.1667,-410.5 934.3333,-410.5 934.3333,-410.5 829.6667,-410.5 829.6667,-410.5 825.8333,-410.5 822,-406.6667 822,-402.8333 822,-402.8333 822,-395.1667 822,-395.1667 822,-391.3333 825.8333,-387.5 829.6667,-387.5"/>
<path fill="none" stroke="#000000" d="M829.6667,-387.5C829.6667,-387.5 934.3333,-387.5 934.3333,-387.5 938.1667,-387.5 942,-391.3333 942,-395.1667 942,-395.1667 942,-402.8333 942,-402.8333 942,-406.6667 938.1667,-410.5 934.3333,-410.5 934.3333,-410.5 829.6667,-410.5 829.6667,-410.5 825.8333,-410.5 822,-406.6667 822,-402.8333 822,-402.8333 822,-395.1667 822,-395.1667 822,-391.3333 825.8333,-387.5 829.6667,-387.5"/>
<text text-anchor="start" x="857.5" y="-395.3" font-family="Times,serif" font-size="14.00" fill="#000000">say hello</text>
<text text-anchor="start" x="845.5" y="-369.3" font-family="Times,serif" font-size="14.00" fill="#000000">set nickname</text>
<text text-anchor="start" x="827" y="-344.3" font-family="Times,serif" font-size="14.00" fill="#000000">use connect timeout</text>
<text text-anchor="start" x="835" y="-319.3" font-family="Times,serif" font-size="14.00" fill="#000000">connect to server</text>
<text text-anchor="start" x="841" y="-294.3" font-family="Times,serif" font-size="14.00" fill="#000000">send (HELLO)</text>
<polygon fill="none" stroke="#000000" points="817,-283 817,-416 947,-416 947,-283 817,-283"/>
</g>
<!-- s_start&#45;&gt;m_start_say_hello -->
<g id="edge4" class="edge">
<title>s_start&#45;&gt;m_start_say_hello</title>
<path fill="none" stroke="#000000" d="M817.2257,-609.5803C825.029,-577.8433 837.8428,-525.8274 849,-481 853.1107,-464.4841 857.532,-446.8069 861.7605,-429.9423"/>
<polygon fill="#000000" stroke="#000000" points="865.1856,-430.6725 864.224,-420.1214 858.396,-428.9693 865.1856,-430.6725"/>
</g>
<!-- m_start_bad_endpoint -->
<g id="node7" class="node">
<title>m_start_bad_endpoint</title>
<polygon fill="#ffffff" stroke="transparent" points="655.5,-308 655.5,-391 782.5,-391 782.5,-308 655.5,-308"/>
<path fill="#e5e5e5" stroke="transparent" d="M668.6667,-362.5C668.6667,-362.5 770.3333,-362.5 770.3333,-362.5 774.1667,-362.5 778,-366.3333 778,-370.1667 778,-370.1667 778,-377.8333 778,-377.8333 778,-381.6667 774.1667,-385.5 770.3333,-385.5 770.3333,-385.5 668.6667,-385.5 668.6667,-385.5 664.8333,-385.5 661,-381.6667 661,-377.8333 661,-377.8333 661,-370.1667 661,-370.1667 661,-366.3333 664.8333,-362.5 668.6667,-362.5"/>
<path fill="none" stroke="#000000" d="M668.6667,-362.5C668.6667,-362.5 770.3333,-362.5 770.3333,-362.5 774.1667,-362.5 778,-366.3333 778,-370.1667 778,-370.1667 778,-377.8333 778,-377.8333 778,-381.6667 774.1667,-385.5 770.3333,-385.5 770.3333,-385.5 668.6667,-385.5 668.6667,-385.5 664.8333,-385.5 661,-381.6667 661,-377.8333 661,-377.8333 661,-370.1667 661,-370.1667 661,-366.3333 664.8333,-362.5 668.6667,-362.5"/>
<text text-anchor="start" x="684" y="-370.3" font-family="Times,serif" font-size="14.00" fill="#000000">bad endpoint</text>
<text text-anchor="start" x="666" y="-344.3" font-family="Times,serif" font-size="14.00" fill="#000000">signal bad endpoint</text>
<text text-anchor="start" x="693.5" y="-319.3" font-family="Times,serif" font-size="14.00" fill="#000000">terminate</text>
<polygon fill="none" stroke="#000000" points="655.5,-308 655.5,-391 782.5,-391 782.5,-308 655.5,-308"/>
</g>
<!-- s_start&#45;&gt;m_start_bad_endpoint -->
<g id="edge7" class="edge">
<title>s_start&#45;&gt;m_start_bad_endpoint</title>
<path fill="none" stroke="#000000" d="M797.8422,-611.2851C788.5824,-579.4882 776.3616,-525.9451 762,-481 753.8562,-455.5138 743.222,-427.8948 734.3882,-404.5781"/>
<polygon fill="#000000" stroke="#000000" points="737.6556,-403.3229 730.8507,-395.2023 731.1062,-405.7941 737.6556,-403.3229"/>
</g>
<!-- s_start&#45;&gt;m_start_bad_endpoint -->
<g id="edge8" class="edge">
<title>s_start&#45;&gt;m_start_bad_endpoint</title>
<path fill="none" stroke="#000000" d="M808.9903,-599.0313C803.6368,-566.8384 792.6487,-520.5846 780,-481 770.7342,-452.0024 758.2445,-420.2438 746.8051,-395.2023"/>
<polygon fill="#000000" stroke="#000000" points="805.5389,-599.6152 810.5254,-608.9632 812.4567,-598.5459 805.5389,-599.6152"/>
</g>
<!-- s_expect_hello_ok -->
<g id="node2" class="node">
<title>s_expect_hello_ok</title>
<ellipse fill="none" stroke="#000000" cx="927" cy="-639" rx="64.9888" ry="64.9888"/>
<ellipse fill="none" stroke="#000000" cx="927" cy="-639" rx="68.9885" ry="68.9885"/>
<text text-anchor="middle" x="927" y="-635.3" font-family="Times,serif" font-size="14.00" fill="#000000">expect hello ok</text>
</g>
<!-- s_defaults -->
<g id="node5" class="node">
<title>s_defaults</title>
<ellipse fill="none" stroke="#000000" cx="1171" cy="-349.5" rx="38.2082" ry="38.2082"/>
<ellipse fill="none" stroke="#000000" cx="1171" cy="-349.5" rx="42.1937" ry="42.1937"/>
<text text-anchor="middle" x="1171" y="-345.8" font-family="Times,serif" font-size="14.00" fill="#000000">defaults</text>
</g>
<!-- s_expect_hello_ok&#45;&gt;s_defaults -->
<g id="edge1" class="edge">
<title>s_expect_hello_ok&#45;&gt;s_defaults</title>
<path fill="none" stroke="#000000" stroke-dasharray="5,2" d="M946.1891,-572.4143C958.3842,-540.7741 977.2248,-504.7676 1005,-481 1045.6922,-446.1791 1078.7571,-479.1668 1120,-445 1134.3985,-433.0718 1145.3078,-415.9938 1153.2655,-399.5692"/>
<polygon fill="none" stroke="#000000" points="1156.6557,-400.5695 1157.6138,-390.018 1150.2848,-397.669 1156.6557,-400.5695"/>
</g>
<!-- s_expect_hello_ok&#45;&gt;m_start_say_hello -->
<g id="edge5" class="edge">
<title>s_expect_hello_ok&#45;&gt;m_start_say_hello</title>
<path fill="none" stroke="#000000" d="M914.8305,-560.7095C908.0129,-516.8498 899.5791,-462.5921 892.9667,-420.0524"/>
<polygon fill="#000000" stroke="#000000" points="911.3981,-561.4154 916.3926,-570.7591 918.315,-560.3402 911.3981,-561.4154"/>
</g>
<!-- m_expect_hello_ok_hello_ok -->
<g id="node8" class="node">
<title>m_expect_hello_ok_hello_ok</title>
<polygon fill="#ffffff" stroke="transparent" points="981,-295.5 981,-403.5 1103,-403.5 1103,-295.5 981,-295.5"/>
<path fill="#4d4d4d" stroke="transparent" d="M993.6667,-375.5C993.6667,-375.5 1090.3333,-375.5 1090.3333,-375.5 1094.1667,-375.5 1098,-379.3333 1098,-383.1667 1098,-383.1667 1098,-390.8333 1098,-390.8333 1098,-394.6667 1094.1667,-398.5 1090.3333,-398.5 1090.3333,-398.5 993.6667,-398.5 993.6667,-398.5 989.8333,-398.5 986,-394.6667 986,-390.8333 986,-390.8333 986,-383.1667 986,-383.1667 986,-379.3333 989.8333,-375.5 993.6667,-375.5"/>
<path fill="none" stroke="#000000" d="M993.6667,-375.5C993.6667,-375.5 1090.3333,-375.5 1090.3333,-375.5 1094.1667,-375.5 1098,-379.3333 1098,-383.1667 1098,-383.1667 1098,-390.8333 1098,-390.8333 1098,-394.6667 1094.1667,-398.5 1090.3333,-398.5 1090.3333,-398.5 993.6667,-398.5 993.6667,-398.5 989.8333,-398.5 986,-394.6667 986,-390.8333 986,-390.8333 986,-383.1667 986,-383.1667 986,-379.3333 989.8333,-375.5 993.6667,-375.5"/>
<text text-anchor="start" x="1008" y="-383.3" font-family="Times,serif" font-size="14.00" fill="#ffffff">HELLO OK</text>
<polygon fill="#c0c0c0" stroke="transparent" points="986,-350.5 986,-371.5 1047,-371.5 1047,-350.5 986,-350.5"/>
<text text-anchor="start" x="990" y="-357.3" font-family="Times,serif" font-size="14.00" fill="#000000">nickname</text>
<polygon fill="#c0c0c0" stroke="transparent" points="1051,-350.5 1051,-371.5 1098,-371.5 1098,-350.5 1051,-350.5"/>
<text text-anchor="start" x="1054" y="-357.3" font-family="Times,serif" font-size="14.00" fill="#000000">[string]</text>
<text text-anchor="start" x="996.5" y="-332.3" font-family="Times,serif" font-size="14.00" fill="#000000">signal connected</text>
<text text-anchor="start" x="991" y="-307.3" font-family="Times,serif" font-size="14.00" fill="#000000">client is connected</text>
<polygon fill="none" stroke="#000000" points="981,-295.5 981,-403.5 1103,-403.5 1103,-295.5 981,-295.5"/>
</g>
<!-- s_expect_hello_ok&#45;&gt;m_expect_hello_ok_hello_ok -->
<g id="edge9" class="edge">
<title>s_expect_hello_ok&#45;&gt;m_expect_hello_ok_hello_ok</title>
<path fill="none" stroke="#000000" d="M952.5222,-574.7506C971.133,-527.8999 996.2972,-464.5519 1015.1992,-416.9682"/>
<polygon fill="#000000" stroke="#000000" points="1018.4532,-418.2569 1018.8923,-407.6712 1011.9477,-415.6726 1018.4532,-418.2569"/>
</g>
<!-- s_connected -->
<g id="node3" class="node">
<title>s_connected</title>
<ellipse fill="none" stroke="#000000" cx="1523" cy="-639" rx="46.2806" ry="46.2806"/>
<ellipse fill="none" stroke="#000000" cx="1523" cy="-639" rx="50.2922" ry="50.2922"/>
<text text-anchor="middle" x="1523" y="-635.3" font-family="Times,serif" font-size="14.00" fill="#000000">connected</text>
</g>
<!-- s_connected&#45;&gt;s_defaults -->
<g id="edge2" class="edge">
<title>s_connected&#45;&gt;s_defaults</title>
<path fill="none" stroke="#000000" stroke-dasharray="5,2" d="M1483.9849,-606.9123C1416.9022,-551.7406 1280.3354,-439.4221 1211.9452,-383.1751"/>
<polygon fill="none" stroke="#000000" points="1213.8988,-380.2502 1203.9522,-376.6013 1209.4524,-385.6566 1213.8988,-380.2502"/>
</g>
<!-- s_connected&#45;&gt;m_expect_hello_ok_hello_ok -->
<g id="edge10" class="edge">
<title>s_connected&#45;&gt;m_expect_hello_ok_hello_ok</title>
<path fill="none" stroke="#000000" d="M1467.1569,-615.7082C1370.7286,-574.9047 1177.7744,-490.5173 1120,-445 1106.5476,-434.4016 1093.8858,-421.101 1082.8341,-407.8222"/>
<polygon fill="#000000" stroke="#000000" points="1465.8864,-618.9709 1476.4604,-619.6364 1468.6093,-612.5222 1465.8864,-618.9709"/>
</g>
<!-- m_connected_create_perf -->
<g id="node9" class="node">
<title>m_connected_create_perf</title>
<polygon fill="#ffffff" stroke="transparent" points="1760.5,-308 1760.5,-391 1871.5,-391 1871.5,-308 1760.5,-308"/>
<path fill="#e5e5e5" stroke="transparent" d="M1773.6667,-362.5C1773.6667,-362.5 1859.3333,-362.5 1859.3333,-362.5 1863.1667,-362.5 1867,-366.3333 1867,-370.1667 1867,-370.1667 1867,-377.8333 1867,-377.8333 1867,-381.6667 1863.1667,-385.5 1859.3333,-385.5 1859.3333,-385.5 1773.6667,-385.5 1773.6667,-385.5 1769.8333,-385.5 1766,-381.6667 1766,-377.8333 1766,-377.8333 1766,-370.1667 1766,-370.1667 1766,-366.3333 1769.8333,-362.5 1773.6667,-362.5"/>
<path fill="none" stroke="#000000" d="M1773.6667,-362.5C1773.6667,-362.5 1859.3333,-362.5 1859.3333,-362.5 1863.1667,-362.5 1867,-366.3333 1867,-370.1667 1867,-370.1667 1867,-377.8333 1867,-377.8333 1867,-381.6667 1863.1667,-385.5 1859.3333,-385.5 1859.3333,-385.5 1773.6667,-385.5 1773.6667,-385.5 1769.8333,-385.5 1766,-381.6667 1766,-377.8333 1766,-377.8333 1766,-370.1667 1766,-370.1667 1766,-366.3333 1769.8333,-362.5 1773.6667,-362.5"/>
<text text-anchor="start" x="1787.5" y="-370.3" font-family="Times,serif" font-size="14.00" fill="#000000">create perf</text>
<text text-anchor="start" x="1780" y="-344.3" font-family="Times,serif" font-size="14.00" fill="#000000">set perf stype</text>
<text text-anchor="start" x="1771" y="-319.3" font-family="Times,serif" font-size="14.00" fill="#000000">send (CREATE)</text>
<polygon fill="none" stroke="#000000" points="1760.5,-308 1760.5,-391 1871.5,-391 1871.5,-308 1760.5,-308"/>
</g>
<!-- s_connected&#45;&gt;m_connected_create_perf -->
<g id="edge11" class="edge">
<title>s_connected&#45;&gt;m_connected_create_perf</title>
<path fill="none" stroke="#000000" d="M1560.2159,-604.9416C1604.2706,-567.9643 1678.386,-505.9921 1735,-445 1746.9265,-432.1512 1758.8177,-417.39 1769.7224,-403.3753"/>
<polygon fill="#000000" stroke="#000000" points="1772.6727,-405.2817 1776.0218,-395.2301 1767.1354,-400.9993 1772.6727,-405.2817"/>
</g>
<!-- s_connected&#45;&gt;m_connected_create_perf -->
<g id="edge12" class="edge">
<title>s_connected&#45;&gt;m_connected_create_perf</title>
<path fill="none" stroke="#000000" d="M1573.51,-604.9868C1622.2102,-568.0148 1696.363,-506.0169 1753,-445 1767.2672,-429.6294 1781.4839,-411.5222 1792.9164,-395.2301"/>
<polygon fill="#000000" stroke="#000000" points="1571.2086,-602.3382 1565.3218,-611.1471 1575.417,-607.932 1571.2086,-602.3382"/>
</g>
<!-- m_connected_request_lookup -->
<g id="node10" class="node">
<title>m_connected_request_lookup</title>
<polygon fill="#ffffff" stroke="transparent" points="1323.5,-308 1323.5,-391 1436.5,-391 1436.5,-308 1323.5,-308"/>
<path fill="#e5e5e5" stroke="transparent" d="M1336.6667,-362.5C1336.6667,-362.5 1424.3333,-362.5 1424.3333,-362.5 1428.1667,-362.5 1432,-366.3333 1432,-370.1667 1432,-370.1667 1432,-377.8333 1432,-377.8333 1432,-381.6667 1428.1667,-385.5 1424.3333,-385.5 1424.3333,-385.5 1336.6667,-385.5 1336.6667,-385.5 1332.8333,-385.5 1329,-381.6667 1329,-377.8333 1329,-377.8333 1329,-370.1667 1329,-370.1667 1329,-366.3333 1332.8333,-362.5 1336.6667,-362.5"/>
<path fill="none" stroke="#000000" d="M1336.6667,-362.5C1336.6667,-362.5 1424.3333,-362.5 1424.3333,-362.5 1428.1667,-362.5 1432,-366.3333 1432,-370.1667 1432,-370.1667 1432,-377.8333 1432,-377.8333 1432,-381.6667 1428.1667,-385.5 1424.3333,-385.5 1424.3333,-385.5 1336.6667,-385.5 1336.6667,-385.5 1332.8333,-385.5 1329,-381.6667 1329,-377.8333 1329,-377.8333 1329,-370.1667 1329,-370.1667 1329,-366.3333 1332.8333,-362.5 1336.6667,-362.5"/>
<text text-anchor="start" x="1340" y="-370.3" font-family="Times,serif" font-size="14.00" fill="#000000">request lookup</text>
<text text-anchor="start" x="1344.5" y="-344.3" font-family="Times,serif" font-size="14.00" fill="#000000">set perf ident</text>
<text text-anchor="start" x="1334" y="-319.3" font-family="Times,serif" font-size="14.00" fill="#000000">send (LOOKUP)</text>
<polygon fill="none" stroke="#000000" points="1323.5,-308 1323.5,-391 1436.5,-391 1436.5,-308 1323.5,-308"/>
</g>
<!-- s_connected&#45;&gt;m_connected_request_lookup -->
<g id="edge14" class="edge">
<title>s_connected&#45;&gt;m_connected_request_lookup</title>
<path fill="none" stroke="#000000" d="M1496.7769,-595.9715C1469.414,-545.0486 1427.3305,-460.1632 1401.7416,-404.5095"/>
<polygon fill="#000000" stroke="#000000" points="1404.8088,-402.8 1397.4722,-395.1563 1398.4408,-405.7068 1404.8088,-402.8"/>
</g>
<!-- s_connected&#45;&gt;m_connected_request_lookup -->
<g id="edge15" class="edge">
<title>s_connected&#45;&gt;m_connected_request_lookup</title>
<path fill="none" stroke="#000000" d="M1500.787,-582.9662C1475.6196,-528.3082 1434.9255,-446.1796 1407.7151,-395.3116"/>
<polygon fill="#000000" stroke="#000000" points="1497.6518,-584.5263 1504.9934,-592.1651 1504.0178,-581.6152 1497.6518,-584.5263"/>
</g>
<!-- m_connected_perf_ok -->
<g id="node11" class="node">
<title>m_connected_perf_ok</title>
<polygon fill="#ffffff" stroke="transparent" points="1906,-295.5 1906,-403.5 2008,-403.5 2008,-295.5 1906,-295.5"/>
<path fill="#4d4d4d" stroke="transparent" d="M1918.6667,-375.5C1918.6667,-375.5 1995.3333,-375.5 1995.3333,-375.5 1999.1667,-375.5 2003,-379.3333 2003,-383.1667 2003,-383.1667 2003,-390.8333 2003,-390.8333 2003,-394.6667 1999.1667,-398.5 1995.3333,-398.5 1995.3333,-398.5 1918.6667,-398.5 1918.6667,-398.5 1914.8333,-398.5 1911,-394.6667 1911,-390.8333 1911,-390.8333 1911,-383.1667 1911,-383.1667 1911,-379.3333 1914.8333,-375.5 1918.6667,-375.5"/>
<path fill="none" stroke="#000000" d="M1918.6667,-375.5C1918.6667,-375.5 1995.3333,-375.5 1995.3333,-375.5 1999.1667,-375.5 2003,-379.3333 2003,-383.1667 2003,-383.1667 2003,-390.8333 2003,-390.8333 2003,-394.6667 1999.1667,-398.5 1995.3333,-398.5 1995.3333,-398.5 1918.6667,-398.5 1918.6667,-398.5 1914.8333,-398.5 1911,-394.6667 1911,-390.8333 1911,-390.8333 1911,-383.1667 1911,-383.1667 1911,-379.3333 1914.8333,-375.5 1918.6667,-375.5"/>
<text text-anchor="start" x="1929" y="-383.3" font-family="Times,serif" font-size="14.00" fill="#ffffff">PERF OK</text>
<polygon fill="#c0c0c0" stroke="transparent" points="1911,-350.5 1911,-371.5 1949,-371.5 1949,-350.5 1911,-350.5"/>
<text text-anchor="start" x="1918" y="-357.3" font-family="Times,serif" font-size="14.00" fill="#000000">ident</text>
<polygon fill="#c0c0c0" stroke="transparent" points="1953,-350.5 1953,-371.5 2003,-371.5 2003,-350.5 1953,-350.5"/>
<text text-anchor="start" x="1956" y="-357.3" font-family="Times,serif" font-size="14.00" fill="#000000">[string]</text>
<text text-anchor="start" x="1916" y="-332.3" font-family="Times,serif" font-size="14.00" fill="#000000">remember perf</text>
<text text-anchor="start" x="1917.5" y="-307.3" font-family="Times,serif" font-size="14.00" fill="#000000">signal got perf</text>
<polygon fill="none" stroke="#000000" points="1906,-295.5 1906,-403.5 2008,-403.5 2008,-295.5 1906,-295.5"/>
</g>
<!-- s_connected&#45;&gt;m_connected_perf_ok -->
<g id="edge17" class="edge">
<title>s_connected&#45;&gt;m_connected_perf_ok</title>
<path fill="none" stroke="#000000" d="M1562.7994,-607.6673C1609.0693,-572.5507 1688.8514,-515.9676 1765,-481 1817.1511,-457.0521 1842.2042,-478.2172 1889,-445 1900.0851,-437.1314 1910.0146,-426.8683 1918.637,-415.9956"/>
<polygon fill="#000000" stroke="#000000" points="1921.4452,-418.0847 1924.6822,-407.9964 1915.8606,-413.8642 1921.4452,-418.0847"/>
</g>
<!-- m_connected_request_info -->
<g id="node12" class="node">
<title>m_connected_request_info</title>
<polygon fill="#ffffff" stroke="transparent" points="1471,-308 1471,-391 1575,-391 1575,-308 1471,-308"/>
<path fill="#e5e5e5" stroke="transparent" d="M1483.6667,-362.5C1483.6667,-362.5 1562.3333,-362.5 1562.3333,-362.5 1566.1667,-362.5 1570,-366.3333 1570,-370.1667 1570,-370.1667 1570,-377.8333 1570,-377.8333 1570,-381.6667 1566.1667,-385.5 1562.3333,-385.5 1562.3333,-385.5 1483.6667,-385.5 1483.6667,-385.5 1479.8333,-385.5 1476,-381.6667 1476,-377.8333 1476,-377.8333 1476,-370.1667 1476,-370.1667 1476,-366.3333 1479.8333,-362.5 1483.6667,-362.5"/>
<path fill="none" stroke="#000000" d="M1483.6667,-362.5C1483.6667,-362.5 1562.3333,-362.5 1562.3333,-362.5 1566.1667,-362.5 1570,-366.3333 1570,-370.1667 1570,-370.1667 1570,-377.8333 1570,-377.8333 1570,-381.6667 1566.1667,-385.5 1562.3333,-385.5 1562.3333,-385.5 1483.6667,-385.5 1483.6667,-385.5 1479.8333,-385.5 1476,-381.6667 1476,-377.8333 1476,-377.8333 1476,-370.1667 1476,-370.1667 1476,-366.3333 1479.8333,-362.5 1483.6667,-362.5"/>
<text text-anchor="start" x="1490.5" y="-370.3" font-family="Times,serif" font-size="14.00" fill="#000000">request info</text>
<text text-anchor="start" x="1481" y="-344.3" font-family="Times,serif" font-size="14.00" fill="#000000">set info request</text>
<text text-anchor="start" x="1488" y="-319.3" font-family="Times,serif" font-size="14.00" fill="#000000">send (INFO)</text>
<polygon fill="none" stroke="#000000" points="1471,-308 1471,-391 1575,-391 1575,-308 1471,-308"/>
</g>
<!-- s_connected&#45;&gt;m_connected_request_info -->
<g id="edge19" class="edge">
<title>s_connected&#45;&gt;m_connected_request_info</title>
<path fill="none" stroke="#000000" d="M1517.7455,-588.9035C1515.8233,-537.7742 1515.7541,-458.5876 1517.538,-405.4385"/>
<polygon fill="#000000" stroke="#000000" points="1521.0456,-405.295 1517.9194,-395.1719 1514.0504,-405.035 1521.0456,-405.295"/>
</g>
<!-- s_connected&#45;&gt;m_connected_request_info -->
<g id="edge20" class="edge">
<title>s_connected&#45;&gt;m_connected_request_info</title>
<path fill="none" stroke="#000000" d="M1528.6037,-578.6607C1530.2901,-524.0194 1530.1158,-444.7118 1528.0806,-395.1719"/>
<polygon fill="#000000" stroke="#000000" points="1525.0974,-578.79 1528.2545,-588.9035 1532.0933,-579.0286 1525.0974,-578.79"/>
</g>
<!-- m_connected_info_ok -->
<g id="node13" class="node">
<title>m_connected_info_ok</title>
<polygon fill="#ffffff" stroke="transparent" points="1609.5,-283 1609.5,-416 1726.5,-416 1726.5,-283 1609.5,-283"/>
<path fill="#4d4d4d" stroke="transparent" d="M1622.6667,-387.5C1622.6667,-387.5 1714.3333,-387.5 1714.3333,-387.5 1718.1667,-387.5 1722,-391.3333 1722,-395.1667 1722,-395.1667 1722,-402.8333 1722,-402.8333 1722,-406.6667 1718.1667,-410.5 1714.3333,-410.5 1714.3333,-410.5 1622.6667,-410.5 1622.6667,-410.5 1618.8333,-410.5 1615,-406.6667 1615,-402.8333 1615,-402.8333 1615,-395.1667 1615,-395.1667 1615,-391.3333 1618.8333,-387.5 1622.6667,-387.5"/>
<path fill="none" stroke="#000000" d="M1622.6667,-387.5C1622.6667,-387.5 1714.3333,-387.5 1714.3333,-387.5 1718.1667,-387.5 1722,-391.3333 1722,-395.1667 1722,-395.1667 1722,-402.8333 1722,-402.8333 1722,-406.6667 1718.1667,-410.5 1714.3333,-410.5 1714.3333,-410.5 1622.6667,-410.5 1622.6667,-410.5 1618.8333,-410.5 1615,-406.6667 1615,-402.8333 1615,-402.8333 1615,-395.1667 1615,-395.1667 1615,-391.3333 1618.8333,-387.5 1622.6667,-387.5"/>
<text text-anchor="start" x="1641" y="-395.3" font-family="Times,serif" font-size="14.00" fill="#ffffff">INFO OK</text>
<polygon fill="#c0c0c0" stroke="transparent" points="1615,-362.5 1615,-383.5 1668,-383.5 1668,-362.5 1615,-362.5"/>
<text text-anchor="start" x="1637" y="-369.3" font-family="Times,serif" font-size="14.00" fill="#000000">ident</text>
<polygon fill="#c0c0c0" stroke="transparent" points="1672,-362.5 1672,-383.5 1722,-383.5 1722,-362.5 1672,-362.5"/>
<text text-anchor="start" x="1675" y="-369.3" font-family="Times,serif" font-size="14.00" fill="#000000">[string]</text>
<polygon fill="#c0c0c0" stroke="transparent" points="1615,-337.5 1615,-358.5 1668,-358.5 1668,-337.5 1615,-337.5"/>
<text text-anchor="start" x="1621" y="-344.3" font-family="Times,serif" font-size="14.00" fill="#000000">perfinfo</text>
<polygon fill="#c0c0c0" stroke="transparent" points="1672,-337.5 1672,-358.5 1722,-358.5 1722,-337.5 1672,-337.5"/>
<text text-anchor="start" x="1675" y="-344.3" font-family="Times,serif" font-size="14.00" fill="#000000">[string]</text>
<text text-anchor="start" x="1627.5" y="-319.3" font-family="Times,serif" font-size="14.00" fill="#000000">remember info</text>
<text text-anchor="start" x="1620" y="-294.3" font-family="Times,serif" font-size="14.00" fill="#000000">msg info to caller</text>
<polygon fill="none" stroke="#000000" points="1609.5,-283 1609.5,-416 1726.5,-416 1726.5,-283 1609.5,-283"/>
</g>
<!-- s_connected&#45;&gt;m_connected_info_ok -->
<g id="edge22" class="edge">
<title>s_connected&#45;&gt;m_connected_info_ok</title>
<path fill="none" stroke="#000000" d="M1541.3301,-592.1651C1561.6127,-548.1434 1594.7301,-481.376 1622.0758,-429.0121"/>
<polygon fill="#000000" stroke="#000000" points="1625.2172,-430.5578 1626.7602,-420.0759 1619.0174,-427.3078 1625.2172,-430.5578"/>
</g>
<!-- s_connected&#45;&gt;m_connected_info_ok -->
<g id="edge23" class="edge">
<title>s_connected&#45;&gt;m_connected_info_ok</title>
<path fill="none" stroke="#000000" d="M1554.2205,-587.2776C1579.2432,-540.7045 1613.9291,-471.8379 1638.488,-420.1895"/>
<polygon fill="#000000" stroke="#000000" points="1551.0286,-585.8222 1549.3506,-596.2833 1557.186,-589.1518 1551.0286,-585.8222"/>
</g>
<!-- s_have_perf -->
<g id="node4" class="node">
<title>s_have_perf</title>
<ellipse fill="none" stroke="#000000" cx="687" cy="-881.1961" rx="44.3766" ry="44.3766"/>
<ellipse fill="none" stroke="#000000" cx="687" cy="-881.1961" rx="48.393" ry="48.393"/>
<text text-anchor="middle" x="687" y="-877.4961" font-family="Times,serif" font-size="14.00" fill="#000000">have perf</text>
</g>
<!-- s_have_perf&#45;&gt;s_connected -->
<g id="edge3" class="edge">
<title>s_have_perf&#45;&gt;s_connected</title>
<path fill="none" stroke="#000000" stroke-dasharray="5,2" d="M735.1549,-877.039C823.9458,-868.4718 1018.758,-845.4501 1176,-797 1284.4495,-763.5841 1403.2641,-704.0665 1469.9257,-668.3923"/>
<polygon fill="none" stroke="#000000" points="1471.8309,-671.3418 1478.9793,-663.522 1468.5146,-665.1772 1471.8309,-671.3418"/>
</g>
<!-- s_have_perf&#45;&gt;m_connected_perf_ok -->
<g id="edge18" class="edge">
<title>s_have_perf&#45;&gt;m_connected_perf_ok</title>
<path fill="none" stroke="#000000" d="M745.484,-878.2103C932.4426,-868.3194 1507.7128,-835.0806 1582,-797 1752.2564,-709.7242 1875.3079,-507.877 1928.2089,-407.8511"/>
<polygon fill="#000000" stroke="#000000" points="745.1049,-874.7253 735.3027,-878.7461 745.4729,-881.7157 745.1049,-874.7253"/>
</g>
<!-- m_have_perf_request_borc -->
<g id="node14" class="node">
<title>m_have_perf_request_borc</title>
<polygon fill="#ffffff" stroke="transparent" points="243.5,-585 243.5,-693 360.5,-693 360.5,-585 243.5,-585"/>
<path fill="#e5e5e5" stroke="transparent" d="M256.6667,-665C256.6667,-665 348.3333,-665 348.3333,-665 352.1667,-665 356,-668.8333 356,-672.6667 356,-672.6667 356,-680.3333 356,-680.3333 356,-684.1667 352.1667,-688 348.3333,-688 348.3333,-688 256.6667,-688 256.6667,-688 252.8333,-688 249,-684.1667 249,-680.3333 249,-680.3333 249,-672.6667 249,-672.6667 249,-668.8333 252.8333,-665 256.6667,-665"/>
<path fill="none" stroke="#000000" d="M256.6667,-665C256.6667,-665 348.3333,-665 348.3333,-665 352.1667,-665 356,-668.8333 356,-672.6667 356,-672.6667 356,-680.3333 356,-680.3333 356,-684.1667 352.1667,-688 348.3333,-688 348.3333,-688 256.6667,-688 256.6667,-688 252.8333,-688 249,-684.1667 249,-680.3333 249,-680.3333 249,-672.6667 249,-672.6667 249,-668.8333 252.8333,-665 256.6667,-665"/>
<text text-anchor="start" x="269" y="-672.8" font-family="Times,serif" font-size="14.00" fill="#000000">request borc</text>
<text text-anchor="start" x="279.5" y="-646.8" font-family="Times,serif" font-size="14.00" fill="#000000">set ident</text>
<text text-anchor="start" x="254" y="-621.8" font-family="Times,serif" font-size="14.00" fill="#000000">set socket request</text>
<text text-anchor="start" x="257" y="-596.8" font-family="Times,serif" font-size="14.00" fill="#000000">send (SOCKET)</text>
<polygon fill="none" stroke="#000000" points="243.5,-585 243.5,-693 360.5,-693 360.5,-585 243.5,-585"/>
</g>
<!-- s_have_perf&#45;&gt;m_have_perf_request_borc -->
<g id="edge24" class="edge">
<title>s_have_perf&#45;&gt;m_have_perf_request_borc</title>
<path fill="none" stroke="#000000" d="M638.9041,-876.848C578.6744,-869.1429 475.1639,-848.6961 404,-797 371.6473,-773.4978 345.3447,-737.5932 327.3887,-705.947"/>
<polygon fill="#000000" stroke="#000000" points="330.4346,-704.2221 322.5475,-697.1479 324.3015,-707.5965 330.4346,-704.2221"/>
</g>
<!-- s_have_perf&#45;&gt;m_have_perf_request_borc -->
<g id="edge25" class="edge">
<title>s_have_perf&#45;&gt;m_have_perf_request_borc</title>
<path fill="none" stroke="#000000" d="M629.0508,-873.4247C571.8949,-863.6877 484.4803,-842.3881 422,-797 386.6056,-771.2882 358.4523,-730.7323 338.163,-697.1479"/>
<polygon fill="#000000" stroke="#000000" points="628.5723,-876.8929 639.0067,-875.0562 629.7044,-869.985 628.5723,-876.8929"/>
</g>
<!-- m_have_perf_socket_ok -->
<g id="node15" class="node">
<title>m_have_perf_socket_ok</title>
<polygon fill="#ffffff" stroke="transparent" points="620,-572.5 620,-705.5 754,-705.5 754,-572.5 620,-572.5"/>
<path fill="#4d4d4d" stroke="transparent" d="M632.6667,-677C632.6667,-677 741.3333,-677 741.3333,-677 745.1667,-677 749,-680.8333 749,-684.6667 749,-684.6667 749,-692.3333 749,-692.3333 749,-696.1667 745.1667,-700 741.3333,-700 741.3333,-700 632.6667,-700 632.6667,-700 628.8333,-700 625,-696.1667 625,-692.3333 625,-692.3333 625,-684.6667 625,-684.6667 625,-680.8333 628.8333,-677 632.6667,-677"/>
<path fill="none" stroke="#000000" d="M632.6667,-677C632.6667,-677 741.3333,-677 741.3333,-677 745.1667,-677 749,-680.8333 749,-684.6667 749,-684.6667 749,-692.3333 749,-692.3333 749,-696.1667 745.1667,-700 741.3333,-700 741.3333,-700 632.6667,-700 632.6667,-700 628.8333,-700 625,-696.1667 625,-692.3333 625,-692.3333 625,-684.6667 625,-684.6667 625,-680.8333 628.8333,-677 632.6667,-677"/>
<text text-anchor="start" x="649" y="-684.8" font-family="Times,serif" font-size="14.00" fill="#ffffff">SOCKET OK</text>
<polygon fill="#c0c0c0" stroke="transparent" points="625,-652 625,-673 689,-673 689,-652 625,-652"/>
<text text-anchor="start" x="658" y="-658.8" font-family="Times,serif" font-size="14.00" fill="#000000">ident</text>
<polygon fill="#c0c0c0" stroke="transparent" points="693,-652 693,-673 749,-673 749,-652 693,-652"/>
<text text-anchor="start" x="696" y="-658.8" font-family="Times,serif" font-size="14.00" fill="#000000">[string]</text>
<polygon fill="#c0c0c0" stroke="transparent" points="625,-627 625,-648 689,-648 689,-627 625,-627"/>
<text text-anchor="start" x="661" y="-633.8" font-family="Times,serif" font-size="14.00" fill="#000000">borc</text>
<polygon fill="#c0c0c0" stroke="transparent" points="693,-627 693,-648 749,-648 749,-627 693,-627"/>
<text text-anchor="start" x="696" y="-633.8" font-family="Times,serif" font-size="14.00" fill="#000000">[string]</text>
<polygon fill="#c0c0c0" stroke="transparent" points="625,-602 625,-623 689,-623 689,-602 625,-602"/>
<text text-anchor="start" x="638" y="-608.8" font-family="Times,serif" font-size="14.00" fill="#000000">endpoint</text>
<polygon fill="#c0c0c0" stroke="transparent" points="693,-602 693,-623 749,-623 749,-602 693,-602"/>
<text text-anchor="start" x="696" y="-608.8" font-family="Times,serif" font-size="14.00" fill="#000000">[string]</text>
<text text-anchor="start" x="630" y="-583.8" font-family="Times,serif" font-size="14.00" fill="#000000">signal socket request</text>
<polygon fill="none" stroke="#000000" points="620,-572.5 620,-705.5 754,-705.5 754,-572.5 620,-572.5"/>
</g>
<!-- s_have_perf&#45;&gt;m_have_perf_socket_ok -->
<g id="edge27" class="edge">
<title>s_have_perf&#45;&gt;m_have_perf_socket_ok</title>
<path fill="none" stroke="#000000" d="M681.485,-833.0564C680.229,-800.7755 679.931,-757.4673 680.5911,-719.9542"/>
<polygon fill="#000000" stroke="#000000" points="684.0987,-719.6104 680.8026,-709.5413 677.1001,-719.4681 684.0987,-719.6104"/>
</g>
<!-- s_have_perf&#45;&gt;m_have_perf_socket_ok -->
<g id="edge28" class="edge">
<title>s_have_perf&#45;&gt;m_have_perf_socket_ok</title>
<path fill="none" stroke="#000000" d="M692.8713,-822.7939C693.9217,-788.7217 694.0304,-745.5059 693.1974,-709.5413"/>
<polygon fill="#000000" stroke="#000000" points="689.3641,-822.9409 692.515,-833.0564 696.3599,-823.1838 689.3641,-822.9409"/>
</g>
<!-- m_have_perf_request_measure -->
<g id="node16" class="node">
<title>m_have_perf_request_measure</title>
<polygon fill="#ffffff" stroke="transparent" points="430,-585 430,-693 586,-693 586,-585 430,-585"/>
<path fill="#e5e5e5" stroke="transparent" d="M442.6667,-665C442.6667,-665 573.3333,-665 573.3333,-665 577.1667,-665 581,-668.8333 581,-672.6667 581,-672.6667 581,-680.3333 581,-680.3333 581,-684.1667 577.1667,-688 573.3333,-688 573.3333,-688 442.6667,-688 442.6667,-688 438.8333,-688 435,-684.1667 435,-680.3333 435,-680.3333 435,-672.6667 435,-672.6667 435,-668.8333 438.8333,-665 442.6667,-665"/>
<path fill="none" stroke="#000000" d="M442.6667,-665C442.6667,-665 573.3333,-665 573.3333,-665 577.1667,-665 581,-668.8333 581,-672.6667 581,-672.6667 581,-680.3333 581,-680.3333 581,-684.1667 577.1667,-688 573.3333,-688 573.3333,-688 442.6667,-688 442.6667,-688 438.8333,-688 435,-684.1667 435,-680.3333 435,-680.3333 435,-672.6667 435,-672.6667 435,-668.8333 438.8333,-665 442.6667,-665"/>
<text text-anchor="start" x="463.5" y="-672.8" font-family="Times,serif" font-size="14.00" fill="#000000">request measure</text>
<text text-anchor="start" x="485" y="-646.8" font-family="Times,serif" font-size="14.00" fill="#000000">set ident</text>
<text text-anchor="start" x="440" y="-621.8" font-family="Times,serif" font-size="14.00" fill="#000000">set measurement request</text>
<text text-anchor="start" x="456.5" y="-596.8" font-family="Times,serif" font-size="14.00" fill="#000000">send (MEASURE)</text>
<polygon fill="none" stroke="#000000" points="430,-585 430,-693 586,-693 586,-585 430,-585"/>
</g>
<!-- s_have_perf&#45;&gt;m_have_perf_request_measure -->
<g id="edge29" class="edge">
<title>s_have_perf&#45;&gt;m_have_perf_request_measure</title>
<path fill="none" stroke="#000000" d="M647.6205,-853.2232C629.9547,-837.5674 609.7544,-817.1827 594,-797 571.9574,-768.7615 551.0304,-735.0145 535.2088,-705.973"/>
<polygon fill="#000000" stroke="#000000" points="538.2748,-704.2842 530.467,-697.1225 532.1045,-707.59 538.2748,-704.2842"/>
</g>
<!-- s_have_perf&#45;&gt;m_have_perf_request_measure -->
<g id="edge30" class="edge">
<title>s_have_perf&#45;&gt;m_have_perf_request_measure</title>
<path fill="none" stroke="#000000" d="M648.227,-837.684C636.0222,-825.1258 622.9393,-811.0142 612,-797 587.6772,-765.8403 564.7126,-727.9734 546.4461,-697.1225"/>
<polygon fill="#000000" stroke="#000000" points="645.7883,-840.1961 655.2886,-844.8861 650.7866,-835.2954 645.7883,-840.1961"/>
</g>
<!-- m_have_perf_result -->
<g id="node17" class="node">
<title>m_have_perf_result</title>
<polygon fill="#ffffff" stroke="transparent" points="1021.5,-485 1021.5,-793 1158.5,-793 1158.5,-485 1021.5,-485"/>
<path fill="#4d4d4d" stroke="transparent" d="M1034.6667,-765C1034.6667,-765 1146.3333,-765 1146.3333,-765 1150.1667,-765 1154,-768.8333 1154,-772.6667 1154,-772.6667 1154,-780.3333 1154,-780.3333 1154,-784.1667 1150.1667,-788 1146.3333,-788 1146.3333,-788 1034.6667,-788 1034.6667,-788 1030.8333,-788 1027,-784.1667 1027,-780.3333 1027,-780.3333 1027,-772.6667 1027,-772.6667 1027,-768.8333 1030.8333,-765 1034.6667,-765"/>
<path fill="none" stroke="#000000" d="M1034.6667,-765C1034.6667,-765 1146.3333,-765 1146.3333,-765 1150.1667,-765 1154,-768.8333 1154,-772.6667 1154,-772.6667 1154,-780.3333 1154,-780.3333 1154,-784.1667 1150.1667,-788 1146.3333,-788 1146.3333,-788 1034.6667,-788 1034.6667,-788 1030.8333,-788 1027,-784.1667 1027,-780.3333 1027,-780.3333 1027,-772.6667 1027,-772.6667 1027,-768.8333 1030.8333,-765 1034.6667,-765"/>
<text text-anchor="start" x="1064.5" y="-772.8" font-family="Times,serif" font-size="14.00" fill="#ffffff">RESULT</text>
<polygon fill="#c0c0c0" stroke="transparent" points="1027,-740 1027,-761 1079,-761 1079,-740 1027,-740"/>
<text text-anchor="start" x="1048" y="-746.8" font-family="Times,serif" font-size="14.00" fill="#000000">ident</text>
<polygon fill="#c0c0c0" stroke="transparent" points="1083,-740 1083,-761 1154,-761 1154,-740 1083,-740"/>
<text text-anchor="start" x="1086" y="-746.8" font-family="Times,serif" font-size="14.00" fill="#000000">[string]</text>
<polygon fill="#c0c0c0" stroke="transparent" points="1027,-715 1027,-736 1079,-736 1079,-715 1027,-715"/>
<text text-anchor="start" x="1030" y="-721.8" font-family="Times,serif" font-size="14.00" fill="#000000">measure</text>
<polygon fill="#c0c0c0" stroke="transparent" points="1083,-715 1083,-736 1154,-736 1154,-715 1083,-715"/>
<text text-anchor="start" x="1086" y="-721.8" font-family="Times,serif" font-size="14.00" fill="#000000">[string]</text>
<polygon fill="#c0c0c0" stroke="transparent" points="1027,-690 1027,-711 1079,-711 1079,-690 1027,-690"/>
<text text-anchor="start" x="1040" y="-696.8" font-family="Times,serif" font-size="14.00" fill="#000000">nmsgs</text>
<polygon fill="#c0c0c0" stroke="transparent" points="1083,-690 1083,-711 1154,-711 1154,-690 1083,-690"/>
<text text-anchor="start" x="1086" y="-696.8" font-family="Times,serif" font-size="14.00" fill="#000000">[number*4]</text>
<polygon fill="#c0c0c0" stroke="transparent" points="1027,-665 1027,-686 1079,-686 1079,-665 1027,-665"/>
<text text-anchor="start" x="1031" y="-671.8" font-family="Times,serif" font-size="14.00" fill="#000000">msgsize</text>
<polygon fill="#c0c0c0" stroke="transparent" points="1083,-665 1083,-686 1154,-686 1154,-665 1083,-665"/>
<text text-anchor="start" x="1086" y="-671.8" font-family="Times,serif" font-size="14.00" fill="#000000">[number*8]</text>
<polygon fill="#c0c0c0" stroke="transparent" points="1027,-640 1027,-661 1079,-661 1079,-640 1027,-640"/>
<text text-anchor="start" x="1033" y="-646.8" font-family="Times,serif" font-size="14.00" fill="#000000">timeout</text>
<polygon fill="#c0c0c0" stroke="transparent" points="1083,-640 1083,-661 1154,-661 1154,-640 1083,-640"/>
<text text-anchor="start" x="1086" y="-646.8" font-family="Times,serif" font-size="14.00" fill="#000000">[number*4]</text>
<polygon fill="#c0c0c0" stroke="transparent" points="1027,-615 1027,-636 1079,-636 1079,-615 1027,-615"/>
<text text-anchor="start" x="1032" y="-621.8" font-family="Times,serif" font-size="14.00" fill="#000000">time_us</text>
<polygon fill="#c0c0c0" stroke="transparent" points="1083,-615 1083,-636 1154,-636 1154,-615 1083,-615"/>
<text text-anchor="start" x="1086" y="-621.8" font-family="Times,serif" font-size="14.00" fill="#000000">[number*8]</text>
<polygon fill="#c0c0c0" stroke="transparent" points="1027,-590 1027,-611 1079,-611 1079,-590 1027,-590"/>
<text text-anchor="start" x="1037" y="-596.8" font-family="Times,serif" font-size="14.00" fill="#000000">cpu_us</text>
<polygon fill="#c0c0c0" stroke="transparent" points="1083,-590 1083,-611 1154,-611 1154,-590 1083,-590"/>
<text text-anchor="start" x="1086" y="-596.8" font-family="Times,serif" font-size="14.00" fill="#000000">[number*8]</text>
<polygon fill="#c0c0c0" stroke="transparent" points="1027,-565 1027,-586 1079,-586 1079,-565 1027,-565"/>
<text text-anchor="start" x="1050" y="-571.8" font-family="Times,serif" font-size="14.00" fill="#000000">noos</text>
<polygon fill="#c0c0c0" stroke="transparent" points="1083,-565 1083,-586 1154,-586 1154,-565 1083,-565"/>
<text text-anchor="start" x="1086" y="-571.8" font-family="Times,serif" font-size="14.00" fill="#000000">[number*4]</text>
<polygon fill="#c0c0c0" stroke="transparent" points="1027,-540 1027,-561 1079,-561 1079,-540 1027,-540"/>
<text text-anchor="start" x="1040" y="-546.8" font-family="Times,serif" font-size="14.00" fill="#000000">nbytes</text>
<polygon fill="#c0c0c0" stroke="transparent" points="1083,-540 1083,-561 1154,-561 1154,-540 1083,-540"/>
<text text-anchor="start" x="1086" y="-546.8" font-family="Times,serif" font-size="14.00" fill="#000000">[number*8]</text>
<text text-anchor="start" x="1063" y="-521.8" font-family="Times,serif" font-size="14.00" fill="#000000">set results</text>
<text text-anchor="start" x="1035" y="-496.8" font-family="Times,serif" font-size="14.00" fill="#000000">msg results to caller</text>
<polygon fill="none" stroke="#000000" points="1021.5,-485 1021.5,-793 1158.5,-793 1158.5,-485 1021.5,-485"/>
</g>
<!-- s_have_perf&#45;&gt;m_have_perf_result -->
<g id="edge32" class="edge">
<title>s_have_perf&#45;&gt;m_have_perf_result</title>
<path fill="none" stroke="#000000" d="M734.4187,-872.4006C810.501,-858.4056 955.0326,-829.3254 996,-797 999.4386,-794.2867 1002.756,-791.3948 1005.9565,-788.352"/>
<polygon fill="#000000" stroke="#000000" points="1008.6853,-790.5694 1013.2143,-780.9914 1003.7009,-785.6546 1008.6853,-790.5694"/>
</g>
<!-- s_have_perf&#45;&gt;m_have_perf_result -->
<g id="edge33" class="edge">
<title>s_have_perf&#45;&gt;m_have_perf_result</title>
<path fill="none" stroke="#000000" d="M744.7315,-872.5932C827.1661,-858.6737 972.8438,-829.4745 1014,-797 1014.1223,-796.9035 1014.2444,-796.8068 1014.3663,-796.7099"/>
<polygon fill="#000000" stroke="#000000" points="744.048,-869.1588 734.759,-874.2543 745.1981,-876.0636 744.048,-869.1588"/>
</g>
<!-- m_defaults_destructor -->
<g id="node18" class="node">
<title>m_defaults_destructor</title>
<polygon fill="#ffffff" stroke="transparent" points="692,-118.5 692,-176.5 816,-176.5 816,-118.5 692,-118.5"/>
<path fill="#e5e5e5" stroke="transparent" d="M704.6667,-148.5C704.6667,-148.5 803.3333,-148.5 803.3333,-148.5 807.1667,-148.5 811,-152.3333 811,-156.1667 811,-156.1667 811,-163.8333 811,-163.8333 811,-167.6667 807.1667,-171.5 803.3333,-171.5 803.3333,-171.5 704.6667,-171.5 704.6667,-171.5 700.8333,-171.5 697,-167.6667 697,-163.8333 697,-163.8333 697,-156.1667 697,-156.1667 697,-152.3333 700.8333,-148.5 704.6667,-148.5"/>
<path fill="none" stroke="#000000" d="M704.6667,-148.5C704.6667,-148.5 803.3333,-148.5 803.3333,-148.5 807.1667,-148.5 811,-152.3333 811,-156.1667 811,-156.1667 811,-163.8333 811,-163.8333 811,-167.6667 807.1667,-171.5 803.3333,-171.5 803.3333,-171.5 704.6667,-171.5 704.6667,-171.5 700.8333,-171.5 697,-167.6667 697,-163.8333 697,-163.8333 697,-156.1667 697,-156.1667 697,-152.3333 700.8333,-148.5 704.6667,-148.5"/>
<text text-anchor="start" x="726.5" y="-156.3" font-family="Times,serif" font-size="14.00" fill="#000000">destructor</text>
<text text-anchor="start" x="702" y="-130.3" font-family="Times,serif" font-size="14.00" fill="#000000">send (GOODBYE)</text>
<polygon fill="none" stroke="#000000" points="692,-118.5 692,-176.5 816,-176.5 816,-118.5 692,-118.5"/>
</g>
<!-- s_defaults&#45;&gt;m_defaults_destructor -->
<g id="edge34" class="edge">
<title>s_defaults&#45;&gt;m_defaults_destructor</title>
<path fill="none" stroke="#000000" d="M1152.2818,-311.496C1143.3724,-291.1376 1130.6672,-267.5285 1111,-254 1005.0836,-181.1431 941.0288,-271.2042 824,-218 808.2018,-210.8177 793.3119,-199.3451 781.2603,-187.7232"/>
<polygon fill="#000000" stroke="#000000" points="783.6547,-185.1666 774.1406,-180.5047 778.6709,-190.0821 783.6547,-185.1666"/>
</g>
<!-- s_defaults&#45;&gt;m_defaults_destructor -->
<g id="edge35" class="edge">
<title>s_defaults&#45;&gt;m_defaults_destructor</title>
<path fill="none" stroke="#000000" d="M1162.6805,-297.5199C1155.351,-281.0963 1144.2755,-264.5076 1129,-254 1023.0836,-181.1431 959.0288,-271.2042 842,-218 822.9229,-209.3271 805.1704,-194.3981 790.551,-180.5047"/>
<polygon fill="#000000" stroke="#000000" points="1159.5711,-299.1666 1166.5666,-307.1236 1166.06,-296.5409 1159.5711,-299.1666"/>
</g>
<!-- m_defaults_goodbye_ok -->
<g id="node19" class="node">
<title>m_defaults_goodbye_ok</title>
<polygon fill="#ffffff" stroke="transparent" points="850,-106 850,-189 962,-189 962,-106 850,-106"/>
<path fill="#4d4d4d" stroke="transparent" d="M862.6667,-160.5C862.6667,-160.5 949.3333,-160.5 949.3333,-160.5 953.1667,-160.5 957,-164.3333 957,-168.1667 957,-168.1667 957,-175.8333 957,-175.8333 957,-179.6667 953.1667,-183.5 949.3333,-183.5 949.3333,-183.5 862.6667,-183.5 862.6667,-183.5 858.8333,-183.5 855,-179.6667 855,-175.8333 855,-175.8333 855,-168.1667 855,-168.1667 855,-164.3333 858.8333,-160.5 862.6667,-160.5"/>
<path fill="none" stroke="#000000" d="M862.6667,-160.5C862.6667,-160.5 949.3333,-160.5 949.3333,-160.5 953.1667,-160.5 957,-164.3333 957,-168.1667 957,-168.1667 957,-175.8333 957,-175.8333 957,-179.6667 953.1667,-183.5 949.3333,-183.5 949.3333,-183.5 862.6667,-183.5 862.6667,-183.5 858.8333,-183.5 855,-179.6667 855,-175.8333 855,-175.8333 855,-168.1667 855,-168.1667 855,-164.3333 858.8333,-160.5 862.6667,-160.5"/>
<text text-anchor="start" x="861" y="-168.3" font-family="Times,serif" font-size="14.00" fill="#ffffff">GOODBYE OK</text>
<text text-anchor="start" x="867.5" y="-142.3" font-family="Times,serif" font-size="14.00" fill="#000000">signal success</text>
<text text-anchor="start" x="880" y="-117.3" font-family="Times,serif" font-size="14.00" fill="#000000">terminate</text>
<polygon fill="none" stroke="#000000" points="850,-106 850,-189 962,-189 962,-106 850,-106"/>
</g>
<!-- s_defaults&#45;&gt;m_defaults_goodbye_ok -->
<g id="edge37" class="edge">
<title>s_defaults&#45;&gt;m_defaults_goodbye_ok</title>
<path fill="none" stroke="#000000" d="M1151.3818,-311.9508C1142.2676,-291.9956 1129.622,-268.6323 1111,-254 1060.4828,-214.306 1027.1822,-249.1636 971,-218 962.1553,-213.094 953.5807,-206.8775 945.6937,-200.1775"/>
<polygon fill="#000000" stroke="#000000" points="947.8397,-197.4013 938.0513,-193.3469 943.1748,-202.6205 947.8397,-197.4013"/>
</g>
<!-- s_defaults&#45;&gt;m_defaults_goodbye_ok -->
<g id="edge38" class="edge">
<title>s_defaults&#45;&gt;m_defaults_goodbye_ok</title>
<path fill="none" stroke="#000000" d="M1161.5113,-297.763C1154.1231,-281.693 1143.3313,-265.2609 1129,-254 1078.4828,-214.306 1045.1822,-249.1636 989,-218 977.2071,-211.4586 965.8943,-202.5877 955.5803,-193.3469"/>
<polygon fill="#000000" stroke="#000000" points="1158.3563,-299.2889 1165.4691,-307.1412 1164.8055,-296.5672 1158.3563,-299.2889"/>
</g>
<!-- m_defaults_expired -->
<g id="node20" class="node">
<title>m_defaults_expired</title>
<polygon fill="#ffffff" stroke="transparent" points="996.5,-106 996.5,-189 1165.5,-189 1165.5,-106 996.5,-106"/>
<path fill="#e5e5e5" stroke="transparent" d="M1009.6667,-160.5C1009.6667,-160.5 1153.3333,-160.5 1153.3333,-160.5 1157.1667,-160.5 1161,-164.3333 1161,-168.1667 1161,-168.1667 1161,-175.8333 1161,-175.8333 1161,-179.6667 1157.1667,-183.5 1153.3333,-183.5 1153.3333,-183.5 1009.6667,-183.5 1009.6667,-183.5 1005.8333,-183.5 1002,-179.6667 1002,-175.8333 1002,-175.8333 1002,-168.1667 1002,-168.1667 1002,-164.3333 1005.8333,-160.5 1009.6667,-160.5"/>
<path fill="none" stroke="#000000" d="M1009.6667,-160.5C1009.6667,-160.5 1153.3333,-160.5 1153.3333,-160.5 1157.1667,-160.5 1161,-164.3333 1161,-168.1667 1161,-168.1667 1161,-175.8333 1161,-175.8333 1161,-179.6667 1157.1667,-183.5 1153.3333,-183.5 1153.3333,-183.5 1009.6667,-183.5 1009.6667,-183.5 1005.8333,-183.5 1002,-179.6667 1002,-175.8333 1002,-175.8333 1002,-168.1667 1002,-168.1667 1002,-164.3333 1005.8333,-160.5 1009.6667,-160.5"/>
<text text-anchor="start" x="1061" y="-168.3" font-family="Times,serif" font-size="14.00" fill="#000000">expired</text>
<text text-anchor="start" x="1007" y="-142.3" font-family="Times,serif" font-size="14.00" fill="#000000">check if connection is dead</text>
<text text-anchor="start" x="1046.5" y="-117.3" font-family="Times,serif" font-size="14.00" fill="#000000">send (PING)</text>
<polygon fill="none" stroke="#000000" points="996.5,-106 996.5,-189 1165.5,-189 1165.5,-106 996.5,-106"/>
</g>
<!-- s_defaults&#45;&gt;m_defaults_expired -->
<g id="edge39" class="edge">
<title>s_defaults&#45;&gt;m_defaults_expired</title>
<path fill="none" stroke="#000000" d="M1149.3616,-312.9193C1134.0726,-282.1582 1114.0213,-237.7145 1099.4779,-202.6392"/>
<polygon fill="#000000" stroke="#000000" points="1102.5632,-200.9379 1095.5306,-193.0137 1096.0867,-203.594 1102.5632,-200.9379"/>
</g>
<!-- s_defaults&#45;&gt;m_defaults_expired -->
<g id="edge40" class="edge">
<title>s_defaults&#45;&gt;m_defaults_expired</title>
<path fill="none" stroke="#000000" d="M1154.5572,-299.2958C1141.2323,-266.8012 1122.4732,-224.8231 1107.1411,-193.2501"/>
<polygon fill="#000000" stroke="#000000" points="1151.3369,-300.6683 1158.3358,-308.6223 1157.8246,-298.0398 1151.3369,-300.6683"/>
</g>
<!-- m_defaults_ping_ok -->
<g id="node21" class="node">
<title>m_defaults_ping_ok</title>
<polygon fill="#ffffff" stroke="transparent" points="1200,-118.5 1200,-176.5 1322,-176.5 1322,-118.5 1200,-118.5"/>
<path fill="#4d4d4d" stroke="transparent" d="M1212.6667,-148.5C1212.6667,-148.5 1309.3333,-148.5 1309.3333,-148.5 1313.1667,-148.5 1317,-152.3333 1317,-156.1667 1317,-156.1667 1317,-163.8333 1317,-163.8333 1317,-167.6667 1313.1667,-171.5 1309.3333,-171.5 1309.3333,-171.5 1212.6667,-171.5 1212.6667,-171.5 1208.8333,-171.5 1205,-167.6667 1205,-163.8333 1205,-163.8333 1205,-156.1667 1205,-156.1667 1205,-152.3333 1208.8333,-148.5 1212.6667,-148.5"/>
<path fill="none" stroke="#000000" d="M1212.6667,-148.5C1212.6667,-148.5 1309.3333,-148.5 1309.3333,-148.5 1313.1667,-148.5 1317,-152.3333 1317,-156.1667 1317,-156.1667 1317,-163.8333 1317,-163.8333 1317,-167.6667 1313.1667,-171.5 1309.3333,-171.5 1309.3333,-171.5 1212.6667,-171.5 1212.6667,-171.5 1208.8333,-171.5 1205,-167.6667 1205,-163.8333 1205,-163.8333 1205,-156.1667 1205,-156.1667 1205,-152.3333 1208.8333,-148.5 1212.6667,-148.5"/>
<text text-anchor="start" x="1233.5" y="-156.3" font-family="Times,serif" font-size="14.00" fill="#ffffff">PING OK</text>
<text text-anchor="start" x="1210" y="-130.3" font-family="Times,serif" font-size="14.00" fill="#000000">client is connected</text>
<polygon fill="none" stroke="#000000" points="1200,-118.5 1200,-176.5 1322,-176.5 1322,-118.5 1200,-118.5"/>
</g>
<!-- s_defaults&#45;&gt;m_defaults_ping_ok -->
<g id="edge42" class="edge">
<title>s_defaults&#45;&gt;m_defaults_ping_ok</title>
<path fill="none" stroke="#000000" d="M1183.6642,-308.6223C1197.4998,-274.0171 1219.4953,-224.6068 1236.6164,-189.646"/>
<polygon fill="#000000" stroke="#000000" points="1239.7749,-191.1547 1241.0803,-180.6406 1233.5031,-188.0459 1239.7749,-191.1547"/>
</g>
<!-- s_defaults&#45;&gt;m_defaults_ping_ok -->
<g id="edge43" class="edge">
<title>s_defaults&#45;&gt;m_defaults_ping_ok</title>
<path fill="none" stroke="#000000" d="M1197.1437,-303.7444C1215.3075,-266.3398 1238.2801,-214.3339 1251.3291,-180.7934"/>
<polygon fill="#000000" stroke="#000000" points="1193.9045,-302.4004 1192.6384,-312.9193 1200.1879,-305.4859 1193.9045,-302.4004"/>
</g>
<!-- m_defaults_error -->
<g id="node22" class="node">
<title>m_defaults_error</title>
<polygon fill="#ffffff" stroke="transparent" points="1356.5,-81 1356.5,-214 1483.5,-214 1483.5,-81 1356.5,-81"/>
<path fill="#4d4d4d" stroke="transparent" d="M1369.6667,-185.5C1369.6667,-185.5 1471.3333,-185.5 1471.3333,-185.5 1475.1667,-185.5 1479,-189.3333 1479,-193.1667 1479,-193.1667 1479,-200.8333 1479,-200.8333 1479,-204.6667 1475.1667,-208.5 1471.3333,-208.5 1471.3333,-208.5 1369.6667,-208.5 1369.6667,-208.5 1365.8333,-208.5 1362,-204.6667 1362,-200.8333 1362,-200.8333 1362,-193.1667 1362,-193.1667 1362,-189.3333 1365.8333,-185.5 1369.6667,-185.5"/>
<path fill="none" stroke="#000000" d="M1369.6667,-185.5C1369.6667,-185.5 1471.3333,-185.5 1471.3333,-185.5 1475.1667,-185.5 1479,-189.3333 1479,-193.1667 1479,-193.1667 1479,-200.8333 1479,-200.8333 1479,-204.6667 1475.1667,-208.5 1471.3333,-208.5 1471.3333,-208.5 1369.6667,-208.5 1369.6667,-208.5 1365.8333,-208.5 1362,-204.6667 1362,-200.8333 1362,-200.8333 1362,-193.1667 1362,-193.1667 1362,-189.3333 1365.8333,-185.5 1369.6667,-185.5"/>
<text text-anchor="start" x="1397.5" y="-193.3" font-family="Times,serif" font-size="14.00" fill="#ffffff">ERROR</text>
<polygon fill="#c0c0c0" stroke="transparent" points="1362,-160.5 1362,-181.5 1404,-181.5 1404,-160.5 1362,-160.5"/>
<text text-anchor="start" x="1370" y="-167.3" font-family="Times,serif" font-size="14.00" fill="#000000">status</text>
<polygon fill="#c0c0c0" stroke="transparent" points="1408,-160.5 1408,-181.5 1479,-181.5 1479,-160.5 1408,-160.5"/>
<text text-anchor="start" x="1411" y="-167.3" font-family="Times,serif" font-size="14.00" fill="#000000">[number*2]</text>
<polygon fill="#c0c0c0" stroke="transparent" points="1362,-135.5 1362,-156.5 1404,-156.5 1404,-135.5 1362,-135.5"/>
<text text-anchor="start" x="1365" y="-142.3" font-family="Times,serif" font-size="14.00" fill="#000000">reason</text>
<polygon fill="#c0c0c0" stroke="transparent" points="1408,-135.5 1408,-156.5 1479,-156.5 1479,-135.5 1408,-135.5"/>
<text text-anchor="start" x="1411" y="-142.3" font-family="Times,serif" font-size="14.00" fill="#000000">[string]</text>
<text text-anchor="start" x="1372.5" y="-117.3" font-family="Times,serif" font-size="14.00" fill="#000000">check status code</text>
<text text-anchor="start" x="1394.5" y="-92.3" font-family="Times,serif" font-size="14.00" fill="#000000">terminate</text>
<polygon fill="none" stroke="#000000" points="1356.5,-81 1356.5,-214 1483.5,-214 1483.5,-81 1356.5,-81"/>
</g>
<!-- s_defaults&#45;&gt;m_defaults_error -->
<g id="edge44" class="edge">
<title>s_defaults&#45;&gt;m_defaults_error</title>
<path fill="none" stroke="#000000" d="M1202.0848,-320.5468C1234.4898,-294.2647 1286.1567,-254.1976 1330,-218 1333.4077,-215.1866 1336.8787,-212.2898 1340.3793,-209.3491"/>
<polygon fill="#000000" stroke="#000000" points="1342.6892,-211.9796 1348.0769,-202.8568 1338.1762,-206.6286 1342.6892,-211.9796"/>
</g>
<!-- s_defaults&#45;&gt;m_defaults_error -->
<g id="edge45" class="edge">
<title>s_defaults&#45;&gt;m_defaults_error</title>
<path fill="none" stroke="#000000" d="M1215.4228,-321.1125C1251.7452,-294.842 1303.841,-254.4582 1348,-218 1348.1438,-217.8813 1348.2876,-217.7625 1348.4316,-217.6435"/>
<polygon fill="#000000" stroke="#000000" points="1213.0908,-318.4778 1207.0034,-327.1493 1217.1698,-324.1666 1213.0908,-318.4778"/>
</g>
<!-- m_defaults_exception -->
<g id="node23" class="node">
<title>m_defaults_exception</title>
<polygon fill="#ffffff" stroke="transparent" points="1518,-131 1518,-164 1590,-164 1590,-131 1518,-131"/>
<path fill="#e5e5e5" stroke="transparent" d="M1530.6667,-135.5C1530.6667,-135.5 1577.3333,-135.5 1577.3333,-135.5 1581.1667,-135.5 1585,-139.3333 1585,-143.1667 1585,-143.1667 1585,-150.8333 1585,-150.8333 1585,-154.6667 1581.1667,-158.5 1577.3333,-158.5 1577.3333,-158.5 1530.6667,-158.5 1530.6667,-158.5 1526.8333,-158.5 1523,-154.6667 1523,-150.8333 1523,-150.8333 1523,-143.1667 1523,-143.1667 1523,-139.3333 1526.8333,-135.5 1530.6667,-135.5"/>
<path fill="none" stroke="#000000" d="M1530.6667,-135.5C1530.6667,-135.5 1577.3333,-135.5 1577.3333,-135.5 1581.1667,-135.5 1585,-139.3333 1585,-143.1667 1585,-143.1667 1585,-150.8333 1585,-150.8333 1585,-154.6667 1581.1667,-158.5 1577.3333,-158.5 1577.3333,-158.5 1530.6667,-158.5 1530.6667,-158.5 1526.8333,-158.5 1523,-154.6667 1523,-150.8333 1523,-150.8333 1523,-143.1667 1523,-143.1667 1523,-139.3333 1526.8333,-135.5 1530.6667,-135.5"/>
<text text-anchor="start" x="1527.5" y="-143.3" font-family="Times,serif" font-size="14.00" fill="#000000">exception</text>
<polygon fill="none" stroke="#000000" points="1518,-131 1518,-164 1590,-164 1590,-131 1518,-131"/>
</g>
<!-- s_defaults&#45;&gt;m_defaults_exception -->
<g id="edge46" class="edge">
<title>s_defaults&#45;&gt;m_defaults_exception</title>
<path fill="none" stroke="#000000" d="M1199.2648,-317.8554C1223.846,-296.5498 1260.8963,-269.5929 1298,-254 1378.8452,-220.0246 1417.4604,-264.1965 1492,-218 1508.1027,-208.0202 1521.0197,-191.2207 1531.0852,-176.524"/>
<polygon fill="#000000" stroke="#000000" points="1534.0179,-178.4349 1536.6846,-168.1812 1528.2056,-174.5339 1534.0179,-178.4349"/>
</g>
<!-- s_defaults&#45;&gt;m_defaults_exception -->
<g id="edge47" class="edge">
<title>s_defaults&#45;&gt;m_defaults_exception</title>
<path fill="none" stroke="#000000" d="M1213.7808,-318.2985C1241.3314,-296.9247 1278.6386,-269.7012 1316,-254 1396.8452,-220.0246 1435.4604,-264.1965 1510,-218 1529.263,-206.0616 1543.9673,-184.3639 1551.2066,-168.1812"/>
<polygon fill="#000000" stroke="#000000" points="1211.2804,-315.8104 1205.5546,-324.7247 1215.5898,-321.3267 1211.2804,-315.8104"/>
</g>
<!-- m_defaults__ -->
<g id="node24" class="node">
<title>m_defaults__</title>
<polygon fill="#ffffff" stroke="transparent" points="530,-106 530,-189 658,-189 658,-106 530,-106"/>
<path fill="#e5e5e5" stroke="transparent" d="M542.6667,-160.5C542.6667,-160.5 645.3333,-160.5 645.3333,-160.5 649.1667,-160.5 653,-164.3333 653,-168.1667 653,-168.1667 653,-175.8333 653,-175.8333 653,-179.6667 649.1667,-183.5 645.3333,-183.5 645.3333,-183.5 542.6667,-183.5 542.6667,-183.5 538.8333,-183.5 535,-179.6667 535,-175.8333 535,-175.8333 535,-168.1667 535,-168.1667 535,-164.3333 538.8333,-160.5 542.6667,-160.5"/>
<path fill="none" stroke="#000000" d="M542.6667,-160.5C542.6667,-160.5 645.3333,-160.5 645.3333,-160.5 649.1667,-160.5 653,-164.3333 653,-168.1667 653,-168.1667 653,-175.8333 653,-175.8333 653,-179.6667 649.1667,-183.5 645.3333,-183.5 645.3333,-183.5 542.6667,-183.5 542.6667,-183.5 538.8333,-183.5 535,-179.6667 535,-175.8333 535,-175.8333 535,-168.1667 535,-168.1667 535,-164.3333 538.8333,-160.5 542.6667,-160.5"/>
<text text-anchor="start" x="590.5" y="-168.3" font-family="Times,serif" font-size="14.00" fill="#000000">*</text>
<text text-anchor="start" x="540" y="-142.3" font-family="Times,serif" font-size="14.00" fill="#000000">signal internal error</text>
<text text-anchor="start" x="568" y="-117.3" font-family="Times,serif" font-size="14.00" fill="#000000">terminate</text>
<polygon fill="none" stroke="#000000" points="530,-106 530,-189 658,-189 658,-106 530,-106"/>
</g>
<!-- s_defaults&#45;&gt;m_defaults__ -->
<g id="edge48" class="edge">
<title>s_defaults&#45;&gt;m_defaults__</title>
<path fill="none" stroke="#000000" d="M1152.5052,-311.1634C1143.6679,-290.6977 1130.9604,-267.092 1111,-254 1028.0406,-199.5872 757.4396,-256.4944 666,-218 655.2354,-213.4683 644.8886,-206.9325 635.5315,-199.6449"/>
<polygon fill="#000000" stroke="#000000" points="637.5177,-196.746 627.5778,-193.0785 633.0611,-202.1441 637.5177,-196.746"/>
</g>
<!-- s_defaults&#45;&gt;m_defaults__ -->
<g id="edge49" class="edge">
<title>s_defaults&#45;&gt;m_defaults__</title>
<path fill="none" stroke="#000000" d="M1163.1237,-297.554C1155.8193,-280.9598 1144.6346,-264.2547 1129,-254 1046.0406,-199.5872 775.4396,-256.4944 684,-218 670.0822,-212.1409 656.8626,-202.9315 645.0077,-193.0785"/>
<polygon fill="#000000" stroke="#000000" points="1160.0355,-299.2606 1166.9802,-307.2619 1166.541,-296.6762 1160.0355,-299.2606"/>
</g>
<!-- m_hello -->
<g id="node25" class="node">
<title>m_hello</title>
<polygon fill="#ffffff" stroke="transparent" points="376,-118.5 376,-176.5 496,-176.5 496,-118.5 376,-118.5"/>
<path fill="#4d4d4d" stroke="transparent" d="M388.6667,-148.5C388.6667,-148.5 483.3333,-148.5 483.3333,-148.5 487.1667,-148.5 491,-152.3333 491,-156.1667 491,-156.1667 491,-163.8333 491,-163.8333 491,-167.6667 487.1667,-171.5 483.3333,-171.5 483.3333,-171.5 388.6667,-171.5 388.6667,-171.5 384.8333,-171.5 381,-167.6667 381,-163.8333 381,-163.8333 381,-156.1667 381,-156.1667 381,-152.3333 384.8333,-148.5 388.6667,-148.5"/>
<path fill="none" stroke="#000000" d="M388.6667,-148.5C388.6667,-148.5 483.3333,-148.5 483.3333,-148.5 487.1667,-148.5 491,-152.3333 491,-156.1667 491,-156.1667 491,-163.8333 491,-163.8333 491,-167.6667 487.1667,-171.5 483.3333,-171.5 483.3333,-171.5 388.6667,-171.5 388.6667,-171.5 384.8333,-171.5 381,-167.6667 381,-163.8333 381,-163.8333 381,-156.1667 381,-156.1667 381,-152.3333 384.8333,-148.5 388.6667,-148.5"/>
<text text-anchor="start" x="413.5" y="-156.3" font-family="Times,serif" font-size="14.00" fill="#ffffff">HELLO</text>
<polygon fill="#c0c0c0" stroke="transparent" points="381,-123.5 381,-144.5 441,-144.5 441,-123.5 381,-123.5"/>
<text text-anchor="start" x="384" y="-130.3" font-family="Times,serif" font-size="14.00" fill="#000000">nickname</text>
<polygon fill="#c0c0c0" stroke="transparent" points="445,-123.5 445,-144.5 491,-144.5 491,-123.5 445,-123.5"/>
<text text-anchor="start" x="448" y="-130.3" font-family="Times,serif" font-size="14.00" fill="#000000">[string]</text>
<polygon fill="none" stroke="#000000" points="376,-118.5 376,-176.5 496,-176.5 496,-118.5 376,-118.5"/>
</g>
<!-- m_start_say_hello&#45;&gt;m_hello -->
<g id="edge6" class="edge">
<title>m_start_say_hello:hello&#45;&gt;m_hello</title>
<path fill="none" stroke="#000000" stroke-dasharray="1,5" d="M822,-297.5C800.3348,-297.5 817.7122,-266.4764 800,-254 694.9012,-179.9685 629.6871,-271.9495 513,-218 497.4686,-210.8192 482.9208,-199.3469 470.7433,-187.725"/>
<polygon fill="#000000" stroke="#000000" points="463.4798,-180.5063 473.7449,-184.3637 467.0263,-184.0309 470.5728,-187.5555 470.5728,-187.5555 470.5728,-187.5555 467.0263,-184.0309 467.4007,-190.7473 463.4798,-180.5063 463.4798,-180.5063"/>
</g>
<!-- f_say_hello -->
<g id="node33" class="node">
<title>f_say_hello</title>
<polygon fill="#ffffff" stroke="transparent" points="222,-81 222,-214 342,-214 342,-81 222,-81"/>
<path fill="#e5e5e5" stroke="transparent" d="M234.6667,-185.5C234.6667,-185.5 329.3333,-185.5 329.3333,-185.5 333.1667,-185.5 337,-189.3333 337,-193.1667 337,-193.1667 337,-200.8333 337,-200.8333 337,-204.6667 333.1667,-208.5 329.3333,-208.5 329.3333,-208.5 234.6667,-208.5 234.6667,-208.5 230.8333,-208.5 227,-204.6667 227,-200.8333 227,-200.8333 227,-193.1667 227,-193.1667 227,-189.3333 230.8333,-185.5 234.6667,-185.5"/>
<path fill="none" stroke="#0000ff" d="M234.6667,-185.5C234.6667,-185.5 329.3333,-185.5 329.3333,-185.5 333.1667,-185.5 337,-189.3333 337,-193.1667 337,-193.1667 337,-200.8333 337,-200.8333 337,-204.6667 333.1667,-208.5 329.3333,-208.5 329.3333,-208.5 234.6667,-208.5 234.6667,-208.5 230.8333,-208.5 227,-204.6667 227,-200.8333 227,-200.8333 227,-193.1667 227,-193.1667 227,-189.3333 230.8333,-185.5 234.6667,-185.5"/>
<text text-anchor="start" x="257.5" y="-193.3" font-family="Times,serif" font-size="14.00" fill="#0000ff">say hello</text>
<polygon fill="#c0c0c0" stroke="transparent" points="227,-160.5 227,-181.5 287,-181.5 287,-160.5 227,-160.5"/>
<text text-anchor="start" x="230" y="-167.3" font-family="Times,serif" font-size="14.00" fill="#000000">nickname</text>
<polygon fill="#c0c0c0" stroke="transparent" points="291,-160.5 291,-181.5 337,-181.5 337,-160.5 291,-160.5"/>
<text text-anchor="start" x="294" y="-167.3" font-family="Times,serif" font-size="14.00" fill="#000000">[string]</text>
<polygon fill="#c0c0c0" stroke="transparent" points="227,-135.5 227,-156.5 287,-156.5 287,-135.5 227,-135.5"/>
<text text-anchor="start" x="236" y="-142.3" font-family="Times,serif" font-size="14.00" fill="#000000">endpoint</text>
<polygon fill="#c0c0c0" stroke="transparent" points="291,-135.5 291,-156.5 337,-156.5 337,-135.5 291,-135.5"/>
<text text-anchor="start" x="294" y="-142.3" font-family="Times,serif" font-size="14.00" fill="#000000">[string]</text>
<polygon fill="#c0c0c0" stroke="transparent" points="227,-110.5 227,-131.5 337,-131.5 337,-110.5 227,-110.5"/>
<text text-anchor="start" x="241" y="-117.3" font-family="Times,serif" font-size="14.00" fill="#000000">CONNECTED</text>
<polygon fill="#c0c0c0" stroke="transparent" points="227,-85.5 227,-106.5 337,-106.5 337,-85.5 227,-85.5"/>
<text text-anchor="start" x="253" y="-92.3" font-family="Times,serif" font-size="14.00" fill="#000000">FAILURE</text>
<polygon fill="none" stroke="#0000ff" points="222,-81 222,-214 342,-214 342,-81 222,-81"/>
</g>
<!-- m_start_say_hello&#45;&gt;f_say_hello -->
<g id="edge50" class="edge">
<title>m_start_say_hello&#45;&gt;f_say_hello</title>
<path fill="none" stroke="#0000ff" d="M825.3232,-271.5793C817.5235,-264.7037 809.0535,-258.6146 800,-254 624.7944,-164.6971 539.2433,-296.6407 359,-218 356.0097,-216.6953 353.0593,-215.2256 350.1579,-213.6205"/>
<polygon fill="#0000ff" stroke="#0000ff" points="823.2109,-274.397 832.8963,-278.6916 828.003,-269.2945 823.2109,-274.397"/>
</g>
<!-- m_create -->
<g id="node26" class="node">
<title>m_create</title>
<polygon fill="#ffffff" stroke="transparent" points="2084,-118.5 2084,-176.5 2204,-176.5 2204,-118.5 2084,-118.5"/>
<path fill="#4d4d4d" stroke="transparent" d="M2096.6667,-148.5C2096.6667,-148.5 2191.3333,-148.5 2191.3333,-148.5 2195.1667,-148.5 2199,-152.3333 2199,-156.1667 2199,-156.1667 2199,-163.8333 2199,-163.8333 2199,-167.6667 2195.1667,-171.5 2191.3333,-171.5 2191.3333,-171.5 2096.6667,-171.5 2096.6667,-171.5 2092.8333,-171.5 2089,-167.6667 2089,-163.8333 2089,-163.8333 2089,-156.1667 2089,-156.1667 2089,-152.3333 2092.8333,-148.5 2096.6667,-148.5"/>
<path fill="none" stroke="#000000" d="M2096.6667,-148.5C2096.6667,-148.5 2191.3333,-148.5 2191.3333,-148.5 2195.1667,-148.5 2199,-152.3333 2199,-156.1667 2199,-156.1667 2199,-163.8333 2199,-163.8333 2199,-167.6667 2195.1667,-171.5 2191.3333,-171.5 2191.3333,-171.5 2096.6667,-171.5 2096.6667,-171.5 2092.8333,-171.5 2089,-167.6667 2089,-163.8333 2089,-163.8333 2089,-156.1667 2089,-156.1667 2089,-152.3333 2092.8333,-148.5 2096.6667,-148.5"/>
<text text-anchor="start" x="2117.5" y="-156.3" font-family="Times,serif" font-size="14.00" fill="#ffffff">CREATE</text>
<polygon fill="#c0c0c0" stroke="transparent" points="2089,-123.5 2089,-144.5 2124,-144.5 2124,-123.5 2089,-123.5"/>
<text text-anchor="start" x="2092" y="-130.3" font-family="Times,serif" font-size="14.00" fill="#000000">stype</text>
<polygon fill="#c0c0c0" stroke="transparent" points="2128,-123.5 2128,-144.5 2199,-144.5 2199,-123.5 2128,-123.5"/>
<text text-anchor="start" x="2131" y="-130.3" font-family="Times,serif" font-size="14.00" fill="#000000">[number*4]</text>
<polygon fill="none" stroke="#000000" points="2084,-118.5 2084,-176.5 2204,-176.5 2204,-118.5 2084,-118.5"/>
</g>
<!-- m_connected_create_perf&#45;&gt;m_create -->
<g id="edge13" class="edge">
<title>m_connected_create_perf:create&#45;&gt;m_create</title>
<path fill="none" stroke="#000000" stroke-dasharray="1,5" d="M1867,-322.5C1898.9761,-322.5 1865.1679,-275.319 1889,-254 1949.1562,-200.1874 1995.0557,-254.5866 2067,-218 2081.9845,-210.3797 2096.2185,-199.027 2108.2789,-187.6467"/>
<polygon fill="#000000" stroke="#000000" points="2115.4945,-180.5904 2111.4912,-190.7994 2111.9197,-184.0863 2108.3449,-187.5821 2108.3449,-187.5821 2108.3449,-187.5821 2111.9197,-184.0863 2105.1987,-184.3648 2115.4945,-180.5904 2115.4945,-180.5904"/>
</g>
<!-- f_create_perf -->
<g id="node34" class="node">
<title>f_create_perf</title>
<polygon fill="#ffffff" stroke="transparent" points="1930,-93.5 1930,-201.5 2050,-201.5 2050,-93.5 1930,-93.5"/>
<path fill="#e5e5e5" stroke="transparent" d="M1942.6667,-173.5C1942.6667,-173.5 2037.3333,-173.5 2037.3333,-173.5 2041.1667,-173.5 2045,-177.3333 2045,-181.1667 2045,-181.1667 2045,-188.8333 2045,-188.8333 2045,-192.6667 2041.1667,-196.5 2037.3333,-196.5 2037.3333,-196.5 1942.6667,-196.5 1942.6667,-196.5 1938.8333,-196.5 1935,-192.6667 1935,-188.8333 1935,-188.8333 1935,-181.1667 1935,-181.1667 1935,-177.3333 1938.8333,-173.5 1942.6667,-173.5"/>
<path fill="none" stroke="#0000ff" d="M1942.6667,-173.5C1942.6667,-173.5 2037.3333,-173.5 2037.3333,-173.5 2041.1667,-173.5 2045,-177.3333 2045,-181.1667 2045,-181.1667 2045,-188.8333 2045,-188.8333 2045,-192.6667 2041.1667,-196.5 2037.3333,-196.5 2037.3333,-196.5 1942.6667,-196.5 1942.6667,-196.5 1938.8333,-196.5 1935,-192.6667 1935,-188.8333 1935,-188.8333 1935,-181.1667 1935,-181.1667 1935,-177.3333 1938.8333,-173.5 1942.6667,-173.5"/>
<text text-anchor="start" x="1961" y="-181.3" font-family="Times,serif" font-size="14.00" fill="#0000ff">create perf</text>
<polygon fill="#c0c0c0" stroke="transparent" points="1935,-148.5 1935,-169.5 1970,-169.5 1970,-148.5 1935,-148.5"/>
<text text-anchor="start" x="1938" y="-155.3" font-family="Times,serif" font-size="14.00" fill="#000000">stype</text>
<polygon fill="#c0c0c0" stroke="transparent" points="1974,-148.5 1974,-169.5 2045,-169.5 2045,-148.5 1974,-148.5"/>
<text text-anchor="start" x="1977" y="-155.3" font-family="Times,serif" font-size="14.00" fill="#000000">[number*4]</text>
<polygon fill="#c0c0c0" stroke="transparent" points="1935,-123.5 1935,-144.5 2045,-144.5 2045,-123.5 1935,-123.5"/>
<text text-anchor="start" x="1951.5" y="-130.3" font-family="Times,serif" font-size="14.00" fill="#000000">PERF IDENT</text>
<polygon fill="#c0c0c0" stroke="transparent" points="1935,-98.5 1935,-119.5 2045,-119.5 2045,-98.5 1935,-98.5"/>
<text text-anchor="start" x="1961" y="-105.3" font-family="Times,serif" font-size="14.00" fill="#000000">FAILURE</text>
<polygon fill="none" stroke="#0000ff" points="1930,-93.5 1930,-201.5 2050,-201.5 2050,-93.5 1930,-93.5"/>
</g>
<!-- m_connected_create_perf&#45;&gt;f_create_perf -->
<g id="edge51" class="edge">
<title>m_connected_create_perf&#45;&gt;f_create_perf</title>
<path fill="none" stroke="#0000ff" d="M1855.6553,-295.5475C1866.2095,-281.7712 1877.7978,-267.1449 1889,-254 1902.7184,-237.9025 1918.1582,-221.0482 1932.7611,-205.6199"/>
<polygon fill="#0000ff" stroke="#0000ff" points="1852.8416,-293.4654 1849.5715,-303.5429 1858.4123,-297.7043 1852.8416,-293.4654"/>
</g>
<!-- m_lookup -->
<g id="node27" class="node">
<title>m_lookup</title>
<polygon fill="#ffffff" stroke="transparent" points="1624,-118.5 1624,-176.5 1718,-176.5 1718,-118.5 1624,-118.5"/>
<path fill="#4d4d4d" stroke="transparent" d="M1636.6667,-148.5C1636.6667,-148.5 1705.3333,-148.5 1705.3333,-148.5 1709.1667,-148.5 1713,-152.3333 1713,-156.1667 1713,-156.1667 1713,-163.8333 1713,-163.8333 1713,-167.6667 1709.1667,-171.5 1705.3333,-171.5 1705.3333,-171.5 1636.6667,-171.5 1636.6667,-171.5 1632.8333,-171.5 1629,-167.6667 1629,-163.8333 1629,-163.8333 1629,-156.1667 1629,-156.1667 1629,-152.3333 1632.8333,-148.5 1636.6667,-148.5"/>
<path fill="none" stroke="#000000" d="M1636.6667,-148.5C1636.6667,-148.5 1705.3333,-148.5 1705.3333,-148.5 1709.1667,-148.5 1713,-152.3333 1713,-156.1667 1713,-156.1667 1713,-163.8333 1713,-163.8333 1713,-167.6667 1709.1667,-171.5 1705.3333,-171.5 1705.3333,-171.5 1636.6667,-171.5 1636.6667,-171.5 1632.8333,-171.5 1629,-167.6667 1629,-163.8333 1629,-163.8333 1629,-156.1667 1629,-156.1667 1629,-152.3333 1632.8333,-148.5 1636.6667,-148.5"/>
<text text-anchor="start" x="1643.5" y="-156.3" font-family="Times,serif" font-size="14.00" fill="#ffffff">LOOKUP</text>
<polygon fill="#c0c0c0" stroke="transparent" points="1629,-123.5 1629,-144.5 1663,-144.5 1663,-123.5 1629,-123.5"/>
<text text-anchor="start" x="1632" y="-130.3" font-family="Times,serif" font-size="14.00" fill="#000000">ident</text>
<polygon fill="#c0c0c0" stroke="transparent" points="1667,-123.5 1667,-144.5 1713,-144.5 1713,-123.5 1667,-123.5"/>
<text text-anchor="start" x="1670" y="-130.3" font-family="Times,serif" font-size="14.00" fill="#000000">[string]</text>
<polygon fill="none" stroke="#000000" points="1624,-118.5 1624,-176.5 1718,-176.5 1718,-118.5 1624,-118.5"/>
</g>
<!-- m_connected_request_lookup&#45;&gt;m_lookup -->
<g id="edge16" class="edge">
<title>m_connected_request_lookup:lookup&#45;&gt;m_lookup</title>
<path fill="none" stroke="#000000" stroke-dasharray="1,5" d="M1432,-322.5C1463.9761,-322.5 1430.507,-275.6921 1454,-254 1505.3244,-206.61 1546.8114,-253.4589 1607,-218 1619.8452,-210.4325 1631.583,-199.4471 1641.3993,-188.3912"/>
<polygon fill="#000000" stroke="#000000" points="1647.8783,-180.7671 1644.8318,-191.3013 1644.6405,-184.5772 1641.4027,-188.3872 1641.4027,-188.3872 1641.4027,-188.3872 1644.6405,-184.5772 1637.9736,-185.4732 1647.8783,-180.7671 1647.8783,-180.7671"/>
</g>
<!-- m_info -->
<g id="node28" class="node">
<title>m_info</title>
<polygon fill="#ffffff" stroke="transparent" points="1752,-93.5 1752,-201.5 1896,-201.5 1896,-93.5 1752,-93.5"/>
<path fill="#4d4d4d" stroke="transparent" d="M1764.6667,-173.5C1764.6667,-173.5 1883.3333,-173.5 1883.3333,-173.5 1887.1667,-173.5 1891,-177.3333 1891,-181.1667 1891,-181.1667 1891,-188.8333 1891,-188.8333 1891,-192.6667 1887.1667,-196.5 1883.3333,-196.5 1883.3333,-196.5 1764.6667,-196.5 1764.6667,-196.5 1760.8333,-196.5 1757,-192.6667 1757,-188.8333 1757,-188.8333 1757,-181.1667 1757,-181.1667 1757,-177.3333 1760.8333,-173.5 1764.6667,-173.5"/>
<path fill="none" stroke="#000000" d="M1764.6667,-173.5C1764.6667,-173.5 1883.3333,-173.5 1883.3333,-173.5 1887.1667,-173.5 1891,-177.3333 1891,-181.1667 1891,-181.1667 1891,-188.8333 1891,-188.8333 1891,-192.6667 1887.1667,-196.5 1883.3333,-196.5 1883.3333,-196.5 1764.6667,-196.5 1764.6667,-196.5 1760.8333,-196.5 1757,-192.6667 1757,-188.8333 1757,-188.8333 1757,-181.1667 1757,-181.1667 1757,-177.3333 1760.8333,-173.5 1764.6667,-173.5"/>
<text text-anchor="start" x="1808" y="-181.3" font-family="Times,serif" font-size="14.00" fill="#ffffff">INFO</text>
<polygon fill="#c0c0c0" stroke="transparent" points="1757,-148.5 1757,-169.5 1816,-169.5 1816,-148.5 1757,-148.5"/>
<text text-anchor="start" x="1785" y="-155.3" font-family="Times,serif" font-size="14.00" fill="#000000">ident</text>
<polygon fill="#c0c0c0" stroke="transparent" points="1820,-148.5 1820,-169.5 1891,-169.5 1891,-148.5 1820,-148.5"/>
<text text-anchor="start" x="1823" y="-155.3" font-family="Times,serif" font-size="14.00" fill="#000000">[string]</text>
<polygon fill="#c0c0c0" stroke="transparent" points="1757,-123.5 1757,-144.5 1816,-144.5 1816,-123.5 1757,-123.5"/>
<text text-anchor="start" x="1784" y="-130.3" font-family="Times,serif" font-size="14.00" fill="#000000">stype</text>
<polygon fill="#c0c0c0" stroke="transparent" points="1820,-123.5 1820,-144.5 1891,-144.5 1891,-123.5 1820,-123.5"/>
<text text-anchor="start" x="1823" y="-130.3" font-family="Times,serif" font-size="14.00" fill="#000000">[number*4]</text>
<polygon fill="#c0c0c0" stroke="transparent" points="1757,-98.5 1757,-119.5 1816,-119.5 1816,-98.5 1757,-98.5"/>
<text text-anchor="start" x="1760" y="-105.3" font-family="Times,serif" font-size="14.00" fill="#000000">endpoints</text>
<polygon fill="#c0c0c0" stroke="transparent" points="1820,-98.5 1820,-119.5 1891,-119.5 1891,-98.5 1820,-98.5"/>
<text text-anchor="start" x="1823" y="-105.3" font-family="Times,serif" font-size="14.00" fill="#000000">[hash]</text>
<polygon fill="none" stroke="#000000" points="1752,-93.5 1752,-201.5 1896,-201.5 1896,-93.5 1752,-93.5"/>
</g>
<!-- m_connected_request_info&#45;&gt;m_info -->
<g id="edge21" class="edge">
<title>m_connected_request_info:info&#45;&gt;m_info</title>
<path fill="none" stroke="#000000" stroke-dasharray="1,5" d="M1570,-322.5C1602.1148,-322.5 1569.4489,-275.8336 1593,-254 1640.7461,-209.7358 1676.6343,-246.8524 1735,-218 1739.3017,-215.8735 1743.59,-213.514 1747.8287,-210.9849"/>
<polygon fill="#000000" stroke="#000000" points="1756.4477,-205.5759 1750.3695,-214.7031 1752.2126,-208.2337 1747.9775,-210.8915 1747.9775,-210.8915 1747.9775,-210.8915 1752.2126,-208.2337 1745.5854,-207.0799 1756.4477,-205.5759 1756.4477,-205.5759"/>
</g>
<!-- m_socket -->
<g id="node29" class="node">
<title>m_socket</title>
<polygon fill="#ffffff" stroke="transparent" points="166,-295.5 166,-403.5 280,-403.5 280,-295.5 166,-295.5"/>
<path fill="#4d4d4d" stroke="transparent" d="M178.6667,-375.5C178.6667,-375.5 267.3333,-375.5 267.3333,-375.5 271.1667,-375.5 275,-379.3333 275,-383.1667 275,-383.1667 275,-390.8333 275,-390.8333 275,-394.6667 271.1667,-398.5 267.3333,-398.5 267.3333,-398.5 178.6667,-398.5 178.6667,-398.5 174.8333,-398.5 171,-394.6667 171,-390.8333 171,-390.8333 171,-383.1667 171,-383.1667 171,-379.3333 174.8333,-375.5 178.6667,-375.5"/>
<path fill="none" stroke="#000000" d="M178.6667,-375.5C178.6667,-375.5 267.3333,-375.5 267.3333,-375.5 271.1667,-375.5 275,-379.3333 275,-383.1667 275,-383.1667 275,-390.8333 275,-390.8333 275,-394.6667 271.1667,-398.5 267.3333,-398.5 267.3333,-398.5 178.6667,-398.5 178.6667,-398.5 174.8333,-398.5 171,-394.6667 171,-390.8333 171,-390.8333 171,-383.1667 171,-383.1667 171,-379.3333 174.8333,-375.5 178.6667,-375.5"/>
<text text-anchor="start" x="196.5" y="-383.3" font-family="Times,serif" font-size="14.00" fill="#ffffff">SOCKET</text>
<polygon fill="#c0c0c0" stroke="transparent" points="171,-350.5 171,-371.5 225,-371.5 225,-350.5 171,-350.5"/>
<text text-anchor="start" x="194" y="-357.3" font-family="Times,serif" font-size="14.00" fill="#000000">ident</text>
<polygon fill="#c0c0c0" stroke="transparent" points="229,-350.5 229,-371.5 275,-371.5 275,-350.5 229,-350.5"/>
<text text-anchor="start" x="232" y="-357.3" font-family="Times,serif" font-size="14.00" fill="#000000">[string]</text>
<polygon fill="#c0c0c0" stroke="transparent" points="171,-325.5 171,-346.5 225,-346.5 225,-325.5 171,-325.5"/>
<text text-anchor="start" x="197" y="-332.3" font-family="Times,serif" font-size="14.00" fill="#000000">borc</text>
<polygon fill="#c0c0c0" stroke="transparent" points="229,-325.5 229,-346.5 275,-346.5 275,-325.5 229,-325.5"/>
<text text-anchor="start" x="232" y="-332.3" font-family="Times,serif" font-size="14.00" fill="#000000">[string]</text>
<polygon fill="#c0c0c0" stroke="transparent" points="171,-300.5 171,-321.5 225,-321.5 225,-300.5 171,-300.5"/>
<text text-anchor="start" x="174" y="-307.3" font-family="Times,serif" font-size="14.00" fill="#000000">endpoint</text>
<polygon fill="#c0c0c0" stroke="transparent" points="229,-300.5 229,-321.5 275,-321.5 275,-300.5 229,-300.5"/>
<text text-anchor="start" x="232" y="-307.3" font-family="Times,serif" font-size="14.00" fill="#000000">[string]</text>
<polygon fill="none" stroke="#000000" points="166,-295.5 166,-403.5 280,-403.5 280,-295.5 166,-295.5"/>
</g>
<!-- m_have_perf_request_borc&#45;&gt;m_socket -->
<g id="edge26" class="edge">
<title>m_have_perf_request_borc:socket&#45;&gt;m_socket</title>
<path fill="none" stroke="#000000" stroke-dasharray="1,5" d="M249,-600C175.3537,-600 187.3642,-491.556 204.1965,-417.3715"/>
<polygon fill="#000000" stroke="#000000" points="206.4855,-407.5994 208.5861,-418.3622 205.3451,-412.4676 204.2047,-417.3358 204.2047,-417.3358 204.2047,-417.3358 205.3451,-412.4676 199.8233,-416.3095 206.4855,-407.5994 206.4855,-407.5994"/>
</g>
<!-- f_request_borc -->
<g id="node35" class="node">
<title>f_request_borc</title>
<polygon fill="#ffffff" stroke="transparent" points="8,-270.5 8,-428.5 132,-428.5 132,-270.5 8,-270.5"/>
<path fill="#e5e5e5" stroke="transparent" d="M20.6667,-400.5C20.6667,-400.5 119.3333,-400.5 119.3333,-400.5 123.1667,-400.5 127,-404.3333 127,-408.1667 127,-408.1667 127,-415.8333 127,-415.8333 127,-419.6667 123.1667,-423.5 119.3333,-423.5 119.3333,-423.5 20.6667,-423.5 20.6667,-423.5 16.8333,-423.5 13,-419.6667 13,-415.8333 13,-415.8333 13,-408.1667 13,-408.1667 13,-404.3333 16.8333,-400.5 20.6667,-400.5"/>
<path fill="none" stroke="#0000ff" d="M20.6667,-400.5C20.6667,-400.5 119.3333,-400.5 119.3333,-400.5 123.1667,-400.5 127,-404.3333 127,-408.1667 127,-408.1667 127,-415.8333 127,-415.8333 127,-419.6667 123.1667,-423.5 119.3333,-423.5 119.3333,-423.5 20.6667,-423.5 20.6667,-423.5 16.8333,-423.5 13,-419.6667 13,-415.8333 13,-415.8333 13,-408.1667 13,-408.1667 13,-404.3333 16.8333,-400.5 20.6667,-400.5"/>
<text text-anchor="start" x="36.5" y="-408.3" font-family="Times,serif" font-size="14.00" fill="#0000ff">request borc</text>
<polygon fill="#c0c0c0" stroke="transparent" points="13,-375.5 13,-396.5 72,-396.5 72,-375.5 13,-375.5"/>
<text text-anchor="start" x="41" y="-382.3" font-family="Times,serif" font-size="14.00" fill="#000000">ident</text>
<polygon fill="#c0c0c0" stroke="transparent" points="76,-375.5 76,-396.5 127,-396.5 127,-375.5 76,-375.5"/>
<text text-anchor="start" x="79" y="-382.3" font-family="Times,serif" font-size="14.00" fill="#000000">[string]</text>
<polygon fill="#c0c0c0" stroke="transparent" points="13,-350.5 13,-371.5 72,-371.5 72,-350.5 13,-350.5"/>
<text text-anchor="start" x="44" y="-357.3" font-family="Times,serif" font-size="14.00" fill="#000000">borc</text>
<polygon fill="#c0c0c0" stroke="transparent" points="76,-350.5 76,-371.5 127,-371.5 127,-350.5 76,-350.5"/>
<text text-anchor="start" x="79" y="-357.3" font-family="Times,serif" font-size="14.00" fill="#000000">[string]</text>
<polygon fill="#c0c0c0" stroke="transparent" points="13,-325.5 13,-346.5 72,-346.5 72,-325.5 13,-325.5"/>
<text text-anchor="start" x="21" y="-332.3" font-family="Times,serif" font-size="14.00" fill="#000000">endpoint</text>
<polygon fill="#c0c0c0" stroke="transparent" points="76,-325.5 76,-346.5 127,-346.5 127,-325.5 76,-325.5"/>
<text text-anchor="start" x="79" y="-332.3" font-family="Times,serif" font-size="14.00" fill="#000000">[string]</text>
<polygon fill="#c0c0c0" stroke="transparent" points="13,-300.5 13,-321.5 127,-321.5 127,-300.5 13,-300.5"/>
<text text-anchor="start" x="18" y="-307.3" font-family="Times,serif" font-size="14.00" fill="#000000">PERF ENDPOINT</text>
<polygon fill="#c0c0c0" stroke="transparent" points="13,-275.5 13,-296.5 127,-296.5 127,-275.5 13,-275.5"/>
<text text-anchor="start" x="41" y="-282.3" font-family="Times,serif" font-size="14.00" fill="#000000">FAILURE</text>
<polygon fill="none" stroke="#0000ff" points="8,-270.5 8,-428.5 132,-428.5 132,-270.5 8,-270.5"/>
</g>
<!-- m_have_perf_request_borc&#45;&gt;f_request_borc -->
<g id="edge52" class="edge">
<title>m_have_perf_request_borc&#45;&gt;f_request_borc</title>
<path fill="none" stroke="#0000ff" d="M249.0076,-572.8737C215.6375,-531.2331 172.2806,-477.1303 136.5951,-432.6003"/>
<polygon fill="#0000ff" stroke="#0000ff" points="246.3457,-575.1489 255.3304,-580.7636 251.8081,-570.7714 246.3457,-575.1489"/>
</g>
<!-- m_measure -->
<g id="node30" class="node">
<title>m_measure</title>
<polygon fill="#ffffff" stroke="transparent" points="484.5,-270.5 484.5,-428.5 621.5,-428.5 621.5,-270.5 484.5,-270.5"/>
<path fill="#4d4d4d" stroke="transparent" d="M497.6667,-400.5C497.6667,-400.5 609.3333,-400.5 609.3333,-400.5 613.1667,-400.5 617,-404.3333 617,-408.1667 617,-408.1667 617,-415.8333 617,-415.8333 617,-419.6667 613.1667,-423.5 609.3333,-423.5 609.3333,-423.5 497.6667,-423.5 497.6667,-423.5 493.8333,-423.5 490,-419.6667 490,-415.8333 490,-415.8333 490,-408.1667 490,-408.1667 490,-404.3333 493.8333,-400.5 497.6667,-400.5"/>
<path fill="none" stroke="#000000" d="M497.6667,-400.5C497.6667,-400.5 609.3333,-400.5 609.3333,-400.5 613.1667,-400.5 617,-404.3333 617,-408.1667 617,-408.1667 617,-415.8333 617,-415.8333 617,-419.6667 613.1667,-423.5 609.3333,-423.5 609.3333,-423.5 497.6667,-423.5 497.6667,-423.5 493.8333,-423.5 490,-419.6667 490,-415.8333 490,-415.8333 490,-408.1667 490,-408.1667 490,-404.3333 493.8333,-400.5 497.6667,-400.5"/>
<text text-anchor="start" x="520.5" y="-408.3" font-family="Times,serif" font-size="14.00" fill="#ffffff">MEASURE</text>
<polygon fill="#c0c0c0" stroke="transparent" points="490,-375.5 490,-396.5 542,-396.5 542,-375.5 490,-375.5"/>
<text text-anchor="start" x="511" y="-382.3" font-family="Times,serif" font-size="14.00" fill="#000000">ident</text>
<polygon fill="#c0c0c0" stroke="transparent" points="546,-375.5 546,-396.5 617,-396.5 617,-375.5 546,-375.5"/>
<text text-anchor="start" x="549" y="-382.3" font-family="Times,serif" font-size="14.00" fill="#000000">[string]</text>
<polygon fill="#c0c0c0" stroke="transparent" points="490,-350.5 490,-371.5 542,-371.5 542,-350.5 490,-350.5"/>
<text text-anchor="start" x="493" y="-357.3" font-family="Times,serif" font-size="14.00" fill="#000000">measure</text>
<polygon fill="#c0c0c0" stroke="transparent" points="546,-350.5 546,-371.5 617,-371.5 617,-350.5 546,-350.5"/>
<text text-anchor="start" x="549" y="-357.3" font-family="Times,serif" font-size="14.00" fill="#000000">[string]</text>
<polygon fill="#c0c0c0" stroke="transparent" points="490,-325.5 490,-346.5 542,-346.5 542,-325.5 490,-325.5"/>
<text text-anchor="start" x="503" y="-332.3" font-family="Times,serif" font-size="14.00" fill="#000000">nmsgs</text>
<polygon fill="#c0c0c0" stroke="transparent" points="546,-325.5 546,-346.5 617,-346.5 617,-325.5 546,-325.5"/>
<text text-anchor="start" x="549" y="-332.3" font-family="Times,serif" font-size="14.00" fill="#000000">[number*4]</text>
<polygon fill="#c0c0c0" stroke="transparent" points="490,-300.5 490,-321.5 542,-321.5 542,-300.5 490,-300.5"/>
<text text-anchor="start" x="494" y="-307.3" font-family="Times,serif" font-size="14.00" fill="#000000">msgsize</text>
<polygon fill="#c0c0c0" stroke="transparent" points="546,-300.5 546,-321.5 617,-321.5 617,-300.5 546,-300.5"/>
<text text-anchor="start" x="549" y="-307.3" font-family="Times,serif" font-size="14.00" fill="#000000">[number*8]</text>
<polygon fill="#c0c0c0" stroke="transparent" points="490,-275.5 490,-296.5 542,-296.5 542,-275.5 490,-275.5"/>
<text text-anchor="start" x="496" y="-282.3" font-family="Times,serif" font-size="14.00" fill="#000000">timeout</text>
<polygon fill="#c0c0c0" stroke="transparent" points="546,-275.5 546,-296.5 617,-296.5 617,-275.5 546,-275.5"/>
<text text-anchor="start" x="549" y="-282.3" font-family="Times,serif" font-size="14.00" fill="#000000">[number*4]</text>
<polygon fill="none" stroke="#000000" points="484.5,-270.5 484.5,-428.5 621.5,-428.5 621.5,-270.5 484.5,-270.5"/>
</g>
<!-- m_have_perf_request_measure&#45;&gt;m_measure -->
<g id="edge31" class="edge">
<title>m_have_perf_request_measure:measure&#45;&gt;m_measure</title>
<path fill="none" stroke="#000000" stroke-dasharray="1,5" d="M508,-590C508,-540.7345 517.2361,-486.7459 527.3396,-442.4253"/>
<polygon fill="#000000" stroke="#000000" points="529.6433,-432.5414 531.7558,-443.3019 528.5083,-437.4109 527.3733,-442.2804 527.3733,-442.2804 527.3733,-442.2804 528.5083,-437.4109 522.9907,-441.2589 529.6433,-432.5414 529.6433,-432.5414"/>
</g>
<!-- f_request_measure -->
<g id="node36" class="node">
<title>f_request_measure</title>
<polygon fill="#ffffff" stroke="transparent" points="314,-258 314,-441 450,-441 450,-258 314,-258"/>
<path fill="#e5e5e5" stroke="transparent" d="M326.6667,-412.5C326.6667,-412.5 437.3333,-412.5 437.3333,-412.5 441.1667,-412.5 445,-416.3333 445,-420.1667 445,-420.1667 445,-427.8333 445,-427.8333 445,-431.6667 441.1667,-435.5 437.3333,-435.5 437.3333,-435.5 326.6667,-435.5 326.6667,-435.5 322.8333,-435.5 319,-431.6667 319,-427.8333 319,-427.8333 319,-420.1667 319,-420.1667 319,-416.3333 322.8333,-412.5 326.6667,-412.5"/>
<path fill="none" stroke="#0000ff" d="M326.6667,-412.5C326.6667,-412.5 437.3333,-412.5 437.3333,-412.5 441.1667,-412.5 445,-416.3333 445,-420.1667 445,-420.1667 445,-427.8333 445,-427.8333 445,-431.6667 441.1667,-435.5 437.3333,-435.5 437.3333,-435.5 326.6667,-435.5 326.6667,-435.5 322.8333,-435.5 319,-431.6667 319,-427.8333 319,-427.8333 319,-420.1667 319,-420.1667 319,-416.3333 322.8333,-412.5 326.6667,-412.5"/>
<text text-anchor="start" x="337.5" y="-420.3" font-family="Times,serif" font-size="14.00" fill="#0000ff">request measure</text>
<polygon fill="#c0c0c0" stroke="transparent" points="319,-387.5 319,-408.5 370,-408.5 370,-387.5 319,-387.5"/>
<text text-anchor="start" x="339" y="-394.3" font-family="Times,serif" font-size="14.00" fill="#000000">ident</text>
<polygon fill="#c0c0c0" stroke="transparent" points="374,-387.5 374,-408.5 445,-408.5 445,-387.5 374,-387.5"/>
<text text-anchor="start" x="377" y="-394.3" font-family="Times,serif" font-size="14.00" fill="#000000">[string]</text>
<polygon fill="#c0c0c0" stroke="transparent" points="319,-362.5 319,-383.5 370,-383.5 370,-362.5 319,-362.5"/>
<text text-anchor="start" x="331" y="-369.3" font-family="Times,serif" font-size="14.00" fill="#000000">nmsgs</text>
<polygon fill="#c0c0c0" stroke="transparent" points="374,-362.5 374,-383.5 445,-383.5 445,-362.5 374,-362.5"/>
<text text-anchor="start" x="377" y="-369.3" font-family="Times,serif" font-size="14.00" fill="#000000">[number*4]</text>
<polygon fill="#c0c0c0" stroke="transparent" points="319,-337.5 319,-358.5 370,-358.5 370,-337.5 319,-337.5"/>
<text text-anchor="start" x="322" y="-344.3" font-family="Times,serif" font-size="14.00" fill="#000000">msgsize</text>
<polygon fill="#c0c0c0" stroke="transparent" points="374,-337.5 374,-358.5 445,-358.5 445,-337.5 374,-337.5"/>
<text text-anchor="start" x="377" y="-344.3" font-family="Times,serif" font-size="14.00" fill="#000000">[number*8]</text>
<polygon fill="#c0c0c0" stroke="transparent" points="319,-312.5 319,-333.5 370,-333.5 370,-312.5 319,-312.5"/>
<text text-anchor="start" x="324" y="-319.3" font-family="Times,serif" font-size="14.00" fill="#000000">timeout</text>
<polygon fill="#c0c0c0" stroke="transparent" points="374,-312.5 374,-333.5 445,-333.5 445,-312.5 374,-312.5"/>
<text text-anchor="start" x="377" y="-319.3" font-family="Times,serif" font-size="14.00" fill="#000000">[number*4]</text>
<polygon fill="#c0c0c0" stroke="transparent" points="319,-287.5 319,-308.5 445,-308.5 445,-287.5 319,-287.5"/>
<text text-anchor="start" x="356" y="-294.3" font-family="Times,serif" font-size="14.00" fill="#000000">RESULT</text>
<polygon fill="#c0c0c0" stroke="transparent" points="319,-262.5 319,-283.5 445,-283.5 445,-262.5 319,-262.5"/>
<text text-anchor="start" x="353" y="-269.3" font-family="Times,serif" font-size="14.00" fill="#000000">FAILURE</text>
<polygon fill="none" stroke="#0000ff" points="314,-258 314,-441 450,-441 450,-258 314,-258"/>
</g>
<!-- m_have_perf_request_measure&#45;&gt;f_request_measure -->
<g id="edge53" class="edge">
<title>m_have_perf_request_measure&#45;&gt;f_request_measure</title>
<path fill="none" stroke="#0000ff" d="M478.5953,-571.4391C462.2549,-533.8952 441.6526,-486.5589 423.6763,-445.2563"/>
<polygon fill="#0000ff" stroke="#0000ff" points="475.4536,-572.9912 482.6536,-580.7636 481.872,-570.1976 475.4536,-572.9912"/>
</g>
<!-- m_goodbye -->
<g id="node32" class="node">
<title>m_goodbye</title>
<polygon fill="#ffffff" stroke="transparent" points="711,-4 711,-37 797,-37 797,-4 711,-4"/>
<path fill="#4d4d4d" stroke="transparent" d="M723.6667,-8.5C723.6667,-8.5 784.3333,-8.5 784.3333,-8.5 788.1667,-8.5 792,-12.3333 792,-16.1667 792,-16.1667 792,-23.8333 792,-23.8333 792,-27.6667 788.1667,-31.5 784.3333,-31.5 784.3333,-31.5 723.6667,-31.5 723.6667,-31.5 719.8333,-31.5 716,-27.6667 716,-23.8333 716,-23.8333 716,-16.1667 716,-16.1667 716,-12.3333 719.8333,-8.5 723.6667,-8.5"/>
<path fill="none" stroke="#000000" d="M723.6667,-8.5C723.6667,-8.5 784.3333,-8.5 784.3333,-8.5 788.1667,-8.5 792,-12.3333 792,-16.1667 792,-16.1667 792,-23.8333 792,-23.8333 792,-27.6667 788.1667,-31.5 784.3333,-31.5 784.3333,-31.5 723.6667,-31.5 723.6667,-31.5 719.8333,-31.5 716,-27.6667 716,-23.8333 716,-23.8333 716,-16.1667 716,-16.1667 716,-12.3333 719.8333,-8.5 723.6667,-8.5"/>
<text text-anchor="start" x="720.5" y="-16.3" font-family="Times,serif" font-size="14.00" fill="#ffffff">GOODBYE</text>
<polygon fill="none" stroke="#000000" points="711,-4 711,-37 797,-37 797,-4 711,-4"/>
</g>
<!-- m_defaults_destructor&#45;&gt;m_goodbye -->
<g id="edge36" class="edge">
<title>m_defaults_destructor:goodbye&#45;&gt;m_goodbye</title>
<path fill="none" stroke="#000000" stroke-dasharray="1,5" d="M754,-123.5C754,-99.1359 754,-71.5299 754,-51.0344"/>
<polygon fill="#000000" stroke="#000000" points="754,-41.0195 758.5001,-51.0195 754,-46.0195 754.0001,-51.0195 754.0001,-51.0195 754.0001,-51.0195 754,-46.0195 749.5001,-51.0196 754,-41.0195 754,-41.0195"/>
</g>
<!-- m_ping -->
<g id="node31" class="node">
<title>m_ping</title>
<polygon fill="#ffffff" stroke="transparent" points="1057,-4 1057,-37 1107,-37 1107,-4 1057,-4"/>
<path fill="#4d4d4d" stroke="transparent" d="M1069.6667,-8.5C1069.6667,-8.5 1094.3333,-8.5 1094.3333,-8.5 1098.1667,-8.5 1102,-12.3333 1102,-16.1667 1102,-16.1667 1102,-23.8333 1102,-23.8333 1102,-27.6667 1098.1667,-31.5 1094.3333,-31.5 1094.3333,-31.5 1069.6667,-31.5 1069.6667,-31.5 1065.8333,-31.5 1062,-27.6667 1062,-23.8333 1062,-23.8333 1062,-16.1667 1062,-16.1667 1062,-12.3333 1065.8333,-8.5 1069.6667,-8.5"/>
<path fill="none" stroke="#000000" d="M1069.6667,-8.5C1069.6667,-8.5 1094.3333,-8.5 1094.3333,-8.5 1098.1667,-8.5 1102,-12.3333 1102,-16.1667 1102,-16.1667 1102,-23.8333 1102,-23.8333 1102,-27.6667 1098.1667,-31.5 1094.3333,-31.5 1094.3333,-31.5 1069.6667,-31.5 1069.6667,-31.5 1065.8333,-31.5 1062,-27.6667 1062,-23.8333 1062,-23.8333 1062,-16.1667 1062,-16.1667 1062,-12.3333 1065.8333,-8.5 1069.6667,-8.5"/>
<text text-anchor="start" x="1066" y="-16.3" font-family="Times,serif" font-size="14.00" fill="#ffffff">PING</text>
<polygon fill="none" stroke="#000000" points="1057,-4 1057,-37 1107,-37 1107,-4 1057,-4"/>
</g>
<!-- m_defaults_expired&#45;&gt;m_ping -->
<g id="edge41" class="edge">
<title>m_defaults_expired:ping&#45;&gt;m_ping</title>
<path fill="none" stroke="#000000" stroke-dasharray="1,5" d="M1082,-110.5C1082,-90.832 1082,-68.7464 1082,-51.3757"/>
<polygon fill="#000000" stroke="#000000" points="1082,-41.233 1086.5001,-51.233 1082,-46.233 1082.0001,-51.233 1082.0001,-51.233 1082.0001,-51.233 1082,-46.233 1077.5001,-51.2331 1082,-41.233 1082,-41.233"/>
</g>
</g>
</svg>
