<?xml version="1.0" encoding="UTF-8" standalone="no"?>
<!DOCTYPE svg PUBLIC "-//W3C//DTD SVG 1.1//EN"
 "http://www.w3.org/Graphics/SVG/1.1/DTD/svg11.dtd">
<!-- Generated by graphviz version 2.40.1 (20161225.0304)
 -->
<!-- Title: zperf_protocol Pages: 1 -->
<svg width="1291pt" height="894pt"
 viewBox="0.00 0.00 1290.50 894.39" xmlns="http://www.w3.org/2000/svg" xmlns:xlink="http://www.w3.org/1999/xlink">
<g id="graph0" class="graph" transform="scale(1 1) rotate(0) translate(4 890.3922)">
<title>zperf_protocol</title>
<polygon fill="#ffffff" stroke="transparent" points="-4,4 -4,-890.3922 1286.5,-890.3922 1286.5,4 -4,4"/>
<text text-anchor="middle" x="641.25" y="-871.1922" font-family="Times,serif" font-size="14.00" fill="#000000">Zperf_Protocol: server and codec</text>
<!-- s_start -->
<g id="node1" class="node">
<title>s_start</title>
<ellipse fill="none" stroke="#000000" cx="383" cy="-633" rx="25.9957" ry="25.9957"/>
<ellipse fill="none" stroke="#000000" cx="383" cy="-633" rx="29.9954" ry="29.9954"/>
<text text-anchor="middle" x="383" y="-629.3" font-family="Times,serif" font-size="14.00" fill="#000000">start</text>
</g>
<!-- s_defaults -->
<g id="node4" class="node">
<title>s_defaults</title>
<ellipse fill="none" stroke="#000000" cx="383" cy="-378" rx="38.2082" ry="38.2082"/>
<ellipse fill="none" stroke="#000000" cx="383" cy="-378" rx="42.1937" ry="42.1937"/>
<text text-anchor="middle" x="383" y="-374.3" font-family="Times,serif" font-size="14.00" fill="#000000">defaults</text>
</g>
<!-- s_start&#45;&gt;s_defaults -->
<g id="edge1" class="edge">
<title>s_start&#45;&gt;s_defaults</title>
<path fill="none" stroke="#000000" stroke-dasharray="5,2" d="M383,-602.9984C383,-560.6632 383,-482.755 383,-430.6562"/>
<polygon fill="#000000" stroke="#000000" points="386.5001,-430.5988 383,-420.5988 379.5001,-430.5988 386.5001,-430.5988"/>
</g>
<!-- m_start_hello -->
<g id="node5" class="node">
<title>m_start_hello</title>
<polygon fill="#ffffff" stroke="transparent" points="537,-341.5 537,-414.5 651,-414.5 651,-341.5 537,-341.5"/>
<polygon fill="#000000" stroke="transparent" points="540,-390 540,-411 648,-411 648,-390 540,-390"/>
<text text-anchor="start" x="580" y="-396.8" font-family="Times,serif" font-size="14.00" fill="#ffffff">hello</text>
<polygon fill="#c0c0c0" stroke="transparent" points="540,-367 540,-388 600,-388 600,-367 540,-367"/>
<text text-anchor="start" x="543" y="-373.8" font-family="Times,serif" font-size="14.00" fill="#000000">nickname</text>
<polygon fill="#c0c0c0" stroke="transparent" points="602,-367 602,-388 648,-388 648,-367 602,-367"/>
<text text-anchor="start" x="605" y="-373.8" font-family="Times,serif" font-size="14.00" fill="#000000">[string]</text>
<text text-anchor="start" x="551.5" y="-350.8" font-family="Times,serif" font-size="14.00" fill="#000000">send (hello_ok)</text>
<polygon fill="none" stroke="#000000" points="537,-341.5 537,-414.5 651,-414.5 651,-341.5 537,-341.5"/>
</g>
<!-- s_start&#45;&gt;m_start_hello -->
<g id="edge4" class="edge">
<title>s_start&#45;&gt;m_start_hello</title>
<path fill="none" stroke="#000000" d="M390.4262,-603.8415C396.5266,-583.393 406.5353,-556.0581 421,-535 450.2486,-492.419 493.2167,-453.3456 529.0125,-424.8298"/>
<polygon fill="#000000" stroke="#000000" points="531.3069,-427.478 537.0021,-418.5441 526.9787,-421.9765 531.3069,-427.478"/>
</g>
<!-- s_connected -->
<g id="node2" class="node">
<title>s_connected</title>
<ellipse fill="none" stroke="#000000" cx="648" cy="-633" rx="46.2806" ry="46.2806"/>
<ellipse fill="none" stroke="#000000" cx="648" cy="-633" rx="50.2922" ry="50.2922"/>
<text text-anchor="middle" x="648" y="-629.3" font-family="Times,serif" font-size="14.00" fill="#000000">connected</text>
</g>
<!-- s_connected&#45;&gt;s_defaults -->
<g id="edge2" class="edge">
<title>s_connected&#45;&gt;s_defaults</title>
<path fill="none" stroke="#000000" stroke-dasharray="5,2" d="M626.7714,-587.4003C616.8356,-569.4985 603.7033,-549.7516 588,-535 563.0762,-511.5866 548.123,-518.4546 520,-499 483.8958,-474.0242 446.8042,-440.7059 420.3362,-415.3557"/>
<polygon fill="#000000" stroke="#000000" points="422.4445,-412.5261 412.8198,-408.0972 417.5819,-417.5615 422.4445,-412.5261"/>
</g>
<!-- s_connected&#45;&gt;m_start_hello -->
<g id="edge5" class="edge">
<title>s_connected&#45;&gt;m_start_hello</title>
<path fill="none" stroke="#000000" d="M635.4965,-573.9557C625.4058,-526.305 611.4751,-460.5211 602.6012,-418.6169"/>
<polygon fill="#000000" stroke="#000000" points="632.0924,-574.7755 637.5883,-583.8334 638.9405,-573.3253 632.0924,-574.7755"/>
</g>
<!-- m_connected_create -->
<g id="node6" class="node">
<title>m_connected_create</title>
<polygon fill="#ffffff" stroke="transparent" points="685,-330 685,-426 799,-426 799,-330 685,-330"/>
<polygon fill="#000000" stroke="transparent" points="688,-402 688,-423 796,-423 796,-402 688,-402"/>
<text text-anchor="start" x="725.5" y="-408.8" font-family="Times,serif" font-size="14.00" fill="#ffffff">create</text>
<polygon fill="#c0c0c0" stroke="transparent" points="688,-379 688,-400 723,-400 723,-379 688,-379"/>
<text text-anchor="start" x="691" y="-385.8" font-family="Times,serif" font-size="14.00" fill="#000000">stype</text>
<polygon fill="#c0c0c0" stroke="transparent" points="725,-379 725,-400 796,-400 796,-379 725,-379"/>
<text text-anchor="start" x="728" y="-385.8" font-family="Times,serif" font-size="14.00" fill="#000000">[number*4]</text>
<text text-anchor="start" x="713" y="-362.8" font-family="Times,serif" font-size="14.00" fill="#000000">create perf</text>
<text text-anchor="start" x="702" y="-339.8" font-family="Times,serif" font-size="14.00" fill="#000000">send (perf_ok)</text>
<polygon fill="none" stroke="#000000" points="685,-330 685,-426 799,-426 799,-330 685,-330"/>
</g>
<!-- s_connected&#45;&gt;m_connected_create -->
<g id="edge7" class="edge">
<title>s_connected&#45;&gt;m_connected_create</title>
<path fill="none" stroke="#000000" d="M665.3506,-585.9319C680.5232,-544.7723 702.6633,-484.7113 719.2518,-439.7105"/>
<polygon fill="#000000" stroke="#000000" points="722.6339,-440.6547 722.8088,-430.0613 716.066,-438.2335 722.6339,-440.6547"/>
</g>
<!-- m_connected_lookup -->
<g id="node7" class="node">
<title>m_connected_lookup</title>
<polygon fill="#ffffff" stroke="transparent" points="833.5,-330 833.5,-426 946.5,-426 946.5,-330 833.5,-330"/>
<polygon fill="#000000" stroke="transparent" points="837,-402 837,-423 944,-423 944,-402 837,-402"/>
<text text-anchor="start" x="871.5" y="-408.8" font-family="Times,serif" font-size="14.00" fill="#ffffff">lookup</text>
<polygon fill="#c0c0c0" stroke="transparent" points="837,-379 837,-400 871,-400 871,-379 837,-379"/>
<text text-anchor="start" x="840" y="-385.8" font-family="Times,serif" font-size="14.00" fill="#000000">ident</text>
<polygon fill="#c0c0c0" stroke="transparent" points="873,-379 873,-400 944,-400 944,-379 873,-379"/>
<text text-anchor="start" x="876" y="-385.8" font-family="Times,serif" font-size="14.00" fill="#000000">[number*8]</text>
<text text-anchor="start" x="858.5" y="-362.8" font-family="Times,serif" font-size="14.00" fill="#000000">lookup perf</text>
<text text-anchor="start" x="850.5" y="-339.8" font-family="Times,serif" font-size="14.00" fill="#000000">send (perf_ok)</text>
<polygon fill="none" stroke="#000000" points="833.5,-330 833.5,-426 946.5,-426 946.5,-330 833.5,-330"/>
</g>
<!-- s_connected&#45;&gt;m_connected_lookup -->
<g id="edge10" class="edge">
<title>s_connected&#45;&gt;m_connected_lookup</title>
<path fill="none" stroke="#000000" d="M667.289,-586.5328C676.8792,-568.2806 690.0859,-548.509 707,-535 746.8642,-503.1612 776.0252,-530.6998 816,-499 835.8365,-483.2697 851.6755,-460.6581 863.5284,-439.2295"/>
<polygon fill="#000000" stroke="#000000" points="866.7563,-440.6139 868.3642,-430.1418 860.5768,-437.3256 866.7563,-440.6139"/>
</g>
<!-- s_have_perf -->
<g id="node3" class="node">
<title>s_have_perf</title>
<ellipse fill="none" stroke="#000000" cx="790" cy="-815.1961" rx="44.3766" ry="44.3766"/>
<ellipse fill="none" stroke="#000000" cx="790" cy="-815.1961" rx="48.393" ry="48.393"/>
<text text-anchor="middle" x="790" y="-811.4961" font-family="Times,serif" font-size="14.00" fill="#000000">have perf</text>
</g>
<!-- s_have_perf&#45;&gt;s_connected -->
<g id="edge3" class="edge">
<title>s_have_perf&#45;&gt;s_connected</title>
<path fill="none" stroke="#000000" stroke-dasharray="5,2" d="M754.1398,-782.4835C738.7451,-767.5455 721.0964,-749.1599 707,-731 696.2097,-717.0992 685.8206,-701.0804 676.8476,-686.0752"/>
<polygon fill="#000000" stroke="#000000" points="679.8214,-684.2275 671.7357,-677.3811 673.7872,-687.7754 679.8214,-684.2275"/>
</g>
<!-- s_have_perf&#45;&gt;m_connected_create -->
<g id="edge8" class="edge">
<title>s_have_perf&#45;&gt;m_connected_create</title>
<path fill="none" stroke="#000000" d="M836.5756,-779.7086C850.7082,-766.1804 864.4754,-749.5109 872,-731 904.8036,-650.3014 913.7426,-611.4585 872,-535 857.8217,-509.0301 836.6858,-520.1555 816,-499 796.4607,-479.017 779.7013,-452.9686 767.0975,-430.1611"/>
<polygon fill="#000000" stroke="#000000" points="834.1864,-777.1507 829.183,-786.4897 838.9182,-782.3092 834.1864,-777.1507"/>
</g>
<!-- s_have_perf&#45;&gt;m_connected_lookup -->
<g id="edge11" class="edge">
<title>s_have_perf&#45;&gt;m_connected_lookup</title>
<path fill="none" stroke="#000000" d="M842.5462,-789.4545C864.8869,-775.5037 888.6059,-755.9575 901,-731 949.3389,-633.6621 925.4664,-501.8883 906.205,-430.0275"/>
<polygon fill="#000000" stroke="#000000" points="840.5378,-786.5774 833.752,-794.7139 844.1307,-792.585 840.5378,-786.5774"/>
</g>
<!-- m_have_perf_socket -->
<g id="node8" class="node">
<title>m_have_perf_socket</title>
<polygon fill="#ffffff" stroke="transparent" points="438.5,-562 438.5,-704 571.5,-704 571.5,-562 438.5,-562"/>
<polygon fill="#000000" stroke="transparent" points="442,-680 442,-701 569,-701 569,-680 442,-680"/>
<text text-anchor="start" x="488" y="-686.8" font-family="Times,serif" font-size="14.00" fill="#ffffff">socket</text>
<polygon fill="#c0c0c0" stroke="transparent" points="442,-657 442,-678 496,-678 496,-657 442,-657"/>
<text text-anchor="start" x="465" y="-663.8" font-family="Times,serif" font-size="14.00" fill="#000000">ident</text>
<polygon fill="#c0c0c0" stroke="transparent" points="498,-657 498,-678 569,-678 569,-657 498,-657"/>
<text text-anchor="start" x="501" y="-663.8" font-family="Times,serif" font-size="14.00" fill="#000000">[number*8]</text>
<polygon fill="#c0c0c0" stroke="transparent" points="442,-634 442,-655 496,-655 496,-634 442,-634"/>
<text text-anchor="start" x="468" y="-640.8" font-family="Times,serif" font-size="14.00" fill="#000000">borc</text>
<polygon fill="#c0c0c0" stroke="transparent" points="498,-634 498,-655 569,-655 569,-634 498,-634"/>
<text text-anchor="start" x="501" y="-640.8" font-family="Times,serif" font-size="14.00" fill="#000000">[string]</text>
<polygon fill="#c0c0c0" stroke="transparent" points="442,-611 442,-632 496,-632 496,-611 442,-611"/>
<text text-anchor="start" x="445" y="-617.8" font-family="Times,serif" font-size="14.00" fill="#000000">endpoint</text>
<polygon fill="#c0c0c0" stroke="transparent" points="498,-611 498,-632 569,-632 569,-611 498,-611"/>
<text text-anchor="start" x="501" y="-617.8" font-family="Times,serif" font-size="14.00" fill="#000000">[string]</text>
<text text-anchor="start" x="473.5" y="-594.8" font-family="Times,serif" font-size="14.00" fill="#000000">lookup perf</text>
<text text-anchor="start" x="463" y="-571.8" font-family="Times,serif" font-size="14.00" fill="#000000">connect or bind</text>
<polygon fill="none" stroke="#000000" points="438.5,-562 438.5,-704 571.5,-704 571.5,-562 438.5,-562"/>
</g>
<!-- s_have_perf&#45;&gt;m_have_perf_socket -->
<g id="edge13" class="edge">
<title>s_have_perf&#45;&gt;m_have_perf_socket</title>
<path fill="none" stroke="#000000" d="M742.7536,-804.3077C697.7075,-791.5106 629.851,-767.3033 580,-731 573.6317,-726.3624 567.4283,-721.1503 561.4879,-715.609"/>
<polygon fill="#000000" stroke="#000000" points="563.7197,-712.8971 554.1115,-708.4324 558.8384,-717.9144 563.7197,-712.8971"/>
</g>
<!-- s_have_perf&#45;&gt;m_have_perf_socket -->
<g id="edge14" class="edge">
<title>s_have_perf&#45;&gt;m_have_perf_socket</title>
<path fill="none" stroke="#000000" d="M734.2127,-797.0868C693.9321,-783.2442 639.6744,-761.3488 598,-731 588.9428,-724.4042 580.2193,-716.6466 571.9774,-708.4324"/>
<polygon fill="#000000" stroke="#000000" points="733.2822,-800.4666 743.8764,-800.3468 735.5198,-793.8339 733.2822,-800.4666"/>
</g>
<!-- m_have_perf_socket_return -->
<g id="node9" class="node">
<title>m_have_perf_socket_return</title>
<polygon fill="#ffffff" stroke="transparent" points="220.5,-608 220.5,-658 327.5,-658 327.5,-608 220.5,-608"/>
<polygon fill="#000000" stroke="transparent" points="224,-634 224,-655 325,-655 325,-634 224,-634"/>
<text text-anchor="start" x="239" y="-640.8" font-family="Times,serif" font-size="14.00" fill="#ffffff">socket return</text>
<text text-anchor="start" x="228" y="-617.8" font-family="Times,serif" font-size="14.00" fill="#000000">send (socket_ok)</text>
<polygon fill="none" stroke="#000000" points="220.5,-608 220.5,-658 327.5,-658 327.5,-608 220.5,-608"/>
</g>
<!-- s_have_perf&#45;&gt;m_have_perf_socket_return -->
<g id="edge15" class="edge">
<title>s_have_perf&#45;&gt;m_have_perf_socket_return</title>
<path fill="none" stroke="#000000" d="M741.6835,-811.1114C638.6202,-801.2258 401.7332,-773.639 335,-731 312.5399,-716.6492 295.0909,-692.2905 284.3428,-671.4493"/>
<polygon fill="#000000" stroke="#000000" points="287.3691,-669.6661 279.8821,-662.1697 281.0601,-672.6988 287.3691,-669.6661"/>
</g>
<!-- s_have_perf&#45;&gt;m_have_perf_socket_return -->
<g id="edge16" class="edge">
<title>s_have_perf&#45;&gt;m_have_perf_socket_return</title>
<path fill="none" stroke="#000000" d="M731.7465,-809.0576C627.7559,-797.729 415.5745,-770.9818 353,-731 327.1001,-714.4513 307.8637,-684.5945 294.4741,-662.1697"/>
<polygon fill="#000000" stroke="#000000" points="731.448,-812.5457 741.7657,-810.138 732.1985,-805.586 731.448,-812.5457"/>
</g>
<!-- m_have_perf_measure -->
<g id="node10" class="node">
<title>m_have_perf_measure</title>
<polygon fill="#ffffff" stroke="transparent" points="724.5,-539 724.5,-727 855.5,-727 855.5,-539 724.5,-539"/>
<polygon fill="#000000" stroke="transparent" points="728,-703 728,-724 853,-724 853,-703 728,-703"/>
<text text-anchor="start" x="767.5" y="-709.8" font-family="Times,serif" font-size="14.00" fill="#ffffff">measure</text>
<polygon fill="#c0c0c0" stroke="transparent" points="728,-680 728,-701 780,-701 780,-680 728,-680"/>
<text text-anchor="start" x="749" y="-686.8" font-family="Times,serif" font-size="14.00" fill="#000000">ident</text>
<polygon fill="#c0c0c0" stroke="transparent" points="782,-680 782,-701 853,-701 853,-680 782,-680"/>
<text text-anchor="start" x="785" y="-686.8" font-family="Times,serif" font-size="14.00" fill="#000000">[number*8]</text>
<polygon fill="#c0c0c0" stroke="transparent" points="728,-657 728,-678 780,-678 780,-657 728,-657"/>
<text text-anchor="start" x="731" y="-663.8" font-family="Times,serif" font-size="14.00" fill="#000000">measure</text>
<polygon fill="#c0c0c0" stroke="transparent" points="782,-657 782,-678 853,-678 853,-657 782,-657"/>
<text text-anchor="start" x="785" y="-663.8" font-family="Times,serif" font-size="14.00" fill="#000000">[string]</text>
<polygon fill="#c0c0c0" stroke="transparent" points="728,-634 728,-655 780,-655 780,-634 728,-634"/>
<text text-anchor="start" x="741" y="-640.8" font-family="Times,serif" font-size="14.00" fill="#000000">nmsgs</text>
<polygon fill="#c0c0c0" stroke="transparent" points="782,-634 782,-655 853,-655 853,-634 782,-634"/>
<text text-anchor="start" x="785" y="-640.8" font-family="Times,serif" font-size="14.00" fill="#000000">[number*4]</text>
<polygon fill="#c0c0c0" stroke="transparent" points="728,-611 728,-632 780,-632 780,-611 728,-611"/>
<text text-anchor="start" x="732" y="-617.8" font-family="Times,serif" font-size="14.00" fill="#000000">msgsize</text>
<polygon fill="#c0c0c0" stroke="transparent" points="782,-611 782,-632 853,-632 853,-611 782,-611"/>
<text text-anchor="start" x="785" y="-617.8" font-family="Times,serif" font-size="14.00" fill="#000000">[number*8]</text>
<polygon fill="#c0c0c0" stroke="transparent" points="728,-588 728,-609 780,-609 780,-588 728,-588"/>
<text text-anchor="start" x="734" y="-594.8" font-family="Times,serif" font-size="14.00" fill="#000000">timeout</text>
<polygon fill="#c0c0c0" stroke="transparent" points="782,-588 782,-609 853,-609 853,-588 782,-588"/>
<text text-anchor="start" x="785" y="-594.8" font-family="Times,serif" font-size="14.00" fill="#000000">[number*4]</text>
<text text-anchor="start" x="758.5" y="-571.8" font-family="Times,serif" font-size="14.00" fill="#000000">lookup perf</text>
<text text-anchor="start" x="754" y="-548.8" font-family="Times,serif" font-size="14.00" fill="#000000">start measure</text>
<polygon fill="none" stroke="#000000" points="724.5,-539 724.5,-727 855.5,-727 855.5,-539 724.5,-539"/>
</g>
<!-- s_have_perf&#45;&gt;m_have_perf_measure -->
<g id="edge18" class="edge">
<title>s_have_perf&#45;&gt;m_have_perf_measure</title>
<path fill="none" stroke="#000000" d="M783.9767,-767.3262C783.679,-759.1296 783.4727,-750.3252 783.358,-741.2866"/>
<polygon fill="#000000" stroke="#000000" points="786.8554,-740.9708 783.2673,-731.0021 779.8557,-741.0326 786.8554,-740.9708"/>
</g>
<!-- s_have_perf&#45;&gt;m_have_perf_measure -->
<g id="edge19" class="edge">
<title>s_have_perf&#45;&gt;m_have_perf_measure</title>
<path fill="none" stroke="#000000" d="M796.3352,-757.2781C796.5553,-748.8424 796.6878,-739.9671 796.7327,-731.0021"/>
<polygon fill="#000000" stroke="#000000" points="792.8353,-757.2224 796.0233,-767.3262 799.832,-757.4397 792.8353,-757.2224"/>
</g>
<!-- m_have_perf_measure_return -->
<g id="node11" class="node">
<title>m_have_perf_measure_return</title>
<polygon fill="#ffffff" stroke="transparent" points="966,-608 966,-658 1062,-658 1062,-608 966,-608"/>
<polygon fill="#000000" stroke="transparent" points="969,-634 969,-655 1059,-655 1059,-634 969,-634"/>
<text text-anchor="start" x="973" y="-640.8" font-family="Times,serif" font-size="14.00" fill="#ffffff">measure return</text>
<text text-anchor="start" x="980" y="-617.8" font-family="Times,serif" font-size="14.00" fill="#000000">send (result)</text>
<polygon fill="none" stroke="#000000" points="966,-608 966,-658 1062,-658 1062,-608 966,-608"/>
</g>
<!-- s_have_perf&#45;&gt;m_have_perf_measure_return -->
<g id="edge20" class="edge">
<title>s_have_perf&#45;&gt;m_have_perf_measure_return</title>
<path fill="none" stroke="#000000" d="M833.7529,-794.1847C864.2956,-779.5631 904.6777,-757.8878 935,-731 954.3508,-713.841 971.3443,-690.3842 984.756,-670.7215"/>
<polygon fill="#000000" stroke="#000000" points="987.7662,-672.5182 990.4708,-662.2744 981.9684,-668.5957 987.7662,-672.5182"/>
</g>
<!-- s_have_perf&#45;&gt;m_have_perf_measure_return -->
<g id="edge21" class="edge">
<title>s_have_perf&#45;&gt;m_have_perf_measure_return</title>
<path fill="none" stroke="#000000" d="M845.1795,-795.9561C878.9505,-781.3406 921.4282,-758.9958 953,-731 975.2143,-711.3018 994.3221,-683.3038 1005.3988,-662.2744"/>
<polygon fill="#000000" stroke="#000000" points="843.7538,-792.7588 835.9016,-799.8717 846.4756,-799.208 843.7538,-792.7588"/>
</g>
<!-- m_have_perf_info -->
<g id="node12" class="node">
<title>m_have_perf_info</title>
<polygon fill="#ffffff" stroke="transparent" points="1096,-550.5 1096,-715.5 1234,-715.5 1234,-550.5 1096,-550.5"/>
<polygon fill="#000000" stroke="transparent" points="1099,-691 1099,-712 1231,-712 1231,-691 1099,-691"/>
<text text-anchor="start" x="1154" y="-697.8" font-family="Times,serif" font-size="14.00" fill="#ffffff">info</text>
<polygon fill="#c0c0c0" stroke="transparent" points="1099,-668 1099,-689 1158,-689 1158,-668 1099,-668"/>
<text text-anchor="start" x="1127" y="-674.8" font-family="Times,serif" font-size="14.00" fill="#000000">ident</text>
<polygon fill="#c0c0c0" stroke="transparent" points="1160,-668 1160,-689 1231,-689 1231,-668 1160,-668"/>
<text text-anchor="start" x="1163" y="-674.8" font-family="Times,serif" font-size="14.00" fill="#000000">[number*8]</text>
<polygon fill="#c0c0c0" stroke="transparent" points="1099,-645 1099,-666 1158,-666 1158,-645 1099,-645"/>
<text text-anchor="start" x="1126" y="-651.8" font-family="Times,serif" font-size="14.00" fill="#000000">stype</text>
<polygon fill="#c0c0c0" stroke="transparent" points="1160,-645 1160,-666 1231,-666 1231,-645 1160,-645"/>
<text text-anchor="start" x="1163" y="-651.8" font-family="Times,serif" font-size="14.00" fill="#000000">[number*4]</text>
<polygon fill="#c0c0c0" stroke="transparent" points="1099,-622 1099,-643 1158,-643 1158,-622 1099,-622"/>
<text text-anchor="start" x="1102" y="-628.8" font-family="Times,serif" font-size="14.00" fill="#000000">endpoints</text>
<polygon fill="#c0c0c0" stroke="transparent" points="1160,-622 1160,-643 1231,-643 1231,-622 1160,-622"/>
<text text-anchor="start" x="1163" y="-628.8" font-family="Times,serif" font-size="14.00" fill="#000000">[hash]</text>
<text text-anchor="start" x="1133" y="-605.8" font-family="Times,serif" font-size="14.00" fill="#000000">lookup perf</text>
<text text-anchor="start" x="1131.5" y="-582.8" font-family="Times,serif" font-size="14.00" fill="#000000">set perf info</text>
<text text-anchor="start" x="1125" y="-559.8" font-family="Times,serif" font-size="14.00" fill="#000000">send (info_ok)</text>
<polygon fill="none" stroke="#000000" points="1096,-550.5 1096,-715.5 1234,-715.5 1234,-550.5 1096,-550.5"/>
</g>
<!-- s_have_perf&#45;&gt;m_have_perf_info -->
<g id="edge23" class="edge">
<title>s_have_perf&#45;&gt;m_have_perf_info</title>
<path fill="none" stroke="#000000" d="M837.835,-808.6555C896.431,-799.2936 996.6042,-777.735 1070,-731 1073.3414,-728.8723 1076.6279,-726.5776 1079.8542,-724.1486"/>
<polygon fill="#000000" stroke="#000000" points="1082.1118,-726.8249 1087.7469,-717.8529 1077.7467,-721.3526 1082.1118,-726.8249"/>
</g>
<!-- s_have_perf&#45;&gt;m_have_perf_info -->
<g id="edge24" class="edge">
<title>s_have_perf&#45;&gt;m_have_perf_info</title>
<path fill="none" stroke="#000000" d="M848.214,-809.0447C911.5978,-799.8972 1013.5682,-778.3947 1088,-731 1093.3463,-727.5957 1098.5519,-723.7638 1103.5718,-719.6385"/>
<polygon fill="#000000" stroke="#000000" points="847.4235,-805.6207 837.9984,-810.4599 848.3841,-812.5545 847.4235,-805.6207"/>
</g>
<!-- m_defaults_ping -->
<g id="node13" class="node">
<title>m_defaults_ping</title>
<polygon fill="#ffffff" stroke="transparent" points="302,-144 302,-194 398,-194 398,-144 302,-144"/>
<polygon fill="#000000" stroke="transparent" points="305,-170 305,-191 395,-191 395,-170 305,-170"/>
<text text-anchor="start" x="337.5" y="-176.8" font-family="Times,serif" font-size="14.00" fill="#ffffff">ping</text>
<text text-anchor="start" x="309" y="-153.8" font-family="Times,serif" font-size="14.00" fill="#000000">send (ping_ok)</text>
<polygon fill="none" stroke="#000000" points="302,-144 302,-194 398,-194 398,-144 302,-144"/>
</g>
<!-- s_defaults&#45;&gt;m_defaults_ping -->
<g id="edge26" class="edge">
<title>s_defaults&#45;&gt;m_defaults_ping</title>
<path fill="none" stroke="#000000" d="M371.078,-337.2065C363.4947,-300.0127 354.8916,-245.4076 350.8268,-208.5941"/>
<polygon fill="#000000" stroke="#000000" points="354.2672,-207.835 349.761,-198.2462 347.304,-208.5522 354.2672,-207.835"/>
</g>
<!-- s_defaults&#45;&gt;m_defaults_ping -->
<g id="edge27" class="edge">
<title>s_defaults&#45;&gt;m_defaults_ping</title>
<path fill="none" stroke="#000000" d="M380.657,-325.5169C375.6503,-285.1706 366.7208,-230.9379 359.4319,-198.0533"/>
<polygon fill="#000000" stroke="#000000" points="377.1824,-325.9386 381.8419,-335.4538 384.1331,-325.1097 377.1824,-325.9386"/>
</g>
<!-- m_defaults_goodbye -->
<g id="node14" class="node">
<title>m_defaults_goodbye</title>
<polygon fill="#ffffff" stroke="transparent" points="432.5,-132.5 432.5,-205.5 551.5,-205.5 551.5,-132.5 432.5,-132.5"/>
<polygon fill="#000000" stroke="transparent" points="436,-181 436,-202 549,-202 549,-181 436,-181"/>
<text text-anchor="start" x="469" y="-187.8" font-family="Times,serif" font-size="14.00" fill="#ffffff">goodbye</text>
<text text-anchor="start" x="440" y="-164.8" font-family="Times,serif" font-size="14.00" fill="#000000">send (goodbye_ok)</text>
<text text-anchor="start" x="466.5" y="-141.8" font-family="Times,serif" font-size="14.00" fill="#000000">terminate</text>
<polygon fill="none" stroke="#000000" points="432.5,-132.5 432.5,-205.5 551.5,-205.5 551.5,-132.5 432.5,-132.5"/>
</g>
<!-- s_defaults&#45;&gt;m_defaults_goodbye -->
<g id="edge29" class="edge">
<title>s_defaults&#45;&gt;m_defaults_goodbye</title>
<path fill="none" stroke="#000000" d="M398.3238,-338.1968C414.4297,-304.2407 439.8376,-255.2593 460.2185,-218.7274"/>
<polygon fill="#000000" stroke="#000000" points="463.4305,-220.1562 465.2831,-209.7245 457.3296,-216.724 463.4305,-220.1562"/>
</g>
<!-- s_defaults&#45;&gt;m_defaults_goodbye -->
<g id="edge30" class="edge">
<title>s_defaults&#45;&gt;m_defaults_goodbye</title>
<path fill="none" stroke="#000000" d="M411.8173,-333.5607C432.4812,-296.8776 459.3535,-245.2453 476.2761,-209.6459"/>
<polygon fill="#000000" stroke="#000000" points="408.6085,-332.1231 406.7074,-342.546 414.6933,-335.5836 408.6085,-332.1231"/>
</g>
<!-- m_defaults_expired -->
<g id="node15" class="node">
<title>m_defaults_expired</title>
<polygon fill="#ffffff" stroke="transparent" points="586,-144 586,-194 652,-194 652,-144 586,-144"/>
<polygon fill="#000000" stroke="transparent" points="589,-170 589,-191 649,-191 649,-170 589,-170"/>
<text text-anchor="start" x="598.5" y="-176.8" font-family="Times,serif" font-size="14.00" fill="#ffffff">expired</text>
<text text-anchor="start" x="593" y="-153.8" font-family="Times,serif" font-size="14.00" fill="#000000">terminate</text>
<polygon fill="none" stroke="#000000" points="586,-144 586,-194 652,-194 652,-144 586,-144"/>
</g>
<!-- s_defaults&#45;&gt;m_defaults_expired -->
<g id="edge32" class="edge">
<title>s_defaults&#45;&gt;m_defaults_expired</title>
<path fill="none" stroke="#000000" d="M410.7125,-345.613C436.3793,-320.7758 475.4453,-285.9571 511,-257 531.6768,-240.1601 538.9396,-238.5696 559,-221 564.5588,-216.1314 570.2373,-210.7759 575.7982,-205.4095"/>
<polygon fill="#000000" stroke="#000000" points="578.5559,-207.6099 583.2861,-198.1296 573.6763,-202.5909 578.5559,-207.6099"/>
</g>
<!-- s_defaults&#45;&gt;m_defaults_expired -->
<g id="edge33" class="edge">
<title>s_defaults&#45;&gt;m_defaults_expired</title>
<path fill="none" stroke="#000000" d="M424.9748,-346.043C453.9272,-321.1789 493.2396,-286.1246 529,-257 549.6768,-240.1601 556.9396,-238.5696 577,-221 585.0856,-213.9184 593.4243,-205.8067 600.6272,-198.1296"/>
<polygon fill="#000000" stroke="#000000" points="422.4264,-343.6167 417.095,-352.7724 426.9723,-348.9398 422.4264,-343.6167"/>
</g>
<!-- m_defaults_exception -->
<g id="node16" class="node">
<title>m_defaults_exception</title>
<polygon fill="#ffffff" stroke="transparent" points="8,-132.5 8,-205.5 86,-205.5 86,-132.5 8,-132.5"/>
<polygon fill="#000000" stroke="transparent" points="11,-181 11,-202 83,-202 83,-181 11,-181"/>
<text text-anchor="start" x="20.5" y="-187.8" font-family="Times,serif" font-size="14.00" fill="#ffffff">exception</text>
<text text-anchor="start" x="15" y="-164.8" font-family="Times,serif" font-size="14.00" fill="#000000">send (error)</text>
<text text-anchor="start" x="21" y="-141.8" font-family="Times,serif" font-size="14.00" fill="#000000">terminate</text>
<polygon fill="none" stroke="#000000" points="8,-132.5 8,-205.5 86,-205.5 86,-132.5 8,-132.5"/>
</g>
<!-- s_defaults&#45;&gt;m_defaults_exception -->
<g id="edge34" class="edge">
<title>s_defaults&#45;&gt;m_defaults_exception</title>
<path fill="none" stroke="#000000" d="M368.685,-338.0837C360.4556,-310.9913 347.2732,-276.6453 322,-257 241.0032,-194.04 186.2643,-265.8524 94,-221 90.8007,-219.4447 87.6573,-217.6448 84.6034,-215.6686"/>
<polygon fill="#000000" stroke="#000000" points="86.4289,-212.6708 76.2623,-209.689 82.3504,-218.3599 86.4289,-212.6708"/>
</g>
<!-- s_defaults&#45;&gt;m_defaults_exception -->
<g id="edge35" class="edge">
<title>s_defaults&#45;&gt;m_defaults_exception</title>
<path fill="none" stroke="#000000" d="M380.8306,-325.5332C374.2485,-301.0604 361.4988,-273.7114 340,-257 259.0032,-194.04 204.2643,-265.8524 112,-221 105.7953,-217.9837 99.8007,-214.0473 94.1114,-209.689"/>
<polygon fill="#000000" stroke="#000000" points="377.4728,-326.5404 383.2067,-335.4495 384.2801,-324.9092 377.4728,-326.5404"/>
</g>
<!-- m_defaults__ -->
<g id="node17" class="node">
<title>m_defaults__</title>
<polygon fill="#ffffff" stroke="transparent" points="120.5,-121 120.5,-217 267.5,-217 267.5,-121 120.5,-121"/>
<polygon fill="#000000" stroke="transparent" points="124,-193 124,-214 265,-214 265,-193 124,-193"/>
<text text-anchor="start" x="191" y="-199.8" font-family="Times,serif" font-size="14.00" fill="#ffffff">*</text>
<text text-anchor="start" x="128" y="-176.8" font-family="Times,serif" font-size="14.00" fill="#000000">signal command invalid</text>
<text text-anchor="start" x="162.5" y="-153.8" font-family="Times,serif" font-size="14.00" fill="#000000">send (error)</text>
<text text-anchor="start" x="168.5" y="-130.8" font-family="Times,serif" font-size="14.00" fill="#000000">terminate</text>
<polygon fill="none" stroke="#000000" points="120.5,-121 120.5,-217 267.5,-217 267.5,-121 120.5,-121"/>
</g>
<!-- s_defaults&#45;&gt;m_defaults__ -->
<g id="edge37" class="edge">
<title>s_defaults&#45;&gt;m_defaults__</title>
<path fill="none" stroke="#000000" d="M365.2428,-339.3636C355.7169,-313.8735 342.2482,-280.9006 322,-257 315.1691,-248.9369 300.6427,-238.0775 283.7227,-226.743"/>
<polygon fill="#000000" stroke="#000000" points="285.5218,-223.7369 275.2474,-221.1507 281.6666,-229.5796 285.5218,-223.7369"/>
</g>
<!-- s_defaults&#45;&gt;m_defaults__ -->
<g id="edge38" class="edge">
<title>s_defaults&#45;&gt;m_defaults__</title>
<path fill="none" stroke="#000000" d="M376.5457,-326.0842C369.0435,-303.1441 356.8766,-276.9208 340,-257 329.9955,-245.191 303.4845,-227.384 275.7139,-210.8707"/>
<polygon fill="#000000" stroke="#000000" points="373.2095,-327.1434 379.4755,-335.6867 379.9049,-325.1006 373.2095,-327.1434"/>
</g>
<!-- m_hello_ok -->
<g id="node18" class="node">
<title>m_hello_ok</title>
<polygon fill="#ffffff" stroke="transparent" points="686,-144 686,-194 800,-194 800,-144 686,-144"/>
<polygon fill="#000000" stroke="transparent" points="689,-170 689,-191 797,-191 797,-170 689,-170"/>
<text text-anchor="start" x="720.5" y="-176.8" font-family="Times,serif" font-size="14.00" fill="#ffffff">hello ok</text>
<polygon fill="#c0c0c0" stroke="transparent" points="689,-147 689,-168 749,-168 749,-147 689,-147"/>
<text text-anchor="start" x="692" y="-153.8" font-family="Times,serif" font-size="14.00" fill="#000000">nickname</text>
<polygon fill="#c0c0c0" stroke="transparent" points="751,-147 751,-168 797,-168 797,-147 751,-147"/>
<text text-anchor="start" x="754" y="-153.8" font-family="Times,serif" font-size="14.00" fill="#000000">[string]</text>
<polygon fill="none" stroke="#000000" points="686,-144 686,-194 800,-194 800,-144 686,-144"/>
</g>
<!-- m_start_hello&#45;&gt;m_hello_ok -->
<g id="edge6" class="edge">
<title>m_start_hello:hello_ok&#45;&gt;m_hello_ok</title>
<path fill="none" stroke="#000000" stroke-dasharray="1,5" d="M648,-354C670.009,-354 658.3363,-276.7739 668,-257 677.1569,-238.2632 691.2335,-220.2411 704.7288,-205.4395"/>
<polygon fill="#000000" stroke="#000000" points="707.4135,-207.6933 711.7038,-198.006 702.3088,-202.9034 707.4135,-207.6933"/>
</g>
<!-- m_perf_ok -->
<g id="node19" class="node">
<title>m_perf_ok</title>
<polygon fill="#ffffff" stroke="transparent" points="834.5,-144 834.5,-194 947.5,-194 947.5,-144 834.5,-144"/>
<polygon fill="#000000" stroke="transparent" points="838,-170 838,-191 945,-191 945,-170 838,-170"/>
<text text-anchor="start" x="871.5" y="-176.8" font-family="Times,serif" font-size="14.00" fill="#ffffff">perf&#45;ok</text>
<polygon fill="#c0c0c0" stroke="transparent" points="838,-147 838,-168 872,-168 872,-147 838,-147"/>
<text text-anchor="start" x="841" y="-153.8" font-family="Times,serif" font-size="14.00" fill="#000000">ident</text>
<polygon fill="#c0c0c0" stroke="transparent" points="874,-147 874,-168 945,-168 945,-147 874,-147"/>
<text text-anchor="start" x="877" y="-153.8" font-family="Times,serif" font-size="14.00" fill="#000000">[number*8]</text>
<polygon fill="none" stroke="#000000" points="834.5,-144 834.5,-194 947.5,-194 947.5,-144 834.5,-144"/>
</g>
<!-- m_connected_create&#45;&gt;m_perf_ok -->
<g id="edge9" class="edge">
<title>m_connected_create:perf_ok&#45;&gt;m_perf_ok</title>
<path fill="none" stroke="#000000" stroke-dasharray="1,5" d="M796,-343C835.2422,-343 798.3274,-292.0375 816,-257 825.3918,-238.3798 839.5127,-220.3797 852.9776,-205.563"/>
<polygon fill="#000000" stroke="#000000" points="855.6627,-207.8158 859.9306,-198.1186 850.547,-203.0378 855.6627,-207.8158"/>
</g>
<!-- m_connected_lookup&#45;&gt;m_perf_ok -->
<g id="edge12" class="edge">
<title>m_connected_lookup:perf_ok&#45;&gt;m_perf_ok</title>
<path fill="none" stroke="#000000" stroke-dasharray="1,5" d="M891,-333C891,-290.3517 891,-241.4649 891,-208.2411"/>
<polygon fill="#000000" stroke="#000000" points="894.5001,-208.0322 891,-198.0322 887.5001,-208.0323 894.5001,-208.0322"/>
</g>
<!-- m_socket_ok -->
<g id="node21" class="node">
<title>m_socket_ok</title>
<polygon fill="#ffffff" stroke="transparent" points="181.5,-330 181.5,-426 314.5,-426 314.5,-330 181.5,-330"/>
<polygon fill="#000000" stroke="transparent" points="185,-402 185,-423 312,-423 312,-402 185,-402"/>
<text text-anchor="start" x="222.5" y="-408.8" font-family="Times,serif" font-size="14.00" fill="#ffffff">socket ok</text>
<polygon fill="#c0c0c0" stroke="transparent" points="185,-379 185,-400 239,-400 239,-379 185,-379"/>
<text text-anchor="start" x="208" y="-385.8" font-family="Times,serif" font-size="14.00" fill="#000000">ident</text>
<polygon fill="#c0c0c0" stroke="transparent" points="241,-379 241,-400 312,-400 312,-379 241,-379"/>
<text text-anchor="start" x="244" y="-385.8" font-family="Times,serif" font-size="14.00" fill="#000000">[number*8]</text>
<polygon fill="#c0c0c0" stroke="transparent" points="185,-356 185,-377 239,-377 239,-356 185,-356"/>
<text text-anchor="start" x="211" y="-362.8" font-family="Times,serif" font-size="14.00" fill="#000000">borc</text>
<polygon fill="#c0c0c0" stroke="transparent" points="241,-356 241,-377 312,-377 312,-356 241,-356"/>
<text text-anchor="start" x="244" y="-362.8" font-family="Times,serif" font-size="14.00" fill="#000000">[string]</text>
<polygon fill="#c0c0c0" stroke="transparent" points="185,-333 185,-354 239,-354 239,-333 185,-333"/>
<text text-anchor="start" x="188" y="-339.8" font-family="Times,serif" font-size="14.00" fill="#000000">endpoint</text>
<polygon fill="#c0c0c0" stroke="transparent" points="241,-333 241,-354 312,-354 312,-333 241,-333"/>
<text text-anchor="start" x="244" y="-339.8" font-family="Times,serif" font-size="14.00" fill="#000000">[string]</text>
<polygon fill="none" stroke="#000000" points="181.5,-330 181.5,-426 314.5,-426 314.5,-330 181.5,-330"/>
</g>
<!-- m_have_perf_socket_return&#45;&gt;m_socket_ok -->
<g id="edge17" class="edge">
<title>m_have_perf_socket_return:socket_ok&#45;&gt;m_socket_ok</title>
<path fill="none" stroke="#000000" stroke-dasharray="1,5" d="M275,-611C275,-552.7646 266.5745,-486.883 259.1367,-440.0705"/>
<polygon fill="#000000" stroke="#000000" points="262.5732,-439.3961 257.5192,-430.0844 255.6633,-440.5154 262.5732,-439.3961"/>
</g>
<!-- m_result -->
<g id="node22" class="node">
<title>m_result</title>
<polygon fill="#ffffff" stroke="transparent" points="980.5,-261 980.5,-495 1111.5,-495 1111.5,-261 980.5,-261"/>
<polygon fill="#000000" stroke="transparent" points="984,-471 984,-492 1109,-492 1109,-471 984,-471"/>
<text text-anchor="start" x="1031" y="-477.8" font-family="Times,serif" font-size="14.00" fill="#ffffff">result</text>
<polygon fill="#c0c0c0" stroke="transparent" points="984,-448 984,-469 1036,-469 1036,-448 984,-448"/>
<text text-anchor="start" x="1005" y="-454.8" font-family="Times,serif" font-size="14.00" fill="#000000">ident</text>
<polygon fill="#c0c0c0" stroke="transparent" points="1038,-448 1038,-469 1109,-469 1109,-448 1038,-448"/>
<text text-anchor="start" x="1041" y="-454.8" font-family="Times,serif" font-size="14.00" fill="#000000">[number*8]</text>
<polygon fill="#c0c0c0" stroke="transparent" points="984,-425 984,-446 1036,-446 1036,-425 984,-425"/>
<text text-anchor="start" x="987" y="-431.8" font-family="Times,serif" font-size="14.00" fill="#000000">measure</text>
<polygon fill="#c0c0c0" stroke="transparent" points="1038,-425 1038,-446 1109,-446 1109,-425 1038,-425"/>
<text text-anchor="start" x="1041" y="-431.8" font-family="Times,serif" font-size="14.00" fill="#000000">[string]</text>
<polygon fill="#c0c0c0" stroke="transparent" points="984,-402 984,-423 1036,-423 1036,-402 984,-402"/>
<text text-anchor="start" x="997" y="-408.8" font-family="Times,serif" font-size="14.00" fill="#000000">nmsgs</text>
<polygon fill="#c0c0c0" stroke="transparent" points="1038,-402 1038,-423 1109,-423 1109,-402 1038,-402"/>
<text text-anchor="start" x="1041" y="-408.8" font-family="Times,serif" font-size="14.00" fill="#000000">[number*4]</text>
<polygon fill="#c0c0c0" stroke="transparent" points="984,-379 984,-400 1036,-400 1036,-379 984,-379"/>
<text text-anchor="start" x="988" y="-385.8" font-family="Times,serif" font-size="14.00" fill="#000000">msgsize</text>
<polygon fill="#c0c0c0" stroke="transparent" points="1038,-379 1038,-400 1109,-400 1109,-379 1038,-379"/>
<text text-anchor="start" x="1041" y="-385.8" font-family="Times,serif" font-size="14.00" fill="#000000">[number*8]</text>
<polygon fill="#c0c0c0" stroke="transparent" points="984,-356 984,-377 1036,-377 1036,-356 984,-356"/>
<text text-anchor="start" x="990" y="-362.8" font-family="Times,serif" font-size="14.00" fill="#000000">timeout</text>
<polygon fill="#c0c0c0" stroke="transparent" points="1038,-356 1038,-377 1109,-377 1109,-356 1038,-356"/>
<text text-anchor="start" x="1041" y="-362.8" font-family="Times,serif" font-size="14.00" fill="#000000">[number*4]</text>
<polygon fill="#c0c0c0" stroke="transparent" points="984,-333 984,-354 1036,-354 1036,-333 984,-333"/>
<text text-anchor="start" x="989" y="-339.8" font-family="Times,serif" font-size="14.00" fill="#000000">time_us</text>
<polygon fill="#c0c0c0" stroke="transparent" points="1038,-333 1038,-354 1109,-354 1109,-333 1038,-333"/>
<text text-anchor="start" x="1041" y="-339.8" font-family="Times,serif" font-size="14.00" fill="#000000">[number*8]</text>
<polygon fill="#c0c0c0" stroke="transparent" points="984,-310 984,-331 1036,-331 1036,-310 984,-310"/>
<text text-anchor="start" x="994" y="-316.8" font-family="Times,serif" font-size="14.00" fill="#000000">cpu_us</text>
<polygon fill="#c0c0c0" stroke="transparent" points="1038,-310 1038,-331 1109,-331 1109,-310 1038,-310"/>
<text text-anchor="start" x="1041" y="-316.8" font-family="Times,serif" font-size="14.00" fill="#000000">[number*8]</text>
<polygon fill="#c0c0c0" stroke="transparent" points="984,-287 984,-308 1036,-308 1036,-287 984,-287"/>
<text text-anchor="start" x="1007" y="-293.8" font-family="Times,serif" font-size="14.00" fill="#000000">noos</text>
<polygon fill="#c0c0c0" stroke="transparent" points="1038,-287 1038,-308 1109,-308 1109,-287 1038,-287"/>
<text text-anchor="start" x="1041" y="-293.8" font-family="Times,serif" font-size="14.00" fill="#000000">[number*4]</text>
<polygon fill="#c0c0c0" stroke="transparent" points="984,-264 984,-285 1036,-285 1036,-264 984,-264"/>
<text text-anchor="start" x="997" y="-270.8" font-family="Times,serif" font-size="14.00" fill="#000000">nbytes</text>
<polygon fill="#c0c0c0" stroke="transparent" points="1038,-264 1038,-285 1109,-285 1109,-264 1038,-264"/>
<text text-anchor="start" x="1041" y="-270.8" font-family="Times,serif" font-size="14.00" fill="#000000">[number*8]</text>
<polygon fill="none" stroke="#000000" points="980.5,-261 980.5,-495 1111.5,-495 1111.5,-261 980.5,-261"/>
</g>
<!-- m_have_perf_measure_return&#45;&gt;m_result -->
<g id="edge22" class="edge">
<title>m_have_perf_measure_return:result&#45;&gt;m_result</title>
<path fill="none" stroke="#000000" stroke-dasharray="1,5" d="M1014,-611C1014,-577.8821 1017.2123,-542.3606 1021.6013,-509.2831"/>
<polygon fill="#000000" stroke="#000000" points="1025.1064,-509.4846 1022.9989,-499.1015 1018.1714,-508.5325 1025.1064,-509.4846"/>
</g>
<!-- m_info_ok -->
<g id="node20" class="node">
<title>m_info_ok</title>
<polygon fill="#ffffff" stroke="transparent" points="1145.5,-341.5 1145.5,-414.5 1274.5,-414.5 1274.5,-341.5 1145.5,-341.5"/>
<polygon fill="#000000" stroke="transparent" points="1149,-390 1149,-411 1272,-411 1272,-390 1149,-390"/>
<text text-anchor="start" x="1190.5" y="-396.8" font-family="Times,serif" font-size="14.00" fill="#ffffff">info&#45;ok</text>
<polygon fill="#c0c0c0" stroke="transparent" points="1149,-367 1149,-388 1199,-388 1199,-367 1149,-367"/>
<text text-anchor="start" x="1168" y="-373.8" font-family="Times,serif" font-size="14.00" fill="#000000">ident</text>
<polygon fill="#c0c0c0" stroke="transparent" points="1201,-367 1201,-388 1272,-388 1272,-367 1201,-367"/>
<text text-anchor="start" x="1204" y="-373.8" font-family="Times,serif" font-size="14.00" fill="#000000">[number*8]</text>
<polygon fill="#c0c0c0" stroke="transparent" points="1149,-344 1149,-365 1199,-365 1199,-344 1149,-344"/>
<text text-anchor="start" x="1152" y="-350.8" font-family="Times,serif" font-size="14.00" fill="#000000">perfinfo</text>
<polygon fill="#c0c0c0" stroke="transparent" points="1201,-344 1201,-365 1272,-365 1272,-344 1201,-344"/>
<text text-anchor="start" x="1204" y="-350.8" font-family="Times,serif" font-size="14.00" fill="#000000">[string]</text>
<polygon fill="none" stroke="#000000" points="1145.5,-341.5 1145.5,-414.5 1274.5,-414.5 1274.5,-341.5 1145.5,-341.5"/>
</g>
<!-- m_have_perf_info&#45;&gt;m_info_ok -->
<g id="edge25" class="edge">
<title>m_have_perf_info:info_ok&#45;&gt;m_info_ok</title>
<path fill="none" stroke="#000000" stroke-dasharray="1,5" d="M1165,-553C1165,-510.0294 1177.8836,-462.9406 1189.8635,-428.4433"/>
<polygon fill="#000000" stroke="#000000" points="1193.3074,-429.2062 1193.3715,-418.6115 1186.7145,-426.8538 1193.3074,-429.2062"/>
</g>
<!-- m_ping_ok -->
<g id="node23" class="node">
<title>m_ping_ok</title>
<polygon fill="#ffffff" stroke="transparent" points="323,-27 323,-54 377,-54 377,-27 323,-27"/>
<polygon fill="#000000" stroke="transparent" points="326,-29.5 326,-50.5 374,-50.5 374,-29.5 326,-29.5"/>
<text text-anchor="start" x="329" y="-36.3" font-family="Times,serif" font-size="14.00" fill="#ffffff">ping ok</text>
<polygon fill="none" stroke="#000000" points="323,-27 323,-54 377,-54 377,-27 323,-27"/>
</g>
<!-- m_defaults_ping&#45;&gt;m_ping_ok -->
<g id="edge28" class="edge">
<title>m_defaults_ping:ping_ok&#45;&gt;m_ping_ok</title>
<path fill="none" stroke="#000000" stroke-dasharray="1,5" d="M350,-147C350,-120.427 350,-90.1245 350,-68.655"/>
<polygon fill="#000000" stroke="#000000" points="353.5001,-68.5901 350,-58.5902 346.5001,-68.5902 353.5001,-68.5901"/>
</g>
<!-- m_goodbye_ok -->
<g id="node24" class="node">
<title>m_goodbye_ok</title>
<polygon fill="#ffffff" stroke="transparent" points="455,-27 455,-54 531,-54 531,-27 455,-27"/>
<polygon fill="#000000" stroke="transparent" points="458,-29.5 458,-50.5 528,-50.5 528,-29.5 458,-29.5"/>
<text text-anchor="start" x="461" y="-36.3" font-family="Times,serif" font-size="14.00" fill="#ffffff">goodbye ok</text>
<polygon fill="none" stroke="#000000" points="455,-27 455,-54 531,-54 531,-27 455,-27"/>
</g>
<!-- m_defaults_goodbye&#45;&gt;m_goodbye_ok -->
<g id="edge31" class="edge">
<title>m_defaults_goodbye:goodbye_ok&#45;&gt;m_goodbye_ok</title>
<path fill="none" stroke="#000000" stroke-dasharray="1,5" d="M549,-168C592.8292,-168 546.4987,-104.0599 515.7236,-66.7394"/>
<polygon fill="#000000" stroke="#000000" points="518.1551,-64.1912 509.0537,-58.7676 512.7864,-68.6832 518.1551,-64.1912"/>
</g>
<!-- m_error -->
<g id="node25" class="node">
<title>m_error</title>
<polygon fill="#ffffff" stroke="transparent" points="60.5,-4 60.5,-77 181.5,-77 181.5,-4 60.5,-4"/>
<polygon fill="#000000" stroke="transparent" points="64,-52.5 64,-73.5 179,-73.5 179,-52.5 64,-52.5"/>
<text text-anchor="start" x="108" y="-59.3" font-family="Times,serif" font-size="14.00" fill="#ffffff">error</text>
<polygon fill="#c0c0c0" stroke="transparent" points="64,-29.5 64,-50.5 106,-50.5 106,-29.5 64,-29.5"/>
<text text-anchor="start" x="72" y="-36.3" font-family="Times,serif" font-size="14.00" fill="#000000">status</text>
<polygon fill="#c0c0c0" stroke="transparent" points="108,-29.5 108,-50.5 179,-50.5 179,-29.5 108,-29.5"/>
<text text-anchor="start" x="111" y="-36.3" font-family="Times,serif" font-size="14.00" fill="#000000">[number*2]</text>
<polygon fill="#c0c0c0" stroke="transparent" points="64,-6.5 64,-27.5 106,-27.5 106,-6.5 64,-6.5"/>
<text text-anchor="start" x="67" y="-13.3" font-family="Times,serif" font-size="14.00" fill="#000000">reason</text>
<polygon fill="#c0c0c0" stroke="transparent" points="108,-6.5 108,-27.5 179,-27.5 179,-6.5 108,-6.5"/>
<text text-anchor="start" x="111" y="-13.3" font-family="Times,serif" font-size="14.00" fill="#000000">[string]</text>
<polygon fill="none" stroke="#000000" points="60.5,-4 60.5,-77 181.5,-77 181.5,-4 60.5,-4"/>
</g>
<!-- m_defaults_exception&#45;&gt;m_error -->
<g id="edge36" class="edge">
<title>m_defaults_exception:error&#45;&gt;m_error</title>
<path fill="none" stroke="#000000" stroke-dasharray="1,5" d="M83,-168C87.2093,-168 98.9489,-126.6473 108.2765,-91.043"/>
<polygon fill="#000000" stroke="#000000" points="111.7087,-91.7511 110.8351,-81.1923 104.9335,-89.9913 111.7087,-91.7511"/>
</g>
<!-- m_defaults__&#45;&gt;m_error -->
<g id="edge39" class="edge">
<title>m_defaults__:error&#45;&gt;m_error</title>
<path fill="none" stroke="#000000" stroke-dasharray="1,5" d="M124,-157C109.9424,-157 110.2623,-122.6733 113.493,-91.2862"/>
<polygon fill="#000000" stroke="#000000" points="116.9824,-91.5763 114.6297,-81.246 110.0268,-90.7888 116.9824,-91.5763"/>
</g>
</g>
</svg>
