<?xml version="1.0" encoding="UTF-8" standalone="no"?>
<!DOCTYPE svg PUBLIC "-//W3C//DTD SVG 1.1//EN"
 "http://www.w3.org/Graphics/SVG/1.1/DTD/svg11.dtd">
<!-- Generated by graphviz version 2.40.1 (20161225.0304)
 -->
<!-- Title: sm Pages: 1 -->
<svg width="471pt" height="1157pt"
 viewBox="0.00 0.00 471.00 1157.07" xmlns="http://www.w3.org/2000/svg" xmlns:xlink="http://www.w3.org/1999/xlink">
<g id="graph0" class="graph" transform="scale(1 1) rotate(0) translate(4 1153.0745)">
<title>sm</title>
<polygon fill="#ffffff" stroke="transparent" points="-4,4 -4,-1153.0745 467,-1153.0745 467,4 -4,4"/>
<!-- network -->
<g id="node1" class="node">
<title>network</title>
<polygon fill="none" stroke="#000000" points="376.8399,-1115.6187 376.8399,-1130.5304 351.7449,-1141.0745 316.2551,-1141.0745 291.1601,-1130.5304 291.1601,-1115.6187 316.2551,-1105.0745 351.7449,-1105.0745 376.8399,-1115.6187"/>
<polygon fill="none" stroke="#000000" points="380.8331,-1112.9589 380.8331,-1133.1902 352.5484,-1145.0745 315.4516,-1145.0745 287.1669,-1133.1902 287.1669,-1112.9589 315.4516,-1101.0745 352.5484,-1101.0745 380.8331,-1112.9589"/>
<polygon fill="none" stroke="#000000" points="384.8262,-1110.299 384.8262,-1135.85 353.352,-1149.0745 314.648,-1149.0745 283.1738,-1135.85 283.1738,-1110.299 314.648,-1097.0745 353.352,-1097.0745 384.8262,-1110.299"/>
<text text-anchor="middle" x="334" y="-1119.3745" font-family="Times,serif" font-size="14.00" fill="#000000">network</text>
</g>
<!-- dealer -->
<g id="node8" class="node">
<title>dealer</title>
<polygon fill="none" stroke="#000000" points="295.5,-976.5745 295.5,-1060.5745 376.5,-1060.5745 376.5,-976.5745 295.5,-976.5745"/>
<text text-anchor="middle" x="314" y="-1045.3745" font-family="Times,serif" font-size="14.00" fill="#000000">in</text>
<polyline fill="none" stroke="#000000" points="332.5,-1037.5745 332.5,-1060.5745 "/>
<text text-anchor="middle" x="354.5" y="-1045.3745" font-family="Times,serif" font-size="14.00" fill="#000000">out</text>
<polyline fill="none" stroke="#000000" points="295.5,-1037.5745 376.5,-1037.5745 "/>
<text text-anchor="middle" x="336" y="-1022.3745" font-family="Times,serif" font-size="14.00" fill="#000000">DEALER</text>
<text text-anchor="middle" x="336" y="-1007.3745" font-family="Times,serif" font-size="14.00" fill="#000000">socket</text>
<polyline fill="none" stroke="#000000" points="295.5,-999.5745 376.5,-999.5745 "/>
<text text-anchor="middle" x="315.5" y="-984.3745" font-family="Times,serif" font-size="14.00" fill="#000000">recv</text>
<polyline fill="none" stroke="#000000" points="335.5,-976.5745 335.5,-999.5745 "/>
<text text-anchor="middle" x="356" y="-984.3745" font-family="Times,serif" font-size="14.00" fill="#000000">send</text>
</g>
<!-- network&#45;&gt;dealer -->
<g id="edge1" class="edge">
<title>network&#45;&gt;dealer:i</title>
<path fill="none" stroke="#000000" d="M321.6753,-1096.8971C318.685,-1088.9251 315.9882,-1079.8582 314.737,-1070.7766"/>
<polygon fill="#000000" stroke="#000000" points="318.2115,-1070.2963 314,-1060.5745 311.2297,-1070.8007 318.2115,-1070.2963"/>
</g>
<!-- network&#45;&gt;dealer -->
<g id="edge2" class="edge">
<title>network&#45;&gt;dealer:o</title>
<path fill="none" stroke="#000000" d="M350.3785,-1087.2709C353.0692,-1078.7036 355,-1069.4601 355,-1060.5745"/>
<polygon fill="#000000" stroke="#000000" points="346.9876,-1086.3609 346.9409,-1096.9557 353.5844,-1088.7025 346.9876,-1086.3609"/>
</g>
<!-- protocol_message_in -->
<g id="node2" class="node">
<title>protocol_message_in</title>
<ellipse fill="none" stroke="#000000" cx="269" cy="-902.5979" rx="62.8651" ry="37.4533"/>
<text text-anchor="middle" x="269" y="-913.8979" font-family="Times,serif" font-size="14.00" fill="#000000">protocol</text>
<text text-anchor="middle" x="269" y="-898.8979" font-family="Times,serif" font-size="14.00" fill="#000000">message</text>
<text text-anchor="middle" x="269" y="-883.8979" font-family="Times,serif" font-size="14.00" fill="#000000">(from server)</text>
</g>
<!-- handle_protocol -->
<g id="node9" class="node">
<title>handle_protocol</title>
<polygon fill="none" stroke="#0000ff" points="322,-829.1212 216,-829.1212 216,-793.1212 322,-793.1212 322,-829.1212"/>
<text text-anchor="middle" x="269" y="-807.4212" font-family="Times,serif" font-size="14.00" fill="#000000">protocol handler</text>
</g>
<!-- protocol_message_in&#45;&gt;handle_protocol -->
<g id="edge4" class="edge">
<title>protocol_message_in&#45;&gt;handle_protocol</title>
<path fill="none" stroke="#000000" d="M269,-864.8627C269,-856.4714 269,-847.7093 269,-839.7538"/>
<polygon fill="#000000" stroke="#000000" points="272.5001,-839.5159 269,-829.516 265.5001,-839.516 272.5001,-839.5159"/>
</g>
<!-- protocol_message_out -->
<g id="node3" class="node">
<title>protocol_message_out</title>
<ellipse fill="none" stroke="#000000" cx="402" cy="-902.5979" rx="51.7379" ry="37.4533"/>
<text text-anchor="middle" x="402" y="-913.8979" font-family="Times,serif" font-size="14.00" fill="#000000">protocol</text>
<text text-anchor="middle" x="402" y="-898.8979" font-family="Times,serif" font-size="14.00" fill="#000000">message</text>
<text text-anchor="middle" x="402" y="-883.8979" font-family="Times,serif" font-size="14.00" fill="#000000">(to server)</text>
</g>
<!-- handle_msgpipe -->
<g id="node11" class="node">
<title>handle_msgpipe</title>
<polygon fill="none" stroke="#0000ff" points="397.5,-36 290.5,-36 290.5,0 397.5,0 397.5,-36"/>
<text text-anchor="middle" x="344" y="-14.3" font-family="Times,serif" font-size="14.00" fill="#000000">msgpipe handler</text>
</g>
<!-- protocol_message_out&#45;&gt;handle_msgpipe -->
<g id="edge21" class="edge">
<title>protocol_message_out&#45;&gt;handle_msgpipe</title>
<path fill="none" stroke="#000000" d="M425.6422,-858.2201C442.7951,-821.8803 463,-768.5781 463,-719.1212 463,-719.1212 463,-719.1212 463,-200.9533 463,-130.8558 400.8544,-66.527 366.383,-36.2365"/>
<polygon fill="#000000" stroke="#000000" points="422.3372,-857.0149 421.1334,-867.5411 428.6387,-860.0631 422.3372,-857.0149"/>
</g>
<!-- protocol_send -->
<g id="node18" class="node">
<title>protocol_send</title>
<polygon fill="none" stroke="#00ff00" points="435,-550.9533 345,-550.9533 345,-512.9533 435,-512.9533 435,-550.9533"/>
<text text-anchor="middle" x="390" y="-535.7533" font-family="Times,serif" font-size="14.00" fill="#000000">action</text>
<text text-anchor="middle" x="390" y="-520.7533" font-family="Times,serif" font-size="14.00" fill="#000000">protocol send</text>
</g>
<!-- protocol_message_out&#45;&gt;protocol_send -->
<g id="edge13" class="edge">
<title>protocol_message_out&#45;&gt;protocol_send</title>
<path fill="none" stroke="#000000" d="M400.4568,-854.9316C397.7928,-772.6489 392.4419,-607.3777 390.6223,-551.1729"/>
<polygon fill="#000000" stroke="#000000" points="396.9615,-855.1373 400.7833,-865.0188 403.9578,-854.9107 396.9615,-855.1373"/>
</g>
<!-- command_message_request -->
<g id="node4" class="node">
<title>command_message_request</title>
<ellipse fill="none" stroke="#000000" cx="182" cy="-109.4767" rx="50.41" ry="37.4533"/>
<text text-anchor="middle" x="182" y="-120.7767" font-family="Times,serif" font-size="14.00" fill="#000000">command</text>
<text text-anchor="middle" x="182" y="-105.7767" font-family="Times,serif" font-size="14.00" fill="#000000">message</text>
<text text-anchor="middle" x="182" y="-90.7767" font-family="Times,serif" font-size="14.00" fill="#000000">request</text>
</g>
<!-- handle_cmdpipe -->
<g id="node10" class="node">
<title>handle_cmdpipe</title>
<polygon fill="none" stroke="#0000ff" points="223,-36 115,-36 115,0 223,0 223,-36"/>
<text text-anchor="middle" x="169" y="-14.3" font-family="Times,serif" font-size="14.00" fill="#000000">cmdpipe handler</text>
</g>
<!-- command_message_request&#45;&gt;handle_cmdpipe -->
<g id="edge8" class="edge">
<title>command_message_request&#45;&gt;handle_cmdpipe</title>
<path fill="none" stroke="#000000" d="M176.6749,-72.0057C175.4463,-63.3602 174.1597,-54.3071 172.9988,-46.1379"/>
<polygon fill="#000000" stroke="#000000" points="176.4326,-45.4246 171.5604,-36.0165 169.5023,-46.4095 176.4326,-45.4246"/>
</g>
<!-- async_message_in -->
<g id="node5" class="node">
<title>async_message_in</title>
<ellipse fill="none" stroke="#000000" cx="331" cy="-109.4767" rx="44.5955" ry="37.4533"/>
<text text-anchor="middle" x="331" y="-120.7767" font-family="Times,serif" font-size="14.00" fill="#000000">async</text>
<text text-anchor="middle" x="331" y="-105.7767" font-family="Times,serif" font-size="14.00" fill="#000000">message</text>
<text text-anchor="middle" x="331" y="-90.7767" font-family="Times,serif" font-size="14.00" fill="#000000">in</text>
</g>
<!-- async_message_in&#45;&gt;handle_msgpipe -->
<g id="edge25" class="edge">
<title>async_message_in&#45;&gt;handle_msgpipe</title>
<path fill="none" stroke="#000000" d="M336.3251,-72.0057C337.5537,-63.3602 338.8403,-54.3071 340.0012,-46.1379"/>
<polygon fill="#000000" stroke="#000000" points="343.4977,-46.4095 341.4396,-36.0165 336.5674,-45.4246 343.4977,-46.4095"/>
</g>
<!-- command_message_reply -->
<g id="node6" class="node">
<title>command_message_reply</title>
<ellipse fill="none" stroke="#000000" cx="184" cy="-438.9533" rx="50.41" ry="37.4533"/>
<text text-anchor="middle" x="184" y="-450.2533" font-family="Times,serif" font-size="14.00" fill="#000000">command</text>
<text text-anchor="middle" x="184" y="-435.2533" font-family="Times,serif" font-size="14.00" fill="#000000">message</text>
<text text-anchor="middle" x="184" y="-420.2533" font-family="Times,serif" font-size="14.00" fill="#000000">reply</text>
</g>
<!-- api_method -->
<g id="node13" class="node">
<title>api_method</title>
<polygon fill="none" stroke="#0000ff" points="236,-218.9533 132,-218.9533 132,-182.9533 236,-182.9533 236,-218.9533"/>
<text text-anchor="middle" x="184" y="-197.2533" font-family="Times,serif" font-size="14.00" fill="#000000">api_command()</text>
</g>
<!-- command_message_reply&#45;&gt;api_method -->
<g id="edge16" class="edge">
<title>command_message_reply&#45;&gt;api_method</title>
<path fill="none" stroke="#000000" d="M184,-401.2415C184,-353.3916 184,-271.9529 184,-229.1502"/>
<polygon fill="#000000" stroke="#000000" points="187.5001,-229.1445 184,-219.1446 180.5001,-229.1446 187.5001,-229.1445"/>
</g>
<!-- async_message_out -->
<g id="node7" class="node">
<title>async_message_out</title>
<ellipse fill="none" stroke="#000000" cx="297" cy="-438.9533" rx="44.5955" ry="37.4533"/>
<text text-anchor="middle" x="297" y="-450.2533" font-family="Times,serif" font-size="14.00" fill="#000000">async</text>
<text text-anchor="middle" x="297" y="-435.2533" font-family="Times,serif" font-size="14.00" fill="#000000">message</text>
<text text-anchor="middle" x="297" y="-420.2533" font-family="Times,serif" font-size="14.00" fill="#000000">out</text>
</g>
<!-- client_recv -->
<g id="node12" class="node">
<title>client_recv</title>
<polygon fill="none" stroke="#0000ff" points="340,-364.9533 254,-364.9533 254,-328.9533 340,-328.9533 340,-364.9533"/>
<text text-anchor="middle" x="297" y="-343.2533" font-family="Times,serif" font-size="14.00" fill="#000000">client_recv()</text>
</g>
<!-- async_message_out&#45;&gt;client_recv -->
<g id="edge19" class="edge">
<title>async_message_out&#45;&gt;client_recv</title>
<path fill="none" stroke="#000000" d="M297,-401.2679C297,-392.573 297,-383.4682 297,-375.2522"/>
<polygon fill="#000000" stroke="#000000" points="300.5001,-375.0729 297,-365.0729 293.5001,-375.073 300.5001,-375.0729"/>
</g>
<!-- dealer&#45;&gt;protocol_message_in -->
<g id="edge3" class="edge">
<title>dealer:r&#45;&gt;protocol_message_in</title>
<path fill="none" stroke="#000000" d="M315,-976.5745C315,-965.1113 310.9674,-953.951 305.2903,-943.9193"/>
<polygon fill="#000000" stroke="#000000" points="308.2266,-942.0138 299.9379,-935.4147 302.3022,-945.7424 308.2266,-942.0138"/>
</g>
<!-- dealer&#45;&gt;protocol_message_out -->
<g id="edge12" class="edge">
<title>dealer:s&#45;&gt;protocol_message_out</title>
<path fill="none" stroke="#000000" d="M357.0063,-966.4539C359.3274,-954.5527 365.3936,-943.2697 372.3474,-933.5924"/>
<polygon fill="#000000" stroke="#000000" points="353.5066,-966.2773 356,-976.5745 360.4723,-966.9699 353.5066,-966.2773"/>
</g>
<!-- protocol_event -->
<g id="node15" class="node">
<title>protocol_event</title>
<polygon fill="none" stroke="#0000ff" points="269,-757.1212 207,-719.1212 269,-681.1212 331,-719.1212 269,-757.1212"/>
<text text-anchor="middle" x="269" y="-722.9212" font-family="Times,serif" font-size="14.00" fill="#000000">protocol</text>
<text text-anchor="middle" x="269" y="-707.9212" font-family="Times,serif" font-size="14.00" fill="#000000">event</text>
</g>
<!-- handle_protocol&#45;&gt;protocol_event -->
<g id="edge5" class="edge">
<title>handle_protocol&#45;&gt;protocol_event</title>
<path fill="none" stroke="#000000" d="M269,-792.945C269,-785.5637 269,-776.6515 269,-767.6107"/>
<polygon fill="#000000" stroke="#000000" points="272.5001,-767.4234 269,-757.4235 265.5001,-767.4235 272.5001,-767.4234"/>
</g>
<!-- app_code -->
<g id="node21" class="node">
<title>app_code</title>
<polygon fill="none" stroke="#00ff00" points="337,-292.9533 269,-292.9533 269,-296.9533 257,-296.9533 257,-254.9533 337,-254.9533 337,-292.9533"/>
<polyline fill="none" stroke="#00ff00" points="257,-292.9533 269,-292.9533 "/>
<text text-anchor="middle" x="297" y="-277.7533" font-family="Times,serif" font-size="14.00" fill="#000000">Application</text>
<text text-anchor="middle" x="297" y="-262.7533" font-family="Times,serif" font-size="14.00" fill="#000000">(app) code</text>
</g>
<!-- client_recv&#45;&gt;app_code -->
<g id="edge20" class="edge">
<title>client_recv&#45;&gt;app_code</title>
<path fill="none" stroke="#000000" d="M297,-328.9084C297,-321.164 297,-311.9155 297,-303.2344"/>
<polygon fill="#000000" stroke="#000000" points="300.5001,-303.0661 297,-293.0662 293.5001,-303.0662 300.5001,-303.0661"/>
</g>
<!-- api_method&#45;&gt;command_message_request -->
<g id="edge7" class="edge">
<title>api_method&#45;&gt;command_message_request</title>
<path fill="none" stroke="#000000" d="M183.6049,-182.8805C183.4427,-175.4656 183.2467,-166.4969 183.048,-157.4123"/>
<polygon fill="#000000" stroke="#000000" points="186.5422,-157.104 182.8244,-147.1829 179.5439,-157.2571 186.5422,-157.104"/>
</g>
<!-- api_message -->
<g id="node14" class="node">
<title>api_message</title>
<polygon fill="none" stroke="#0000ff" points="353.5,-218.9533 258.5,-218.9533 258.5,-182.9533 353.5,-182.9533 353.5,-218.9533"/>
<text text-anchor="middle" x="306" y="-197.2533" font-family="Times,serif" font-size="14.00" fill="#000000">api_message()</text>
</g>
<!-- api_message&#45;&gt;async_message_in -->
<g id="edge24" class="edge">
<title>api_message&#45;&gt;async_message_in</title>
<path fill="none" stroke="#000000" d="M310.9392,-182.8805C313.0726,-175.0743 315.6766,-165.5459 318.2928,-155.9732"/>
<polygon fill="#000000" stroke="#000000" points="321.7441,-156.6207 321.0043,-146.0518 314.9917,-154.7753 321.7441,-156.6207"/>
</g>
<!-- state_machine -->
<g id="node17" class="node">
<title>state_machine</title>
<polygon fill="none" stroke="#0000ff" points="317.4372,-603.9554 317.4372,-628.1191 289.0634,-645.2054 248.9366,-645.2054 220.5628,-628.1191 220.5628,-603.9554 248.9366,-586.8691 289.0634,-586.8691 317.4372,-603.9554"/>
<text text-anchor="middle" x="269" y="-619.8373" font-family="Times,serif" font-size="14.00" fill="#000000">state</text>
<text text-anchor="middle" x="269" y="-604.8373" font-family="Times,serif" font-size="14.00" fill="#000000">machine</text>
</g>
<!-- protocol_event&#45;&gt;state_machine -->
<g id="edge6" class="edge">
<title>protocol_event&#45;&gt;state_machine</title>
<path fill="none" stroke="#000000" d="M269,-681.0294C269,-672.6299 269,-663.7179 269,-655.274"/>
<polygon fill="#000000" stroke="#000000" points="272.5001,-655.2722 269,-645.2722 265.5001,-655.2722 272.5001,-655.2722"/>
</g>
<!-- method_event -->
<g id="node16" class="node">
<title>method_event</title>
<polygon fill="none" stroke="#0000ff" points="58,-476.9533 0,-438.9533 58,-400.9533 116,-438.9533 58,-476.9533"/>
<text text-anchor="middle" x="58" y="-442.7533" font-family="Times,serif" font-size="14.00" fill="#000000">method</text>
<text text-anchor="middle" x="58" y="-427.7533" font-family="Times,serif" font-size="14.00" fill="#000000">event</text>
</g>
<!-- method_event&#45;&gt;handle_cmdpipe -->
<g id="edge10" class="edge">
<title>method_event&#45;&gt;handle_cmdpipe</title>
<path fill="none" stroke="#000000" d="M67.3425,-395.8218C73.7132,-362.6643 81,-315.6293 81,-273.9533 81,-273.9533 81,-273.9533 81,-200.9533 81,-140.6775 93.5633,-124.599 123,-72 130.3376,-58.8888 141.1287,-46.0102 150.4152,-36.1202"/>
<polygon fill="#000000" stroke="#000000" points="63.9064,-395.1568 65.4039,-405.6452 70.7739,-396.5121 63.9064,-395.1568"/>
</g>
<!-- state_machine&#45;&gt;method_event -->
<g id="edge9" class="edge">
<title>state_machine&#45;&gt;method_event</title>
<path fill="none" stroke="#000000" d="M210.9145,-601.7248C179.8116,-591.6862 142.5506,-575.5681 116,-550.9533 92.3949,-529.0693 76.7746,-495.3883 67.7523,-470.6741"/>
<polygon fill="#000000" stroke="#000000" points="210.1875,-605.1635 220.7751,-604.7736 212.2552,-598.4758 210.1875,-605.1635"/>
</g>
<!-- state_machine&#45;&gt;protocol_send -->
<g id="edge11" class="edge">
<title>state_machine&#45;&gt;protocol_send</title>
<path fill="none" stroke="#000000" d="M301.1081,-593.7251C317.325,-582.4558 337.0616,-568.7407 353.8144,-557.099"/>
<polygon fill="#000000" stroke="#000000" points="356.054,-559.8048 362.2686,-551.2241 352.0594,-554.0565 356.054,-559.8048"/>
</g>
<!-- cmdpipe_send -->
<g id="node19" class="node">
<title>cmdpipe_send</title>
<polygon fill="none" stroke="#00ff00" points="217,-550.9533 125,-550.9533 125,-512.9533 217,-512.9533 217,-550.9533"/>
<text text-anchor="middle" x="171" y="-535.7533" font-family="Times,serif" font-size="14.00" fill="#000000">action</text>
<text text-anchor="middle" x="171" y="-520.7533" font-family="Times,serif" font-size="14.00" fill="#000000">cmdpipe send</text>
</g>
<!-- state_machine&#45;&gt;cmdpipe_send -->
<g id="edge14" class="edge">
<title>state_machine&#45;&gt;cmdpipe_send</title>
<path fill="none" stroke="#000000" d="M240.6543,-591.7167C228.3194,-581.1333 213.8471,-568.7161 201.2995,-557.9503"/>
<polygon fill="#000000" stroke="#000000" points="203.2422,-555.0054 193.3738,-551.15 198.684,-560.318 203.2422,-555.0054"/>
</g>
<!-- msgpipe_send -->
<g id="node20" class="node">
<title>msgpipe_send</title>
<polygon fill="none" stroke="#00ff00" points="327,-550.9533 235,-550.9533 235,-512.9533 327,-512.9533 327,-550.9533"/>
<text text-anchor="middle" x="281" y="-535.7533" font-family="Times,serif" font-size="14.00" fill="#000000">action</text>
<text text-anchor="middle" x="281" y="-520.7533" font-family="Times,serif" font-size="14.00" fill="#000000">msgpipe send</text>
</g>
<!-- state_machine&#45;&gt;msgpipe_send -->
<g id="edge17" class="edge">
<title>state_machine&#45;&gt;msgpipe_send</title>
<path fill="none" stroke="#000000" d="M273.197,-586.6288C274.3756,-578.3707 275.6564,-569.3957 276.8332,-561.15"/>
<polygon fill="#000000" stroke="#000000" points="280.3046,-561.5985 278.2526,-551.2043 273.3748,-560.6095 280.3046,-561.5985"/>
</g>
<!-- cmdpipe_send&#45;&gt;command_message_reply -->
<g id="edge15" class="edge">
<title>cmdpipe_send&#45;&gt;command_message_reply</title>
<path fill="none" stroke="#000000" d="M173.6936,-512.6837C174.775,-504.9475 176.0734,-495.6588 177.3784,-486.3233"/>
<polygon fill="#000000" stroke="#000000" points="180.8688,-486.6345 178.787,-476.2462 173.9362,-485.6654 180.8688,-486.6345"/>
</g>
<!-- msgpipe_send&#45;&gt;async_message_out -->
<g id="edge18" class="edge">
<title>msgpipe_send&#45;&gt;async_message_out</title>
<path fill="none" stroke="#000000" d="M284.3152,-512.6837C285.6462,-504.9475 287.2442,-495.6588 288.8503,-486.3233"/>
<polygon fill="#000000" stroke="#000000" points="292.3377,-486.6949 290.584,-476.2462 285.4391,-485.508 292.3377,-486.6949"/>
</g>
<!-- app_code&#45;&gt;api_method -->
<g id="edge22" class="edge">
<title>app_code&#45;&gt;api_method</title>
<path fill="none" stroke="#000000" d="M258.5717,-249.128C246.2629,-241.1762 232.6751,-232.3983 220.5074,-224.5378"/>
<polygon fill="#000000" stroke="#000000" points="257.0116,-252.2869 267.3106,-254.7734 260.8101,-246.4071 257.0116,-252.2869"/>
<polygon fill="#000000" stroke="#000000" points="222.2361,-221.4877 211.9371,-219.0012 218.4376,-227.3675 222.2361,-221.4877"/>
</g>
<!-- app_code&#45;&gt;api_message -->
<g id="edge23" class="edge">
<title>app_code&#45;&gt;api_message</title>
<path fill="none" stroke="#000000" d="M299.3646,-254.7734C300.3273,-246.965 301.4597,-237.7798 302.5139,-229.2297"/>
<polygon fill="#000000" stroke="#000000" points="305.9942,-229.6038 303.7442,-219.2507 299.0468,-228.7472 305.9942,-229.6038"/>
</g>
</g>
</svg>
